<svg width="424" height="317" viewBox="0 0 424 317" fill="none" xmlns="http://www.w3.org/2000/svg">
<path d="M113.977 74.9575H104.611V84.3272H113.977V74.9575Z" fill="#030730"/>
<path d="M113.977 84.3271H104.611V93.6969H113.977V84.3271Z" fill="#030730"/>
<path d="M123.343 74.9575H113.977V84.3272H123.343V74.9575Z" fill="#030730"/>
<path d="M123.343 84.3271H113.977V93.6969H123.343V84.3271Z" fill="#00FFAF"/>
<path d="M113.977 93.6973H104.611V103.067H113.977V93.6973Z" fill="#00FFAF"/>
<path d="M104.611 103.067H95.2451V112.437H104.611V103.067Z" fill="#00FFAF"/>
<path d="M132.709 74.9575H123.343V84.3272H132.709V74.9575Z" fill="#030730"/>
<path d="M132.709 84.3271H123.343V93.6969H132.709V84.3271Z" fill="#00FFAF"/>
<path d="M142.074 74.9575H132.708V84.3272H142.074V74.9575Z" fill="#030730"/>
<path d="M142.074 84.3271H132.708V93.6969H142.074V84.3271Z" fill="#00FFAF"/>
<path d="M151.44 74.9575H142.074V84.3272H151.44V74.9575Z" fill="#030730"/>
<path d="M151.44 84.3271H142.074V93.6969H151.44V84.3271Z" fill="#00FFAF"/>
<path d="M160.806 74.9575H151.44V84.3272H160.806V74.9575Z" fill="#030730"/>
<path d="M160.806 84.3271H151.44V93.6969H160.806V84.3271Z" fill="#00FFAF"/>
<path d="M170.171 74.9575H160.806V84.3272H170.171V74.9575Z" fill="#030730"/>
<path d="M170.171 84.3271H160.806V93.6969H170.171V84.3271Z" fill="#00FFAF"/>
<path d="M179.537 74.9575H170.171V84.3272H179.537V74.9575Z" fill="#030730"/>
<path d="M179.537 84.3271H170.171V93.6969H179.537V84.3271Z" fill="#00FFAF"/>
<path d="M188.903 74.9575H179.537V84.3272H188.903V74.9575Z" fill="#030730"/>
<path d="M188.903 84.3271H179.537V93.6969H188.903V84.3271Z" fill="#00FFAF"/>
<path d="M198.269 74.9575H188.903V84.3272H198.269V74.9575Z" fill="#030730"/>
<path d="M198.269 84.3271H188.903V93.6969H198.269V84.3271Z" fill="#00FFAF"/>
<path d="M207.634 74.9575H198.269V84.3272H207.634V74.9575Z" fill="#030730"/>
<path d="M207.634 84.3271H198.269V93.6969H207.634V84.3271Z" fill="#00FFAF"/>
<path d="M217 74.9575H207.634V84.3272H217V74.9575Z" fill="#030730"/>
<path d="M217 84.3271H207.634V93.6969H217V84.3271Z" fill="#00FFAF"/>
<path d="M226.366 74.9575H217V84.3272H226.366V74.9575Z" fill="#030730"/>
<path d="M226.366 84.3271H217V93.6969H226.366V84.3271Z" fill="#00FFAF"/>
<path d="M104.611 84.3271H95.2451V93.6969H104.611V84.3271Z" fill="#030730"/>
<path d="M104.611 93.6973H95.2451V103.067H104.611V93.6973Z" fill="#030730"/>
<path d="M95.2452 93.6973H85.8794V103.067H95.2452V93.6973Z" fill="#030730"/>
<path d="M123.343 93.6973H113.977V103.067H123.343V93.6973Z" fill="#030730"/>
<path d="M123.343 103.067H113.977V112.437H123.343V103.067Z" fill="#030730"/>
<path d="M132.709 93.6973H123.343V103.067H132.709V93.6973Z" fill="#030730"/>
<path d="M142.074 93.6973H132.708V103.067H142.074V93.6973Z" fill="#030730"/>
<path d="M151.44 93.6973H142.074V103.067H151.44V93.6973Z" fill="#030730"/>
<path d="M160.806 93.6973H151.44V103.067H160.806V93.6973Z" fill="#030730"/>
<path d="M170.171 93.6973H160.806V103.067H170.171V93.6973Z" fill="#030730"/>
<path d="M179.537 93.6973H170.171V103.067H179.537V93.6973Z" fill="#030730"/>
<path d="M188.903 93.6973H179.537V103.067H188.903V93.6973Z" fill="#030730"/>
<path d="M198.269 93.6973H188.903V103.067H198.269V93.6973Z" fill="#030730"/>
<path d="M207.634 93.6973H198.269V103.067H207.634V93.6973Z" fill="#030730"/>
<path d="M217 93.6973H207.634V103.067H217V93.6973Z" fill="#030730"/>
<path d="M226.366 93.6973H217V103.067H226.366V93.6973Z" fill="#030730"/>
<path d="M132.709 103.067H123.343V112.437H132.709V103.067Z" fill="white"/>
<path d="M142.074 103.067H132.708V112.437H142.074V103.067Z" fill="white"/>
<path d="M151.44 103.067H142.074V112.437H151.44V103.067Z" fill="white"/>
<path d="M160.806 103.067H151.44V112.437H160.806V103.067Z" fill="white"/>
<path d="M170.171 103.067H160.806V112.437H170.171V103.067Z" fill="white"/>
<path d="M179.537 103.067H170.171V112.437H179.537V103.067Z" fill="white"/>
<path d="M188.903 103.067H179.537V112.437H188.903V103.067Z" fill="white"/>
<path d="M198.269 103.067H188.903V112.437H198.269V103.067Z" fill="white"/>
<path d="M207.634 103.067H198.269V112.437H207.634V103.067Z" fill="white"/>
<path d="M217 103.067H207.634V112.437H217V103.067Z" fill="white"/>
<path d="M226.366 103.067H217V112.437H226.366V103.067Z" fill="white"/>
<path d="M123.343 112.437H113.977V121.806H123.343V112.437Z" fill="white"/>
<path d="M132.709 112.437H123.343V121.806H132.709V112.437Z" fill="white"/>
<path d="M142.074 112.437H132.708V121.806H142.074V112.437Z" fill="white"/>
<path d="M151.44 112.437H142.074V121.806H151.44V112.437Z" fill="white"/>
<path d="M160.806 112.437H151.44V121.806H160.806V112.437Z" fill="white"/>
<path d="M170.171 112.437H160.806V121.806H170.171V112.437Z" fill="white"/>
<path d="M179.537 112.437H170.171V121.806H179.537V112.437Z" fill="white"/>
<path d="M142.074 121.806H132.708V131.176H142.074V121.806Z" fill="#030730"/>
<path d="M151.44 121.806H142.074V131.176H151.44V121.806Z" fill="#030730"/>
<path d="M160.806 121.806H151.44V131.176H160.806V121.806Z" fill="#030730"/>
<path d="M170.171 121.806H160.806V131.176H170.171V121.806Z" fill="#030730"/>
<path d="M179.537 121.806H170.171V131.176H179.537V121.806Z" fill="#030730"/>
<path d="M142.074 159.285H132.708V168.655H142.074V159.285Z" fill="#030730"/>
<path d="M151.44 159.285H142.074V168.655H151.44V159.285Z" fill="#030730"/>
<path d="M160.806 159.285H151.44V168.655H160.806V159.285Z" fill="#030730"/>
<path d="M170.171 159.285H160.806V168.655H170.171V159.285Z" fill="#030730"/>
<path d="M179.537 159.285H170.171V168.655H179.537V159.285Z" fill="#030730"/>
<path d="M142.074 168.655H132.708V178.025H142.074V168.655Z" fill="white"/>
<path d="M151.44 168.655H142.074V178.025H151.44V168.655Z" fill="white"/>
<path d="M160.806 168.655H151.44V178.025H160.806V168.655Z" fill="white"/>
<path d="M170.171 168.655H160.806V178.025H170.171V168.655Z" fill="white"/>
<path d="M179.537 168.655H170.171V178.025H179.537V168.655Z" fill="white"/>
<path d="M142.074 178.024H132.708V187.394H142.074V178.024Z" fill="#030730"/>
<path d="M151.44 178.024H142.074V187.394H151.44V178.024Z" fill="#030730"/>
<path d="M160.806 178.024H151.44V187.394H160.806V178.024Z" fill="#030730"/>
<path d="M170.171 178.024H160.806V187.394H170.171V178.024Z" fill="#030730"/>
<path d="M179.537 178.024H170.171V187.394H179.537V178.024Z" fill="#030730"/>
<path d="M188.903 178.024H179.537V187.394H188.903V178.024Z" fill="#030730"/>
<path d="M198.269 178.024H188.903V187.394H198.269V178.024Z" fill="#030730"/>
<path d="M207.634 178.024H198.269V187.394H207.634V178.024Z" fill="#030730"/>
<path d="M217 178.024H207.634V187.394H217V178.024Z" fill="#030730"/>
<path d="M226.366 178.024H217V187.394H226.366V178.024Z" fill="#030730"/>
<path d="M235.732 178.024H226.366V187.394H235.732V178.024Z" fill="#030730"/>
<path d="M245.098 178.024H235.732V187.394H245.098V178.024Z" fill="#030730"/>
<path d="M142.074 131.176H132.708V140.545H142.074V131.176Z" fill="#030730"/>
<path d="M151.44 131.176H142.074V140.545H151.44V131.176Z" fill="#00FFAF"/>
<path d="M160.806 131.176H151.44V140.545H160.806V131.176Z" fill="#00FFAF"/>
<path d="M170.171 131.176H160.806V140.545H170.171V131.176Z" fill="#00FFAF"/>
<path d="M179.537 131.176H170.171V140.545H179.537V131.176Z" fill="#030730"/>
<path d="M142.074 140.545H132.708V149.915H142.074V140.545Z" fill="#030730"/>
<path d="M151.44 140.545H142.074V149.915H151.44V140.545Z" fill="#00FFAF"/>
<path d="M160.806 140.545H151.44V149.915H160.806V140.545Z" fill="#00FFAF"/>
<path d="M170.171 140.545H160.806V149.915H170.171V140.545Z" fill="#00FFAF"/>
<path d="M179.537 140.545H170.171V149.915H179.537V140.545Z" fill="#030730"/>
<path d="M142.074 149.915H132.708V159.285H142.074V149.915Z" fill="#030730"/>
<path d="M151.44 149.915H142.074V159.285H151.44V149.915Z" fill="#00FFAF"/>
<path d="M160.806 149.915H151.44V159.285H160.806V149.915Z" fill="#00FFAF"/>
<path d="M170.171 149.915H160.806V159.285H170.171V149.915Z" fill="#00FFAF"/>
<path d="M179.537 149.915H170.171V159.285H179.537V149.915Z" fill="#030730"/>
<path d="M188.903 112.437H179.537V121.806H188.903V112.437Z" fill="white"/>
<path d="M198.269 112.437H188.903V121.806H198.269V112.437Z" fill="white"/>
<path d="M188.903 121.806H179.537V131.176H188.903V121.806Z" fill="white"/>
<path d="M198.269 121.806H188.903V131.176H198.269V121.806Z" fill="white"/>
<path d="M207.634 121.806H198.269V131.176H207.634V121.806Z" fill="white"/>
<path d="M188.903 131.176H179.537V140.545H188.903V131.176Z" fill="white"/>
<path d="M198.269 131.176H188.903V140.545H198.269V131.176Z" fill="white"/>
<path d="M188.903 140.545H179.537V149.915H188.903V140.545Z" fill="white"/>
<path d="M198.269 140.545H188.903V149.915H198.269V140.545Z" fill="white"/>
<path d="M188.903 149.915H179.537V159.285H188.903V149.915Z" fill="white"/>
<path d="M198.269 149.915H188.903V159.285H198.269V149.915Z" fill="white"/>
<path d="M188.903 159.285H179.537V168.655H188.903V159.285Z" fill="white"/>
<path d="M198.269 159.285H188.903V168.655H198.269V159.285Z" fill="white"/>
<path d="M188.903 168.655H179.537V178.025H188.903V168.655Z" fill="white"/>
<path d="M198.269 168.655H188.903V178.025H198.269V168.655Z" fill="white"/>
<path d="M207.634 149.915H198.269V159.285H207.634V149.915Z" fill="white"/>
<path d="M207.634 140.545H198.269V149.915H207.634V140.545Z" fill="#030730"/>
<path d="M217 149.915H207.634V159.285H217V149.915Z" fill="white"/>
<path d="M217 140.545H207.634V149.915H217V140.545Z" fill="#030730"/>
<path d="M217 131.176H207.634V140.545H217V131.176Z" fill="#030730"/>
<path d="M226.366 140.545H217V149.915H226.366V140.545Z" fill="#030730"/>
<path d="M235.732 140.545H226.366V149.915H235.732V140.545Z" fill="#030730"/>
<path d="M245.098 140.545H235.732V149.915H245.098V140.545Z" fill="#030730"/>
<path d="M245.098 149.915H235.732V159.285H245.098V149.915Z" fill="#030730"/>
<path d="M254.463 149.915H245.098V159.285H254.463V149.915Z" fill="#030730"/>
<path d="M254.463 159.285H245.098V168.655H254.463V159.285Z" fill="#030730"/>
<path d="M263.829 159.285H254.463V168.655H263.829V159.285Z" fill="#030730"/>
<path d="M263.829 168.655H254.463V178.025H263.829V168.655Z" fill="#030730"/>
<path d="M273.195 168.655H263.829V178.025H273.195V168.655Z" fill="#030730"/>
<path d="M282.561 178.024H273.195V187.394H282.561V178.024Z" fill="#030730"/>
<path d="M291.926 178.024H282.561V187.394H291.926V178.024Z" fill="#030730"/>
<path d="M301.292 187.394H291.926V196.764H301.292V187.394Z" fill="#030730"/>
<path d="M310.658 187.394H301.292V196.764H310.658V187.394Z" fill="#030730"/>
<path d="M320.023 187.394H310.658V196.764H320.023V187.394Z" fill="#030730"/>
<path d="M329.39 187.394H320.024V196.764H329.39V187.394Z" fill="#030730"/>
<path d="M338.755 187.394H329.389V196.764H338.755V187.394Z" fill="#030730"/>
<path d="M348.121 187.394H338.755V196.764H348.121V187.394Z" fill="#030730"/>
<path d="M226.366 121.806H217V131.176H226.366V121.806Z" fill="#030730"/>
<path d="M235.732 112.437H226.366V121.806H235.732V112.437Z" fill="#030730"/>
<path d="M235.732 103.067H226.366V112.437H235.732V103.067Z" fill="#030730"/>
<path d="M235.732 93.6973H226.366V103.067H235.732V93.6973Z" fill="#030730"/>
<path d="M235.732 84.3271H226.366V93.6969H235.732V84.3271Z" fill="#030730"/>
<path d="M235.732 74.9575H226.366V84.3272H235.732V74.9575Z" fill="#030730"/>
<path d="M245.098 65.5879H235.732V74.9576H245.098V65.5879Z" fill="#030730"/>
<path d="M245.098 56.2183H235.732V65.588H245.098V56.2183Z" fill="#030730"/>
<path d="M254.463 46.8486H245.098V56.2183H254.463V46.8486Z" fill="#030730"/>
<path d="M263.829 37.479H254.463V46.8487H263.829V37.479Z" fill="#030730"/>
<path d="M273.195 28.1089H263.829V37.4786H273.195V28.1089Z" fill="#030730"/>
<path d="M282.561 18.7393H273.195V28.109H282.561V18.7393Z" fill="#030730"/>
<path d="M291.926 9.36963H282.561V18.7393H291.926V9.36963Z" fill="#030730"/>
<path d="M301.292 9.36963H291.926V18.7393H301.292V9.36963Z" fill="#030730"/>
<path d="M310.658 9.36963H301.292V18.7393H310.658V9.36963Z" fill="#030730"/>
<path d="M320.023 0H310.658V9.36971H320.023V0Z" fill="#030730"/>
<path d="M329.39 0H320.024V9.36971H329.39V0Z" fill="#030730"/>
<path d="M338.755 0H329.389V9.36971H338.755V0Z" fill="#030730"/>
<path d="M348.121 0H338.755V9.36971H348.121V0Z" fill="#030730"/>
<path d="M357.487 9.354H348.121V18.7237H357.487V9.354Z" fill="#030730"/>
<path d="M366.853 9.354H357.487V18.7237H366.853V9.354Z" fill="#030730"/>
<path d="M376.218 18.7314H366.853V28.1012H376.218V18.7314Z" fill="#030730"/>
<path d="M384.788 28.105H375.422V37.4747H384.788V28.105Z" fill="#030730"/>
<path d="M394.95 37.4771H385.584V46.8468H394.95V37.4771Z" fill="#030730"/>
<path d="M404.315 46.8486H394.95V56.2183H404.315V46.8486Z" fill="#030730"/>
<path d="M413.681 56.2183H404.315V65.588H413.681V56.2183Z" fill="#030730"/>
<path d="M423.047 65.5879H413.681V74.9576H423.047V65.5879Z" fill="#030730"/>
<path d="M413.681 65.5879H404.315V74.9576H413.681V65.5879Z" fill="white"/>
<path d="M207.634 159.285H198.269V168.655H207.634V159.285Z" fill="white"/>
<path d="M217 159.285H207.634V168.655H217V159.285Z" fill="white"/>
<path d="M207.634 168.655H198.269V178.025H207.634V168.655Z" fill="white"/>
<path d="M217 168.655H207.634V178.025H217V168.655Z" fill="white"/>
<path d="M226.366 149.915H217V159.285H226.366V149.915Z" fill="white"/>
<path d="M235.732 149.915H226.366V159.285H235.732V149.915Z" fill="white"/>
<path d="M226.366 159.285H217V168.655H226.366V159.285Z" fill="white"/>
<path d="M235.732 159.285H226.366V168.655H235.732V159.285Z" fill="white"/>
<path d="M226.366 168.655H217V178.025H226.366V168.655Z" fill="white"/>
<path d="M235.732 168.655H226.366V178.025H235.732V168.655Z" fill="white"/>
<path d="M245.098 159.285H235.732V168.655H245.098V159.285Z" fill="white"/>
<path d="M245.098 168.655H235.732V178.025H245.098V168.655Z" fill="white"/>
<path d="M254.463 168.655H245.098V178.025H254.463V168.655Z" fill="white"/>
<path d="M123.343 159.285H113.977V168.655H123.343V159.285Z" fill="white"/>
<path d="M132.709 159.285H123.343V168.655H132.709V159.285Z" fill="white"/>
<path d="M123.343 168.655H113.977V178.025H123.343V168.655Z" fill="white"/>
<path d="M132.709 168.655H123.343V178.025H132.709V168.655Z" fill="white"/>
<path d="M142.074 187.394H132.708V196.764H142.074V187.394Z" fill="white"/>
<path d="M151.44 187.394H142.074V196.764H151.44V187.394Z" fill="white"/>
<path d="M160.806 187.394H151.44V196.764H160.806V187.394Z" fill="white"/>
<path d="M170.171 187.394H160.806V196.764H170.171V187.394Z" fill="white"/>
<path d="M179.537 187.394H170.171V196.764H179.537V187.394Z" fill="white"/>
<path d="M188.903 187.394H179.537V196.764H188.903V187.394Z" fill="white"/>
<path d="M198.269 187.394H188.903V196.764H198.269V187.394Z" fill="white"/>
<path d="M207.634 187.394H198.269V196.764H207.634V187.394Z" fill="white"/>
<path d="M217 187.394H207.634V196.764H217V187.394Z" fill="white"/>
<path d="M226.366 187.394H217V196.764H226.366V187.394Z" fill="white"/>
<path d="M235.732 187.394H226.366V196.764H235.732V187.394Z" fill="white"/>
<path d="M245.098 187.394H235.732V196.764H245.098V187.394Z" fill="white"/>
<path d="M254.463 187.394H245.098V196.764H254.463V187.394Z" fill="white"/>
<path d="M263.829 187.394H254.463V196.764H263.829V187.394Z" fill="white"/>
<path d="M207.634 206.133H198.269V215.503H207.634V206.133Z" fill="white"/>
<path d="M217 206.133H207.634V215.503H217V206.133Z" fill="white"/>
<path d="M226.366 206.133H217V215.503H226.366V206.133Z" fill="white"/>
<path d="M235.732 206.133H226.366V215.503H235.732V206.133Z" fill="white"/>
<path d="M245.098 206.133H235.732V215.503H245.098V206.133Z" fill="white"/>
<path d="M254.463 206.133H245.098V215.503H254.463V206.133Z" fill="white"/>
<path d="M263.829 206.133H254.463V215.503H263.829V206.133Z" fill="white"/>
<path d="M142.074 206.133H132.708V215.503H142.074V206.133Z" fill="white"/>
<path d="M151.44 206.133H142.074V215.503H151.44V206.133Z" fill="white"/>
<path d="M132.709 206.133H123.343V215.503H132.709V206.133Z" fill="white"/>
<path d="M160.806 206.133H151.44V215.503H160.806V206.133Z" fill="white"/>
<path d="M170.171 206.133H160.806V215.503H170.171V206.133Z" fill="white"/>
<path d="M179.537 206.133H170.171V215.503H179.537V206.133Z" fill="white"/>
<path d="M188.903 206.133H179.537V215.503H188.903V206.133Z" fill="white"/>
<path d="M198.269 206.133H188.903V215.503H198.269V206.133Z" fill="white"/>
<path d="M273.195 206.133H263.829V215.503H273.195V206.133Z" fill="white"/>
<path d="M282.561 206.133H273.195V215.503H282.561V206.133Z" fill="white"/>
<path d="M291.926 206.133H282.561V215.503H291.926V206.133Z" fill="white"/>
<path d="M301.292 206.133H291.926V215.503H301.292V206.133Z" fill="white"/>
<path d="M310.658 206.133H301.292V215.503H310.658V206.133Z" fill="white"/>
<path d="M320.023 206.133H310.658V215.503H320.023V206.133Z" fill="white"/>
<path d="M273.195 196.764H263.829V206.133H273.195V196.764Z" fill="white"/>
<path d="M282.561 196.764H273.195V206.133H282.561V196.764Z" fill="white"/>
<path d="M291.926 196.764H282.561V206.133H291.926V196.764Z" fill="white"/>
<path d="M273.195 187.394H263.829V196.764H273.195V187.394Z" fill="white"/>
<path d="M254.463 178.024H245.098V187.394H254.463V178.024Z" fill="white"/>
<path d="M263.829 178.024H254.463V187.394H263.829V178.024Z" fill="white"/>
<path d="M273.195 178.024H263.829V187.394H273.195V178.024Z" fill="white"/>
<path d="M282.561 187.394H273.195V196.764H282.561V187.394Z" fill="white"/>
<path d="M291.926 187.394H282.561V196.764H291.926V187.394Z" fill="white"/>
<path d="M301.292 196.764H291.926V206.133H301.292V196.764Z" fill="white"/>
<path d="M310.658 196.764H301.292V206.133H310.658V196.764Z" fill="white"/>
<path d="M320.023 196.764H310.658V206.133H320.023V196.764Z" fill="white"/>
<path d="M329.39 196.764H320.024V206.133H329.39V196.764Z" fill="white"/>
<path d="M301.292 178.024H291.926V187.394H301.292V178.024Z" fill="white"/>
<path d="M310.658 178.024H301.292V187.394H310.658V178.024Z" fill="white"/>
<path d="M282.561 168.655H273.195V178.025H282.561V168.655Z" fill="white"/>
<path d="M291.926 168.655H282.561V178.025H291.926V168.655Z" fill="white"/>
<path d="M273.195 159.285H263.829V168.655H273.195V159.285Z" fill="white"/>
<path d="M282.561 159.285H273.195V168.655H282.561V159.285Z" fill="white"/>
<path d="M263.829 149.915H254.463V159.285H263.829V149.915Z" fill="white"/>
<path d="M273.195 149.915H263.829V159.285H273.195V149.915Z" fill="white"/>
<path d="M291.926 159.285H282.561V168.655H291.926V159.285Z" fill="white"/>
<path d="M282.561 149.915H273.195V159.285H282.561V149.915Z" fill="white"/>
<path d="M273.195 140.545H263.829V149.915H273.195V140.545Z" fill="white"/>
<path d="M301.292 149.915H291.926V159.285H301.292V149.915Z" fill="#030730"/>
<path d="M291.926 140.545H282.561V149.915H291.926V140.545Z" fill="#030730"/>
<path d="M301.292 131.176H291.926V140.545H301.292V131.176Z" fill="white"/>
<path d="M282.561 131.176H273.195V140.545H282.561V131.176Z" fill="#030730"/>
<path d="M254.463 140.545H245.098V149.915H254.463V140.545Z" fill="white"/>
<path d="M263.829 140.545H254.463V149.915H263.829V140.545Z" fill="white"/>
<path d="M226.366 131.176H217V140.545H226.366V131.176Z" fill="white"/>
<path d="M235.732 131.176H226.366V140.545H235.732V131.176Z" fill="white"/>
<path d="M245.098 131.176H235.732V140.545H245.098V131.176Z" fill="white"/>
<path d="M254.463 131.176H245.098V140.545H254.463V131.176Z" fill="white"/>
<path d="M235.732 121.806H226.366V131.176H235.732V121.806Z" fill="white"/>
<path d="M245.098 121.806H235.732V131.176H245.098V121.806Z" fill="white"/>
<path d="M245.098 112.437H235.732V121.806H245.098V112.437Z" fill="white"/>
<path d="M245.098 103.067H235.732V112.437H245.098V103.067Z" fill="white"/>
<path d="M245.098 93.6973H235.732V103.067H245.098V93.6973Z" fill="white"/>
<path d="M245.098 84.3271H235.732V93.6969H245.098V84.3271Z" fill="white"/>
<path d="M245.098 74.9575H235.732V84.3272H245.098V74.9575Z" fill="white"/>
<path d="M254.463 121.806H245.098V131.176H254.463V121.806Z" fill="white"/>
<path d="M254.463 112.437H245.098V121.806H254.463V112.437Z" fill="white"/>
<path d="M254.463 103.067H245.098V112.437H254.463V103.067Z" fill="white"/>
<path d="M254.463 93.6973H245.098V103.067H254.463V93.6973Z" fill="#030730"/>
<path d="M254.463 84.3271H245.098V93.6969H254.463V84.3271Z" fill="#030730"/>
<path d="M254.463 74.9575H245.098V84.3272H254.463V74.9575Z" fill="white"/>
<path d="M254.463 65.5879H245.098V74.9576H254.463V65.5879Z" fill="white"/>
<path d="M254.463 56.2183H245.098V65.588H254.463V56.2183Z" fill="white"/>
<path d="M263.829 56.2183H254.463V65.588H263.829V56.2183Z" fill="white"/>
<path d="M263.829 46.8486H254.463V56.2183H263.829V46.8486Z" fill="white"/>
<path d="M273.195 46.8486H263.829V56.2183H273.195V46.8486Z" fill="white"/>
<path d="M273.195 37.479H263.829V46.8487H273.195V37.479Z" fill="white"/>
<path d="M282.561 37.479H273.195V46.8487H282.561V37.479Z" fill="white"/>
<path d="M282.561 28.1089H273.195V37.4786H282.561V28.1089Z" fill="white"/>
<path d="M291.926 28.1089H282.561V37.4786H291.926V28.1089Z" fill="white"/>
<path d="M291.926 18.7393H282.561V28.109H291.926V18.7393Z" fill="white"/>
<path d="M301.292 28.1089H291.926V37.4786H301.292V28.1089Z" fill="#030730"/>
<path d="M301.292 18.7393H291.926V28.109H301.292V18.7393Z" fill="white"/>
<path d="M310.658 28.1089H301.292V37.4786H310.658V28.1089Z" fill="#030730"/>
<path d="M310.658 18.7393H301.292V28.109H310.658V18.7393Z" fill="white"/>
<path d="M310.658 46.8486H301.292V56.2183H310.658V46.8486Z" fill="white"/>
<path d="M310.658 37.479H301.292V46.8487H310.658V37.479Z" fill="white"/>
<path d="M310.658 65.5879H301.292V74.9576H310.658V65.5879Z" fill="white"/>
<path d="M320.023 65.5879H310.658V74.9576H320.023V65.5879Z" fill="white"/>
<path d="M310.658 74.9575H301.292V84.3272H310.658V74.9575Z" fill="white"/>
<path d="M320.023 74.9575H310.658V84.3272H320.023V74.9575Z" fill="white"/>
<path d="M310.658 56.2183H301.292V65.588H310.658V56.2183Z" fill="white"/>
<path d="M320.023 28.1089H310.658V37.4786H320.023V28.1089Z" fill="white"/>
<path d="M320.023 18.7393H310.658V28.109H320.023V18.7393Z" fill="white"/>
<path d="M320.023 46.8486H310.658V56.2183H320.023V46.8486Z" fill="white"/>
<path d="M320.023 37.479H310.658V46.8487H320.023V37.479Z" fill="white"/>
<path d="M320.023 56.2183H310.658V65.588H320.023V56.2183Z" fill="white"/>
<path d="M329.39 28.1089H320.024V37.4786H329.39V28.1089Z" fill="white"/>
<path d="M329.39 18.7393H320.024V28.109H329.39V18.7393Z" fill="white"/>
<path d="M329.39 46.8486H320.024V56.2183H329.39V46.8486Z" fill="white"/>
<path d="M329.39 37.479H320.024V46.8487H329.39V37.479Z" fill="white"/>
<path d="M329.39 56.2183H320.024V65.588H329.39V56.2183Z" fill="white"/>
<path d="M338.755 28.1089H329.389V37.4786H338.755V28.1089Z" fill="white"/>
<path d="M348.121 28.1089H338.755V37.4786H348.121V28.1089Z" fill="white"/>
<path d="M357.487 28.1089H348.121V37.4786H357.487V28.1089Z" fill="white"/>
<path d="M366.854 37.4771H357.489V46.8468H366.854V37.4771Z" fill="#030730"/>
<path d="M376.218 46.8486H366.853V56.2183H376.218V46.8486Z" fill="white"/>
<path d="M385.584 56.2183H376.218V65.588H385.584V56.2183Z" fill="white"/>
<path d="M376.218 65.5879H366.853V74.9576H376.218V65.5879Z" fill="white"/>
<path d="M366.853 65.5879H357.487V74.9576H366.853V65.5879Z" fill="white"/>
<path d="M366.853 56.2173H357.487V65.587H366.853V56.2173Z" fill="white"/>
<path d="M376.218 56.2183H366.853V65.588H376.218V56.2183Z" fill="#030730"/>
<path d="M366.853 46.8486H357.487V56.2183H366.853V46.8486Z" fill="#030730"/>
<path d="M385.584 65.5879H376.218V74.9576H385.584V65.5879Z" fill="#030730"/>
<path d="M394.95 65.5879H385.584V74.9576H394.95V65.5879Z" fill="#030730"/>
<path d="M394.95 56.2183H385.584V65.588H394.95V56.2183Z" fill="white"/>
<path d="M404.315 65.5879H394.95V74.9576H404.315V65.5879Z" fill="white"/>
<path d="M404.315 56.2183H394.95V65.588H404.315V56.2183Z" fill="white"/>
<path d="M385.584 46.8486H376.218V56.2183H385.584V46.8486Z" fill="white"/>
<path d="M394.95 46.8486H385.584V56.2183H394.95V46.8486Z" fill="white"/>
<path d="M385.584 37.4771H376.218V46.8468H385.584V37.4771Z" fill="white"/>
<path d="M376.218 37.479H366.853V46.8487H376.218V37.479Z" fill="white"/>
<path d="M376.218 28.1089H366.853V37.4786H376.218V28.1089Z" fill="white"/>
<path d="M366.854 28.105H357.489V37.4747H366.854V28.105Z" fill="white"/>
<path d="M366.854 18.7314H357.489V28.1012H366.854V18.7314Z" fill="white"/>
<path d="M357.487 18.7314H348.121V28.1012H357.487V18.7314Z" fill="white"/>
<path d="M348.121 18.7393H338.755V28.109H348.121V18.7393Z" fill="white"/>
<path d="M338.755 18.7393H329.389V28.109H338.755V18.7393Z" fill="white"/>
<path d="M320.023 9.36963H310.658V18.7393H320.023V9.36963Z" fill="white"/>
<path d="M329.39 9.36963H320.024V18.7393H329.39V9.36963Z" fill="white"/>
<path d="M348.121 9.36963H338.755V18.7393H348.121V9.36963Z" fill="white"/>
<path d="M338.755 9.36963H329.389V18.7393H338.755V9.36963Z" fill="white"/>
<path d="M338.755 46.8486H329.389V56.2183H338.755V46.8486Z" fill="white"/>
<path d="M338.755 37.479H329.389V46.8487H338.755V37.479Z" fill="white"/>
<path d="M348.122 37.479H338.756V46.8487H348.122V37.479Z" fill="white"/>
<path d="M357.487 37.479H348.121V46.8487H357.487V37.479Z" fill="white"/>
<path d="M338.755 56.2183H329.389V65.588H338.755V56.2183Z" fill="white"/>
<path d="M329.39 65.5879H320.024V74.9576H329.39V65.5879Z" fill="white"/>
<path d="M338.755 65.5879H329.389V74.9576H338.755V65.5879Z" fill="white"/>
<path d="M348.121 46.8486H338.755V56.2183H348.121V46.8486Z" fill="white"/>
<path d="M348.121 56.2183H338.755V65.588H348.121V56.2183Z" fill="white"/>
<path d="M348.121 65.5879H338.755V74.9576H348.121V65.5879Z" fill="white"/>
<path d="M301.292 46.8486H291.926V56.2183H301.292V46.8486Z" fill="white"/>
<path d="M301.292 37.479H291.926V46.8487H301.292V37.479Z" fill="white"/>
<path d="M301.292 65.5879H291.926V74.9576H301.292V65.5879Z" fill="white"/>
<path d="M301.292 74.9575H291.926V84.3272H301.292V74.9575Z" fill="white"/>
<path d="M301.292 56.2183H291.926V65.588H301.292V56.2183Z" fill="white"/>
<path d="M291.926 46.8486H282.561V56.2183H291.926V46.8486Z" fill="white"/>
<path d="M291.926 37.479H282.561V46.8487H291.926V37.479Z" fill="#030730"/>
<path d="M291.926 65.5879H282.561V74.9576H291.926V65.5879Z" fill="white"/>
<path d="M291.926 56.2183H282.561V65.588H291.926V56.2183Z" fill="white"/>
<path d="M282.561 46.8486H273.195V56.2183H282.561V46.8486Z" fill="#030730"/>
<path d="M282.561 65.5879H273.195V74.9576H282.561V65.5879Z" fill="white"/>
<path d="M282.561 56.2183H273.195V65.588H282.561V56.2183Z" fill="white"/>
<path d="M273.195 65.5879H263.829V74.9576H273.195V65.5879Z" fill="white"/>
<path d="M263.829 65.5879H254.463V74.9576H263.829V65.5879Z" fill="#030730"/>
<path d="M291.926 74.9575H282.561V84.3272H291.926V74.9575Z" fill="white"/>
<path d="M282.561 74.9575H273.195V84.3272H282.561V74.9575Z" fill="white"/>
<path d="M273.195 74.9575H263.829V84.3272H273.195V74.9575Z" fill="white"/>
<path d="M263.829 74.9575H254.463V84.3272H263.829V74.9575Z" fill="#030730"/>
<path d="M291.926 84.3271H282.561V93.6969H291.926V84.3271Z" fill="white"/>
<path d="M282.561 84.3271H273.195V93.6969H282.561V84.3271Z" fill="white"/>
<path d="M273.195 84.3271H263.829V93.6969H273.195V84.3271Z" fill="white"/>
<path d="M263.829 84.3271H254.463V93.6969H263.829V84.3271Z" fill="white"/>
<path d="M291.926 93.6973H282.561V103.067H291.926V93.6973Z" fill="white"/>
<path d="M282.561 93.6973H273.195V103.067H282.561V93.6973Z" fill="white"/>
<path d="M273.195 93.6973H263.829V103.067H273.195V93.6973Z" fill="white"/>
<path d="M263.829 93.6973H254.463V103.067H263.829V93.6973Z" fill="white"/>
<path d="M291.926 103.067H282.561V112.437H291.926V103.067Z" fill="white"/>
<path d="M282.561 103.067H273.195V112.437H282.561V103.067Z" fill="white"/>
<path d="M273.195 103.067H263.829V112.437H273.195V103.067Z" fill="white"/>
<path d="M291.926 112.437H282.561V121.806H291.926V112.437Z" fill="white"/>
<path d="M301.292 84.3271H291.926V93.6969H301.292V84.3271Z" fill="white"/>
<path d="M310.658 84.3271H301.292V93.6969H310.658V84.3271Z" fill="white"/>
<path d="M301.292 93.6973H291.926V103.067H301.292V93.6973Z" fill="white"/>
<path d="M301.292 103.067H291.926V112.437H301.292V103.067Z" fill="white"/>
<path d="M301.292 112.437H291.926V121.806H301.292V112.437Z" fill="white"/>
<path d="M282.561 112.437H273.195V121.806H282.561V112.437Z" fill="white"/>
<path d="M273.195 112.437H263.829V121.806H273.195V112.437Z" fill="white"/>
<path d="M263.829 103.067H254.463V112.437H263.829V103.067Z" fill="white"/>
<path d="M263.829 112.437H254.463V121.806H263.829V112.437Z" fill="white"/>
<path d="M263.829 121.806H254.463V131.176H263.829V121.806Z" fill="white"/>
<path d="M273.195 56.2183H263.829V65.588H273.195V56.2183Z" fill="#030730"/>
<path d="M320.023 178.024H310.658V187.394H320.023V178.024Z" fill="white"/>
<path d="M329.39 178.024H320.024V187.394H329.39V178.024Z" fill="white"/>
<path d="M338.755 178.024H329.389V187.394H338.755V178.024Z" fill="white"/>
<path d="M348.121 178.024H338.755V187.394H348.121V178.024Z" fill="white"/>
<path d="M357.487 178.024H348.121V187.394H357.487V178.024Z" fill="white"/>
<path d="M366.853 168.655H357.487V178.025H366.853V168.655Z" fill="white"/>
<path d="M376.218 159.285H366.853V168.655H376.218V159.285Z" fill="white"/>
<path d="M385.584 149.915H376.218V159.285H385.584V149.915Z" fill="white"/>
<path d="M394.95 140.545H385.584V149.915H394.95V140.545Z" fill="white"/>
<path d="M404.315 131.176H394.95V140.545H404.315V131.176Z" fill="white"/>
<path d="M366.853 159.285H357.487V168.655H366.853V159.285Z" fill="#030730"/>
<path d="M376.218 149.915H366.853V159.285H376.218V149.915Z" fill="#030730"/>
<path d="M385.584 140.545H376.218V149.915H385.584V140.545Z" fill="#030730"/>
<path d="M394.95 131.176H385.584V140.545H394.95V131.176Z" fill="#030730"/>
<path d="M404.315 121.806H394.95V131.176H404.315V121.806Z" fill="#030730"/>
<path d="M301.292 168.655H291.926V178.025H301.292V168.655Z" fill="white"/>
<path d="M310.658 168.655H301.292V178.025H310.658V168.655Z" fill="white"/>
<path d="M310.658 159.285H301.292V168.655H310.658V159.285Z" fill="white"/>
<path d="M320.023 168.655H310.658V178.025H320.023V168.655Z" fill="white"/>
<path d="M329.39 168.655H320.024V178.025H329.39V168.655Z" fill="white"/>
<path d="M320.023 159.285H310.658V168.655H320.023V159.285Z" fill="white"/>
<path d="M329.39 159.285H320.024V168.655H329.39V159.285Z" fill="white"/>
<path d="M320.023 149.915H310.658V159.285H320.023V149.915Z" fill="white"/>
<path d="M329.39 149.915H320.024V159.285H329.39V149.915Z" fill="white"/>
<path d="M320.023 140.545H310.658V149.915H320.023V140.545Z" fill="white"/>
<path d="M329.39 140.545H320.024V149.915H329.39V140.545Z" fill="white"/>
<path d="M320.023 131.176H310.658V140.545H320.023V131.176Z" fill="white"/>
<path d="M329.39 131.176H320.024V140.545H329.39V131.176Z" fill="white"/>
<path d="M338.755 159.285H329.389V168.655H338.755V159.285Z" fill="white"/>
<path d="M338.755 149.915H329.389V159.285H338.755V149.915Z" fill="white"/>
<path d="M338.755 140.545H329.389V149.915H338.755V140.545Z" fill="white"/>
<path d="M338.755 131.176H329.389V140.545H338.755V131.176Z" fill="white"/>
<path d="M348.121 159.285H338.755V168.655H348.121V159.285Z" fill="white"/>
<path d="M348.121 168.655H338.755V178.025H348.121V168.655Z" fill="white"/>
<path d="M338.755 168.655H329.389V178.025H338.755V168.655Z" fill="white"/>
<path d="M301.292 159.285H291.926V168.655H301.292V159.285Z" fill="#030730"/>
<path d="M291.926 149.915H282.561V159.285H291.926V149.915Z" fill="white"/>
<path d="M282.561 140.545H273.195V149.915H282.561V140.545Z" fill="white"/>
<path d="M301.292 140.545H291.926V149.915H301.292V140.545Z" fill="white"/>
<path d="M291.926 131.176H282.561V140.545H291.926V131.176Z" fill="white"/>
<path d="M310.658 149.915H301.292V159.285H310.658V149.915Z" fill="#030730"/>
<path d="M310.658 140.545H301.292V149.915H310.658V140.545Z" fill="#030730"/>
<path d="M310.658 131.176H301.292V140.545H310.658V131.176Z" fill="#030730"/>
<path d="M310.658 121.806H301.292V131.176H310.658V121.806Z" fill="#030730"/>
<path d="M310.658 112.437H301.292V121.806H310.658V112.437Z" fill="#030730"/>
<path d="M310.658 103.067H301.292V112.437H310.658V103.067Z" fill="#030730"/>
<path d="M310.658 93.6973H301.292V103.067H310.658V93.6973Z" fill="#030730"/>
<path d="M320.023 84.3271H310.658V93.6969H320.023V84.3271Z" fill="#030730"/>
<path d="M329.39 74.9575H320.024V84.3272H329.39V74.9575Z" fill="#030730"/>
<path d="M338.755 74.9575H329.389V84.3272H338.755V74.9575Z" fill="#030730"/>
<path d="M348.122 74.9575H338.756V84.3272H348.122V74.9575Z" fill="#030730"/>
<path d="M301.292 121.806H291.926V131.176H301.292V121.806Z" fill="#030730"/>
<path d="M291.926 121.806H282.561V131.176H291.926V121.806Z" fill="#030730"/>
<path d="M338.755 121.806H329.389V131.176H338.755V121.806Z" fill="#030730"/>
<path d="M348.121 112.437H338.755V121.806H348.121V112.437Z" fill="#030730"/>
<path d="M338.755 103.067H329.389V112.437H338.755V103.067Z" fill="white"/>
<path d="M329.39 93.6973H320.024V103.067H329.39V93.6973Z" fill="white"/>
<path d="M357.487 103.067H348.121V112.437H357.487V103.067Z" fill="#030730"/>
<path d="M357.487 93.6973H348.121V103.067H357.487V93.6973Z" fill="#030730"/>
<path d="M357.487 84.3271H348.121V93.6969H357.487V84.3271Z" fill="#030730"/>
<path d="M357.487 74.9575H348.121V84.3272H357.487V74.9575Z" fill="#030730"/>
<path d="M357.487 65.5879H348.121V74.9576H357.487V65.5879Z" fill="#030730"/>
<path d="M357.487 56.2183H348.121V65.588H357.487V56.2183Z" fill="#030730"/>
<path d="M357.487 46.8486H348.121V56.2183H357.487V46.8486Z" fill="#030730"/>
<path d="M366.854 74.9575H357.489V84.3272H366.854V74.9575Z" fill="#030730"/>
<path d="M376.221 74.9575H366.855V84.3272H376.221V74.9575Z" fill="#030730"/>
<path d="M385.586 74.9575H376.22V84.3272H385.586V74.9575Z" fill="#030730"/>
<path d="M329.39 121.806H320.024V131.176H329.39V121.806Z" fill="#030730"/>
<path d="M320.023 121.806H310.658V131.176H320.023V121.806Z" fill="#030730"/>
<path d="M282.561 121.806H273.195V131.176H282.561V121.806Z" fill="#030730"/>
<path d="M273.195 121.806H263.829V131.176H273.195V121.806Z" fill="white"/>
<path d="M273.195 131.176H263.829V140.545H273.195V131.176Z" fill="#030730"/>
<path d="M263.829 131.176H254.463V140.545H263.829V131.176Z" fill="white"/>
<path d="M357.487 168.655H348.121V178.025H357.487V168.655Z" fill="#030730"/>
<path d="M366.853 178.024H357.487V187.394H366.853V178.024Z" fill="white"/>
<path d="M366.853 187.394H357.487V196.764H366.853V187.394Z" fill="#030730"/>
<path d="M376.218 168.655H366.853V178.025H376.218V168.655Z" fill="white"/>
<path d="M385.584 159.285H376.218V168.655H385.584V159.285Z" fill="white"/>
<path d="M394.95 149.915H385.584V159.285H394.95V149.915Z" fill="white"/>
<path d="M376.218 178.024H366.853V187.394H376.218V178.024Z" fill="#030730"/>
<path d="M385.584 168.655H376.218V178.025H385.584V168.655Z" fill="#030730"/>
<path d="M394.95 159.285H385.584V168.655H394.95V159.285Z" fill="#030730"/>
<path d="M404.315 140.545H394.95V149.915H404.315V140.545Z" fill="white"/>
<path d="M404.315 149.915H394.95V159.285H404.315V149.915Z" fill="#030730"/>
<path d="M413.681 131.176H404.315V140.545H413.681V131.176Z" fill="white"/>
<path d="M413.681 140.545H404.315V149.915H413.681V140.545Z" fill="#030730"/>
<path d="M423.047 131.176H413.681V140.545H423.047V131.176Z" fill="#030730"/>
<path d="M423.047 121.806H413.681V131.176H423.047V121.806Z" fill="#030730"/>
<path d="M423.047 112.437H413.681V121.806H423.047V112.437Z" fill="#030730"/>
<path d="M423.047 103.067H413.681V112.437H423.047V103.067Z" fill="#030730"/>
<path d="M423.047 93.6973H413.681V103.067H423.047V93.6973Z" fill="#030730"/>
<path d="M423.047 84.3271H413.681V93.6969H423.047V84.3271Z" fill="#030730"/>
<path d="M423.047 74.9575H413.681V84.3272H423.047V74.9575Z" fill="#030730"/>
<path d="M357.487 187.394H348.121V196.764H357.487V187.394Z" fill="#030730"/>
<path d="M348.121 149.915H338.755V159.285H348.121V149.915Z" fill="white"/>
<path d="M348.121 140.545H338.755V149.915H348.121V140.545Z" fill="white"/>
<path d="M348.121 131.176H338.755V140.545H348.121V131.176Z" fill="white"/>
<path d="M357.487 159.285H348.121V168.655H357.487V159.285Z" fill="white"/>
<path d="M357.487 149.915H348.121V159.285H357.487V149.915Z" fill="white"/>
<path d="M357.487 140.545H348.121V149.915H357.487V140.545Z" fill="white"/>
<path d="M366.853 140.545H357.487V149.915H366.853V140.545Z" fill="white"/>
<path d="M376.218 140.545H366.853V149.915H376.218V140.545Z" fill="white"/>
<path d="M376.218 131.176H366.853V140.545H376.218V131.176Z" fill="white"/>
<path d="M366.853 131.176H357.487V140.545H366.853V131.176Z" fill="white"/>
<path d="M385.584 131.176H376.218V140.545H385.584V131.176Z" fill="white"/>
<path d="M385.584 121.806H376.218V131.176H385.584V121.806Z" fill="white"/>
<path d="M394.95 121.806H385.584V131.176H394.95V121.806Z" fill="white"/>
<path d="M366.853 149.915H357.487V159.285H366.853V149.915Z" fill="white"/>
<path d="M357.487 131.176H348.121V140.545H357.487V131.176Z" fill="white"/>
<path d="M376.218 121.806H366.853V131.176H376.218V121.806Z" fill="white"/>
<path d="M366.853 121.806H357.487V131.176H366.853V121.806Z" fill="white"/>
<path d="M357.487 121.806H348.121V131.176H357.487V121.806Z" fill="white"/>
<path d="M385.584 112.437H376.218V121.806H385.584V112.437Z" fill="white"/>
<path d="M394.95 112.437H385.584V121.806H394.95V112.437Z" fill="white"/>
<path d="M376.218 112.437H366.853V121.806H376.218V112.437Z" fill="white"/>
<path d="M366.853 112.437H357.487V121.806H366.853V112.437Z" fill="white"/>
<path d="M385.584 103.067H376.218V112.437H385.584V103.067Z" fill="white"/>
<path d="M394.95 103.067H385.584V112.437H394.95V103.067Z" fill="white"/>
<path d="M376.218 103.067H366.853V112.437H376.218V103.067Z" fill="white"/>
<path d="M366.853 103.067H357.487V112.437H366.853V103.067Z" fill="white"/>
<path d="M385.584 93.6973H376.218V103.067H385.584V93.6973Z" fill="white"/>
<path d="M394.95 93.6973H385.584V103.067H394.95V93.6973Z" fill="white"/>
<path d="M376.218 93.6973H366.853V103.067H376.218V93.6973Z" fill="white"/>
<path d="M366.853 93.6973H357.487V103.067H366.853V93.6973Z" fill="white"/>
<path d="M385.584 84.3271H376.218V93.6969H385.584V84.3271Z" fill="white"/>
<path d="M394.95 84.3271H385.584V93.6969H394.95V84.3271Z" fill="white"/>
<path d="M404.315 112.437H394.95V121.806H404.315V112.437Z" fill="white"/>
<path d="M404.315 103.067H394.95V112.437H404.315V103.067Z" fill="white"/>
<path d="M404.315 93.6973H394.95V103.067H404.315V93.6973Z" fill="white"/>
<path d="M404.315 84.3271H394.95V93.6969H404.315V84.3271Z" fill="white"/>
<path d="M404.315 74.9575H394.95V84.3272H404.315V74.9575Z" fill="white"/>
<path d="M413.681 74.9575H404.315V84.3272H413.681V74.9575Z" fill="white"/>
<path d="M394.95 74.9575H385.584V84.3272H394.95V74.9575Z" fill="white"/>
<path d="M413.681 112.437H404.315V121.806H413.681V112.437Z" fill="white"/>
<path d="M413.681 121.806H404.315V131.176H413.681V121.806Z" fill="white"/>
<path d="M413.681 103.067H404.315V112.437H413.681V103.067Z" fill="white"/>
<path d="M413.681 93.6973H404.315V103.067H413.681V93.6973Z" fill="white"/>
<path d="M413.681 84.3271H404.315V93.6969H413.681V84.3271Z" fill="white"/>
<path d="M376.218 84.3271H366.853V93.6969H376.218V84.3271Z" fill="white"/>
<path d="M366.853 84.3271H357.487V93.6969H366.853V84.3271Z" fill="white"/>
<path d="M348.121 121.806H338.755V131.176H348.121V121.806Z" fill="white"/>
<path d="M338.755 112.437H329.389V121.806H338.755V112.437Z" fill="#030730"/>
<path d="M329.39 112.437H320.024V121.806H329.39V112.437Z" fill="white"/>
<path d="M320.023 112.437H310.658V121.806H320.023V112.437Z" fill="white"/>
<path d="M320.023 93.6973H310.658V103.067H320.023V93.6973Z" fill="#030730"/>
<path d="M338.755 93.6973H329.389V103.067H338.755V93.6973Z" fill="#030730"/>
<path d="M329.39 84.3271H320.024V93.6969H329.39V84.3271Z" fill="#030730"/>
<path d="M348.122 93.6973H338.756V103.067H348.122V93.6973Z" fill="white"/>
<path d="M338.755 84.3271H329.389V93.6969H338.755V84.3271Z" fill="white"/>
<path d="M348.122 84.3271H338.756V93.6969H348.122V84.3271Z" fill="white"/>
<path d="M348.122 103.067H338.756V112.437H348.122V103.067Z" fill="#030730"/>
<path d="M329.39 103.067H320.024V112.437H329.39V103.067Z" fill="#030730"/>
<path d="M320.023 103.067H310.658V112.437H320.023V103.067Z" fill="white"/>
<path d="M357.487 112.437H348.121V121.806H357.487V112.437Z" fill="white"/>
<path d="M329.39 206.133H320.024V215.503H329.39V206.133Z" fill="#030730"/>
<path d="M338.755 206.133H329.389V215.503H338.755V206.133Z" fill="#030730"/>
<path d="M338.755 196.764H329.389V206.133H338.755V196.764Z" fill="#030730"/>
<path d="M123.343 187.394H113.977V196.764H123.343V187.394Z" fill="white"/>
<path d="M132.709 187.394H123.343V196.764H132.709V187.394Z" fill="white"/>
<path d="M123.343 178.024H113.977V187.394H123.343V178.024Z" fill="white"/>
<path d="M132.709 178.024H123.343V187.394H132.709V178.024Z" fill="white"/>
<path d="M142.074 196.764H132.708V206.133H142.074V196.764Z" fill="#030730"/>
<path d="M151.44 196.764H142.074V206.133H151.44V196.764Z" fill="#030730"/>
<path d="M160.806 196.764H151.44V206.133H160.806V196.764Z" fill="#030730"/>
<path d="M170.171 196.764H160.806V206.133H170.171V196.764Z" fill="white"/>
<path d="M179.537 196.764H170.171V206.133H179.537V196.764Z" fill="#030730"/>
<path d="M188.903 196.764H179.537V206.133H188.903V196.764Z" fill="#030730"/>
<path d="M198.269 196.764H188.903V206.133H198.269V196.764Z" fill="#030730"/>
<path d="M207.634 196.764H198.269V206.133H207.634V196.764Z" fill="#030730"/>
<path d="M217 196.764H207.634V206.133H217V196.764Z" fill="#030730"/>
<path d="M226.366 196.764H217V206.133H226.366V196.764Z" fill="#030730"/>
<path d="M235.732 196.764H226.366V206.133H235.732V196.764Z" fill="#030730"/>
<path d="M245.098 196.764H235.732V206.133H245.098V196.764Z" fill="#030730"/>
<path d="M254.463 196.764H245.098V206.133H254.463V196.764Z" fill="#030730"/>
<path d="M263.829 196.764H254.463V206.133H263.829V196.764Z" fill="#030730"/>
<path d="M123.343 196.764H113.977V206.133H123.343V196.764Z" fill="white"/>
<path d="M132.709 196.764H123.343V206.133H132.709V196.764Z" fill="white"/>
<path d="M123.343 140.545H113.977V149.915H123.343V140.545Z" fill="white"/>
<path d="M132.709 140.545H123.343V149.915H132.709V140.545Z" fill="white"/>
<path d="M123.343 149.915H113.977V159.285H123.343V149.915Z" fill="white"/>
<path d="M132.709 149.915H123.343V159.285H132.709V149.915Z" fill="white"/>
<path d="M123.343 121.806H113.977V131.176H123.343V121.806Z" fill="white"/>
<path d="M132.709 121.806H123.343V131.176H132.709V121.806Z" fill="white"/>
<path d="M123.343 131.176H113.977V140.545H123.343V131.176Z" fill="white"/>
<path d="M132.709 131.176H123.343V140.545H132.709V131.176Z" fill="white"/>
<path d="M207.634 112.437H198.269V121.806H207.634V112.437Z" fill="white"/>
<path d="M217 112.437H207.634V121.806H217V112.437Z" fill="white"/>
<path d="M226.366 112.437H217V121.806H226.366V112.437Z" fill="white"/>
<path d="M207.634 131.176H198.269V140.545H207.634V131.176Z" fill="white"/>
<path d="M217 121.806H207.634V131.176H217V121.806Z" fill="white"/>
<path d="M113.977 103.067H104.611V112.437H113.977V103.067Z" fill="#030730"/>
<path d="M113.977 112.437H104.611V121.806H113.977V112.437Z" fill="#030730"/>
<path d="M113.977 121.806H104.611V131.176H113.977V121.806Z" fill="#030730"/>
<path d="M113.977 131.176H104.611V140.545H113.977V131.176Z" fill="#030730"/>
<path d="M113.977 140.545H104.611V149.915H113.977V140.545Z" fill="#030730"/>
<path d="M113.977 149.915H104.611V159.285H113.977V149.915Z" fill="#030730"/>
<path d="M113.977 159.285H104.611V168.655H113.977V159.285Z" fill="#030730"/>
<path d="M113.977 168.655H104.611V178.025H113.977V168.655Z" fill="#030730"/>
<path d="M113.977 178.024H104.611V187.394H113.977V178.024Z" fill="#030730"/>
<path d="M113.977 187.394H104.611V196.764H113.977V187.394Z" fill="#030730"/>
<path d="M113.977 196.764H104.611V206.133H113.977V196.764Z" fill="#030730"/>
<path d="M113.977 206.133H104.611V215.503H113.977V206.133Z" fill="#030730"/>
<path d="M95.2452 103.067H85.8794V112.437H95.2452V103.067Z" fill="#030730"/>
<path d="M95.2452 112.437H85.8794V121.806H95.2452V112.437Z" fill="#030730"/>
<path d="M95.2452 121.806H85.8794V131.176H95.2452V121.806Z" fill="#030730"/>
<path d="M95.2452 131.176H85.8794V140.545H95.2452V131.176Z" fill="#030730"/>
<path d="M95.2452 140.545H85.8794V149.915H95.2452V140.545Z" fill="#030730"/>
<path d="M95.2452 149.915H85.8794V159.285H95.2452V149.915Z" fill="#030730"/>
<path d="M95.2452 159.285H85.8794V168.655H95.2452V159.285Z" fill="#030730"/>
<path d="M95.2452 168.655H85.8794V178.025H95.2452V168.655Z" fill="#030730"/>
<path d="M95.2452 178.024H85.8794V187.394H95.2452V178.024Z" fill="#030730"/>
<path d="M95.2452 187.394H85.8794V196.764H95.2452V187.394Z" fill="#030730"/>
<path d="M95.2452 196.764H85.8794V206.133H95.2452V196.764Z" fill="#030730"/>
<path d="M95.2452 206.133H85.8794V215.503H95.2452V206.133Z" fill="#030730"/>
<path d="M104.611 112.437H95.2451V121.806H104.611V112.437Z" fill="#00FFAF"/>
<path d="M104.611 121.806H95.2451V131.176H104.611V121.806Z" fill="#00FFAF"/>
<path d="M104.611 131.176H95.2451V140.545H104.611V131.176Z" fill="#00FFAF"/>
<path d="M104.611 140.545H95.2451V149.915H104.611V140.545Z" fill="#00FFAF"/>
<path d="M104.611 149.915H95.2451V159.285H104.611V149.915Z" fill="#00FFAF"/>
<path d="M104.611 159.285H95.2451V168.655H104.611V159.285Z" fill="#00FFAF"/>
<path d="M104.611 168.655H95.2451V178.025H104.611V168.655Z" fill="#00FFAF"/>
<path d="M104.611 178.024H95.2451V187.394H104.611V178.024Z" fill="#00FFAF"/>
<path d="M104.611 187.394H95.2451V196.764H104.611V187.394Z" fill="#00FFAF"/>
<path d="M104.611 196.764H95.2451V206.133H104.611V196.764Z" fill="#00FFAF"/>
<path d="M104.611 206.133H95.2451V215.503H104.611V206.133Z" fill="#00FFAF"/>
<path d="M104.611 215.503H95.2451V224.873H104.611V215.503Z" fill="#00FFAF"/>
<path d="M113.977 215.503H104.611V224.873H113.977V215.503Z" fill="#00FFAF"/>
<path d="M113.977 224.873H104.611V234.243H113.977V224.873Z" fill="#00FFAF"/>
<path d="M123.343 206.133H113.977V215.503H123.343V206.133Z" fill="#030730"/>
<path d="M123.343 215.503H113.977V224.873H123.343V215.503Z" fill="#030730"/>
<path d="M132.709 215.503H123.343V224.873H132.709V215.503Z" fill="#030730"/>
<path d="M142.074 215.503H132.708V224.873H142.074V215.503Z" fill="#030730"/>
<path d="M151.44 215.503H142.074V224.873H151.44V215.503Z" fill="#030730"/>
<path d="M160.806 215.503H151.44V224.873H160.806V215.503Z" fill="#030730"/>
<path d="M170.171 215.503H160.806V224.873H170.171V215.503Z" fill="#030730"/>
<path d="M179.537 215.503H170.171V224.873H179.537V215.503Z" fill="#030730"/>
<path d="M188.903 215.503H179.537V224.873H188.903V215.503Z" fill="#030730"/>
<path d="M198.269 215.503H188.903V224.873H198.269V215.503Z" fill="#030730"/>
<path d="M207.634 215.503H198.269V224.873H207.634V215.503Z" fill="#030730"/>
<path d="M217 215.503H207.634V224.873H217V215.503Z" fill="#030730"/>
<path d="M226.366 215.503H217V224.873H226.366V215.503Z" fill="#030730"/>
<path d="M235.732 215.503H226.366V224.873H235.732V215.503Z" fill="#030730"/>
<path d="M245.098 215.503H235.732V224.873H245.098V215.503Z" fill="#030730"/>
<path d="M254.463 215.503H245.098V224.873H254.463V215.503Z" fill="#030730"/>
<path d="M263.829 215.503H254.463V224.873H263.829V215.503Z" fill="#030730"/>
<path d="M273.195 215.503H263.829V224.873H273.195V215.503Z" fill="#030730"/>
<path d="M282.561 215.503H273.195V224.873H282.561V215.503Z" fill="#030730"/>
<path d="M291.926 215.503H282.561V224.873H291.926V215.503Z" fill="#030730"/>
<path d="M301.292 215.503H291.926V224.873H301.292V215.503Z" fill="#030730"/>
<path d="M310.658 215.503H301.292V224.873H310.658V215.503Z" fill="#030730"/>
<path d="M320.023 215.503H310.658V224.873H320.023V215.503Z" fill="#030730"/>
<path d="M329.39 215.503H320.024V224.873H329.39V215.503Z" fill="#030730"/>
<path d="M348.121 215.503H338.755V224.873H348.121V215.503Z" fill="#00FFAF"/>
<path d="M338.755 224.873H329.389V234.243H338.755V224.873Z" fill="#00FFAF"/>
<path d="M338.755 234.243H329.389V243.612H338.755V234.243Z" fill="#030730"/>
<path d="M348.121 224.873H338.755V234.243H348.121V224.873Z" fill="#030730"/>
<path d="M348.121 234.243H338.755V243.612H348.121V234.243Z" fill="#030730"/>
<path d="M357.487 250.64H348.121V260.009H357.487V250.64Z" fill="#030730"/>
<path d="M366.853 260.009H357.487V269.379H366.853V260.009Z" fill="#030730"/>
<path d="M376.218 269.379H366.853V278.749H376.218V269.379Z" fill="#030730"/>
<path d="M385.584 278.749H376.218V288.118H385.584V278.749Z" fill="#030730"/>
<path d="M385.584 288.119H376.218V297.488H385.584V288.119Z" fill="#030730"/>
<path d="M376.218 297.488H366.853V306.858H376.218V297.488Z" fill="#030730"/>
<path d="M366.853 306.858H357.487V316.228H366.853V306.858Z" fill="#030730"/>
<path d="M376.218 288.119H366.853V297.488H376.218V288.119Z" fill="#030730"/>
<path d="M366.853 288.119H357.487V297.488H366.853V288.119Z" fill="#030730"/>
<path d="M357.487 288.119H348.121V297.488H357.487V288.119Z" fill="#030730"/>
<path d="M348.121 288.119H338.755V297.488H348.121V288.119Z" fill="#030730"/>
<path d="M338.755 288.119H329.389V297.488H338.755V288.119Z" fill="#030730"/>
<path d="M329.39 288.119H320.024V297.488H329.39V288.119Z" fill="#030730"/>
<path d="M320.023 288.119H310.658V297.488H320.023V288.119Z" fill="#030730"/>
<path d="M310.658 288.119H301.292V297.488H310.658V288.119Z" fill="#030730"/>
<path d="M301.292 288.119H291.926V297.488H301.292V288.119Z" fill="#030730"/>
<path d="M291.926 288.119H282.561V297.488H291.926V288.119Z" fill="#030730"/>
<path d="M282.561 288.119H273.195V297.488H282.561V288.119Z" fill="#030730"/>
<path d="M273.195 288.119H263.829V297.488H273.195V288.119Z" fill="#030730"/>
<path d="M263.829 288.119H254.463V297.488H263.829V288.119Z" fill="#030730"/>
<path d="M357.487 215.503H348.121V224.873H357.487V215.503Z" fill="#030730"/>
<path d="M357.487 206.133H348.121V215.503H357.487V206.133Z" fill="#030730"/>
<path d="M357.487 196.764H348.121V206.133H357.487V196.764Z" fill="#030730"/>
<path d="M123.343 224.873H113.977V234.243H123.343V224.873Z" fill="#00FFAF"/>
<path d="M132.709 224.873H123.343V234.243H132.709V224.873Z" fill="#00FFAF"/>
<path d="M142.074 224.873H132.708V234.243H142.074V224.873Z" fill="#00FFAF"/>
<path d="M151.44 224.873H142.074V234.243H151.44V224.873Z" fill="#00FFAF"/>
<path d="M160.806 224.873H151.44V234.243H160.806V224.873Z" fill="#00FFAF"/>
<path d="M170.171 224.873H160.806V234.243H170.171V224.873Z" fill="#00FFAF"/>
<path d="M179.537 224.873H170.171V234.243H179.537V224.873Z" fill="#00FFAF"/>
<path d="M188.903 224.873H179.537V234.243H188.903V224.873Z" fill="#00FFAF"/>
<path d="M198.269 224.873H188.903V234.243H198.269V224.873Z" fill="#00FFAF"/>
<path d="M207.634 224.873H198.269V234.243H207.634V224.873Z" fill="#00FFAF"/>
<path d="M217 224.873H207.634V234.243H217V224.873Z" fill="#00FFAF"/>
<path d="M226.366 224.873H217V234.243H226.366V224.873Z" fill="#00FFAF"/>
<path d="M235.732 224.873H226.366V234.243H235.732V224.873Z" fill="#00FFAF"/>
<path d="M245.098 224.873H235.732V234.243H245.098V224.873Z" fill="#00FFAF"/>
<path d="M254.463 224.873H245.098V234.243H254.463V224.873Z" fill="#00FFAF"/>
<path d="M263.829 224.873H254.463V234.243H263.829V224.873Z" fill="#00FFAF"/>
<path d="M273.195 224.873H263.829V234.243H273.195V224.873Z" fill="#00FFAF"/>
<path d="M282.561 224.873H273.195V234.243H282.561V224.873Z" fill="#00FFAF"/>
<path d="M291.926 224.873H282.561V234.243H291.926V224.873Z" fill="#00FFAF"/>
<path d="M301.292 224.873H291.926V234.243H301.292V224.873Z" fill="#00FFAF"/>
<path d="M310.658 224.873H301.292V234.243H310.658V224.873Z" fill="#00FFAF"/>
<path d="M320.023 224.873H310.658V234.243H320.023V224.873Z" fill="#00FFAF"/>
<path d="M329.39 224.873H320.024V234.243H329.39V224.873Z" fill="#00FFAF"/>
<path d="M338.755 215.503H329.389V224.873H338.755V215.503Z" fill="#00FFAF"/>
<path d="M348.121 206.133H338.755V215.503H348.121V206.133Z" fill="#00FFAF"/>
<path d="M348.121 196.764H338.755V206.133H348.121V196.764Z" fill="#00FFAF"/>
<path d="M123.343 234.243H113.977V243.612H123.343V234.243Z" fill="#030730"/>
<path d="M113.977 234.243H104.611V243.612H113.977V234.243Z" fill="#030730"/>
<path d="M104.611 224.873H95.2451V234.243H104.611V224.873Z" fill="#030730"/>
<path d="M104.611 234.243H95.2451V243.612H104.611V234.243Z" fill="#030730"/>
<path d="M95.2452 250.64H85.8794V260.009H95.2452V250.64Z" fill="#030730"/>
<path d="M85.8795 260.009H76.5137V269.379H85.8795V260.009Z" fill="#030730"/>
<path d="M76.5137 269.379H67.1479V278.749H76.5137V269.379Z" fill="#030730"/>
<path d="M67.148 278.749H57.7822V288.118H67.148V278.749Z" fill="#030730"/>
<path d="M67.148 288.119H57.7822V297.488H67.148V288.119Z" fill="#030730"/>
<path d="M76.5137 297.488H67.1479V306.858H76.5137V297.488Z" fill="#030730"/>
<path d="M85.8795 306.858H76.5137V316.228H85.8795V306.858Z" fill="#030730"/>
<path d="M95.2452 306.858H85.8794V316.228H95.2452V306.858Z" fill="#030730"/>
<path d="M104.611 306.858H95.2451V316.228H104.611V306.858Z" fill="#030730"/>
<path d="M113.977 306.858H104.611V316.228H113.977V306.858Z" fill="#030730"/>
<path d="M123.343 306.858H113.977V316.228H123.343V306.858Z" fill="#030730"/>
<path d="M132.709 306.858H123.343V316.228H132.709V306.858Z" fill="#030730"/>
<path d="M142.074 306.858H132.708V316.228H142.074V306.858Z" fill="#030730"/>
<path d="M151.44 306.858H142.074V316.228H151.44V306.858Z" fill="#030730"/>
<path d="M160.806 306.858H151.44V316.228H160.806V306.858Z" fill="#030730"/>
<path d="M170.171 306.858H160.806V316.228H170.171V306.858Z" fill="#030730"/>
<path d="M179.537 306.858H170.171V316.228H179.537V306.858Z" fill="#030730"/>
<path d="M188.903 306.858H179.537V316.228H188.903V306.858Z" fill="#030730"/>
<path d="M198.269 306.858H188.903V316.228H198.269V306.858Z" fill="#030730"/>
<path d="M207.634 306.858H198.269V316.228H207.634V306.858Z" fill="#030730"/>
<path d="M217 306.858H207.634V316.228H217V306.858Z" fill="#030730"/>
<path d="M226.366 306.858H217V316.228H226.366V306.858Z" fill="#030730"/>
<path d="M235.732 306.858H226.366V316.228H235.732V306.858Z" fill="#030730"/>
<path d="M245.098 306.858H235.732V316.228H245.098V306.858Z" fill="#030730"/>
<path d="M254.463 306.858H245.098V316.228H254.463V306.858Z" fill="#030730"/>
<path d="M263.829 306.858H254.463V316.228H263.829V306.858Z" fill="#030730"/>
<path d="M273.195 306.858H263.829V316.228H273.195V306.858Z" fill="#030730"/>
<path d="M282.561 306.858H273.195V316.228H282.561V306.858Z" fill="#030730"/>
<path d="M291.926 306.858H282.561V316.228H291.926V306.858Z" fill="#030730"/>
<path d="M301.292 306.858H291.926V316.228H301.292V306.858Z" fill="#030730"/>
<path d="M310.658 306.858H301.292V316.228H310.658V306.858Z" fill="#030730"/>
<path d="M320.023 306.858H310.658V316.228H320.023V306.858Z" fill="#030730"/>
<path d="M329.39 306.858H320.024V316.228H329.39V306.858Z" fill="#030730"/>
<path d="M338.755 306.858H329.389V316.228H338.755V306.858Z" fill="#030730"/>
<path d="M348.121 306.858H338.755V316.228H348.121V306.858Z" fill="#030730"/>
<path d="M357.487 306.858H348.121V316.228H357.487V306.858Z" fill="#030730"/>
<path d="M366.853 297.488H357.487V306.858H366.853V297.488Z" fill="#00FFAF"/>
<path d="M188.903 297.488H179.537V306.858H188.903V297.488Z" fill="#00FFAF"/>
<path d="M198.269 297.488H188.903V306.858H198.269V297.488Z" fill="#00FFAF"/>
<path d="M207.634 297.488H198.269V306.858H207.634V297.488Z" fill="#00FFAF"/>
<path d="M217 297.488H207.634V306.858H217V297.488Z" fill="#00FFAF"/>
<path d="M226.366 297.488H217V306.858H226.366V297.488Z" fill="#00FFAF"/>
<path d="M235.732 297.488H226.366V306.858H235.732V297.488Z" fill="#00FFAF"/>
<path d="M254.463 297.488H245.098V306.858H254.463V297.488Z" fill="#00FFAF"/>
<path d="M245.098 297.488H235.732V306.858H245.098V297.488Z" fill="#00FFAF"/>
<path d="M113.977 297.488H104.611V306.858H113.977V297.488Z" fill="#00FFAF"/>
<path d="M123.343 297.488H113.977V306.858H123.343V297.488Z" fill="#00FFAF"/>
<path d="M132.709 297.488H123.343V306.858H132.709V297.488Z" fill="#00FFAF"/>
<path d="M142.074 297.488H132.708V306.858H142.074V297.488Z" fill="#00FFAF"/>
<path d="M85.8795 297.488H76.5137V306.858H85.8795V297.488Z" fill="#00FFAF"/>
<path d="M95.2452 297.488H85.8794V306.858H95.2452V297.488Z" fill="#00FFAF"/>
<path d="M104.611 297.488H95.2451V306.858H104.611V297.488Z" fill="#00FFAF"/>
<path d="M151.44 297.488H142.074V306.858H151.44V297.488Z" fill="#00FFAF"/>
<path d="M160.806 297.488H151.44V306.858H160.806V297.488Z" fill="#00FFAF"/>
<path d="M179.537 297.488H170.171V306.858H179.537V297.488Z" fill="#00FFAF"/>
<path d="M170.171 297.488H160.806V306.858H170.171V297.488Z" fill="#00FFAF"/>
<path d="M263.829 297.488H254.463V306.858H263.829V297.488Z" fill="#00FFAF"/>
<path d="M273.195 297.488H263.829V306.858H273.195V297.488Z" fill="#00FFAF"/>
<path d="M282.561 297.488H273.195V306.858H282.561V297.488Z" fill="#00FFAF"/>
<path d="M291.926 297.488H282.561V306.858H291.926V297.488Z" fill="#00FFAF"/>
<path d="M301.292 297.488H291.926V306.858H301.292V297.488Z" fill="#00FFAF"/>
<path d="M310.658 297.488H301.292V306.858H310.658V297.488Z" fill="#00FFAF"/>
<path d="M320.023 297.488H310.658V306.858H320.023V297.488Z" fill="#00FFAF"/>
<path d="M329.39 297.488H320.024V306.858H329.39V297.488Z" fill="#00FFAF"/>
<path d="M338.755 297.488H329.389V306.858H338.755V297.488Z" fill="#00FFAF"/>
<path d="M348.121 297.488H338.755V306.858H348.121V297.488Z" fill="#00FFAF"/>
<path d="M357.487 297.488H348.121V306.858H357.487V297.488Z" fill="#00FFAF"/>
<path d="M76.5137 288.119H67.1479V297.488H76.5137V288.119Z" fill="#030730"/>
<path d="M85.8795 288.119H76.5137V297.488H85.8795V288.119Z" fill="#030730"/>
<path d="M95.2452 288.119H85.8794V297.488H95.2452V288.119Z" fill="#030730"/>
<path d="M104.611 288.119H95.2451V297.488H104.611V288.119Z" fill="#030730"/>
<path d="M113.977 288.119H104.611V297.488H113.977V288.119Z" fill="#030730"/>
<path d="M123.343 288.119H113.977V297.488H123.343V288.119Z" fill="#030730"/>
<path d="M132.709 288.119H123.343V297.488H132.709V288.119Z" fill="#030730"/>
<path d="M142.074 288.119H132.708V297.488H142.074V288.119Z" fill="#030730"/>
<path d="M151.44 288.119H142.074V297.488H151.44V288.119Z" fill="#030730"/>
<path d="M160.806 288.119H151.44V297.488H160.806V288.119Z" fill="#030730"/>
<path d="M170.171 288.119H160.806V297.488H170.171V288.119Z" fill="#030730"/>
<path d="M179.537 288.119H170.171V297.488H179.537V288.119Z" fill="#030730"/>
<path d="M188.903 288.119H179.537V297.488H188.903V288.119Z" fill="#030730"/>
<path d="M95.2452 215.503H85.8794V224.873H95.2452V215.503Z" fill="#030730"/>
<path d="M132.709 234.243H123.343V243.612H132.709V234.243Z" fill="#030730"/>
<path d="M142.074 234.243H132.708V243.612H142.074V234.243Z" fill="#030730"/>
<path d="M151.44 234.243H142.074V243.612H151.44V234.243Z" fill="#030730"/>
<path d="M160.806 234.243H151.44V243.612H160.806V234.243Z" fill="#030730"/>
<path d="M170.171 234.243H160.806V243.612H170.171V234.243Z" fill="#030730"/>
<path d="M179.537 234.243H170.171V243.612H179.537V234.243Z" fill="#030730"/>
<path d="M188.903 234.243H179.537V243.612H188.903V234.243Z" fill="#030730"/>
<path d="M198.269 234.243H188.903V243.612H198.269V234.243Z" fill="#030730"/>
<path d="M207.634 234.243H198.269V243.612H207.634V234.243Z" fill="#030730"/>
<path d="M217 234.243H207.634V243.612H217V234.243Z" fill="#030730"/>
<path d="M226.366 234.243H217V243.612H226.366V234.243Z" fill="#030730"/>
<path d="M235.732 234.243H226.366V243.612H235.732V234.243Z" fill="#030730"/>
<path d="M245.098 234.243H235.732V243.612H245.098V234.243Z" fill="#030730"/>
<path d="M254.463 234.243H245.098V243.612H254.463V234.243Z" fill="#030730"/>
<path d="M263.829 234.243H254.463V243.612H263.829V234.243Z" fill="#030730"/>
<path d="M273.195 234.243H263.829V243.612H273.195V234.243Z" fill="#030730"/>
<path d="M282.561 234.243H273.195V243.612H282.561V234.243Z" fill="#030730"/>
<path d="M291.926 234.243H282.561V243.612H291.926V234.243Z" fill="#030730"/>
<path d="M301.292 234.243H291.926V243.612H301.292V234.243Z" fill="#030730"/>
<path d="M310.658 234.243H301.292V243.612H310.658V234.243Z" fill="#030730"/>
<path d="M320.023 234.243H310.658V243.612H320.023V234.243Z" fill="#030730"/>
<path d="M329.39 234.243H320.024V243.612H329.39V234.243Z" fill="#030730"/>
<path d="M338.755 250.64H329.389V260.009H338.755V250.64Z" fill="white"/>
<path d="M348.121 250.64H338.755V260.009H348.121V250.64Z" fill="white"/>
<path d="M123.343 250.64H113.977V260.009H123.343V250.64Z" fill="#030730"/>
<path d="M113.977 250.64H104.611V260.009H113.977V250.64Z" fill="white"/>
<path d="M104.611 250.64H95.2451V260.009H104.611V250.64Z" fill="white"/>
<path d="M132.709 250.64H123.343V260.009H132.709V250.64Z" fill="#030730"/>
<path d="M142.074 250.64H132.708V260.009H142.074V250.64Z" fill="white"/>
<path d="M151.44 250.64H142.074V260.009H151.44V250.64Z" fill="#030730"/>
<path d="M160.806 250.64H151.44V260.009H160.806V250.64Z" fill="#030730"/>
<path d="M170.171 250.64H160.806V260.009H170.171V250.64Z" fill="white"/>
<path d="M179.537 250.64H170.171V260.009H179.537V250.64Z" fill="#030730"/>
<path d="M188.903 250.64H179.537V260.009H188.903V250.64Z" fill="#030730"/>
<path d="M198.269 250.64H188.903V260.009H198.269V250.64Z" fill="white"/>
<path d="M207.634 250.64H198.269V260.009H207.634V250.64Z" fill="#030730"/>
<path d="M217 250.64H207.634V260.009H217V250.64Z" fill="#030730"/>
<path d="M226.366 250.64H217V260.009H226.366V250.64Z" fill="white"/>
<path d="M235.732 250.64H226.366V260.009H235.732V250.64Z" fill="#030730"/>
<path d="M245.098 250.64H235.732V260.009H245.098V250.64Z" fill="#030730"/>
<path d="M254.463 250.64H245.098V260.009H254.463V250.64Z" fill="white"/>
<path d="M263.829 250.64H254.463V260.009H263.829V250.64Z" fill="white"/>
<path d="M273.195 250.64H263.829V260.009H273.195V250.64Z" fill="white"/>
<path d="M282.561 250.64H273.195V260.009H282.561V250.64Z" fill="white"/>
<path d="M291.926 250.64H282.561V260.009H291.926V250.64Z" fill="#030730"/>
<path d="M301.292 250.64H291.926V260.009H301.292V250.64Z" fill="#030730"/>
<path d="M310.658 250.64H301.292V260.009H310.658V250.64Z" fill="white"/>
<path d="M320.023 250.64H310.658V260.009H320.023V250.64Z" fill="#030730"/>
<path d="M329.39 250.64H320.024V260.009H329.39V250.64Z" fill="#030730"/>
<path d="M338.755 241.27H329.389V250.64H338.755V241.27Z" fill="white"/>
<path d="M348.121 241.27H338.755V250.64H348.121V241.27Z" fill="#030730"/>
<path d="M123.343 241.27H113.977V250.64H123.343V241.27Z" fill="white"/>
<path d="M113.977 241.27H104.611V250.64H113.977V241.27Z" fill="white"/>
<path d="M104.611 241.27H95.2451V250.64H104.611V241.27Z" fill="#030730"/>
<path d="M132.709 241.27H123.343V250.64H132.709V241.27Z" fill="white"/>
<path d="M142.074 241.27H132.708V250.64H142.074V241.27Z" fill="white"/>
<path d="M151.44 241.27H142.074V250.64H151.44V241.27Z" fill="white"/>
<path d="M160.806 241.27H151.44V250.64H160.806V241.27Z" fill="white"/>
<path d="M170.171 241.27H160.806V250.64H170.171V241.27Z" fill="white"/>
<path d="M179.537 241.27H170.171V250.64H179.537V241.27Z" fill="white"/>
<path d="M188.903 241.27H179.537V250.64H188.903V241.27Z" fill="white"/>
<path d="M198.269 241.27H188.903V250.64H198.269V241.27Z" fill="white"/>
<path d="M207.634 241.27H198.269V250.64H207.634V241.27Z" fill="white"/>
<path d="M217 241.27H207.634V250.64H217V241.27Z" fill="white"/>
<path d="M226.366 241.27H217V250.64H226.366V241.27Z" fill="white"/>
<path d="M235.732 241.27H226.366V250.64H235.732V241.27Z" fill="white"/>
<path d="M245.098 241.27H235.732V250.64H245.098V241.27Z" fill="white"/>
<path d="M254.463 241.27H245.098V250.64H254.463V241.27Z" fill="white"/>
<path d="M263.829 241.27H254.463V250.64H263.829V241.27Z" fill="white"/>
<path d="M273.195 241.27H263.829V250.64H273.195V241.27Z" fill="white"/>
<path d="M282.561 241.27H273.195V250.64H282.561V241.27Z" fill="white"/>
<path d="M291.926 241.27H282.561V250.64H291.926V241.27Z" fill="white"/>
<path d="M301.292 241.27H291.926V250.64H301.292V241.27Z" fill="white"/>
<path d="M310.658 241.27H301.292V250.64H310.658V241.27Z" fill="white"/>
<path d="M320.023 241.27H310.658V250.64H320.023V241.27Z" fill="white"/>
<path d="M329.39 241.27H320.024V250.64H329.39V241.27Z" fill="white"/>
<path d="M338.755 260.009H329.389V269.379H338.755V260.009Z" fill="white"/>
<path d="M348.121 260.009H338.755V269.379H348.121V260.009Z" fill="white"/>
<path d="M123.343 260.009H113.977V269.379H123.343V260.009Z" fill="white"/>
<path d="M113.977 260.009H104.611V269.379H113.977V260.009Z" fill="white"/>
<path d="M104.611 260.009H95.2451V269.379H104.611V260.009Z" fill="white"/>
<path d="M132.709 260.009H123.343V269.379H132.709V260.009Z" fill="white"/>
<path d="M142.074 260.009H132.708V269.379H142.074V260.009Z" fill="white"/>
<path d="M151.44 260.009H142.074V269.379H151.44V260.009Z" fill="white"/>
<path d="M160.806 260.009H151.44V269.379H160.806V260.009Z" fill="white"/>
<path d="M170.171 260.009H160.806V269.379H170.171V260.009Z" fill="white"/>
<path d="M179.537 260.009H170.171V269.379H179.537V260.009Z" fill="white"/>
<path d="M188.903 260.009H179.537V269.379H188.903V260.009Z" fill="white"/>
<path d="M198.269 260.009H188.903V269.379H198.269V260.009Z" fill="white"/>
<path d="M207.634 260.009H198.269V269.379H207.634V260.009Z" fill="white"/>
<path d="M217 260.009H207.634V269.379H217V260.009Z" fill="white"/>
<path d="M226.366 260.009H217V269.379H226.366V260.009Z" fill="white"/>
<path d="M235.732 260.009H226.366V269.379H235.732V260.009Z" fill="white"/>
<path d="M245.098 260.009H235.732V269.379H245.098V260.009Z" fill="white"/>
<path d="M254.463 260.009H245.098V269.379H254.463V260.009Z" fill="white"/>
<path d="M263.829 260.009H254.463V269.379H263.829V260.009Z" fill="white"/>
<path d="M273.195 260.009H263.829V269.379H273.195V260.009Z" fill="white"/>
<path d="M282.561 260.009H273.195V269.379H282.561V260.009Z" fill="white"/>
<path d="M291.926 260.009H282.561V269.379H291.926V260.009Z" fill="white"/>
<path d="M301.292 260.009H291.926V269.379H301.292V260.009Z" fill="white"/>
<path d="M310.658 260.009H301.292V269.379H310.658V260.009Z" fill="white"/>
<path d="M320.023 260.009H310.658V269.379H320.023V260.009Z" fill="white"/>
<path d="M329.39 260.009H320.024V269.379H329.39V260.009Z" fill="white"/>
<path d="M338.755 269.379H329.389V278.749H338.755V269.379Z" fill="#030730"/>
<path d="M348.121 269.379H338.755V278.749H348.121V269.379Z" fill="#030730"/>
<path d="M123.343 269.379H113.977V278.749H123.343V269.379Z" fill="white"/>
<path d="M113.977 269.379H104.611V278.749H113.977V269.379Z" fill="#030730"/>
<path d="M104.611 269.379H95.2451V278.749H104.611V269.379Z" fill="#030730"/>
<path d="M132.709 269.379H123.343V278.749H132.709V269.379Z" fill="#030730"/>
<path d="M142.074 269.379H132.708V278.749H142.074V269.379Z" fill="#030730"/>
<path d="M151.44 269.379H142.074V278.749H151.44V269.379Z" fill="white"/>
<path d="M160.806 269.379H151.44V278.749H160.806V269.379Z" fill="#030730"/>
<path d="M170.171 269.379H160.806V278.749H170.171V269.379Z" fill="#030730"/>
<path d="M179.537 269.379H170.171V278.749H179.537V269.379Z" fill="white"/>
<path d="M188.903 269.379H179.537V278.749H188.903V269.379Z" fill="#030730"/>
<path d="M198.269 269.379H188.903V278.749H198.269V269.379Z" fill="#030730"/>
<path d="M207.634 269.379H198.269V278.749H207.634V269.379Z" fill="white"/>
<path d="M217 269.379H207.634V278.749H217V269.379Z" fill="#030730"/>
<path d="M226.366 269.379H217V278.749H226.366V269.379Z" fill="#030730"/>
<path d="M235.732 269.379H226.366V278.749H235.732V269.379Z" fill="white"/>
<path d="M245.098 269.379H235.732V278.749H245.098V269.379Z" fill="#030730"/>
<path d="M254.463 269.379H245.098V278.749H254.463V269.379Z" fill="#030730"/>
<path d="M263.829 269.379H254.463V278.749H263.829V269.379Z" fill="white"/>
<path d="M273.195 269.379H263.829V278.749H273.195V269.379Z" fill="white"/>
<path d="M282.561 269.379H273.195V278.749H282.561V269.379Z" fill="#030730"/>
<path d="M291.926 269.379H282.561V278.749H291.926V269.379Z" fill="#030730"/>
<path d="M301.292 269.379H291.926V278.749H301.292V269.379Z" fill="white"/>
<path d="M310.658 269.379H301.292V278.749H310.658V269.379Z" fill="#030730"/>
<path d="M320.023 269.379H310.658V278.749H320.023V269.379Z" fill="#030730"/>
<path d="M329.39 269.379H320.024V278.749H329.39V269.379Z" fill="white"/>
<path d="M338.755 278.749H329.389V288.118H338.755V278.749Z" fill="white"/>
<path d="M348.121 278.749H338.755V288.118H348.121V278.749Z" fill="white"/>
<path d="M357.487 260.009H348.121V269.379H357.487V260.009Z" fill="white"/>
<path d="M357.487 269.379H348.121V278.749H357.487V269.379Z" fill="white"/>
<path d="M357.487 278.749H348.121V288.118H357.487V278.749Z" fill="white"/>
<path d="M366.853 269.379H357.487V278.749H366.853V269.379Z" fill="white"/>
<path d="M366.853 278.749H357.487V288.118H366.853V278.749Z" fill="white"/>
<path d="M376.218 278.749H366.853V288.118H376.218V278.749Z" fill="white"/>
<path d="M123.343 278.749H113.977V288.118H123.343V278.749Z" fill="white"/>
<path d="M113.977 278.749H104.611V288.118H113.977V278.749Z" fill="white"/>
<path d="M104.611 278.749H95.2451V288.118H104.611V278.749Z" fill="white"/>
<path d="M95.2452 260.009H85.8794V269.379H95.2452V260.009Z" fill="white"/>
<path d="M95.2452 269.379H85.8794V278.749H95.2452V269.379Z" fill="white"/>
<path d="M95.2452 278.749H85.8794V288.118H95.2452V278.749Z" fill="white"/>
<path d="M85.8795 269.379H76.5137V278.749H85.8795V269.379Z" fill="white"/>
<path d="M85.8795 278.749H76.5137V288.118H85.8795V278.749Z" fill="white"/>
<path d="M76.5137 278.749H67.1479V288.118H76.5137V278.749Z" fill="white"/>
<path d="M132.709 278.749H123.343V288.118H132.709V278.749Z" fill="white"/>
<path d="M142.074 278.749H132.708V288.118H142.074V278.749Z" fill="white"/>
<path d="M151.44 278.749H142.074V288.118H151.44V278.749Z" fill="white"/>
<path d="M160.806 278.749H151.44V288.118H160.806V278.749Z" fill="white"/>
<path d="M170.171 278.749H160.806V288.118H170.171V278.749Z" fill="white"/>
<path d="M179.537 278.749H170.171V288.118H179.537V278.749Z" fill="white"/>
<path d="M188.903 278.749H179.537V288.118H188.903V278.749Z" fill="white"/>
<path d="M198.269 278.749H188.903V288.118H198.269V278.749Z" fill="white"/>
<path d="M207.634 278.749H198.269V288.118H207.634V278.749Z" fill="white"/>
<path d="M217 278.749H207.634V288.118H217V278.749Z" fill="white"/>
<path d="M226.366 278.749H217V288.118H226.366V278.749Z" fill="white"/>
<path d="M235.732 278.749H226.366V288.118H235.732V278.749Z" fill="white"/>
<path d="M245.098 278.749H235.732V288.118H245.098V278.749Z" fill="white"/>
<path d="M254.463 278.749H245.098V288.118H254.463V278.749Z" fill="white"/>
<path d="M198.269 288.119H188.903V297.488H198.269V288.119Z" fill="white"/>
<path d="M207.634 288.119H198.269V297.488H207.634V288.119Z" fill="white"/>
<path d="M217 288.119H207.634V297.488H217V288.119Z" fill="white"/>
<path d="M226.366 288.119H217V297.488H226.366V288.119Z" fill="white"/>
<path d="M235.732 288.119H226.366V297.488H235.732V288.119Z" fill="white"/>
<path d="M245.098 288.119H235.732V297.488H245.098V288.119Z" fill="white"/>
<path d="M254.463 288.119H245.098V297.488H254.463V288.119Z" fill="white"/>
<path d="M263.829 278.749H254.463V288.118H263.829V278.749Z" fill="white"/>
<path d="M273.195 278.749H263.829V288.118H273.195V278.749Z" fill="white"/>
<path d="M282.561 278.749H273.195V288.118H282.561V278.749Z" fill="white"/>
<path d="M291.926 278.749H282.561V288.118H291.926V278.749Z" fill="white"/>
<path d="M301.292 278.749H291.926V288.118H301.292V278.749Z" fill="white"/>
<path d="M310.658 278.749H301.292V288.118H310.658V278.749Z" fill="white"/>
<path d="M320.023 278.749H310.658V288.118H320.023V278.749Z" fill="white"/>
<path d="M329.39 278.749H320.024V288.118H329.39V278.749Z" fill="white"/>
<path d="M34.9321 250.1H29.1099V255.922H34.9321V250.1Z" fill="black"/>
<path d="M46.5771 218.077H40.7549V223.899H46.5771V218.077Z" fill="black"/>
<path d="M11.6454 233.206H5.82324V239.028H11.6454V233.206Z" fill="black"/>
<path d="M40.7553 244.278H34.9331V250.1H40.7553V244.278Z" fill="black"/>
<path d="M52.3989 212.255H46.5767V218.078H52.3989V212.255Z" fill="black"/>
<path d="M17.4662 227.383H11.644V233.205H17.4662V227.383Z" fill="black"/>
<path d="M34.9321 238.456H29.1099V244.278H34.9321V238.456Z" fill="black"/>
<path d="M46.5771 206.434H40.7549V212.256H46.5771V206.434Z" fill="black"/>
<path d="M11.6454 221.561H5.82324V227.383H11.6454V221.561Z" fill="black"/>
<path d="M29.1103 244.278H23.2881V250.1H29.1103V244.278Z" fill="black"/>
<path d="M40.7553 212.255H34.9331V218.078H40.7553V212.255Z" fill="black"/>
<path d="M5.8222 227.383H0V233.205H5.8222V227.383Z" fill="black"/>
<path d="M177.767 21.6509H171.944V27.4731H177.767V21.6509Z" fill="black"/>
<path d="M183.587 15.8276H177.765V21.6498H183.587V15.8276Z" fill="black"/>
<path d="M177.767 10.0059H171.944V15.828H177.767V10.0059Z" fill="black"/>
<path d="M171.943 15.8276H166.121V21.6498H171.943V15.8276Z" fill="black"/>
<path d="M210.545 43.9346H204.723V49.7567H210.545V43.9346Z" fill="black"/>
<path d="M204.723 38.1128H198.901V43.935H204.723V38.1128Z" fill="black"/>
<path d="M216.368 49.7578H210.546V55.58H216.368V49.7578Z" fill="black"/>
<path d="M216.368 38.1128H210.546V43.935H216.368V38.1128Z" fill="black"/>
<path d="M204.723 49.7578H198.901V55.58H204.723V49.7578Z" fill="black"/>
<mask id="mask0_2_11973" style="mask-type:luminance" maskUnits="userSpaceOnUse" x="16" y="176" width="63" height="60">
<path d="M61.0173 176.092L16.4351 196.333L34.1456 235.343L78.7278 215.102L61.0173 176.092Z" fill="white"/>
</mask>
<g mask="url(#mask0_2_11973)">
<mask id="mask1_2_11973" style="mask-type:luminance" maskUnits="userSpaceOnUse" x="16" y="176" width="63" height="60">
<path d="M61.0173 176.092L16.4351 196.333L34.1456 235.343L78.7278 215.102L61.0173 176.092Z" fill="white"/>
</mask>
<g mask="url(#mask1_2_11973)">
<path d="M45.8922 182.959C43.4004 184.091 41.2087 185.85 39.5483 188.023C36.8189 187.843 34.052 188.335 31.5602 189.466C23.2194 193.253 19.5163 203.12 23.303 211.46C26.3389 218.147 33.3203 221.717 38.6424 223.533C43.9755 225.354 50.1119 226.247 54.273 225.811C55.0225 225.732 55.7508 225.534 56.4367 225.223C57.1226 224.911 57.7513 224.494 58.3038 223.981C61.3735 221.134 64.7365 215.925 66.8798 210.713C69.0155 205.511 70.9237 197.906 67.8878 191.219C64.101 182.878 54.233 179.173 45.8947 182.958" fill="#1D2633"/>
</g>
</g>
<path d="M47.3372 186.142C44.7231 187.329 42.6071 189.327 41.2571 191.787C38.519 191.183 35.6191 191.462 33.0052 192.649C26.4203 195.638 23.4951 203.428 26.4846 210.013C29.0041 215.563 35.1008 218.628 39.7707 220.22C44.5869 221.863 50.2666 222.711 53.9083 222.33C54.2849 222.292 54.649 222.193 54.9907 222.037C55.3325 221.882 55.6467 221.673 55.9236 221.415C58.6074 218.924 61.71 214.089 63.6407 209.383C65.5146 204.817 67.2211 198.212 64.7015 192.662C61.712 186.078 53.9219 183.152 47.3372 186.142Z" fill="#1D2633"/>
<mask id="mask2_2_11973" style="mask-type:luminance" maskUnits="userSpaceOnUse" x="28" y="188" width="35" height="31">
<path d="M43.309 196.307C40.7025 194.773 37.4143 194.488 34.4512 195.834C29.6148 198.029 27.474 203.73 29.6697 208.567C33.2842 216.528 48.0456 219.429 53.5446 218.852C57.5986 215.092 65.1308 202.07 61.5163 194.108C59.3206 189.272 53.6195 187.131 48.7832 189.327C45.82 190.672 43.8728 193.334 43.309 196.307Z" fill="white"/>
</mask>
<g mask="url(#mask2_2_11973)">
<path d="M46.8896 175.906L17.9014 208.588L48.264 235.519L77.2523 202.836L46.8896 175.906Z" fill="#00FFAF"/>
</g>
</svg>
