<svg width="97" height="84" viewBox="0 0 97 84" fill="none" xmlns="http://www.w3.org/2000/svg">
<path d="M45.3769 75.3666H4.06113C1.81824 75.3666 0 73.5483 0 71.3055V43.1173C0 40.8744 1.81824 39.0562 4.06113 39.0562H45.3769C47.6198 39.0562 49.438 40.8744 49.438 43.1173V71.3055C49.438 73.5483 47.6198 75.3666 45.3769 75.3666Z" fill="#00FFAF"/>
<path d="M17.3824 66.9932H13.1953V71.1802H17.3824V66.9932Z" fill="black"/>
<path d="M96.9355 66.9932H92.7485V71.1802H96.9355V66.9932Z" fill="black"/>
<path d="M29.9438 4.18701H25.7568V8.37402H29.9438V4.18701Z" fill="black"/>
<path d="M34.1304 79.5537H29.9434V83.7407H34.1304V79.5537Z" fill="black"/>
<path d="M29.9438 20.9351H25.7568V25.1221H29.9438V20.9351Z" fill="black"/>
<path d="M29.9438 16.748H25.7568V20.9351H29.9438V16.748Z" fill="#00FFAF"/>
<path d="M29.9438 12.5615H25.7568V16.7485H29.9438V12.5615Z" fill="#00FFAF"/>
<path d="M29.9438 8.37451H25.7568V12.5615H29.9438V8.37451Z" fill="#00FFAF"/>
<path d="M17.3824 71.1797H13.1953V75.3667H17.3824V71.1797Z" fill="black"/>
<path d="M96.9355 71.1797H92.7485V75.3667H96.9355V71.1797Z" fill="black"/>
<path d="M25.7568 4.18701H21.5698V8.37402H25.7568V4.18701Z" fill="black"/>
<path d="M29.9439 79.5537H25.7568V83.7407H29.9439V79.5537Z" fill="black"/>
<path d="M25.7568 20.9351H21.5698V25.1221H25.7568V20.9351Z" fill="black"/>
<path d="M25.7568 16.748H21.5698V20.9351H25.7568V16.748Z" fill="#00FFAF"/>
<path d="M25.7568 12.5615H21.5698V16.7485H25.7568V12.5615Z" fill="#00FFAF"/>
<path d="M25.7568 8.37451H21.5698V12.5615H25.7568V8.37451Z" fill="#00FFAF"/>
<path d="M21.5694 75.3667H17.3823V79.5537H21.5694V75.3667Z" fill="black"/>
<path d="M92.749 75.3667H88.562V79.5537H92.749V75.3667Z" fill="black"/>
<path d="M21.5698 8.37451H17.3828V12.5615H21.5698V8.37451Z" fill="black"/>
<path d="M17.3823 12.5615H13.1953V16.7485H17.3823V12.5615Z" fill="black"/>
<path d="M25.7569 79.5537H21.5698V83.7407H25.7569V79.5537Z" fill="black"/>
<path d="M21.5694 20.9351H17.3823V25.1221H21.5694V20.9351Z" fill="black"/>
<path d="M21.5694 16.748H17.3823V20.9351H21.5694V16.748Z" fill="#00FFAF"/>
<path d="M21.5694 12.5615H17.3823V16.7485H21.5694V12.5615Z" fill="#00FFAF"/>
<path d="M17.3824 58.6182H13.1953V62.8052H17.3824V58.6182Z" fill="black"/>
<path d="M96.9355 58.6182H92.7485V62.8052H96.9355V58.6182Z" fill="black"/>
<path d="M38.3174 4.18701H34.1304V8.37402H38.3174V4.18701Z" fill="black"/>
<path d="M42.5044 79.5537H38.3174V83.7407H42.5044V79.5537Z" fill="black"/>
<path d="M38.3174 20.9351H34.1304V25.1221H38.3174V20.9351Z" fill="black"/>
<path d="M38.3174 16.748H34.1304V20.9351H38.3174V16.748Z" fill="#00FFAF"/>
<path d="M38.3174 12.5615H34.1304V16.7485H38.3174V12.5615Z" fill="#00FFAF"/>
<path d="M38.3174 8.37451H34.1304V12.5615H38.3174V8.37451Z" fill="#00FFAF"/>
<path d="M17.3824 50.2441H13.1953V54.4312H17.3824V50.2441Z" fill="black"/>
<path d="M96.9355 50.2441H92.7485V54.4312H96.9355V50.2441Z" fill="black"/>
<path d="M46.6919 4.18701H42.5049V8.37402H46.6919V4.18701Z" fill="black"/>
<path d="M50.8789 79.5537H46.6919V83.7407H50.8789V79.5537Z" fill="black"/>
<path d="M46.6919 20.9351H42.5049V25.1221H46.6919V20.9351Z" fill="black"/>
<path d="M46.6919 16.748H42.5049V20.9351H46.6919V16.748Z" fill="white"/>
<path d="M17.3824 41.8701H13.1953V46.0571H17.3824V41.8701Z" fill="black"/>
<path d="M96.9355 41.8701H92.7485V46.0571H96.9355V41.8701Z" fill="black"/>
<path d="M55.0654 4.18701H50.8784V8.37402H55.0654V4.18701Z" fill="black"/>
<path d="M59.2525 79.5537H55.0654V83.7407H59.2525V79.5537Z" fill="black"/>
<path d="M55.0654 20.9351H50.8784V25.1221H55.0654V20.9351Z" fill="black"/>
<path d="M55.0654 16.748H50.8784V20.9351H55.0654V16.748Z" fill="#00FFAF"/>
<path d="M55.0659 12.5615H50.8789V16.7485H55.0659V12.5615Z" fill="#00FFAF"/>
<path d="M55.0654 8.37451H50.8784V12.5615H55.0654V8.37451Z" fill="#00FFAF"/>
<path d="M17.3824 33.4966H13.1953V37.6836H17.3824V33.4966Z" fill="black"/>
<path d="M96.9355 33.4966H92.7485V37.6836H96.9355V33.4966Z" fill="black"/>
<path d="M63.4399 4.18701H59.2529V8.37402H63.4399V4.18701Z" fill="black"/>
<path d="M67.627 79.5537H63.4399V83.7407H67.627V79.5537Z" fill="black"/>
<path d="M63.4399 20.9351H59.2529V25.1221H63.4399V20.9351Z" fill="black"/>
<path d="M63.4399 16.748H59.2529V20.9351H63.4399V16.748Z" fill="#00FFAF"/>
<path d="M63.4399 12.5615H59.2529V16.7485H63.4399V12.5615Z" fill="white"/>
<path d="M63.4399 8.37451H59.2529V12.5615H63.4399V8.37451Z" fill="#00FFAF"/>
<path d="M17.3824 25.1226H13.1953V29.3096H17.3824V25.1226Z" fill="black"/>
<path d="M96.9355 25.1226H92.7485V29.3096H96.9355V25.1226Z" fill="black"/>
<path d="M71.814 4.18701H67.627V8.37402H71.814V4.18701Z" fill="black"/>
<path d="M76.0015 79.5537H71.8145V83.7407H76.0015V79.5537Z" fill="black"/>
<path d="M71.814 20.9351H67.627V25.1221H71.814V20.9351Z" fill="black"/>
<path d="M71.814 16.748H67.627V20.9351H71.814V16.748Z" fill="#00FFAF"/>
<path d="M71.814 12.5615H67.627V16.7485H71.814V12.5615Z" fill="white"/>
<path d="M71.814 8.37451H67.627V12.5615H71.814V8.37451Z" fill="#00FFAF"/>
<path d="M17.3824 16.748H13.1953V20.9351H17.3824V16.748Z" fill="black"/>
<path d="M96.9355 16.748H92.7485V20.9351H96.9355V16.748Z" fill="black"/>
<path d="M96.9355 12.5615H92.7485V16.7485H96.9355V12.5615Z" fill="black"/>
<path d="M92.749 8.37451H88.562V12.5615H92.749V8.37451Z" fill="black"/>
<path d="M80.1885 4.18701H76.0015V8.37402H80.1885V4.18701Z" fill="black"/>
<path d="M88.562 4.18701H84.375V8.37402H88.562V4.18701Z" fill="black"/>
<path d="M84.3745 79.5537H80.1875V83.7407H84.3745V79.5537Z" fill="black"/>
<path d="M80.1885 20.9351H76.0015V25.1221H80.1885V20.9351Z" fill="black"/>
<path d="M80.1885 16.748H76.0015V20.9351H80.1885V16.748Z" fill="#00FFAF"/>
<path d="M80.1885 12.5615H76.0015V16.7485H80.1885V12.5615Z" fill="#00FFAF"/>
<path d="M80.1885 8.37451H76.0015V12.5615H80.1885V8.37451Z" fill="#00FFAF"/>
<path d="M88.562 20.9351H84.375V25.1221H88.562V20.9351Z" fill="black"/>
<path d="M88.562 16.748H84.375V20.9351H88.562V16.748Z" fill="#00FFAF"/>
<path d="M88.562 12.5615H84.375V16.7485H88.562V12.5615Z" fill="#00FFAF"/>
<path d="M88.562 8.37451H84.375V12.5615H88.562V8.37451Z" fill="#00FFAF"/>
<path d="M88.562 79.5537H84.375V83.7407H88.562V79.5537Z" fill="black"/>
<path d="M84.3745 20.9351H80.1875V25.1221H84.3745V20.9351Z" fill="black"/>
<path d="M84.3745 16.748H80.1875V20.9351H84.3745V16.748Z" fill="#00FFAF"/>
<path d="M84.3745 12.5615H80.1875V16.7485H84.3745V12.5615Z" fill="#00FFAF"/>
<path d="M84.3745 8.37451H80.1875V12.5615H84.3745V8.37451Z" fill="#00FFAF"/>
<path d="M92.749 20.9351H88.562V25.1221H92.749V20.9351Z" fill="black"/>
<path d="M92.749 16.748H88.562V20.9351H92.749V16.748Z" fill="#00FFAF"/>
<path d="M92.749 12.5615H88.562V16.7485H92.749V12.5615Z" fill="#00FFAF"/>
<path d="M17.3824 62.8052H13.1953V66.9922H17.3824V62.8052Z" fill="black"/>
<path d="M96.9355 62.8052H92.7485V66.9922H96.9355V62.8052Z" fill="black"/>
<path d="M34.1304 4.18701H29.9434V8.37402H34.1304V4.18701Z" fill="black"/>
<path d="M38.3174 79.5537H34.1304V83.7407H38.3174V79.5537Z" fill="black"/>
<path d="M34.1304 20.9351H29.9434V25.1221H34.1304V20.9351Z" fill="black"/>
<path d="M34.1304 16.748H29.9434V20.9351H34.1304V16.748Z" fill="#00FFAF"/>
<path d="M34.1304 12.5615H29.9434V16.7485H34.1304V12.5615Z" fill="#00FFAF"/>
<path d="M34.1304 8.37451H29.9434V12.5615H34.1304V8.37451Z" fill="#00FFAF"/>
<path d="M17.3824 54.4316H13.1953V58.6187H17.3824V54.4316Z" fill="black"/>
<path d="M96.9355 54.4316H92.7485V58.6187H96.9355V54.4316Z" fill="black"/>
<path d="M42.5044 4.18701H38.3174V8.37402H42.5044V4.18701Z" fill="black"/>
<path d="M46.6919 79.5537H42.5049V83.7407H46.6919V79.5537Z" fill="black"/>
<path d="M42.5044 20.9351H38.3174V25.1221H42.5044V20.9351Z" fill="black"/>
<path d="M42.5044 16.748H38.3174V20.9351H42.5044V16.748Z" fill="#00FFAF"/>
<path d="M42.5044 12.5615H38.3174V16.7485H42.5044V12.5615Z" fill="white"/>
<path d="M42.5044 8.37451H38.3174V12.5615H42.5044V8.37451Z" fill="#00FFAF"/>
<path d="M17.3824 46.0571H13.1953V50.2441H17.3824V46.0571Z" fill="black"/>
<path d="M96.9355 46.0571H92.7485V50.2441H96.9355V46.0571Z" fill="black"/>
<path d="M50.8789 4.18701H46.6919V8.37402H50.8789V4.18701Z" fill="black"/>
<path d="M55.0655 79.5537H50.8784V83.7407H55.0655V79.5537Z" fill="black"/>
<path d="M50.8789 20.9351H46.6919V25.1221H50.8789V20.9351Z" fill="black"/>
<path d="M50.8789 16.748H46.6919V20.9351H50.8789V16.748Z" fill="#00FFAF"/>
<path d="M50.8789 12.5615H46.6919V16.7485H50.8789V12.5615Z" fill="white"/>
<path d="M50.8789 8.37451H46.6919V12.5615H50.8789V8.37451Z" fill="#00FFAF"/>
<path d="M17.3824 37.6836H13.1953V41.8706H17.3824V37.6836Z" fill="black"/>
<path d="M96.9355 37.6836H92.7485V41.8706H96.9355V37.6836Z" fill="black"/>
<path d="M59.2524 4.18701H55.0654V8.37402H59.2524V4.18701Z" fill="black"/>
<path d="M63.44 79.5537H59.2529V83.7407H63.44V79.5537Z" fill="black"/>
<path d="M59.2524 20.9351H55.0654V25.1221H59.2524V20.9351Z" fill="black"/>
<path d="M59.2524 16.748H55.0654V20.9351H59.2524V16.748Z" fill="#00FFAF"/>
<path d="M59.2524 12.5615H55.0654V16.7485H59.2524V12.5615Z" fill="#00FFAF"/>
<path d="M59.2524 8.37451H55.0654V12.5615H59.2524V8.37451Z" fill="#00FFAF"/>
<path d="M17.3824 29.3096H13.1953V33.4966H17.3824V29.3096Z" fill="black"/>
<path d="M96.9355 29.3096H92.7485V33.4966H96.9355V29.3096Z" fill="black"/>
<path d="M67.627 4.18701H63.4399V8.37402H67.627V4.18701Z" fill="black"/>
<path d="M67.627 0H63.4399V4.18701H67.627V0Z" fill="black"/>
<path d="M46.6919 0H42.5049V4.18701H46.6919V0Z" fill="black"/>
<path d="M46.6919 8.37451H42.5049V12.5615H46.6919V8.37451Z" fill="black"/>
<path d="M46.6919 12.5615H42.5049V16.7485H46.6919V12.5615Z" fill="black"/>
<path d="M67.627 8.37451H63.4399V12.5615H67.627V8.37451Z" fill="black"/>
<path d="M67.627 12.5615H63.4399V16.7485H67.627V12.5615Z" fill="black"/>
<path d="M71.814 79.5537H67.627V83.7407H71.814V79.5537Z" fill="black"/>
<path d="M67.627 20.9351H63.4399V25.1221H67.627V20.9351Z" fill="black"/>
<path d="M67.627 16.748H63.4399V20.9351H67.627V16.748Z" fill="white"/>
<path d="M17.3824 20.9351H13.1953V25.1221H17.3824V20.9351Z" fill="black"/>
<path d="M96.9355 20.9351H92.7485V25.1221H96.9355V20.9351Z" fill="black"/>
<path d="M76.0015 4.18701H71.8145V8.37402H76.0015V4.18701Z" fill="black"/>
<path d="M84.3745 4.18701H80.1875V8.37402H84.3745V4.18701Z" fill="black"/>
<path d="M80.188 79.5537H76.001V83.7407H80.188V79.5537Z" fill="black"/>
<path d="M76.0015 20.9351H71.8145V25.1221H76.0015V20.9351Z" fill="black"/>
<path d="M82.9341 34.8691H78.7471V39.0562H82.9341V34.8691Z" fill="black"/>
<path d="M87.1201 34.8691H82.9331V39.0562H87.1201V34.8691Z" fill="black"/>
<path d="M78.7471 34.8691H74.5601V39.0562H78.7471V34.8691Z" fill="black"/>
<path d="M82.9341 39.0562H78.7471V43.2432H82.9341V39.0562Z" fill="black"/>
<path d="M87.1201 39.0562H82.9331V43.2432H87.1201V39.0562Z" fill="black"/>
<path d="M78.7471 39.0562H74.5601V43.2432H78.7471V39.0562Z" fill="black"/>
<path d="M82.9341 43.2432H78.7471V47.4302H82.9341V43.2432Z" fill="black"/>
<path d="M87.1201 43.2432H82.9331V47.4302H87.1201V43.2432Z" fill="black"/>
<path d="M78.7471 43.2432H74.5601V47.4302H78.7471V43.2432Z" fill="black"/>
<path d="M66.186 34.8691H61.999V39.0562H66.186V34.8691Z" fill="black"/>
<path d="M70.3726 34.8691H66.1855V39.0562H70.3726V34.8691Z" fill="black"/>
<path d="M61.9995 34.8691H57.8125V39.0562H61.9995V34.8691Z" fill="black"/>
<path d="M66.186 39.0562H61.999V43.2432H66.186V39.0562Z" fill="black"/>
<path d="M70.3726 39.0562H66.1855V43.2432H70.3726V39.0562Z" fill="black"/>
<path d="M61.9995 39.0562H57.8125V43.2432H61.9995V39.0562Z" fill="black"/>
<path d="M66.186 43.2432H61.999V47.4302H66.186V43.2432Z" fill="black"/>
<path d="M70.3726 43.2432H66.1855V47.4302H70.3726V43.2432Z" fill="black"/>
<path d="M61.9995 43.2432H57.8125V47.4302H61.9995V43.2432Z" fill="black"/>
<path d="M49.438 34.8691H45.251V39.0562H49.438V34.8691Z" fill="black"/>
<path d="M53.624 34.8691H49.437V39.0562H53.624V34.8691Z" fill="black"/>
<path d="M45.251 34.8691H41.064V39.0562H45.251V34.8691Z" fill="black"/>
<path d="M49.438 39.0562H45.251V43.2432H49.438V39.0562Z" fill="black"/>
<path d="M53.624 39.0562H49.437V43.2432H53.624V39.0562Z" fill="black"/>
<path d="M45.251 39.0562H41.064V43.2432H45.251V39.0562Z" fill="black"/>
<path d="M49.438 43.2432H45.251V47.4302H49.438V43.2432Z" fill="black"/>
<path d="M53.624 43.2432H49.437V47.4302H53.624V43.2432Z" fill="black"/>
<path d="M45.251 43.2432H41.064V47.4302H45.251V43.2432Z" fill="black"/>
<path d="M32.6899 34.8691H28.5029V39.0562H32.6899V34.8691Z" fill="black"/>
<path d="M36.876 34.8691H32.689V39.0562H36.876V34.8691Z" fill="black"/>
<path d="M28.5029 34.8691H24.3159V39.0562H28.5029V34.8691Z" fill="black"/>
<path d="M32.6899 39.0562H28.5029V43.2432H32.6899V39.0562Z" fill="black"/>
<path d="M36.876 39.0562H32.689V43.2432H36.876V39.0562Z" fill="black"/>
<path d="M28.5029 39.0562H24.3159V43.2432H28.5029V39.0562Z" fill="black"/>
<path d="M32.6899 43.2432H28.5029V47.4302H32.6899V43.2432Z" fill="black"/>
<path d="M36.876 43.2432H32.689V47.4302H36.876V43.2432Z" fill="black"/>
<path d="M28.5029 43.2432H24.3159V47.4302H28.5029V43.2432Z" fill="black"/>
<path d="M82.9341 52.9902H78.7471V57.1772H82.9341V52.9902Z" fill="black"/>
<path d="M87.1201 52.9902H82.9331V57.1772H87.1201V52.9902Z" fill="black"/>
<path d="M78.7471 52.9902H74.5601V57.1772H78.7471V52.9902Z" fill="black"/>
<path d="M82.9341 57.1772H78.7471V61.3643H82.9341V57.1772Z" fill="black"/>
<path d="M87.1201 57.1772H82.9331V61.3643H87.1201V57.1772Z" fill="black"/>
<path d="M78.7471 57.1772H74.5601V61.3643H78.7471V57.1772Z" fill="black"/>
<path d="M82.9341 61.3643H78.7471V65.5513H82.9341V61.3643Z" fill="black"/>
<path d="M87.1201 61.3643H82.9331V65.5513H87.1201V61.3643Z" fill="black"/>
<path d="M78.7471 61.3643H74.5601V65.5513H78.7471V61.3643Z" fill="black"/>
<path d="M66.186 52.9902H61.999V57.1772H66.186V52.9902Z" fill="black"/>
<path d="M70.3726 52.9902H66.1855V57.1772H70.3726V52.9902Z" fill="black"/>
<path d="M61.9995 52.9902H57.8125V57.1772H61.9995V52.9902Z" fill="black"/>
<path d="M66.186 57.1772H61.999V61.3643H66.186V57.1772Z" fill="black"/>
<path d="M70.3726 57.1772H66.1855V61.3643H70.3726V57.1772Z" fill="black"/>
<path d="M61.9995 57.1772H57.8125V61.3643H61.9995V57.1772Z" fill="black"/>
<path d="M66.186 61.3643H61.999V65.5513H66.186V61.3643Z" fill="black"/>
<path d="M70.3726 61.3643H66.1855V65.5513H70.3726V61.3643Z" fill="black"/>
<path d="M61.9995 61.3643H57.8125V65.5513H61.9995V61.3643Z" fill="black"/>
<path d="M49.438 52.9902H45.251V57.1772H49.438V52.9902Z" fill="black"/>
<path d="M53.624 52.9902H49.437V57.1772H53.624V52.9902Z" fill="black"/>
<path d="M45.251 52.9902H41.064V57.1772H45.251V52.9902Z" fill="black"/>
<path d="M49.438 57.1772H45.251V61.3643H49.438V57.1772Z" fill="black"/>
<path d="M53.624 57.1772H49.437V61.3643H53.624V57.1772Z" fill="black"/>
<path d="M45.251 57.1772H41.064V61.3643H45.251V57.1772Z" fill="black"/>
<path d="M49.438 61.3643H45.251V65.5513H49.438V61.3643Z" fill="black"/>
<path d="M53.624 61.3643H49.437V65.5513H53.624V61.3643Z" fill="black"/>
<path d="M45.251 61.3643H41.064V65.5513H45.251V61.3643Z" fill="black"/>
<path d="M32.6899 52.9902H28.5029V57.1772H32.6899V52.9902Z" fill="black"/>
<path d="M36.876 52.9902H32.689V57.1772H36.876V52.9902Z" fill="black"/>
<path d="M28.5029 52.9902H24.3159V57.1772H28.5029V52.9902Z" fill="black"/>
<path d="M32.6899 57.1772H28.5029V61.3643H32.6899V57.1772Z" fill="black"/>
<path d="M36.876 57.1772H32.689V61.3643H36.876V57.1772Z" fill="black"/>
<path d="M28.5029 57.1772H24.3159V61.3643H28.5029V57.1772Z" fill="black"/>
<path d="M32.6899 61.3643H28.5029V65.5513H32.6899V61.3643Z" fill="black"/>
<path d="M36.876 61.3643H32.689V65.5513H36.876V61.3643Z" fill="black"/>
<path d="M28.5029 61.3643H24.3159V65.5513H28.5029V61.3643Z" fill="black"/>
<path d="M76.0015 16.748H71.8145V20.9351H76.0015V16.748Z" fill="#00FFAF"/>
<path d="M76.0015 12.5615H71.8145V16.7485H76.0015V12.5615Z" fill="#00FFAF"/>
<path d="M76.0015 8.37451H71.8145V12.5615H76.0015V8.37451Z" fill="#00FFAF"/>
</svg>
