<svg width="100" height="81" viewBox="0 0 100 81" fill="none" xmlns="http://www.w3.org/2000/svg">
<path d="M35.1502 72.3154H2.97058C1.32996 72.3154 0 70.9853 0 69.3447V43.1024C0 41.4618 1.32996 40.1318 2.97058 40.1318H35.1502C36.7908 40.1318 38.1208 41.4618 38.1208 43.1024V69.3447C38.1208 70.9853 36.7908 72.3154 35.1502 72.3154Z" fill="#00FFAF"/>
<mask id="mask0_2_8605" style="mask-type:luminance" maskUnits="userSpaceOnUse" x="19" y="0" width="81" height="81">
<path d="M19.1348 9.18939L99.3985 0V80.2637H19.1348V9.18939Z" fill="white"/>
</mask>
<g mask="url(#mask0_2_8605)">
<path d="M50.5381 14.4238H73.9977V75.0289H50.5381V14.4238Z" fill="white"/>
<path d="M94.1641 22.6828V17.4482H83.6893V22.6828H78.4589V27.9174H73.2216V33.152H67.9912V38.3865H62.7539V43.6211H57.5165V48.8556H52.2862V54.0902H47.0488V69.7939H62.7539V64.5593H67.9912V59.3248H73.2216V54.0902H78.4589V48.8556H83.6893V43.6211H88.9267V38.3865H94.1641V33.152H99.3944V22.6828H94.1641Z" fill="white"/>
<path d="M94.164 22.6828V17.4482H83.6892V22.6828H78.4589V27.9174H73.2215V33.152H67.9911V38.3865H62.7538V43.6211H57.5165V48.8556H52.2861V54.0902H57.5165V59.3248H62.7538V64.5593H67.9911V59.3248H73.2215V54.0902H78.4589V48.8556H83.6892V43.6211H88.9266V38.3865H94.164V33.152H99.3943V22.6828H94.164Z" fill="white"/>
<path d="M94.1638 22.6828V17.4482H83.689V27.9174H88.9264V33.152H99.3941V22.6828H94.1638Z" fill="white"/>
<path d="M78.4588 48.8557H73.2214V54.0903H67.9911V59.3248H73.2214V75.0284H24.3651V14.4241H73.2214V33.152H67.9911V38.3866H73.2214V33.152H78.4588V27.9175H83.6891V22.6829H78.4588V14.4241H73.2214V9.18945H24.3651V14.4241H19.1348V75.0284H24.3651V80.2631H73.2214V75.0284H78.4588V48.8557Z" fill="black"/>
<path d="M83.6893 43.6206H78.459V48.8552H83.6893V43.6206Z" fill="black"/>
<path d="M88.9264 38.3867H83.689V43.6213H88.9264V38.3867Z" fill="black"/>
<path d="M94.1641 33.1519H88.9268V38.3864H94.1641V33.1519Z" fill="black"/>
<path d="M99.3944 22.6826H94.1641V33.1518H99.3944V22.6826Z" fill="black"/>
<path d="M57.5165 48.8555H52.2861V54.0901H57.5165V48.8555Z" fill="black"/>
<path d="M62.754 43.6206H57.5166V48.8552H62.754V43.6206Z" fill="black"/>
<path d="M67.9912 38.3867H62.7539V43.6213H67.9912V38.3867Z" fill="black"/>
<path d="M94.1638 17.4482H83.689V22.6828H94.1638V17.4482Z" fill="black"/>
<path d="M47.0489 64.5594H31.3438V69.794H62.754V64.5594H67.9913V59.3249H62.754V64.5594H52.2863V54.0903H47.0489V64.5594Z" fill="black"/>
<path d="M60.6212 21.9072H31.3438V27.1418H60.6212V21.9072Z" fill="#00FFAF"/>
<path d="M48.9858 21.9072H31.3438V27.1418H48.9858V21.9072Z" fill="black"/>
<path d="M53.447 33.7339H31.3438V38.9684H53.447V33.7339Z" fill="#00FFAF"/>
<path d="M41.8185 33.7339H31.3438V38.9684H41.8185V33.7339Z" fill="black"/>
</g>
</svg>
