<svg width="35" height="33" viewBox="0 0 35 33" fill="none" xmlns="http://www.w3.org/2000/svg">
<path fill-rule="evenodd" clip-rule="evenodd" d="M10.1792 2.03503V0H20.3562V2.03503H14.2502H10.1792Z" fill="#44EB99"/>
<path fill-rule="evenodd" clip-rule="evenodd" d="M8.14307 4.07104V2.03613H10.178V4.07104H8.14307Z" fill="#44EB99"/>
<path fill-rule="evenodd" clip-rule="evenodd" d="M20.353 2.03613H22.3881V4.07104H20.353V2.03613Z" fill="#44EB99"/>
<path fill-rule="evenodd" clip-rule="evenodd" d="M8.14099 4.0708V10.1759H6.10498H4.07001H2.03497V12.2108H0V8.14087H2.03497H4.07001H6.10498V6.10583V4.0708H8.14099Z" fill="#44EB99"/>
<path fill-rule="evenodd" clip-rule="evenodd" d="M22.3892 6.10583V4.0708H24.4252V6.10583H22.3892Z" fill="#44EB99"/>
<path fill-rule="evenodd" clip-rule="evenodd" d="M24.4248 6.10303H26.4608V8.13794V10.173V12.208H24.4248V8.13794V6.10303Z" fill="#44EB99"/>
<path fill-rule="evenodd" clip-rule="evenodd" d="M2.03613 12.21H6.10614V14.245H4.07111H2.03613V12.21Z" fill="#44EB99"/>
<path fill-rule="evenodd" clip-rule="evenodd" d="M10.1779 12.21H12.213V14.245V16.28H10.1779H8.14191V18.3149H6.10693V14.245H8.14191H10.1779V12.21Z" fill="#44EB99"/>
<path fill-rule="evenodd" clip-rule="evenodd" d="M24.4252 12.21V14.245H26.4602H30.5302H32.5662H34.6012V26.455H32.5662V18.3149V16.28H30.5302H28.4952H26.4602H24.4252H22.3892V14.245V12.21H24.4252Z" fill="#44EB99"/>
<path fill-rule="evenodd" clip-rule="evenodd" d="M6.10583 18.313V20.348V22.3829H4.0708V20.348V18.313H6.10583Z" fill="#44EB99"/>
<path fill-rule="evenodd" clip-rule="evenodd" d="M4.07111 22.3838V28.4888H2.03613V26.4537V24.4187V22.3838H4.07111Z" fill="#44EB99"/>
<path fill-rule="evenodd" clip-rule="evenodd" d="M10.1792 8.13794V6.10303H12.2151V8.13794H10.1792Z" fill="#44EB99"/>
<path fill-rule="evenodd" clip-rule="evenodd" d="M30.5291 18.313V20.348V22.3829H28.4941V20.348H26.459H24.4241H22.3881V22.3829V24.418H20.353V22.3829V20.348V18.313H22.3881H24.4241H30.5291Z" fill="#44EB99"/>
<path fill-rule="evenodd" clip-rule="evenodd" d="M26.4561 24.4187V22.3838H28.491V24.4187H26.4561Z" fill="#44EB99"/>
<path fill-rule="evenodd" clip-rule="evenodd" d="M22.3892 24.4199H26.4602V26.455H24.4252H22.3892V24.4199Z" fill="#44EB99"/>
<path fill-rule="evenodd" clip-rule="evenodd" d="M30.5278 28.4911V26.4561H32.5628V28.4911H30.5278Z" fill="#44EB99"/>
<path fill-rule="evenodd" clip-rule="evenodd" d="M4.0708 28.4868H6.10583V30.5219H4.0708V28.4868Z" fill="#44EB99"/>
<path fill-rule="evenodd" clip-rule="evenodd" d="M28.4922 30.5219V28.4868H30.5272V30.5219H28.4922Z" fill="#44EB99"/>
<path fill-rule="evenodd" clip-rule="evenodd" d="M6.10693 32.558V30.5229H10.1779H18.3189H22.3889H28.4949V32.558H22.3889H18.3189H16.283H10.1779H6.10693Z" fill="#44EB99"/>
</svg>
