<svg width="35" height="33" viewBox="0 0 35 33" fill="none" xmlns="http://www.w3.org/2000/svg">
<path fill-rule="evenodd" clip-rule="evenodd" d="M32.559 14.244H24.418V12.209H26.453V6.104H24.418V4.06995H22.384V2.03491H20.349V0H10.174V2.03491H8.13898V4.06995H6.104V8.14001H0V12.21H2.034V14.245H6.104V18.3149H4.07001V22.385H2.03497V28.489H4.07001V30.5239H6.104V32.559H28.489V30.5239H30.524V28.489H32.559V26.455H34.594V14.245L32.559 14.244ZM12.208 8.13892H10.174V6.104H12.208V8.13892ZM30.5229 20.349V22.3839H28.489V24.4189H26.454V26.454H22.384V24.4189H20.349V18.314H30.524V20.349H30.5229Z" fill="#44EB99"/>
</svg>
