<svg width="192" height="250" viewBox="0 0 192 250" fill="none" xmlns="http://www.w3.org/2000/svg">
<path d="M179.521 35.6606L173.531 33.7839L171.653 39.7771L177.643 41.6541L179.521 35.6606Z" fill="#1D2633"/>
<path d="M185.512 37.5376L179.521 35.6606L177.644 41.6541L183.634 43.5308L185.512 37.5376Z" fill="#1D2633"/>
<path d="M167.54 31.907L161.549 30.03L159.671 36.0234L165.662 37.9001L167.54 31.907Z" fill="#1D2633"/>
<path d="M165.662 37.9001L159.672 36.0234L157.794 42.0166L163.785 43.8936L165.662 37.9001Z" fill="#1D2633"/>
<path d="M157.794 42.0166L151.803 40.1396L149.925 46.1328L155.916 48.0098L157.794 42.0166Z" fill="#1D2633"/>
<path d="M149.959 46.1433L143.968 44.2664L142.09 50.2598L148.081 52.1365L149.959 46.1433Z" fill="#1D2633"/>
<path d="M142.057 50.2493L136.066 48.3723L134.188 54.3655L140.179 56.2424L142.057 50.2493Z" fill="#1D2633"/>
<path d="M134.222 54.376L128.231 52.499L126.354 58.4924L132.344 60.3691L134.222 54.376Z" fill="#1D2633"/>
<path d="M126.354 58.4924L120.363 56.6155L118.485 62.6086L124.476 64.4856L126.354 58.4924Z" fill="#1D2633"/>
<path d="M118.452 62.5981L112.461 60.7214L110.583 66.7146L116.574 68.5916L118.452 62.5981Z" fill="#1D2633"/>
<path d="M112.494 60.7317L106.504 58.855L104.626 64.8481L110.617 66.7251L112.494 60.7317Z" fill="#1D2633"/>
<path d="M106.479 58.8472L100.488 56.9702L98.6104 62.9634L104.601 64.8403L106.479 58.8472Z" fill="#1D2633"/>
<path d="M98.5852 62.9556L92.5945 61.0786L90.7168 67.072L96.7075 68.9487L98.5852 62.9556Z" fill="#1D2633"/>
<path d="M92.6028 61.0813L86.6121 59.2043L84.7344 65.1978L90.7251 67.0745L92.6028 61.0813Z" fill="#1D2633"/>
<path d="M84.7595 65.2056L78.7688 63.3286L76.8911 69.3218L82.8818 71.1987L84.7595 65.2056Z" fill="#1D2633"/>
<path d="M76.8913 69.3218L70.9006 67.4448L69.0229 73.4382L75.0136 75.3149L76.8913 69.3218Z" fill="#1D2633"/>
<path d="M69.0227 73.4382L63.032 71.5613L61.1543 77.5544L67.145 79.4314L69.0227 73.4382Z" fill="#1D2633"/>
<path d="M61.1545 77.5544L55.1638 75.6775L53.2861 81.6709L59.2768 83.5476L61.1545 77.5544Z" fill="#1D2633"/>
<path d="M53.2864 81.6709L47.2957 79.7939L45.418 85.7871L51.4087 87.6641L53.2864 81.6709Z" fill="#1D2633"/>
<path d="M51.4084 87.6641L45.4177 85.7871L43.54 91.7805L49.5308 93.6572L51.4084 87.6641Z" fill="#1D2633"/>
<path d="M43.5402 91.7805L37.5495 89.9036L35.6719 95.8967L41.6625 97.7737L43.5402 91.7805Z" fill="#1D2633"/>
<path d="M41.6623 97.7737L35.6716 95.8967L33.7939 101.89L39.7847 103.767L41.6623 97.7737Z" fill="#1D2633"/>
<path d="M39.7849 103.767L33.7942 101.89L31.9165 107.883L37.9072 109.76L39.7849 103.767Z" fill="#1D2633"/>
<path d="M43.8976 111.637L37.907 109.76L36.0293 115.753L42.02 117.63L43.8976 111.637Z" fill="#1D2633"/>
<path d="M42.0203 117.63L36.0295 115.753L34.1519 121.747L40.1426 123.623L42.0203 117.63Z" fill="#1D2633"/>
<path d="M46.133 125.5L40.1423 123.623L38.2646 129.617L44.2554 131.493L46.133 125.5Z" fill="#1D2633"/>
<path d="M44.2556 131.493L38.2649 129.617L36.3872 135.61L42.3779 137.487L44.2556 131.493Z" fill="#1D2633"/>
<path d="M48.3683 139.364L42.3777 137.487L40.5 143.48L46.4907 145.357L48.3683 139.364Z" fill="#1D2633"/>
<path d="M52.4816 147.234L46.491 145.357L44.6133 151.35L50.604 153.227L52.4816 147.234Z" fill="#1D2633"/>
<path d="M56.5934 155.104L50.6027 153.227L48.7251 159.22L54.7158 161.097L56.5934 155.104Z" fill="#1D2633"/>
<path d="M60.7116 162.975L54.7209 161.098L52.8433 167.092L58.834 168.969L60.7116 162.975Z" fill="#1D2633"/>
<path d="M64.821 170.844L58.8303 168.967L56.9526 174.96L62.9434 176.837L64.821 170.844Z" fill="#1D2633"/>
<path d="M70.8157 172.722L64.825 170.845L62.9473 176.839L68.938 178.716L70.8157 172.722Z" fill="#1D2633"/>
<path d="M74.9285 180.592L68.9377 178.716L67.0601 184.709L73.0508 186.586L74.9285 180.592Z" fill="#1D2633"/>
<path d="M80.9192 182.469L74.9285 180.592L73.0508 186.586L79.0415 188.462L80.9192 182.469Z" fill="#1D2633"/>
<path d="M85.0324 190.339L79.0417 188.462L77.1641 194.456L83.1548 196.333L85.0324 190.339Z" fill="#1D2633"/>
<path d="M91.0226 192.216L85.0319 190.339L83.1543 196.333L89.145 198.209L91.0226 192.216Z" fill="#1D2633"/>
<path d="M95.136 200.086L89.1453 198.209L87.2676 204.203L93.2583 206.08L95.136 200.086Z" fill="#1D2633"/>
<path d="M101.127 201.963L95.136 200.086L93.2583 206.08L99.249 207.957L101.127 201.963Z" fill="#1D2633"/>
<path d="M105.24 209.833L99.2488 207.957L97.3711 213.95L103.362 215.827L105.24 209.833Z" fill="#1D2633"/>
<path d="M109.353 217.703L103.362 215.827L101.484 221.82L107.475 223.697L109.353 217.703Z" fill="#1D2633"/>
<path d="M103.366 215.828L97.3757 213.951L95.498 219.944L101.489 221.821L103.366 215.828Z" fill="#861BE3"/>
<path d="M97.3606 213.946L91.3699 212.069L89.4922 218.062L95.4829 219.939L97.3606 213.946Z" fill="#861BE3"/>
<path d="M91.4089 212.082L85.4182 210.205L83.5405 216.198L89.5312 218.075L91.4089 212.082Z" fill="#861BE3"/>
<path d="M85.4225 210.206L79.4319 208.329L77.5542 214.323L83.5449 216.199L85.4225 210.206Z" fill="#861BE3"/>
<path d="M79.4167 208.324L73.426 206.448L71.5483 212.441L77.5391 214.318L79.4167 208.324Z" fill="#861BE3"/>
<path d="M73.4182 206.445L67.4275 204.568L65.5498 210.562L71.5405 212.438L73.4182 206.445Z" fill="#861BE3"/>
<path d="M67.4319 204.57L61.4412 202.693L59.5635 208.686L65.5542 210.563L67.4319 204.57Z" fill="#861BE3"/>
<path d="M61.4255 202.688L55.4348 200.811L53.5571 206.804L59.5479 208.681L61.4255 202.688Z" fill="#861BE3"/>
<path d="M55.4744 200.823L49.4836 198.947L47.606 204.94L53.5967 206.817L55.4744 200.823Z" fill="#861BE3"/>
<path d="M49.488 198.948L43.4973 197.071L41.6196 203.064L47.6104 204.941L49.488 198.948Z" fill="#861BE3"/>
<path d="M99.238 207.953L93.2473 206.076L91.3696 212.069L97.3604 213.946L99.238 207.953Z" fill="white"/>
<path d="M93.2868 206.088L87.2961 204.212L85.4185 210.205L91.4091 212.082L93.2868 206.088Z" fill="white"/>
<path d="M87.3005 204.213L81.3098 202.336L79.4321 208.329L85.4228 210.206L87.3005 204.213Z" fill="white"/>
<path d="M81.2942 202.331L75.3035 200.454L73.4258 206.448L79.4165 208.324L81.2942 202.331Z" fill="white"/>
<path d="M75.2957 200.452L69.3049 198.575L67.4272 204.568L73.418 206.445L75.2957 200.452Z" fill="white"/>
<path d="M69.3093 198.576L63.3186 196.699L61.4409 202.693L67.4316 204.57L69.3093 198.576Z" fill="white"/>
<path d="M63.3034 196.695L57.3127 194.818L55.4351 200.811L61.4257 202.688L63.3034 196.695Z" fill="white"/>
<path d="M89.178 198.22L83.1873 196.343L81.3096 202.336L87.3003 204.213L89.178 198.22Z" fill="white"/>
<path d="M83.1721 196.338L77.1814 194.461L75.3037 200.454L81.2944 202.331L83.1721 196.338Z" fill="white"/>
<path d="M77.1731 194.459L71.1824 192.582L69.3047 198.575L75.2954 200.452L77.1731 194.459Z" fill="white"/>
<path d="M78.7966 189.278L72.8059 187.401L70.9282 193.394L76.9189 195.271L78.7966 189.278Z" fill="white"/>
<path d="M71.1872 192.583L65.1965 190.706L63.3188 196.699L69.3096 198.576L71.1872 192.583Z" fill="white"/>
<path d="M65.1809 190.701L59.1902 188.825L57.3125 194.818L63.3032 196.695L65.1809 190.701Z" fill="white"/>
<path d="M57.3518 194.83L51.3611 192.953L49.4834 198.947L55.4741 200.823L57.3518 194.83Z" fill="white"/>
<path d="M51.3655 192.955L45.3748 191.078L43.4971 197.071L49.4878 198.948L51.3655 192.955Z" fill="white"/>
<path d="M43.4816 197.066L37.491 195.189L35.6133 201.183L41.604 203.059L43.4816 197.066Z" fill="#861BE3"/>
<path d="M107.475 223.697L101.484 221.82L99.6064 227.813L105.597 229.69L107.475 223.697Z" fill="#1D2633"/>
<path d="M114.339 54.728L108.348 52.8513L106.47 58.8445L112.461 60.7214L114.339 54.728Z" fill="#1D2633"/>
<path d="M110.226 46.8579L104.235 44.9812L102.357 50.9744L108.348 52.8513L110.226 46.8579Z" fill="#1D2633"/>
<path d="M106.096 38.9827L100.105 37.1057L98.2275 43.0991L104.218 44.9758L106.096 38.9827Z" fill="#1D2633"/>
<path d="M143.968 44.2664L137.977 42.3896L136.1 48.3828L142.09 50.2598L143.968 44.2664Z" fill="#861BE3"/>
<path d="M137.944 42.3792L131.953 40.5022L130.076 46.4954L136.066 48.3723L137.944 42.3792Z" fill="#861BE3"/>
<path d="M131.953 40.5022L125.963 38.6252L124.085 44.6187L130.076 46.4954L131.953 40.5022Z" fill="#861BE3"/>
<path d="M125.979 38.6306L119.988 36.7537L118.111 42.7468L124.102 44.6238L125.979 38.6306Z" fill="#861BE3"/>
<path d="M119.988 36.7537L113.998 34.8767L112.12 40.8701L118.111 42.7468L119.988 36.7537Z" fill="#861BE3"/>
<path d="M113.965 34.8665L107.974 32.9895L106.096 38.9827L112.087 40.8596L113.965 34.8665Z" fill="#861BE3"/>
<path d="M136.066 48.3723L130.075 46.4954L128.198 52.4888L134.188 54.3655L136.066 48.3723Z" fill="white"/>
<path d="M130.075 46.4954L124.085 44.6187L122.207 50.6118L128.198 52.4888L130.075 46.4954Z" fill="white"/>
<path d="M124.102 44.6238L118.111 42.7468L116.233 48.7402L122.224 50.6169L124.102 44.6238Z" fill="white"/>
<path d="M118.111 42.7468L112.12 40.8701L110.242 46.8633L116.233 48.7402L118.111 42.7468Z" fill="white"/>
<path d="M128.198 52.4888L122.207 50.6118L120.33 56.605L126.32 58.4819L128.198 52.4888Z" fill="white"/>
<path d="M122.224 50.6169L116.233 48.7402L114.355 54.7334L120.346 56.6104L122.224 50.6169Z" fill="white"/>
<path d="M120.346 56.6104L114.355 54.7334L112.478 60.7266L118.468 62.6035L120.346 56.6104Z" fill="white"/>
<path d="M116.233 48.7402L110.242 46.8633L108.365 52.8564L114.355 54.7334L116.233 48.7402Z" fill="white"/>
<path d="M112.087 40.8596L106.096 38.9827L104.218 44.9758L110.209 46.8528L112.087 40.8596Z" fill="white"/>
<path d="M107.974 32.9895L101.983 31.1125L100.105 37.1057L106.096 38.9827L107.974 32.9895Z" fill="#861BE3"/>
<path d="M102 31.1179L96.009 29.241L94.1313 35.2341L100.122 37.1111L102 31.1179Z" fill="#1D2633"/>
<path d="M97.8869 23.2478L91.8962 21.3708L90.0186 27.364L96.0093 29.241L97.8869 23.2478Z" fill="#1D2633"/>
<path d="M93.7737 15.3777L87.783 13.5007L85.9053 19.4939L91.896 21.3708L93.7737 15.3777Z" fill="#1D2633"/>
<path d="M95.6516 9.38428L89.6609 7.50757L87.7832 13.5007L93.7739 15.3777L95.6516 9.38428Z" fill="#1D2633"/>
<path d="M89.6604 7.50757L83.6697 5.63062L81.792 11.6238L87.7827 13.5007L89.6604 7.50757Z" fill="#1D2633"/>
<path d="M83.6702 5.63062L77.6794 3.75366L75.8018 9.74683L81.7925 11.6238L83.6702 5.63062Z" fill="#1D2633"/>
<path d="M77.6794 3.75366L71.6887 1.87671L69.811 7.87012L75.8017 9.74683L77.6794 3.75366Z" fill="#1D2633"/>
<path d="M71.6887 1.87671L65.698 0L63.8203 5.99316L69.811 7.87012L71.6887 1.87671Z" fill="#1D2633"/>
<path d="M69.8108 7.87012L63.8201 5.99316L61.9424 11.9863L67.9331 13.8633L69.8108 7.87012Z" fill="#1D2633"/>
<path d="M67.9333 13.8633L61.9426 11.9863L60.0649 17.9795L66.0557 19.8564L67.9333 13.8633Z" fill="#1D2633"/>
<path d="M73.9241 15.7402L67.9333 13.8633L66.0557 19.8564L72.0464 21.7334L73.9241 15.7402Z" fill="white"/>
<path d="M72.0461 21.7334L66.0554 19.8564L64.1777 25.8496L70.1685 27.7266L72.0461 21.7334Z" fill="#1D2633"/>
<path d="M78.0368 23.6104L72.0461 21.7334L70.1685 27.7266L76.1592 29.6035L78.0368 23.6104Z" fill="white"/>
<path d="M76.1594 29.6035L70.1687 27.7266L68.291 33.7197L74.2817 35.5967L76.1594 29.6035Z" fill="#1D2633"/>
<path d="M80.2722 37.4736L74.2815 35.5967L72.4038 41.5898L78.3945 43.4668L80.2722 37.4736Z" fill="#1D2633"/>
<path d="M84.3854 45.3438L78.3948 43.4668L76.5171 49.46L82.5078 51.3369L84.3854 45.3438Z" fill="#1D2633"/>
<path d="M88.4982 53.2139L82.5076 51.3369L80.6299 57.3301L86.6205 59.207L88.4982 53.2139Z" fill="#1D2633"/>
<path d="M173.531 33.7839L167.54 31.907L165.662 37.9001L171.653 39.7771L173.531 33.7839Z" fill="#1D2633"/>
<path d="M191.503 39.4146L185.512 37.5376L183.634 43.5308L189.625 45.4077L191.503 39.4146Z" fill="#1D2633"/>
<path d="M189.625 45.4077L183.634 43.5308L181.756 49.5242L187.747 51.4009L189.625 45.4077Z" fill="#1D2633"/>
<path d="M181.757 49.5242L175.766 47.6472L173.888 53.6404L179.879 55.5173L181.757 49.5242Z" fill="white"/>
<path d="M187.747 51.4009L181.757 49.5242L179.879 55.5173L185.87 57.3943L187.747 51.4009Z" fill="#1D2633"/>
<path d="M179.879 55.5173L173.888 53.6404L172.011 59.6335L178.001 61.5105L179.879 55.5173Z" fill="#1D2633"/>
<path d="M172.065 59.6506L166.074 57.7737L164.196 63.7668L170.187 65.6438L172.065 59.6506Z" fill="#1D2633"/>
<path d="M164.176 63.7605L158.185 61.8835L156.307 67.8767L162.298 69.7537L164.176 63.7605Z" fill="#1D2633"/>
<path d="M156.324 67.8821L150.333 66.0051L148.456 71.9983L154.446 73.8752L156.324 67.8821Z" fill="#1D2633"/>
<path d="M148.405 71.9827L142.415 70.1057L140.537 76.0991L146.528 77.9758L148.405 71.9827Z" fill="#1D2633"/>
<path d="M132.702 80.2258L126.711 78.3489L124.833 84.342L130.824 86.219L132.702 80.2258Z" fill="white"/>
<path d="M126.711 78.3489L120.72 76.4719L118.843 82.4653L124.833 84.342L126.711 78.3489Z" fill="#1D2633"/>
<path d="M118.843 82.4653L112.852 80.5884L110.975 86.5815L116.965 88.4585L118.843 82.4653Z" fill="white"/>
<path d="M112.819 80.5779L106.828 78.7009L104.95 84.6943L110.941 86.571L112.819 80.5779Z" fill="#1D2633"/>
<path d="M104.95 84.6943L98.9597 82.8174L97.082 88.8105L103.073 90.6875L104.95 84.6943Z" fill="#1D2633"/>
<path d="M98.9431 82.8123L92.9524 80.9353L91.0747 86.9285L97.0654 88.8054L98.9431 82.8123Z" fill="#1D2633"/>
<path d="M91.1082 86.939L85.1174 85.062L83.2397 91.0552L89.2305 92.9321L91.1082 86.939Z" fill="#1D2633"/>
<path d="M83.2438 91.0566L77.2532 89.1797L75.3755 95.1729L81.3662 97.0498L83.2438 91.0566Z" fill="#1D2633"/>
<path d="M75.3713 95.1716L69.3806 93.2947L67.5029 99.2878L73.4937 101.165L75.3713 95.1716Z" fill="#1D2633"/>
<path d="M67.5027 99.2878L61.512 97.4111L59.6343 103.404L65.625 105.281L67.5027 99.2878Z" fill="#1D2633"/>
<path d="M65.6252 105.281L59.6345 103.404L57.7568 109.397L63.7475 111.274L65.6252 105.281Z" fill="#1D2633"/>
<path d="M63.7473 111.274L57.7566 109.397L55.8789 115.391L61.8696 117.268L63.7473 111.274Z" fill="#1D2633"/>
<path d="M61.8699 117.268L55.8792 115.391L54.0015 121.384L59.9922 123.261L61.8699 117.268Z" fill="#1D2633"/>
<path d="M65.9826 125.138L59.9919 123.261L58.1143 129.254L64.105 131.131L65.9826 125.138Z" fill="#1D2633"/>
<path d="M70.0999 133.009L64.1091 131.132L62.2314 137.125L68.2222 139.002L70.0999 133.009Z" fill="#1D2633"/>
<path d="M74.2131 140.879L68.2224 139.002L66.3447 144.996L72.3354 146.873L74.2131 140.879Z" fill="#1D2633"/>
<path d="M72.3352 146.873L66.3445 144.996L64.4668 150.989L70.4575 152.866L72.3352 146.873Z" fill="#1D2633"/>
<path d="M76.4484 154.743L70.4578 152.866L68.5801 158.859L74.5708 160.736L76.4484 154.743Z" fill="#1D2633"/>
<path d="M82.4391 156.619L76.4484 154.743L74.5708 160.736L80.5615 162.613L82.4391 156.619Z" fill="#1D2633"/>
<path d="M86.5519 164.49L80.5612 162.613L78.6836 168.606L84.6743 170.483L86.5519 164.49Z" fill="#1D2633"/>
<path d="M92.5427 166.366L86.552 164.49L84.6743 170.483L90.665 172.36L92.5427 166.366Z" fill="#1D2633"/>
<path d="M96.656 174.237L90.6653 172.36L88.7876 178.353L94.7783 180.23L96.656 174.237Z" fill="#1D2633"/>
<path d="M102.647 176.114L96.656 174.237L94.7783 180.23L100.769 182.107L102.647 176.114Z" fill="#1D2633"/>
<path d="M106.759 183.984L100.769 182.107L98.8911 188.1L104.882 189.977L106.759 183.984Z" fill="#1D2633"/>
<path d="M112.75 185.86L106.76 183.984L104.882 189.977L110.873 191.854L112.75 185.86Z" fill="#1D2633"/>
<path d="M116.864 193.73L110.873 191.854L108.995 197.847L114.986 199.724L116.864 193.73Z" fill="#1D2633"/>
<path d="M120.976 201.601L114.986 199.724L113.108 205.717L119.099 207.594L120.976 201.601Z" fill="#1D2633"/>
<path d="M125.09 209.471L119.099 207.594L117.221 213.587L123.212 215.464L125.09 209.471Z" fill="#1D2633"/>
<path d="M129.202 217.341L123.212 215.464L121.334 221.457L127.325 223.334L129.202 217.341Z" fill="#1D2633"/>
<path d="M127.325 223.334L121.334 221.457L119.457 227.45L125.447 229.327L127.325 223.334Z" fill="#1D2633"/>
<path d="M131.438 231.204L125.447 229.327L123.569 235.321L129.56 237.198L131.438 231.204Z" fill="#1D2633"/>
<path d="M129.56 237.198L123.57 235.321L121.692 241.314L127.683 243.191L129.56 237.198Z" fill="#1D2633"/>
<path d="M127.682 243.191L121.692 241.314L119.814 247.307L125.805 249.184L127.682 243.191Z" fill="#1D2633"/>
<path d="M121.692 241.314L115.701 239.437L113.823 245.43L119.814 247.307L121.692 241.314Z" fill="#1D2633"/>
<path d="M115.701 239.437L109.71 237.56L107.833 243.553L113.823 245.43L115.701 239.437Z" fill="#1D2633"/>
<path d="M109.71 237.56L103.719 235.683L101.842 241.676L107.833 243.553L109.71 237.56Z" fill="#1D2633"/>
<path d="M103.719 235.683L97.7288 233.806L95.8511 239.8L101.842 241.676L103.719 235.683Z" fill="#1D2633"/>
<path d="M105.597 229.69L99.6067 227.813L97.729 233.806L103.72 235.683L105.597 229.69Z" fill="#1D2633"/>
<path d="M177.644 41.6541L171.653 39.7771L169.775 45.7703L175.766 47.6472L177.644 41.6541Z" fill="white"/>
<path d="M183.634 43.5308L177.643 41.6541L175.766 47.6472L181.756 49.5242L183.634 43.5308Z" fill="white"/>
<path d="M171.653 39.7771L165.662 37.9001L163.784 43.8936L169.775 45.7703L171.653 39.7771Z" fill="white"/>
<path d="M169.775 45.7703L163.784 43.8936L161.907 49.8867L167.897 51.7634L169.775 45.7703Z" fill="white"/>
<path d="M175.766 47.6472L169.775 45.7703L167.897 51.7634L173.888 53.6404L175.766 47.6472Z" fill="white"/>
<path d="M163.784 43.8936L157.794 42.0166L155.916 48.0098L161.907 49.8867L163.784 43.8936Z" fill="white"/>
<path d="M161.907 49.8867L155.916 48.0098L154.039 54.0029L160.029 55.8799L161.907 49.8867Z" fill="white"/>
<path d="M167.898 51.7634L161.907 49.8867L160.029 55.8799L166.02 57.7568L167.898 51.7634Z" fill="white"/>
<path d="M155.916 48.0098L149.926 46.1328L148.048 52.1262L154.039 54.0029L155.916 48.0098Z" fill="white"/>
<path d="M154.08 54.0161L148.09 52.1392L146.212 58.1323L152.203 60.0093L154.08 54.0161Z" fill="white"/>
<path d="M160.07 55.8928L154.08 54.0161L152.202 60.0093L158.193 61.8862L160.07 55.8928Z" fill="white"/>
<path d="M148.089 52.1392L142.098 50.2622L140.221 56.2556L146.211 58.1323L148.089 52.1392Z" fill="white"/>
<path d="M146.17 58.1194L140.179 56.2424L138.302 62.2356L144.292 64.1125L146.17 58.1194Z" fill="white"/>
<path d="M152.161 59.9963L146.17 58.1194L144.292 64.1125L150.283 65.9895L152.161 59.9963Z" fill="white"/>
<path d="M140.179 56.2424L134.189 54.3655L132.311 60.3589L138.302 62.2356L140.179 56.2424Z" fill="white"/>
<path d="M138.302 62.2356L132.311 60.3589L130.433 66.3521L136.424 68.229L138.302 62.2356Z" fill="white"/>
<path d="M144.292 64.1125L138.302 62.2356L136.424 68.229L142.415 70.1057L144.292 64.1125Z" fill="white"/>
<path d="M142.415 70.1057L136.424 68.229L134.546 74.2222L140.537 76.0991L142.415 70.1057Z" fill="#1D2633"/>
<path d="M173.888 53.6404L167.897 51.7634L166.02 57.7568L172.01 59.6335L173.888 53.6404Z" fill="white"/>
<path d="M166.061 57.7698L160.071 55.8928L158.193 61.8862L164.184 63.7629L166.061 57.7698Z" fill="white"/>
<path d="M158.152 61.873L152.161 59.9963L150.283 65.9895L156.274 67.8662L158.152 61.873Z" fill="white"/>
<path d="M150.283 65.9895L144.292 64.1125L142.415 70.1057L148.405 71.9827L150.283 65.9895Z" fill="white"/>
<path d="M132.311 60.3589L126.32 58.4819L124.442 64.4751L130.433 66.3521L132.311 60.3589Z" fill="white"/>
<path d="M130.466 66.3625L124.476 64.4856L122.598 70.4788L128.589 72.3557L130.466 66.3625Z" fill="white"/>
<path d="M136.457 68.2393L130.466 66.3625L128.589 72.3557L134.58 74.2327L136.457 68.2393Z" fill="white"/>
<path d="M124.476 64.4856L118.485 62.6086L116.607 68.6018L122.598 70.4788L124.476 64.4856Z" fill="white"/>
<path d="M128.589 72.3557L122.598 70.4788L120.721 76.4719L126.711 78.3489L128.589 72.3557Z" fill="white"/>
<path d="M134.58 74.2327L128.589 72.3557L126.711 78.3489L132.702 80.2258L134.58 74.2327Z" fill="#1D2633"/>
<path d="M122.598 70.4788L116.608 68.6018L114.73 74.5952L120.721 76.4719L122.598 70.4788Z" fill="white"/>
<path d="M116.574 68.5916L110.583 66.7146L108.706 72.7078L114.696 74.5847L116.574 68.5916Z" fill="white"/>
<path d="M110.583 66.7146L104.593 64.8376L102.715 70.8308L108.706 72.7078L110.583 66.7146Z" fill="white"/>
<path d="M120.72 76.4719L114.73 74.5952L112.852 80.5884L118.843 82.4653L120.72 76.4719Z" fill="#1D2633"/>
<path d="M114.696 74.5847L108.706 72.7078L106.828 78.7009L112.819 80.5779L114.696 74.5847Z" fill="white"/>
<path d="M108.706 72.7078L102.715 70.8308L100.837 76.8242L106.828 78.7009L108.706 72.7078Z" fill="white"/>
<path d="M104.601 64.8403L98.6105 62.9634L96.7329 68.9565L102.724 70.8335L104.601 64.8403Z" fill="white"/>
<path d="M102.723 70.8335L96.7327 68.9565L94.855 74.95L100.846 76.8267L102.723 70.8335Z" fill="white"/>
<path d="M96.7371 68.958L90.7463 67.0811L88.8687 73.0742L94.8594 74.9512L96.7371 68.958Z" fill="white"/>
<path d="M90.7546 67.0837L84.7639 65.2068L82.8862 71.2L88.877 73.0769L90.7546 67.0837Z" fill="white"/>
<path d="M100.846 76.8267L94.8552 74.95L92.9775 80.9431L98.9683 82.8201L100.846 76.8267Z" fill="white"/>
<path d="M106.828 78.7009L100.838 76.8242L98.96 82.8174L104.951 84.6943L106.828 78.7009Z" fill="#1D2633"/>
<path d="M94.8591 74.9512L88.8684 73.0742L86.9907 79.0676L92.9814 80.9443L94.8591 74.9512Z" fill="white"/>
<path d="M88.8767 73.0769L82.886 71.2L81.0083 77.1931L86.999 79.0701L88.8767 73.0769Z" fill="white"/>
<path d="M92.9816 80.9443L86.9909 79.0676L85.1133 85.0608L91.1039 86.9375L92.9816 80.9443Z" fill="white"/>
<path d="M86.9993 79.0701L81.0085 77.1931L79.1309 83.1865L85.1216 85.0632L86.9993 79.0701Z" fill="white"/>
<path d="M75.0134 75.3149L69.0227 73.4382L67.145 79.4314L73.1357 81.3083L75.0134 75.3149Z" fill="white"/>
<path d="M82.8821 71.1987L76.8914 69.3218L75.0137 75.3149L81.0044 77.1919L82.8821 71.1987Z" fill="white"/>
<path d="M81.0042 77.1919L75.0134 75.3149L73.1357 81.3083L79.1265 83.1851L81.0042 77.1919Z" fill="white"/>
<path d="M85.1213 85.0632L79.1306 83.1865L77.2529 89.1797L83.2436 91.0566L85.1213 85.0632Z" fill="white"/>
<path d="M73.1359 81.3083L67.1453 79.4314L65.2676 85.4246L71.2583 87.3015L73.1359 81.3083Z" fill="white"/>
<path d="M67.1453 79.4314L61.1545 77.5544L59.2769 83.5476L65.2676 85.4246L67.1453 79.4314Z" fill="white"/>
<path d="M79.1266 83.1851L73.1359 81.3083L71.2583 87.3015L77.249 89.1785L79.1266 83.1851Z" fill="white"/>
<path d="M77.2512 89.179L71.2605 87.3022L69.3828 93.2954L75.3735 95.1724L77.2512 89.179Z" fill="white"/>
<path d="M65.2654 85.4241L59.2747 83.5471L57.397 89.5403L63.3877 91.4172L65.2654 85.4241Z" fill="white"/>
<path d="M59.2746 83.5471L53.2839 81.6702L51.4062 87.6633L57.3969 89.5403L59.2746 83.5471Z" fill="white"/>
<path d="M71.2561 87.3008L65.2654 85.4241L63.3877 91.4172L69.3784 93.2939L71.2561 87.3008Z" fill="white"/>
<path d="M63.3879 91.4172L57.3972 89.5403L55.5195 95.5334L61.5103 97.4104L63.3879 91.4172Z" fill="white"/>
<path d="M57.3972 89.5403L51.4065 87.6633L49.5288 93.6567L55.5195 95.5334L57.3972 89.5403Z" fill="white"/>
<path d="M69.3787 93.2939L63.3879 91.4172L61.5103 97.4104L67.501 99.2874L69.3787 93.2939Z" fill="white"/>
<path d="M55.5217 95.5342L49.531 93.6572L47.6533 99.6504L53.644 101.527L55.5217 95.5342Z" fill="white"/>
<path d="M49.5305 93.6572L43.5398 91.7805L41.6621 97.7737L47.6528 99.6504L49.5305 93.6572Z" fill="white"/>
<path d="M61.5119 97.4111L55.5212 95.5342L53.6436 101.527L59.6342 103.404L61.5119 97.4111Z" fill="white"/>
<path d="M53.6438 101.527L47.6531 99.6504L45.7754 105.644L51.7661 107.521L53.6438 101.527Z" fill="white"/>
<path d="M47.653 99.6504L41.6623 97.7737L39.7847 103.767L45.7753 105.644L47.653 99.6504Z" fill="white"/>
<path d="M59.6345 103.404L53.6438 101.527L51.7661 107.521L57.7568 109.397L59.6345 103.404Z" fill="white"/>
<path d="M51.7659 107.521L45.7751 105.644L43.8975 111.637L49.8882 113.514L51.7659 107.521Z" fill="white"/>
<path d="M45.7756 105.644L39.7849 103.767L37.9072 109.76L43.8979 111.637L45.7756 105.644Z" fill="white"/>
<path d="M57.7571 109.397L51.7664 107.521L49.8887 113.514L55.8794 115.391L57.7571 109.397Z" fill="white"/>
<path d="M49.8884 113.514L43.8976 111.637L42.02 117.63L48.0107 119.507L49.8884 113.514Z" fill="white"/>
<path d="M55.8792 115.391L49.8884 113.514L48.0107 119.507L54.0015 121.384L55.8792 115.391Z" fill="white"/>
<path d="M48.0109 119.507L42.0203 117.63L40.1426 123.623L46.1332 125.5L48.0109 119.507Z" fill="white"/>
<path d="M54.0012 121.384L48.0105 119.507L46.1328 125.5L52.1235 127.377L54.0012 121.384Z" fill="white"/>
<path d="M59.99 123.26L53.9993 121.383L52.1216 127.376L58.1123 129.253L59.99 123.26Z" fill="white"/>
<path d="M52.1247 127.377L46.134 125.501L44.2563 131.494L50.247 133.371L52.1247 127.377Z" fill="white"/>
<path d="M58.1155 129.254L52.1248 127.377L50.2471 133.371L56.2378 135.248L58.1155 129.254Z" fill="white"/>
<path d="M64.1042 131.131L58.1135 129.254L56.2358 135.247L62.2266 137.124L64.1042 131.131Z" fill="white"/>
<path d="M50.2473 133.371L44.2566 131.494L42.3789 137.487L48.3696 139.364L50.2473 133.371Z" fill="white"/>
<path d="M56.238 135.248L50.2473 133.371L48.3696 139.364L54.3603 141.241L56.238 135.248Z" fill="white"/>
<path d="M62.2263 137.124L56.2356 135.247L54.3579 141.24L60.3486 143.117L62.2263 137.124Z" fill="white"/>
<path d="M68.2224 139.002L62.2317 137.125L60.354 143.119L66.3447 144.996L68.2224 139.002Z" fill="white"/>
<path d="M54.36 141.241L48.3694 139.364L46.4917 145.357L52.4824 147.234L54.36 141.241Z" fill="white"/>
<path d="M60.3489 143.117L54.3582 141.24L52.4805 147.233L58.4712 149.11L60.3489 143.117Z" fill="white"/>
<path d="M66.345 144.996L60.3542 143.119L58.4766 149.112L64.4673 150.989L66.345 144.996Z" fill="white"/>
<path d="M58.4749 149.111L52.4841 147.235L50.6064 153.228L56.5972 155.105L58.4749 149.111Z" fill="white"/>
<path d="M64.4636 150.988L58.4729 149.111L56.5952 155.104L62.5859 156.981L64.4636 150.988Z" fill="white"/>
<path d="M70.4592 152.866L64.4685 150.989L62.5908 156.982L68.5815 158.859L70.4592 152.866Z" fill="white"/>
<path d="M62.5876 156.981L56.5969 155.105L54.7192 161.098L60.71 162.975L62.5876 156.981Z" fill="white"/>
<path d="M68.5764 158.858L62.5856 156.981L60.708 162.974L66.6987 164.851L68.5764 158.858Z" fill="white"/>
<path d="M74.5724 160.736L68.5818 158.859L66.7041 164.853L72.6948 166.729L74.5724 160.736Z" fill="white"/>
<path d="M80.5598 162.612L74.5691 160.735L72.6914 166.729L78.6821 168.605L80.5598 162.612Z" fill="white"/>
<path d="M130.803 86.2124L136.794 88.0894L138.672 82.0962L132.681 80.2192L130.803 86.2124Z" fill="#1D2633"/>
<path d="M134.917 94.0825L140.907 95.9595L142.785 89.9663L136.794 88.0894L134.917 94.0825Z" fill="#1D2633"/>
<path d="M139.029 101.953L145.02 103.83L146.898 97.8364L140.907 95.9595L139.029 101.953Z" fill="#1D2633"/>
<path d="M143.143 109.823L149.133 111.7L151.011 105.707L145.02 103.83L143.143 109.823Z" fill="#1D2633"/>
<path d="M147.255 117.693L153.246 119.57L155.124 113.577L149.133 111.7L147.255 117.693Z" fill="#1D2633"/>
<path d="M145.378 123.686L151.369 125.563L153.246 119.57L147.256 117.693L145.378 123.686Z" fill="#1D2633"/>
<path d="M149.491 131.556L155.481 133.433L157.359 127.44L151.368 125.563L149.491 131.556Z" fill="#1D2633"/>
<path d="M147.613 137.55L153.604 139.426L155.482 133.433L149.491 131.556L147.613 137.55Z" fill="#1D2633"/>
<path d="M145.735 143.543L151.726 145.42L153.604 139.426L147.613 137.55L145.735 143.543Z" fill="#1D2633"/>
<path d="M137.867 147.659L143.858 149.536L145.736 143.543L139.745 141.666L137.867 147.659Z" fill="#1D2633"/>
<path d="M135.989 153.652L141.98 155.529L143.858 149.536L137.867 147.659L135.989 153.652Z" fill="#1D2633"/>
<path d="M128.121 157.769L134.112 159.646L135.99 153.652L129.999 151.775L128.121 157.769Z" fill="#1D2633"/>
<path d="M126.243 163.762L132.234 165.639L134.112 159.646L128.121 157.769L126.243 163.762Z" fill="#1D2633"/>
<path d="M118.375 167.878L124.366 169.755L126.243 163.762L120.253 161.885L118.375 167.878Z" fill="#1D2633"/>
<path d="M110.507 171.995L116.498 173.871L118.375 167.878L112.385 166.001L110.507 171.995Z" fill="#1D2633"/>
<path d="M102.639 176.111L108.63 177.988L110.508 171.995L104.517 170.118L102.639 176.111Z" fill="#1D2633"/>
<path d="M109.109 92.5786L115.1 94.4556L116.978 88.4624L110.987 86.5854L109.109 92.5786Z" fill="#1D2633"/>
<path d="M113.189 100.438L119.18 102.315L121.057 96.322L115.067 94.4451L113.189 100.438Z" fill="#1D2633"/>
<path d="M117.298 108.307L123.289 110.184L125.166 104.191L119.176 102.314L117.298 108.307Z" fill="#1D2633"/>
<path d="M121.415 116.179L127.406 118.055L129.283 112.062L123.293 110.185L121.415 116.179Z" fill="#1D2633"/>
<path d="M115.42 114.301L121.411 116.177L123.288 110.184L117.298 108.307L115.42 114.301Z" fill="#861BE3"/>
<path d="M109.43 112.424L115.421 114.301L117.299 108.307L111.308 106.43L109.43 112.424Z" fill="#861BE3"/>
<path d="M103.435 110.545L109.426 112.422L111.303 106.429L105.313 104.552L103.435 110.545Z" fill="#861BE3"/>
<path d="M97.4268 108.663L103.417 110.54L105.295 104.547L99.3044 102.67L97.4268 108.663Z" fill="#861BE3"/>
<path d="M91.4321 106.785L97.4229 108.662L99.3005 102.669L93.3098 100.792L91.4321 106.785Z" fill="#861BE3"/>
<path d="M85.4419 104.908L91.4326 106.785L93.3103 100.792L87.3196 98.915L85.4419 104.908Z" fill="#861BE3"/>
<path d="M79.4473 103.03L85.438 104.907L87.3157 98.9138L81.325 97.0369L79.4473 103.03Z" fill="#861BE3"/>
<path d="M73.4976 101.166L79.4883 103.043L81.366 97.0498L75.3752 95.1729L73.4976 101.166Z" fill="#861BE3"/>
<path d="M73.4934 101.165L67.5027 99.2878L65.625 105.281L71.6157 107.158L73.4934 101.165Z" fill="white"/>
<path d="M119.537 122.172L125.528 124.049L127.406 118.055L121.415 116.179L119.537 122.172Z" fill="white"/>
<path d="M113.542 120.294L119.533 122.17L121.411 116.177L115.42 114.301L113.542 120.294Z" fill="white"/>
<path d="M107.552 118.417L113.543 120.294L115.421 114.301L109.43 112.424L107.552 118.417Z" fill="white"/>
<path d="M101.558 116.539L107.548 118.416L109.426 112.422L103.435 110.545L101.558 116.539Z" fill="white"/>
<path d="M95.5493 114.656L101.54 116.533L103.418 110.54L97.4269 108.663L95.5493 114.656Z" fill="white"/>
<path d="M89.5547 112.778L95.5453 114.655L97.423 108.662L91.4323 106.785L89.5547 112.778Z" fill="white"/>
<path d="M83.5645 110.901L89.5552 112.778L91.4329 106.785L85.4421 104.908L83.5645 110.901Z" fill="white"/>
<path d="M77.5693 109.023L83.5601 110.9L85.4377 104.907L79.447 103.03L77.5693 109.023Z" fill="white"/>
<path d="M111.308 106.43L117.298 108.307L119.176 102.314L113.185 100.437L111.308 106.43Z" fill="white"/>
<path d="M105.313 104.552L111.304 106.429L113.181 100.436L107.191 98.5591L105.313 104.552Z" fill="white"/>
<path d="M99.3047 102.67L105.295 104.547L107.173 98.5535L101.182 96.6768L99.3047 102.67Z" fill="white"/>
<path d="M93.3096 100.792L99.3003 102.669L101.178 96.6753L95.1873 94.7986L93.3096 100.792Z" fill="white"/>
<path d="M87.3193 98.915L93.3101 100.792L95.1877 94.7986L89.197 92.9219L87.3193 98.915Z" fill="white"/>
<path d="M107.19 98.5591L113.181 100.436L115.059 94.4426L109.068 92.5659L107.19 98.5591Z" fill="white"/>
<path d="M101.182 96.6768L107.173 98.5535L109.051 92.5603L103.06 90.6836L101.182 96.6768Z" fill="white"/>
<path d="M103.06 90.6836L109.051 92.5603L110.928 86.5671L104.938 84.6902L103.06 90.6836Z" fill="white"/>
<path d="M95.1875 94.7986L101.178 96.6753L103.056 90.6821L97.0652 88.8052L95.1875 94.7986Z" fill="white"/>
<path d="M89.1973 92.9219L95.188 94.7986L97.0656 88.8054L91.075 86.9285L89.1973 92.9219Z" fill="white"/>
<path d="M81.3247 97.0369L87.3154 98.9138L89.1931 92.9204L83.2024 91.0437L81.3247 97.0369Z" fill="white"/>
<path d="M71.6201 107.159L77.6108 109.036L79.4885 103.043L73.4978 101.166L71.6201 107.159Z" fill="white"/>
<path d="M71.616 107.158L65.6252 105.281L63.7476 111.274L69.7383 113.151L71.616 107.158Z" fill="white"/>
<path d="M117.66 128.165L123.65 130.042L125.528 124.049L119.537 122.172L117.66 128.165Z" fill="white"/>
<path d="M111.665 126.287L117.656 128.164L119.533 122.17L113.543 120.294L111.665 126.287Z" fill="white"/>
<path d="M105.675 124.41L111.666 126.287L113.543 120.294L107.552 118.417L105.675 124.41Z" fill="white"/>
<path d="M99.6797 122.532L105.67 124.409L107.548 118.416L101.557 116.539L99.6797 122.532Z" fill="white"/>
<path d="M93.6719 120.65L99.6625 122.526L101.54 116.533L95.5496 114.656L93.6719 120.65Z" fill="white"/>
<path d="M87.6768 118.771L93.6674 120.648L95.5451 114.655L89.5544 112.778L87.6768 118.771Z" fill="white"/>
<path d="M81.6865 116.895L87.6772 118.771L89.5549 112.778L83.5641 110.901L81.6865 116.895Z" fill="white"/>
<path d="M75.6919 115.017L81.6826 116.893L83.5602 110.9L77.5695 109.023L75.6919 115.017Z" fill="white"/>
<path d="M69.7422 113.153L75.7329 115.03L77.6106 109.036L71.6199 107.159L69.7422 113.153Z" fill="white"/>
<path d="M67.8605 119.145L61.8699 117.268L59.9922 123.261L65.9828 125.138L67.8605 119.145Z" fill="white"/>
<path d="M113.904 140.152L119.895 142.028L121.773 136.035L115.782 134.158L113.904 140.152Z" fill="white"/>
<path d="M107.91 138.273L113.9 140.15L115.778 134.157L109.787 132.28L107.91 138.273Z" fill="white"/>
<path d="M101.919 136.396L107.91 138.273L109.788 132.28L103.797 130.403L101.919 136.396Z" fill="white"/>
<path d="M95.9243 134.518L101.915 136.395L103.793 130.402L97.8019 128.525L95.9243 134.518Z" fill="white"/>
<path d="M89.916 132.636L95.9067 134.513L97.7844 128.52L91.7937 126.643L89.916 132.636Z" fill="white"/>
<path d="M83.9214 130.758L89.9121 132.635L91.7898 126.642L85.7991 124.765L83.9214 130.758Z" fill="white"/>
<path d="M77.9312 128.881L83.9219 130.758L85.7995 124.765L79.8088 122.888L77.9312 128.881Z" fill="white"/>
<path d="M71.9365 127.003L77.9272 128.88L79.8049 122.887L73.8142 121.01L71.9365 127.003Z" fill="white"/>
<path d="M65.9873 125.139L71.978 127.016L73.8557 121.023L67.8649 119.146L65.9873 125.139Z" fill="white"/>
<path d="M106.032 144.267L112.022 146.143L113.9 140.15L107.909 138.273L106.032 144.267Z" fill="white"/>
<path d="M100.042 142.39L106.032 144.267L107.91 138.273L101.919 136.396L100.042 142.39Z" fill="white"/>
<path d="M94.0469 140.512L100.038 142.388L101.915 136.395L95.9246 134.518L94.0469 140.512Z" fill="white"/>
<path d="M88.0386 138.629L94.0293 140.506L95.907 134.513L89.9163 132.636L88.0386 138.629Z" fill="white"/>
<path d="M82.0439 136.751L88.0347 138.628L89.9124 132.635L83.9216 130.758L82.0439 136.751Z" fill="white"/>
<path d="M76.0537 134.874L82.0444 136.751L83.9221 130.758L77.9314 128.881L76.0537 134.874Z" fill="white"/>
<path d="M70.0586 132.996L76.0493 134.873L77.927 128.88L71.9363 127.003L70.0586 132.996Z" fill="white"/>
<path d="M104.154 150.26L110.145 152.137L112.023 146.143L106.032 144.267L104.154 150.26Z" fill="#861BE3"/>
<path d="M98.1641 148.383L104.155 150.26L106.032 144.267L100.042 142.39L98.1641 148.383Z" fill="#861BE3"/>
<path d="M92.1689 146.505L98.1597 148.382L100.037 142.388L94.0466 140.512L92.1689 146.505Z" fill="#861BE3"/>
<path d="M86.1611 144.623L92.1519 146.499L94.0295 140.506L88.0388 138.629L86.1611 144.623Z" fill="#861BE3"/>
<path d="M80.166 142.744L86.1567 144.621L88.0344 138.628L82.0437 136.751L80.166 142.744Z" fill="#861BE3"/>
<path d="M74.1758 140.868L80.1665 142.744L82.0442 136.751L76.0535 134.874L74.1758 140.868Z" fill="#861BE3"/>
<path d="M96.2861 154.376L102.277 156.253L104.155 150.26L98.1638 148.383L96.2861 154.376Z" fill="white"/>
<path d="M90.2915 152.498L96.2822 154.375L98.1599 148.382L92.1692 146.505L90.2915 152.498Z" fill="white"/>
<path d="M84.2832 150.616L90.2739 152.493L92.1516 146.499L86.1608 144.623L84.2832 150.616Z" fill="white"/>
<path d="M78.2886 148.738L84.2792 150.615L86.1569 144.621L80.1662 142.744L78.2886 148.738Z" fill="white"/>
<path d="M72.2983 146.861L78.2891 148.738L80.1667 142.744L74.176 140.868L72.2983 146.861Z" fill="white"/>
<path d="M88.4136 158.491L94.4043 160.368L96.282 154.375L90.2913 152.498L88.4136 158.491Z" fill="white"/>
<path d="M82.4058 156.609L88.3964 158.486L90.2741 152.493L84.2834 150.616L82.4058 156.609Z" fill="white"/>
<path d="M80.5278 162.602L86.5186 164.479L88.3962 158.486L82.4055 156.609L80.5278 162.602Z" fill="white"/>
<path d="M76.4106 154.731L82.4013 156.608L84.279 150.615L78.2883 148.738L76.4106 154.731Z" fill="white"/>
<path d="M70.4204 152.854L76.4111 154.731L78.2888 148.738L72.298 146.861L70.4204 152.854Z" fill="white"/>
<path d="M68.1812 138.99L74.1719 140.866L76.0496 134.873L70.0588 132.996L68.1812 138.99Z" fill="#861BE3"/>
<path d="M64.1094 131.132L70.1001 133.009L71.9777 127.016L65.9871 125.139L64.1094 131.132Z" fill="white"/>
<path d="M125.528 124.049L131.519 125.926L133.397 119.932L127.406 118.055L125.528 124.049Z" fill="#1D2633"/>
<path d="M123.65 130.042L129.641 131.919L131.519 125.926L125.528 124.049L123.65 130.042Z" fill="#1D2633"/>
<path d="M121.772 136.035L127.763 137.912L129.641 131.919L123.65 130.042L121.772 136.035Z" fill="#1D2633"/>
<path d="M115.77 134.154L121.76 136.031L123.638 130.038L117.647 128.161L115.77 134.154Z" fill="#861BE3"/>
<path d="M109.785 132.28L115.776 134.156L117.654 128.163L111.663 126.286L109.785 132.28Z" fill="#861BE3"/>
<path d="M103.782 130.399L109.772 132.276L111.65 126.282L105.659 124.406L103.782 130.399Z" fill="#861BE3"/>
<path d="M97.79 128.521L103.781 130.398L105.658 124.405L99.6677 122.528L97.79 128.521Z" fill="#861BE3"/>
<path d="M91.7866 126.641L97.7773 128.517L99.655 122.524L93.6643 120.647L91.7866 126.641Z" fill="#861BE3"/>
<path d="M85.8022 124.766L91.793 126.643L93.6707 120.649L87.6799 118.772L85.8022 124.766Z" fill="#861BE3"/>
<path d="M79.7988 122.885L85.7895 124.762L87.6672 118.769L81.6765 116.892L79.7988 122.885Z" fill="#861BE3"/>
<path d="M73.8584 121.024L79.8491 122.901L81.7268 116.907L75.7361 115.031L73.8584 121.024Z" fill="#861BE3"/>
<path d="M67.874 119.149L73.8647 121.026L75.7424 115.032L69.7517 113.156L67.874 119.149Z" fill="#861BE3"/>
<path d="M61.8711 117.268L67.8618 119.145L69.7394 113.152L63.7487 111.275L61.8711 117.268Z" fill="#861BE3"/>
<path d="M119.895 142.028L125.886 143.905L127.763 137.912L121.773 136.035L119.895 142.028Z" fill="#1D2633"/>
<path d="M112.027 146.145L118.018 148.022L119.895 142.028L113.905 140.152L112.027 146.145Z" fill="#1D2633"/>
<path d="M94.4082 160.369L100.399 162.246L102.277 156.253L96.2859 154.376L94.4082 160.369Z" fill="#1D2633"/>
<path d="M86.5396 164.486L92.5303 166.363L94.408 160.369L88.4172 158.492L86.5396 164.486Z" fill="#1D2633"/>
<path d="M116.948 88.4531L122.939 90.3301L124.817 84.3369L118.826 82.46L116.948 88.4531Z" fill="white"/>
<path d="M122.931 90.3276L128.921 92.2043L130.799 86.2112L124.808 84.3342L122.931 90.3276Z" fill="white"/>
<path d="M115.071 94.4465L121.062 96.3232L122.939 90.3301L116.948 88.4531L115.071 94.4465Z" fill="white"/>
<path d="M121.053 96.3208L127.044 98.1975L128.922 92.2043L122.931 90.3276L121.053 96.3208Z" fill="white"/>
<path d="M133.039 100.076L139.029 101.953L140.907 95.9595L134.916 94.0825L133.039 100.076Z" fill="white"/>
<path d="M128.926 92.2058L134.917 94.0825L136.794 88.0894L130.803 86.2124L128.926 92.2058Z" fill="white"/>
<path d="M127.048 98.199L133.039 100.076L134.916 94.0825L128.925 92.2058L127.048 98.199Z" fill="white"/>
<path d="M119.176 102.314L125.166 104.191L127.044 98.1975L121.053 96.3208L119.176 102.314Z" fill="white"/>
<path d="M131.161 106.069L137.152 107.946L139.03 101.953L133.039 100.076L131.161 106.069Z" fill="white"/>
<path d="M137.152 107.946L143.143 109.823L145.02 103.83L139.03 101.953L137.152 107.946Z" fill="white"/>
<path d="M125.17 104.192L131.161 106.069L133.039 100.076L127.048 98.199L125.17 104.192Z" fill="white"/>
<path d="M123.291 110.185L129.281 112.062L131.159 106.068L125.168 104.191L123.291 110.185Z" fill="white"/>
<path d="M135.276 113.94L141.267 115.817L143.145 109.823L137.154 107.947L135.276 113.94Z" fill="white"/>
<path d="M141.267 115.817L147.258 117.694L149.135 111.7L143.145 109.823L141.267 115.817Z" fill="white"/>
<path d="M129.286 112.063L135.276 113.94L137.154 107.947L131.163 106.07L129.286 112.063Z" fill="white"/>
<path d="M133.398 119.933L139.389 121.81L141.267 115.817L135.276 113.94L133.398 119.933Z" fill="white"/>
<path d="M139.389 121.81L145.38 123.687L147.258 117.694L141.267 115.817L139.389 121.81Z" fill="white"/>
<path d="M127.408 118.056L133.398 119.933L135.276 113.94L129.285 112.063L127.408 118.056Z" fill="white"/>
<path d="M137.509 127.802L143.5 129.679L145.378 123.686L139.387 121.809L137.509 127.802Z" fill="white"/>
<path d="M143.5 129.679L149.491 131.556L151.368 125.563L145.378 123.686L143.5 129.679Z" fill="white"/>
<path d="M131.519 125.926L137.509 127.802L139.387 121.809L133.396 119.932L131.519 125.926Z" fill="white"/>
<path d="M135.632 133.796L141.622 135.673L143.5 129.679L137.509 127.802L135.632 133.796Z" fill="white"/>
<path d="M141.623 135.673L147.613 137.55L149.491 131.556L143.5 129.679L141.623 135.673Z" fill="white"/>
<path d="M129.641 131.919L135.632 133.796L137.509 127.802L131.519 125.926L129.641 131.919Z" fill="white"/>
<path d="M133.754 139.789L139.745 141.666L141.622 135.673L135.632 133.796L133.754 139.789Z" fill="white"/>
<path d="M139.745 141.666L145.735 143.543L147.613 137.55L141.622 135.673L139.745 141.666Z" fill="white"/>
<path d="M127.764 137.912L133.754 139.789L135.632 133.796L129.641 131.919L127.764 137.912Z" fill="white"/>
<path d="M131.876 145.782L137.867 147.659L139.745 141.666L133.754 139.789L131.876 145.782Z" fill="white"/>
<path d="M125.886 143.905L131.876 145.782L133.754 139.789L127.763 137.912L125.886 143.905Z" fill="white"/>
<path d="M129.999 151.775L135.99 153.652L137.867 147.659L131.877 145.782L129.999 151.775Z" fill="white"/>
<path d="M124.008 149.898L129.999 151.775L131.876 145.782L125.885 143.905L124.008 149.898Z" fill="white"/>
<path d="M118.02 148.022L124.01 149.899L125.888 143.906L119.897 142.029L118.02 148.022Z" fill="white"/>
<path d="M122.129 155.891L128.12 157.768L129.998 151.775L124.007 149.898L122.129 155.891Z" fill="white"/>
<path d="M116.139 154.014L122.129 155.891L124.007 149.898L118.016 148.021L116.139 154.014Z" fill="white"/>
<path d="M110.15 152.138L116.141 154.015L118.018 148.022L112.028 146.145L110.15 152.138Z" fill="#1D2633"/>
<path d="M120.252 161.885L126.243 163.761L128.12 157.768L122.13 155.891L120.252 161.885Z" fill="white"/>
<path d="M114.261 160.008L120.251 161.885L122.129 155.891L116.138 154.014L114.261 160.008Z" fill="white"/>
<path d="M108.272 158.132L114.263 160.008L116.141 154.015L110.15 152.138L108.272 158.132Z" fill="white"/>
<path d="M102.276 156.253L108.267 158.13L110.145 152.137L104.154 150.26L102.276 156.253Z" fill="#1D2633"/>
<path d="M112.383 166.001L118.374 167.878L120.252 161.885L114.261 160.008L112.383 166.001Z" fill="white"/>
<path d="M106.395 164.125L112.385 166.002L114.263 160.008L108.272 158.132L106.395 164.125Z" fill="white"/>
<path d="M100.399 162.246L106.39 164.123L108.267 158.13L102.277 156.253L100.399 162.246Z" fill="white"/>
<path d="M104.513 170.117L110.504 171.994L112.382 166L106.391 164.124L104.513 170.117Z" fill="white"/>
<path d="M98.5249 168.24L104.516 170.117L106.393 164.124L100.403 162.247L98.5249 168.24Z" fill="white"/>
<path d="M92.5288 166.362L98.5195 168.239L100.397 162.246L94.4065 160.369L92.5288 166.362Z" fill="#1D2633"/>
<path d="M96.645 174.233L102.636 176.11L104.513 170.117L98.5227 168.24L96.645 174.233Z" fill="white"/>
<path d="M90.6562 172.357L96.647 174.234L98.5246 168.24L92.5339 166.364L90.6562 172.357Z" fill="white"/>
<path d="M66.7043 164.853L60.7136 162.976L58.8359 168.969L64.8267 170.846L66.7043 164.853Z" fill="white"/>
<path d="M72.6926 166.729L66.7019 164.852L64.8242 170.845L70.8149 172.722L72.6926 166.729Z" fill="white"/>
<path d="M78.6887 168.607L72.698 166.73L70.8203 172.724L76.811 174.601L78.6887 168.607Z" fill="white"/>
<path d="M84.676 170.483L78.6853 168.606L76.8076 174.6L82.7983 176.477L84.676 170.483Z" fill="white"/>
<path d="M76.8078 174.6L70.8171 172.723L68.9395 178.716L74.9301 180.593L76.8078 174.6Z" fill="white"/>
<path d="M82.7961 176.476L76.8054 174.599L74.9277 180.592L80.9185 182.469L82.7961 176.476Z" fill="white"/>
<path d="M88.7922 178.354L82.8015 176.478L80.9238 182.471L86.9146 184.348L88.7922 178.354Z" fill="white"/>
<path d="M90.6702 172.361L84.6794 170.484L82.8018 176.478L88.7925 178.354L90.6702 172.361Z" fill="white"/>
<path d="M94.7795 180.23L88.7888 178.353L86.9111 184.346L92.9018 186.223L94.7795 180.23Z" fill="white"/>
<path d="M86.9114 184.347L80.9207 182.47L79.043 188.463L85.0337 190.34L86.9114 184.347Z" fill="white"/>
<path d="M92.9001 186.223L86.9094 184.346L85.0317 190.339L91.0224 192.216L92.9001 186.223Z" fill="white"/>
<path d="M98.8957 188.101L92.905 186.224L91.0273 192.218L97.0181 194.094L98.8957 188.101Z" fill="white"/>
<path d="M100.774 182.108L94.7829 180.231L92.9053 186.224L98.8959 188.101L100.774 182.108Z" fill="white"/>
<path d="M104.883 189.977L98.8923 188.1L97.0146 194.094L103.005 195.97L104.883 189.977Z" fill="white"/>
<path d="M97.0148 194.094L91.0241 192.217L89.1465 198.21L95.1371 200.087L97.0148 194.094Z" fill="white"/>
<path d="M103.004 195.97L97.0129 194.093L95.1353 200.086L101.126 201.963L103.004 195.97Z" fill="white"/>
<path d="M108.999 197.848L103.009 195.971L101.131 201.965L107.122 203.842L108.999 197.848Z" fill="white"/>
<path d="M110.877 191.855L104.886 189.978L103.009 195.971L109 197.848L110.877 191.855Z" fill="white"/>
<path d="M107.117 203.84L101.126 201.963L99.2485 207.956L105.239 209.833L107.117 203.84Z" fill="white"/>
<path d="M113.106 205.716L107.115 203.839L105.237 209.833L111.228 211.709L113.106 205.716Z" fill="white"/>
<path d="M119.101 207.595L113.111 205.718L111.233 211.711L117.224 213.588L119.101 207.595Z" fill="white"/>
<path d="M111.229 211.71L105.238 209.833L103.36 215.826L109.351 217.703L111.229 211.71Z" fill="white"/>
<path d="M117.217 213.586L111.227 211.709L109.349 217.702L115.34 219.579L117.217 213.586Z" fill="white"/>
<path d="M123.213 215.465L117.222 213.588L115.345 219.581L121.335 221.458L123.213 215.465Z" fill="white"/>
<path d="M113.464 225.573L107.473 223.696L105.596 229.689L111.586 231.566L113.464 225.573Z" fill="white"/>
<path d="M119.453 227.449L113.462 225.573L111.584 231.566L117.575 233.443L119.453 227.449Z" fill="white"/>
<path d="M125.448 229.328L119.458 227.451L117.58 233.444L123.571 235.321L125.448 229.328Z" fill="white"/>
<path d="M111.587 231.566L105.596 229.689L103.718 235.683L109.709 237.56L111.587 231.566Z" fill="white"/>
<path d="M117.575 233.443L111.584 231.566L109.707 237.559L115.697 239.436L117.575 233.443Z" fill="white"/>
<path d="M123.571 235.321L117.58 233.444L115.703 239.438L121.693 241.314L123.571 235.321Z" fill="white"/>
<path d="M115.34 219.579L109.349 217.702L107.471 223.696L113.462 225.573L115.34 219.579Z" fill="white"/>
<path d="M121.336 221.458L115.345 219.581L113.467 225.574L119.458 227.451L121.336 221.458Z" fill="white"/>
<path d="M114.987 199.724L108.996 197.847L107.118 203.841L113.109 205.717L114.987 199.724Z" fill="white"/>
<path d="M65.1826 190.702L71.1733 192.579L73.051 186.586L67.0603 184.709L65.1826 190.702Z" fill="#1D2633"/>
<path d="M59.1919 188.825L65.1826 190.702L67.0602 184.709L61.0696 182.832L59.1919 188.825Z" fill="#1D2633"/>
<path d="M51.3232 192.941L57.314 194.818L59.1917 188.825L53.2009 186.948L51.3232 192.941Z" fill="#1D2633"/>
<path d="M45.3325 191.064L51.3232 192.941L53.2009 186.948L47.2101 185.071L45.3325 191.064Z" fill="#1D2633"/>
<path d="M37.4644 195.181L43.4551 197.058L45.3328 191.064L39.342 189.188L37.4644 195.181Z" fill="#1D2633"/>
<path d="M29.5957 199.297L35.5864 201.174L37.4641 195.181L31.4734 193.304L29.5957 199.297Z" fill="#1D2633"/>
<path d="M27.7183 205.29L33.7089 207.167L35.5866 201.174L29.5959 199.297L27.7183 205.29Z" fill="#1D2633"/>
<path d="M50.9658 173.085L56.9565 174.962L58.8342 168.969L52.8435 167.092L50.9658 173.085Z" fill="#1D2633"/>
<path d="M44.9751 171.208L50.9658 173.085L52.8435 167.092L46.8528 165.215L44.9751 171.208Z" fill="#1D2633"/>
<path d="M37.1064 175.324L43.0971 177.201L44.9748 171.208L38.9841 169.331L37.1064 175.324Z" fill="#1D2633"/>
<path d="M29.2383 179.441L35.229 181.317L37.1067 175.324L31.116 173.448L29.2383 179.441Z" fill="#1D2633"/>
<path d="M21.3696 183.557L27.3603 185.434L29.238 179.441L23.2473 177.564L21.3696 183.557Z" fill="#1D2633"/>
<path d="M13.5015 187.673L19.4922 189.55L21.3699 183.557L15.3792 181.68L13.5015 187.673Z" fill="#1D2633"/>
<path d="M11.6235 193.667L17.6143 195.543L19.4919 189.55L13.5012 187.673L11.6235 193.667Z" fill="#1D2633"/>
<path d="M3.75537 197.783L9.74609 199.66L11.6237 193.667L5.63306 191.79L3.75537 197.783Z" fill="#1D2633"/>
<path d="M1.87793 203.776L7.86865 205.653L9.74634 199.66L3.75562 197.783L1.87793 203.776Z" fill="#1D2633"/>
<path d="M0 209.769L5.99072 211.646L7.86841 205.653L1.87769 203.776L0 209.769Z" fill="#1D2633"/>
<path d="M5.99072 211.646L11.9814 213.523L13.8591 207.53L7.86841 205.653L5.99072 211.646Z" fill="#1D2633"/>
<path d="M11.9814 213.523L17.9721 215.4L19.8498 209.407L13.8591 207.53L11.9814 213.523Z" fill="#1D2633"/>
<path d="M17.9722 215.4L23.9629 217.277L25.8406 211.284L19.8499 209.407L17.9722 215.4Z" fill="#1D2633"/>
<path d="M23.9629 217.277L29.9536 219.154L31.8313 213.16L25.8406 211.284L23.9629 217.277Z" fill="#1D2633"/>
<path d="M25.8403 211.284L31.8311 213.16L33.7087 207.167L27.718 205.29L25.8403 211.284Z" fill="#1D2633"/>
<path d="M61.0698 182.832L67.0605 184.709L68.9382 178.716L62.9475 176.839L61.0698 182.832Z" fill="white"/>
<path d="M55.0742 180.954L61.0649 182.83L62.9426 176.837L56.9519 174.96L55.0742 180.954Z" fill="white"/>
<path d="M49.0869 179.078L55.0776 180.955L56.9553 174.961L50.9646 173.084L49.0869 179.078Z" fill="white"/>
<path d="M53.1997 186.948L59.1904 188.825L61.0681 182.831L55.0774 180.955L53.1997 186.948Z" fill="white"/>
<path d="M47.2109 185.072L53.2017 186.948L55.0793 180.955L49.0886 179.078L47.2109 185.072Z" fill="white"/>
<path d="M41.2153 183.193L47.2061 185.07L49.0837 179.077L43.093 177.2L41.2153 183.193Z" fill="white"/>
<path d="M43.0928 177.2L49.0835 179.077L50.9611 173.083L44.9705 171.207L43.0928 177.2Z" fill="white"/>
<path d="M39.3423 189.188L45.333 191.065L47.2107 185.072L41.22 183.195L39.3423 189.188Z" fill="white"/>
<path d="M33.354 187.312L39.3447 189.188L41.2224 183.195L35.2317 181.318L33.354 187.312Z" fill="white"/>
<path d="M27.3579 185.433L33.3486 187.31L35.2263 181.317L29.2356 179.44L27.3579 185.433Z" fill="white"/>
<path d="M31.4751 193.304L37.4658 195.181L39.3434 189.188L33.3528 187.311L31.4751 193.304Z" fill="white"/>
<path d="M25.4863 191.428L31.4771 193.305L33.3547 187.312L27.364 185.435L25.4863 191.428Z" fill="white"/>
<path d="M19.4907 189.55L25.4814 191.427L27.3591 185.433L21.3684 183.556L19.4907 189.55Z" fill="white"/>
<path d="M21.729 203.414L27.7197 205.291L29.5974 199.298L23.6066 197.421L21.729 203.414Z" fill="white"/>
<path d="M15.7402 201.538L21.731 203.415L23.6086 197.421L17.6179 195.544L15.7402 201.538Z" fill="white"/>
<path d="M9.74463 199.659L15.7354 201.536L17.613 195.543L11.6223 193.666L9.74463 199.659Z" fill="white"/>
<path d="M19.8516 209.407L25.8422 211.284L27.7199 205.291L21.7292 203.414L19.8516 209.407Z" fill="white"/>
<path d="M13.8628 207.531L19.8535 209.408L21.7312 203.415L15.7405 201.538L13.8628 207.531Z" fill="white"/>
<path d="M7.8667 205.653L13.8574 207.529L15.7351 201.536L9.74438 199.659L7.8667 205.653Z" fill="white"/>
<path d="M23.6089 197.421L29.5996 199.298L31.4773 193.305L25.4866 191.428L23.6089 197.421Z" fill="white"/>
<path d="M17.6128 195.543L23.6035 197.42L25.4812 191.427L19.4905 189.55L17.6128 195.543Z" fill="white"/>
<path d="M35.228 181.317L41.2188 183.194L43.0964 177.201L37.1057 175.324L35.228 181.317Z" fill="white"/>
<path d="M85.9055 19.4939L79.9148 17.6169L78.0371 23.6104L84.0278 25.4871L85.9055 19.4939Z" fill="white"/>
<path d="M91.8958 21.3708L85.905 19.4939L84.0273 25.4871L90.0181 27.364L91.8958 21.3708Z" fill="white"/>
<path d="M79.9147 17.6169L73.9241 15.7402L72.0464 21.7334L78.037 23.6104L79.9147 17.6169Z" fill="white"/>
<path d="M90.0183 27.364L84.0276 25.4871L82.1499 31.4805L88.1406 33.3572L90.0183 27.364Z" fill="white"/>
<path d="M96.009 29.241L90.0183 27.364L88.1406 33.3572L94.1313 35.2341L96.009 29.241Z" fill="white"/>
<path d="M84.0275 25.4871L78.0368 23.6104L76.1592 29.6035L82.1498 31.4805L84.0275 25.4871Z" fill="white"/>
<path d="M88.1408 33.3572L82.1501 31.4805L80.2725 37.4736L86.2631 39.3506L88.1408 33.3572Z" fill="white"/>
<path d="M94.1311 35.2341L88.1404 33.3572L86.2627 39.3506L92.2534 41.2273L94.1311 35.2341Z" fill="white"/>
<path d="M100.114 37.1084L94.1228 35.2314L92.2451 41.2249L98.2358 43.1016L100.114 37.1084Z" fill="white"/>
<path d="M82.1501 31.4805L76.1594 29.6035L74.2817 35.5967L80.2725 37.4736L82.1501 31.4805Z" fill="white"/>
<path d="M92.2537 41.2273L86.2629 39.3506L84.3853 45.3438L90.376 47.2207L92.2537 41.2273Z" fill="white"/>
<path d="M98.2444 43.1042L92.2537 41.2273L90.376 47.2207L96.3667 49.0974L98.2444 43.1042Z" fill="white"/>
<path d="M104.218 44.9758L98.2278 43.0991L96.3501 49.0923L102.341 50.9692L104.218 44.9758Z" fill="white"/>
<path d="M86.2629 39.3506L80.2722 37.4736L78.3945 43.4668L84.3852 45.3438L86.2629 39.3506Z" fill="white"/>
<path d="M96.3835 49.1028L90.3928 47.2258L88.5151 53.219L94.5059 55.0959L96.3835 49.1028Z" fill="white"/>
<path d="M102.374 50.9795L96.3835 49.1028L94.5059 55.0959L100.497 56.9729L102.374 50.9795Z" fill="white"/>
<path d="M94.5056 55.0959L88.5148 53.219L86.6372 59.2122L92.6279 61.0891L94.5056 55.0959Z" fill="white"/>
<path d="M100.496 56.9729L94.5056 55.0959L92.6279 61.0891L98.6187 62.9661L100.496 56.9729Z" fill="white"/>
<path d="M108.348 52.8513L102.357 50.9744L100.479 56.9675L106.47 58.8445L108.348 52.8513Z" fill="white"/>
<path d="M90.3928 47.2258L84.402 45.3489L82.5244 51.342L88.5151 53.219L90.3928 47.2258Z" fill="white"/>
<path d="M81.7922 11.6238L75.8015 9.74683L73.9238 15.7402L79.9145 17.6169L81.7922 11.6238Z" fill="white"/>
<path d="M87.783 13.5007L81.7922 11.6238L79.9146 17.6169L85.9053 19.4939L87.783 13.5007Z" fill="white"/>
<path d="M75.8015 9.74683L69.8108 7.87012L67.9331 13.8633L73.9238 15.7402L75.8015 9.74683Z" fill="white"/>
</svg>
