<svg width="211" height="200" viewBox="0 0 211 200" fill="none" xmlns="http://www.w3.org/2000/svg">
<path d="M44.4106 0H38.8594V5.55322H44.4106V0Z" fill="#1D2633"/>
<path d="M49.9614 0H44.4102V5.55322H49.9614V0Z" fill="#1D2633"/>
<path d="M55.5126 0H49.9614V5.55322H55.5126V0Z" fill="#1D2633"/>
<path d="M61.0635 0H55.5122V5.55322H61.0635V0Z" fill="#1D2633"/>
<path d="M66.6147 0H61.0635V5.55322H66.6147V0Z" fill="#1D2633"/>
<path d="M72.1652 0H66.6143V5.55322H72.1652V0Z" fill="#1D2633"/>
<path d="M77.7175 0H72.1665V5.55322H77.7175V0Z" fill="#1D2633"/>
<path d="M83.2687 0H77.7178V5.55322H83.2687V0Z" fill="#1D2633"/>
<path d="M88.8195 0H83.2686V5.55322H88.8195V0Z" fill="#1D2633"/>
<path d="M94.3703 0H88.8193V5.55322H94.3703V0Z" fill="#1D2633"/>
<path d="M99.9211 0H94.3701V5.55322H99.9211V0Z" fill="#1D2633"/>
<path d="M105.473 0H99.9224V5.55322H105.473V0Z" fill="#1D2633"/>
<path d="M111.025 0H105.474V5.55322H111.025V0Z" fill="#1D2633"/>
<path d="M116.576 0H111.024V5.55322H116.576V0Z" fill="#1D2633"/>
<path d="M122.128 0H116.577V5.55322H122.128V0Z" fill="#1D2633"/>
<path d="M127.679 0H122.127V5.55322H127.679V0Z" fill="#1D2633"/>
<path d="M133.23 0H127.679V5.55322H133.23V0Z" fill="#1D2633"/>
<path d="M138.781 0H133.229V5.55322H138.781V0Z" fill="#1D2633"/>
<path d="M144.332 0H138.78V5.55322H144.332V0Z" fill="#1D2633"/>
<path d="M149.884 0H144.333V5.55322H149.884V0Z" fill="#1D2633"/>
<path d="M155.435 0H149.883V5.55322H155.435V0Z" fill="#1D2633"/>
<path d="M160.986 0H155.435V5.55322H160.986V0Z" fill="#1D2633"/>
<path d="M166.537 0H160.986V5.55322H166.537V0Z" fill="#1D2633"/>
<path d="M172.088 0H166.537V5.55322H172.088V0Z" fill="#1D2633"/>
<path d="M38.8584 5.55371H33.3071V11.1072H38.8584V5.55371Z" fill="#1D2633"/>
<path d="M44.4106 5.55371H38.8594V11.1072H44.4106V5.55371Z" fill="white"/>
<path d="M49.9614 5.55371H44.4102V11.1072H49.9614V5.55371Z" fill="white"/>
<path d="M55.5126 5.55371H49.9614V11.1072H55.5126V5.55371Z" fill="white"/>
<path d="M61.0635 5.55371H55.5122V11.1072H61.0635V5.55371Z" fill="white"/>
<path d="M66.6147 5.55371H61.0635V11.1072H66.6147V5.55371Z" fill="white"/>
<path d="M72.1652 5.55371H66.6143V11.1072H72.1652V5.55371Z" fill="white"/>
<path d="M77.7175 5.55371H72.1665V11.1072H77.7175V5.55371Z" fill="white"/>
<path d="M83.2687 5.55371H77.7178V11.1072H83.2687V5.55371Z" fill="white"/>
<path d="M88.8195 5.55371H83.2686V11.1072H88.8195V5.55371Z" fill="white"/>
<path d="M94.3703 5.55371H88.8193V11.1072H94.3703V5.55371Z" fill="white"/>
<path d="M99.9211 5.55371H94.3701V11.1072H99.9211V5.55371Z" fill="white"/>
<path d="M105.473 5.55371H99.9224V11.1072H105.473V5.55371Z" fill="white"/>
<path d="M111.025 5.55371H105.474V11.1072H111.025V5.55371Z" fill="white"/>
<path d="M116.576 5.55371H111.024V11.1072H116.576V5.55371Z" fill="white"/>
<path d="M122.128 5.55371H116.577V11.1072H122.128V5.55371Z" fill="white"/>
<path d="M127.679 5.55371H122.127V11.1072H127.679V5.55371Z" fill="white"/>
<path d="M133.23 5.55371H127.679V11.1072H133.23V5.55371Z" fill="white"/>
<path d="M138.781 5.55371H133.229V11.1072H138.781V5.55371Z" fill="white"/>
<path d="M144.332 5.55371H138.78V11.1072H144.332V5.55371Z" fill="white"/>
<path d="M149.884 5.55371H144.333V11.1072H149.884V5.55371Z" fill="white"/>
<path d="M155.435 5.55371H149.883V11.1072H155.435V5.55371Z" fill="white"/>
<path d="M160.986 5.55371H155.435V11.1072H160.986V5.55371Z" fill="white"/>
<path d="M166.537 5.55371H160.986V11.1072H166.537V5.55371Z" fill="white"/>
<path d="M172.088 5.55371H166.537V11.1072H172.088V5.55371Z" fill="white"/>
<path d="M177.639 5.55371H172.088V11.1072H177.639V5.55371Z" fill="#1D2633"/>
<path d="M33.3075 11.1069H27.7563V16.6602H33.3075V11.1069Z" fill="#1D2633"/>
<path d="M38.8584 11.1069H33.3071V16.6602H38.8584V11.1069Z" fill="white"/>
<path d="M44.4106 11.1069H38.8594V16.6602H44.4106V11.1069Z" fill="white"/>
<path d="M49.9614 11.1069H44.4102V16.6602H49.9614V11.1069Z" fill="white"/>
<path d="M55.5126 11.1069H49.9614V16.6602H55.5126V11.1069Z" fill="#1D2633"/>
<path d="M61.0635 11.1069H55.5122V16.6602H61.0635V11.1069Z" fill="#1D2633"/>
<path d="M66.6147 11.1069H61.0635V16.6602H66.6147V11.1069Z" fill="#1D2633"/>
<path d="M72.1652 11.1069H66.6143V16.6602H72.1652V11.1069Z" fill="#1D2633"/>
<path d="M77.7175 11.1069H72.1665V16.6602H77.7175V11.1069Z" fill="#1D2633"/>
<path d="M83.2687 11.1069H77.7178V16.6602H83.2687V11.1069Z" fill="#1D2633"/>
<path d="M88.8195 11.1069H83.2686V16.6602H88.8195V11.1069Z" fill="#1D2633"/>
<path d="M94.3703 11.1069H88.8193V16.6602H94.3703V11.1069Z" fill="#1D2633"/>
<path d="M99.9211 11.1069H94.3701V16.6602H99.9211V11.1069Z" fill="#1D2633"/>
<path d="M105.473 11.1069H99.9224V16.6602H105.473V11.1069Z" fill="#1D2633"/>
<path d="M111.025 11.1069H105.474V16.6602H111.025V11.1069Z" fill="#1D2633"/>
<path d="M116.576 11.1069H111.024V16.6602H116.576V11.1069Z" fill="#1D2633"/>
<path d="M122.128 11.1069H116.577V16.6602H122.128V11.1069Z" fill="#1D2633"/>
<path d="M127.679 11.1069H122.127V16.6602H127.679V11.1069Z" fill="#1D2633"/>
<path d="M133.23 11.1069H127.679V16.6602H133.23V11.1069Z" fill="#1D2633"/>
<path d="M138.781 11.1069H133.229V16.6602H138.781V11.1069Z" fill="#1D2633"/>
<path d="M144.332 11.1069H138.78V16.6602H144.332V11.1069Z" fill="#1D2633"/>
<path d="M149.884 11.1069H144.333V16.6602H149.884V11.1069Z" fill="#1D2633"/>
<path d="M155.435 11.1069H149.883V16.6602H155.435V11.1069Z" fill="#1D2633"/>
<path d="M160.986 11.1069H155.435V16.6602H160.986V11.1069Z" fill="#1D2633"/>
<path d="M166.537 11.1069H160.986V16.6602H166.537V11.1069Z" fill="white"/>
<path d="M172.088 11.1069H166.537V16.6602H172.088V11.1069Z" fill="white"/>
<path d="M177.639 11.1069H172.088V16.6602H177.639V11.1069Z" fill="white"/>
<path d="M183.191 11.1069H177.64V16.6602H183.191V11.1069Z" fill="#1D2633"/>
<path d="M33.3075 16.6606H27.7563V22.2139H33.3075V16.6606Z" fill="#1D2633"/>
<path d="M38.8584 16.6606H33.3071V22.2139H38.8584V16.6606Z" fill="white"/>
<path d="M44.4106 16.6606H38.8594V22.2139H44.4106V16.6606Z" fill="white"/>
<path d="M49.9614 16.6606H44.4102V22.2139H49.9614V16.6606Z" fill="#1D2633"/>
<path d="M55.5126 16.6606H49.9614V22.2139H55.5126V16.6606Z" fill="#1D2633"/>
<path d="M61.0635 16.6606H55.5122V22.2139H61.0635V16.6606Z" fill="#1D2633"/>
<path d="M66.6147 16.6606H61.0635V22.2139H66.6147V16.6606Z" fill="#1D2633"/>
<path d="M72.1652 16.6606H66.6143V22.2139H72.1652V16.6606Z" fill="#1D2633"/>
<path d="M77.7175 16.6606H72.1665V22.2139H77.7175V16.6606Z" fill="#1D2633"/>
<path d="M83.2687 16.6606H77.7178V22.2139H83.2687V16.6606Z" fill="#1D2633"/>
<path d="M88.8195 16.6606H83.2686V22.2139H88.8195V16.6606Z" fill="#1D2633"/>
<path d="M94.3703 16.6606H88.8193V22.2139H94.3703V16.6606Z" fill="#1D2633"/>
<path d="M99.9211 16.6606H94.3701V22.2139H99.9211V16.6606Z" fill="#1D2633"/>
<path d="M105.473 16.6606H99.9224V22.2139H105.473V16.6606Z" fill="#1D2633"/>
<path d="M111.025 16.6606H105.474V22.2139H111.025V16.6606Z" fill="#1D2633"/>
<path d="M116.576 16.6606H111.024V22.2139H116.576V16.6606Z" fill="#1D2633"/>
<path d="M122.128 16.6606H116.577V22.2139H122.128V16.6606Z" fill="#1D2633"/>
<path d="M127.679 16.6606H122.127V22.2139H127.679V16.6606Z" fill="#1D2633"/>
<path d="M133.23 16.6606H127.679V22.2139H133.23V16.6606Z" fill="#1D2633"/>
<path d="M138.781 16.6606H133.229V22.2139H138.781V16.6606Z" fill="#1D2633"/>
<path d="M144.332 16.6606H138.78V22.2139H144.332V16.6606Z" fill="#1D2633"/>
<path d="M149.884 16.6606H144.333V22.2139H149.884V16.6606Z" fill="#1D2633"/>
<path d="M155.435 16.6606H149.883V22.2139H155.435V16.6606Z" fill="#1D2633"/>
<path d="M160.986 16.6606H155.435V22.2139H160.986V16.6606Z" fill="#1D2633"/>
<path d="M166.537 16.6606H160.986V22.2139H166.537V16.6606Z" fill="#1D2633"/>
<path d="M172.088 16.6606H166.537V22.2139H172.088V16.6606Z" fill="white"/>
<path d="M177.639 16.6606H172.088V22.2139H177.639V16.6606Z" fill="white"/>
<path d="M183.191 16.6606H177.64V22.2139H183.191V16.6606Z" fill="#1D2633"/>
<path d="M33.3075 22.2129H27.7563V27.7661H33.3075V22.2129Z" fill="#1D2633"/>
<path d="M38.8584 22.2129H33.3071V27.7661H38.8584V22.2129Z" fill="white"/>
<path d="M44.4106 22.2129H38.8594V27.7661H44.4106V22.2129Z" fill="#1D2633"/>
<path d="M49.9614 22.2129H44.4102V27.7661H49.9614V22.2129Z" fill="#1D2633"/>
<path d="M55.5126 22.2129H49.9614V27.7661H55.5126V22.2129Z" fill="#1D2633"/>
<path d="M61.0635 22.2129H55.5122V27.7661H61.0635V22.2129Z" fill="#00FFAF"/>
<path d="M66.6147 22.2129H61.0635V27.7661H66.6147V22.2129Z" fill="#00FFAF"/>
<path d="M72.1652 22.2129H66.6143V27.7661H72.1652V22.2129Z" fill="#00FFAF"/>
<path d="M77.7175 22.2129H72.1665V27.7661H77.7175V22.2129Z" fill="#00FFAF"/>
<path d="M83.2687 22.2129H77.7178V27.7661H83.2687V22.2129Z" fill="#00FFAF"/>
<path d="M88.8195 22.2129H83.2686V27.7661H88.8195V22.2129Z" fill="#00FFAF"/>
<path d="M94.3703 22.2129H88.8193V27.7661H94.3703V22.2129Z" fill="#00FFAF"/>
<path d="M99.9211 22.2129H94.3701V27.7661H99.9211V22.2129Z" fill="#00FFAF"/>
<path d="M105.473 22.2129H99.9224V27.7661H105.473V22.2129Z" fill="#00FFAF"/>
<path d="M111.025 22.2129H105.474V27.7661H111.025V22.2129Z" fill="white"/>
<path d="M116.576 22.2129H111.024V27.7661H116.576V22.2129Z" fill="white"/>
<path d="M122.128 22.2129H116.577V27.7661H122.128V22.2129Z" fill="#00FFAF"/>
<path d="M127.679 22.2129H122.127V27.7661H127.679V22.2129Z" fill="#00FFAF"/>
<path d="M133.23 22.2129H127.679V27.7661H133.23V22.2129Z" fill="#00FFAF"/>
<path d="M138.781 22.2129H133.229V27.7661H138.781V22.2129Z" fill="white"/>
<path d="M144.332 22.2129H138.78V27.7661H144.332V22.2129Z" fill="#00FFAF"/>
<path d="M149.884 22.2129H144.333V27.7661H149.884V22.2129Z" fill="#00FFAF"/>
<path d="M155.435 22.2129H149.883V27.7661H155.435V22.2129Z" fill="#00FFAF"/>
<path d="M160.986 22.2129H155.435V27.7661H160.986V22.2129Z" fill="#00FFAF"/>
<path d="M166.537 22.2129H160.986V27.7661H166.537V22.2129Z" fill="#00FFAF"/>
<path d="M172.088 22.2129H166.537V27.7661H172.088V22.2129Z" fill="#1D2633"/>
<path d="M177.639 22.2129H172.088V27.7661H177.639V22.2129Z" fill="white"/>
<path d="M183.191 22.2129H177.64V27.7661H183.191V22.2129Z" fill="#1D2633"/>
<path d="M33.3075 27.7671H27.7563V33.3206H33.3075V27.7671Z" fill="#1D2633"/>
<path d="M38.8584 27.7671H33.3071V33.3206H38.8584V27.7671Z" fill="white"/>
<path d="M44.4106 27.7671H38.8594V33.3206H44.4106V27.7671Z" fill="#1D2633"/>
<path d="M49.9614 27.7671H44.4102V33.3206H49.9614V27.7671Z" fill="#00FFAF"/>
<path d="M55.5126 27.7671H49.9614V33.3206H55.5126V27.7671Z" fill="#00FFAF"/>
<path d="M61.0635 27.7671H55.5122V33.3206H61.0635V27.7671Z" fill="#00FFAF"/>
<path d="M66.6147 27.7671H61.0635V33.3206H66.6147V27.7671Z" fill="#00FFAF"/>
<path d="M72.1652 27.7671H66.6143V33.3206H72.1652V27.7671Z" fill="#00FFAF"/>
<path d="M77.7175 27.7671H72.1665V33.3206H77.7175V27.7671Z" fill="#00FFAF"/>
<path d="M83.2687 27.7671H77.7178V33.3206H83.2687V27.7671Z" fill="#00FFAF"/>
<path d="M88.8195 27.7671H83.2686V33.3206H88.8195V27.7671Z" fill="#00FFAF"/>
<path d="M94.3703 27.7671H88.8193V33.3206H94.3703V27.7671Z" fill="#00FFAF"/>
<path d="M99.9211 27.7671H94.3701V33.3206H99.9211V27.7671Z" fill="#00FFAF"/>
<path d="M105.473 27.7671H99.9224V33.3206H105.473V27.7671Z" fill="white"/>
<path d="M111.025 27.7671H105.474V33.3206H111.025V27.7671Z" fill="white"/>
<path d="M116.576 27.7671H111.024V33.3206H116.576V27.7671Z" fill="#00FFAF"/>
<path d="M122.128 27.7671H116.577V33.3206H122.128V27.7671Z" fill="#00FFAF"/>
<path d="M127.679 27.7671H122.127V33.3206H127.679V27.7671Z" fill="#00FFAF"/>
<path d="M133.23 27.7671H127.679V33.3206H133.23V27.7671Z" fill="white"/>
<path d="M138.781 27.7671H133.229V33.3206H138.781V27.7671Z" fill="#00FFAF"/>
<path d="M144.332 27.7671H138.78V33.3206H144.332V27.7671Z" fill="#00FFAF"/>
<path d="M149.884 27.7671H144.333V33.3206H149.884V27.7671Z" fill="#00FFAF"/>
<path d="M155.435 27.7671H149.883V33.3206H155.435V27.7671Z" fill="#00FFAF"/>
<path d="M160.986 27.7671H155.435V33.3206H160.986V27.7671Z" fill="#00FFAF"/>
<path d="M166.537 27.7671H160.986V33.3206H166.537V27.7671Z" fill="#00FFAF"/>
<path d="M172.088 27.7671H166.537V33.3206H172.088V27.7671Z" fill="#1D2633"/>
<path d="M177.639 27.7671H172.088V33.3206H177.639V27.7671Z" fill="white"/>
<path d="M183.191 27.7671H177.64V33.3206H183.191V27.7671Z" fill="#1D2633"/>
<path d="M33.3075 33.3208H27.7563V38.8743H33.3075V33.3208Z" fill="#1D2633"/>
<path d="M38.8584 33.3208H33.3071V38.8743H38.8584V33.3208Z" fill="white"/>
<path d="M44.4106 33.3208H38.8594V38.8743H44.4106V33.3208Z" fill="#1D2633"/>
<path d="M49.9614 33.3208H44.4102V38.8743H49.9614V33.3208Z" fill="#00FFAF"/>
<path d="M55.5126 33.3208H49.9614V38.8743H55.5126V33.3208Z" fill="#00FFAF"/>
<path d="M61.0635 33.3208H55.5122V38.8743H61.0635V33.3208Z" fill="#00FFAF"/>
<path d="M66.6147 33.3208H61.0635V38.8743H66.6147V33.3208Z" fill="#00FFAF"/>
<path d="M72.1652 33.3208H66.6143V38.8743H72.1652V33.3208Z" fill="#00FFAF"/>
<path d="M77.7175 33.3208H72.1665V38.8743H77.7175V33.3208Z" fill="#00FFAF"/>
<path d="M83.2687 33.3208H77.7178V38.8743H83.2687V33.3208Z" fill="#00FFAF"/>
<path d="M88.8195 33.3208H83.2686V38.8743H88.8195V33.3208Z" fill="#00FFAF"/>
<path d="M94.3703 33.3208H88.8193V38.8743H94.3703V33.3208Z" fill="#00FFAF"/>
<path d="M99.9211 33.3208H94.3701V38.8743H99.9211V33.3208Z" fill="#00FFAF"/>
<path d="M105.473 33.3208H99.9224V38.8743H105.473V33.3208Z" fill="white"/>
<path d="M111.025 33.3208H105.474V38.8743H111.025V33.3208Z" fill="white"/>
<path d="M116.576 33.3208H111.024V38.8743H116.576V33.3208Z" fill="#00FFAF"/>
<path d="M122.128 33.3208H116.577V38.8743H122.128V33.3208Z" fill="#00FFAF"/>
<path d="M127.679 33.3208H122.127V38.8743H127.679V33.3208Z" fill="#00FFAF"/>
<path d="M133.23 33.3208H127.679V38.8743H133.23V33.3208Z" fill="white"/>
<path d="M138.781 33.3208H133.229V38.8743H138.781V33.3208Z" fill="#00FFAF"/>
<path d="M144.332 33.3208H138.78V38.8743H144.332V33.3208Z" fill="#00FFAF"/>
<path d="M149.884 33.3208H144.333V38.8743H149.884V33.3208Z" fill="#00FFAF"/>
<path d="M155.435 33.3208H149.883V38.8743H155.435V33.3208Z" fill="#00FFAF"/>
<path d="M160.986 33.3208H155.435V38.8743H160.986V33.3208Z" fill="#00FFAF"/>
<path d="M166.537 33.3208H160.986V38.8743H166.537V33.3208Z" fill="#00FFAF"/>
<path d="M172.088 33.3208H166.537V38.8743H172.088V33.3208Z" fill="#1D2633"/>
<path d="M177.639 33.3208H172.088V38.8743H177.639V33.3208Z" fill="white"/>
<path d="M183.191 33.3208H177.64V38.8743H183.191V33.3208Z" fill="#1D2633"/>
<path d="M33.3075 38.8735H27.7563V44.4268H33.3075V38.8735Z" fill="#1D2633"/>
<path d="M38.8584 38.8735H33.3071V44.4268H38.8584V38.8735Z" fill="white"/>
<path d="M44.4106 38.8735H38.8594V44.4268H44.4106V38.8735Z" fill="#1D2633"/>
<path d="M49.9614 38.8735H44.4102V44.4268H49.9614V38.8735Z" fill="#00FFAF"/>
<path d="M55.5126 38.8735H49.9614V44.4268H55.5126V38.8735Z" fill="#00FFAF"/>
<path d="M61.0635 38.8735H55.5122V44.4268H61.0635V38.8735Z" fill="#00FFAF"/>
<path d="M66.6147 38.8735H61.0635V44.4268H66.6147V38.8735Z" fill="#00FFAF"/>
<path d="M72.1652 38.8735H66.6143V44.4268H72.1652V38.8735Z" fill="#00FFAF"/>
<path d="M77.7175 38.8735H72.1665V44.4268H77.7175V38.8735Z" fill="#00FFAF"/>
<path d="M83.2687 38.8735H77.7178V44.4268H83.2687V38.8735Z" fill="#00FFAF"/>
<path d="M88.8195 38.8735H83.2686V44.4268H88.8195V38.8735Z" fill="#00FFAF"/>
<path d="M94.3703 38.8735H88.8193V44.4268H94.3703V38.8735Z" fill="#00FFAF"/>
<path d="M99.9211 38.8735H94.3701V44.4268H99.9211V38.8735Z" fill="white"/>
<path d="M105.473 38.8735H99.9224V44.4268H105.473V38.8735Z" fill="white"/>
<path d="M111.025 38.8735H105.474V44.4268H111.025V38.8735Z" fill="#00FFAF"/>
<path d="M116.576 38.8735H111.024V44.4268H116.576V38.8735Z" fill="#00FFAF"/>
<path d="M122.128 38.8735H116.577V44.4268H122.128V38.8735Z" fill="#00FFAF"/>
<path d="M127.679 38.8735H122.127V44.4268H127.679V38.8735Z" fill="white"/>
<path d="M133.23 38.8735H127.679V44.4268H133.23V38.8735Z" fill="#00FFAF"/>
<path d="M138.781 38.8735H133.229V44.4268H138.781V38.8735Z" fill="#00FFAF"/>
<path d="M144.332 38.8735H138.78V44.4268H144.332V38.8735Z" fill="#00FFAF"/>
<path d="M149.884 38.8735H144.333V44.4268H149.884V38.8735Z" fill="#00FFAF"/>
<path d="M155.435 38.8735H149.883V44.4268H155.435V38.8735Z" fill="#00FFAF"/>
<path d="M160.986 38.8735H155.435V44.4268H160.986V38.8735Z" fill="#00FFAF"/>
<path d="M166.537 38.8735H160.986V44.4268H166.537V38.8735Z" fill="#00FFAF"/>
<path d="M172.088 38.8735H166.537V44.4268H172.088V38.8735Z" fill="#1D2633"/>
<path d="M177.639 38.8735H172.088V44.4268H177.639V38.8735Z" fill="white"/>
<path d="M183.191 38.8735H177.64V44.4268H183.191V38.8735Z" fill="#1D2633"/>
<path d="M33.3075 44.4263H27.7563V49.9795H33.3075V44.4263Z" fill="#1D2633"/>
<path d="M38.8584 44.4263H33.3071V49.9795H38.8584V44.4263Z" fill="white"/>
<path d="M44.4106 44.4263H38.8594V49.9795H44.4106V44.4263Z" fill="#1D2633"/>
<path d="M49.9614 44.4263H44.4102V49.9795H49.9614V44.4263Z" fill="#00FFAF"/>
<path d="M55.5126 44.4263H49.9614V49.9795H55.5126V44.4263Z" fill="#00FFAF"/>
<path d="M61.0635 44.4263H55.5122V49.9795H61.0635V44.4263Z" fill="#00FFAF"/>
<path d="M66.6147 44.4263H61.0635V49.9795H66.6147V44.4263Z" fill="#00FFAF"/>
<path d="M72.1652 44.4263H66.6143V49.9795H72.1652V44.4263Z" fill="#00FFAF"/>
<path d="M77.7175 44.4263H72.1665V49.9795H77.7175V44.4263Z" fill="#00FFAF"/>
<path d="M83.2687 44.4263H77.7178V49.9795H83.2687V44.4263Z" fill="#00FFAF"/>
<path d="M88.8195 44.4263H83.2686V49.9795H88.8195V44.4263Z" fill="#00FFAF"/>
<path d="M94.3703 44.4263H88.8193V49.9795H94.3703V44.4263Z" fill="#00FFAF"/>
<path d="M99.9211 44.4263H94.3701V49.9795H99.9211V44.4263Z" fill="white"/>
<path d="M105.473 44.4263H99.9224V49.9795H105.473V44.4263Z" fill="white"/>
<path d="M111.025 44.4263H105.474V49.9795H111.025V44.4263Z" fill="#00FFAF"/>
<path d="M116.576 44.4263H111.024V49.9795H116.576V44.4263Z" fill="#00FFAF"/>
<path d="M122.128 44.4263H116.577V49.9795H122.128V44.4263Z" fill="white"/>
<path d="M127.679 44.4263H122.127V49.9795H127.679V44.4263Z" fill="white"/>
<path d="M133.23 44.4263H127.679V49.9795H133.23V44.4263Z" fill="#00FFAF"/>
<path d="M138.781 44.4263H133.229V49.9795H138.781V44.4263Z" fill="#00FFAF"/>
<path d="M144.332 44.4263H138.78V49.9795H144.332V44.4263Z" fill="#00FFAF"/>
<path d="M149.884 44.4263H144.333V49.9795H149.884V44.4263Z" fill="#00FFAF"/>
<path d="M155.435 44.4263H149.883V49.9795H155.435V44.4263Z" fill="#00FFAF"/>
<path d="M160.986 44.4263H155.435V49.9795H160.986V44.4263Z" fill="#00FFAF"/>
<path d="M166.537 44.4263H160.986V49.9795H166.537V44.4263Z" fill="#00FFAF"/>
<path d="M172.088 44.4263H166.537V49.9795H172.088V44.4263Z" fill="#1D2633"/>
<path d="M177.639 44.4263H172.088V49.9795H177.639V44.4263Z" fill="white"/>
<path d="M183.191 44.4263H177.64V49.9795H183.191V44.4263Z" fill="#1D2633"/>
<path d="M33.3075 49.98H27.7563V55.5332H33.3075V49.98Z" fill="#1D2633"/>
<path d="M38.8584 49.98H33.3071V55.5332H38.8584V49.98Z" fill="white"/>
<path d="M44.4106 49.98H38.8594V55.5332H44.4106V49.98Z" fill="#1D2633"/>
<path d="M49.9614 49.98H44.4102V55.5332H49.9614V49.98Z" fill="#00FFAF"/>
<path d="M55.5126 49.98H49.9614V55.5332H55.5126V49.98Z" fill="#00FFAF"/>
<path d="M61.0635 49.98H55.5122V55.5332H61.0635V49.98Z" fill="#00FFAF"/>
<path d="M66.6147 49.98H61.0635V55.5332H66.6147V49.98Z" fill="#00FFAF"/>
<path d="M72.1652 49.98H66.6143V55.5332H72.1652V49.98Z" fill="#00FFAF"/>
<path d="M77.7175 49.98H72.1665V55.5332H77.7175V49.98Z" fill="#00FFAF"/>
<path d="M83.2687 49.98H77.7178V55.5332H83.2687V49.98Z" fill="#00FFAF"/>
<path d="M88.8195 49.98H83.2686V55.5332H88.8195V49.98Z" fill="#00FFAF"/>
<path d="M94.3703 49.98H88.8193V55.5332H94.3703V49.98Z" fill="white"/>
<path d="M99.9211 49.98H94.3701V55.5332H99.9211V49.98Z" fill="white"/>
<path d="M105.473 49.98H99.9224V55.5332H105.473V49.98Z" fill="#00FFAF"/>
<path d="M111.025 49.98H105.474V55.5332H111.025V49.98Z" fill="#00FFAF"/>
<path d="M116.576 49.98H111.024V55.5332H116.576V49.98Z" fill="#00FFAF"/>
<path d="M122.128 49.98H116.577V55.5332H122.128V49.98Z" fill="white"/>
<path d="M127.679 49.98H122.127V55.5332H127.679V49.98Z" fill="#00FFAF"/>
<path d="M133.23 49.98H127.679V55.5332H133.23V49.98Z" fill="#00FFAF"/>
<path d="M138.781 49.98H133.229V55.5332H138.781V49.98Z" fill="#00FFAF"/>
<path d="M144.332 49.98H138.78V55.5332H144.332V49.98Z" fill="#00FFAF"/>
<path d="M149.884 49.98H144.333V55.5332H149.884V49.98Z" fill="#00FFAF"/>
<path d="M155.435 49.98H149.883V55.5332H155.435V49.98Z" fill="#00FFAF"/>
<path d="M160.986 49.98H155.435V55.5332H160.986V49.98Z" fill="#00FFAF"/>
<path d="M166.537 49.98H160.986V55.5332H166.537V49.98Z" fill="#00FFAF"/>
<path d="M172.088 49.98H166.537V55.5332H172.088V49.98Z" fill="#1D2633"/>
<path d="M177.639 49.98H172.088V55.5332H177.639V49.98Z" fill="white"/>
<path d="M183.191 49.98H177.64V55.5332H183.191V49.98Z" fill="#1D2633"/>
<path d="M33.3075 55.5337H27.7563V61.0872H33.3075V55.5337Z" fill="#1D2633"/>
<path d="M38.8584 55.5337H33.3071V61.0872H38.8584V55.5337Z" fill="white"/>
<path d="M44.4106 55.5337H38.8594V61.0872H44.4106V55.5337Z" fill="#1D2633"/>
<path d="M49.9614 55.5337H44.4102V61.0872H49.9614V55.5337Z" fill="#00FFAF"/>
<path d="M55.5126 55.5337H49.9614V61.0872H55.5126V55.5337Z" fill="#00FFAF"/>
<path d="M61.0635 55.5337H55.5122V61.0872H61.0635V55.5337Z" fill="#00FFAF"/>
<path d="M66.6147 55.5337H61.0635V61.0872H66.6147V55.5337Z" fill="#00FFAF"/>
<path d="M72.1652 55.5337H66.6143V61.0872H72.1652V55.5337Z" fill="#00FFAF"/>
<path d="M77.7175 55.5337H72.1665V61.0872H77.7175V55.5337Z" fill="#00FFAF"/>
<path d="M83.2687 55.5337H77.7178V61.0872H83.2687V55.5337Z" fill="#00FFAF"/>
<path d="M88.8195 55.5337H83.2686V61.0872H88.8195V55.5337Z" fill="white"/>
<path d="M94.3703 55.5337H88.8193V61.0872H94.3703V55.5337Z" fill="white"/>
<path d="M99.9211 55.5337H94.3701V61.0872H99.9211V55.5337Z" fill="#00FFAF"/>
<path d="M105.473 55.5337H99.9224V61.0872H105.473V55.5337Z" fill="#00FFAF"/>
<path d="M111.025 55.5337H105.474V61.0872H111.025V55.5337Z" fill="#00FFAF"/>
<path d="M116.576 55.5337H111.024V61.0872H116.576V55.5337Z" fill="white"/>
<path d="M122.128 55.5337H116.577V61.0872H122.128V55.5337Z" fill="#00FFAF"/>
<path d="M127.679 55.5337H122.127V61.0872H127.679V55.5337Z" fill="#00FFAF"/>
<path d="M133.23 55.5337H127.679V61.0872H133.23V55.5337Z" fill="#00FFAF"/>
<path d="M138.781 55.5337H133.229V61.0872H138.781V55.5337Z" fill="#00FFAF"/>
<path d="M144.332 55.5337H138.78V61.0872H144.332V55.5337Z" fill="#00FFAF"/>
<path d="M149.884 55.5337H144.333V61.0872H149.884V55.5337Z" fill="#00FFAF"/>
<path d="M155.435 55.5337H149.883V61.0872H155.435V55.5337Z" fill="#00FFAF"/>
<path d="M160.986 55.5337H155.435V61.0872H160.986V55.5337Z" fill="#00FFAF"/>
<path d="M166.537 55.5337H160.986V61.0872H166.537V55.5337Z" fill="#00FFAF"/>
<path d="M172.088 55.5337H166.537V61.0872H172.088V55.5337Z" fill="#1D2633"/>
<path d="M177.639 55.5337H172.088V61.0872H177.639V55.5337Z" fill="white"/>
<path d="M183.191 55.5337H177.64V61.0872H183.191V55.5337Z" fill="#1D2633"/>
<path d="M33.3075 61.0864H27.7563V66.6396H33.3075V61.0864Z" fill="#1D2633"/>
<path d="M38.8584 61.0864H33.3071V66.6396H38.8584V61.0864Z" fill="white"/>
<path d="M44.4106 61.0864H38.8594V66.6396H44.4106V61.0864Z" fill="#1D2633"/>
<path d="M49.9614 61.0864H44.4102V66.6396H49.9614V61.0864Z" fill="#00FFAF"/>
<path d="M55.5126 61.0864H49.9614V66.6396H55.5126V61.0864Z" fill="#00FFAF"/>
<path d="M61.0635 61.0864H55.5122V66.6396H61.0635V61.0864Z" fill="#00FFAF"/>
<path d="M66.6147 61.0864H61.0635V66.6396H66.6147V61.0864Z" fill="#00FFAF"/>
<path d="M72.1652 61.0864H66.6143V66.6396H72.1652V61.0864Z" fill="#00FFAF"/>
<path d="M77.7175 61.0864H72.1665V66.6396H77.7175V61.0864Z" fill="#00FFAF"/>
<path d="M83.2687 61.0864H77.7178V66.6396H83.2687V61.0864Z" fill="#00FFAF"/>
<path d="M88.8195 61.0864H83.2686V66.6396H88.8195V61.0864Z" fill="white"/>
<path d="M94.3703 61.0864H88.8193V66.6396H94.3703V61.0864Z" fill="white"/>
<path d="M99.9211 61.0864H94.3701V66.6396H99.9211V61.0864Z" fill="#00FFAF"/>
<path d="M105.473 61.0864H99.9224V66.6396H105.473V61.0864Z" fill="#00FFAF"/>
<path d="M111.025 61.0864H105.474V66.6396H111.025V61.0864Z" fill="#00FFAF"/>
<path d="M116.576 61.0864H111.024V66.6396H116.576V61.0864Z" fill="white"/>
<path d="M122.128 61.0864H116.577V66.6396H122.128V61.0864Z" fill="#00FFAF"/>
<path d="M127.679 61.0864H122.127V66.6396H127.679V61.0864Z" fill="#00FFAF"/>
<path d="M133.23 61.0864H127.679V66.6396H133.23V61.0864Z" fill="#00FFAF"/>
<path d="M138.781 61.0864H133.229V66.6396H138.781V61.0864Z" fill="#00FFAF"/>
<path d="M144.332 61.0864H138.78V66.6396H144.332V61.0864Z" fill="#00FFAF"/>
<path d="M149.884 61.0864H144.333V66.6396H149.884V61.0864Z" fill="#00FFAF"/>
<path d="M155.435 61.0864H149.883V66.6396H155.435V61.0864Z" fill="#00FFAF"/>
<path d="M160.986 61.0864H155.435V66.6396H160.986V61.0864Z" fill="#00FFAF"/>
<path d="M166.537 61.0864H160.986V66.6396H166.537V61.0864Z" fill="#00FFAF"/>
<path d="M172.088 61.0864H166.537V66.6396H172.088V61.0864Z" fill="#1D2633"/>
<path d="M177.639 61.0864H172.088V66.6396H177.639V61.0864Z" fill="white"/>
<path d="M183.191 61.0864H177.64V66.6396H183.191V61.0864Z" fill="#1D2633"/>
<path d="M33.3075 66.6401H27.7563V72.1929H33.3075V66.6401Z" fill="#1D2633"/>
<path d="M38.8584 66.6401H33.3071V72.1929H38.8584V66.6401Z" fill="white"/>
<path d="M44.4106 66.6401H38.8594V72.1929H44.4106V66.6401Z" fill="#1D2633"/>
<path d="M49.9614 66.6401H44.4102V72.1929H49.9614V66.6401Z" fill="#00FFAF"/>
<path d="M55.5126 66.6401H49.9614V72.1929H55.5126V66.6401Z" fill="#00FFAF"/>
<path d="M61.0635 66.6401H55.5122V72.1929H61.0635V66.6401Z" fill="#00FFAF"/>
<path d="M66.6147 66.6401H61.0635V72.1929H66.6147V66.6401Z" fill="#00FFAF"/>
<path d="M72.1652 66.6401H66.6143V72.1929H72.1652V66.6401Z" fill="#00FFAF"/>
<path d="M77.7175 66.6401H72.1665V72.1929H77.7175V66.6401Z" fill="#00FFAF"/>
<path d="M83.2687 66.6401H77.7178V72.1929H83.2687V66.6401Z" fill="white"/>
<path d="M88.8195 66.6401H83.2686V72.1929H88.8195V66.6401Z" fill="white"/>
<path d="M94.3703 66.6401H88.8193V72.1929H94.3703V66.6401Z" fill="#00FFAF"/>
<path d="M99.9211 66.6401H94.3701V72.1929H99.9211V66.6401Z" fill="#00FFAF"/>
<path d="M105.473 66.6401H99.9224V72.1929H105.473V66.6401Z" fill="#00FFAF"/>
<path d="M111.025 66.6401H105.474V72.1929H111.025V66.6401Z" fill="white"/>
<path d="M116.576 66.6401H111.024V72.1929H116.576V66.6401Z" fill="#00FFAF"/>
<path d="M122.128 66.6401H116.577V72.1929H122.128V66.6401Z" fill="#00FFAF"/>
<path d="M127.679 66.6401H122.127V72.1929H127.679V66.6401Z" fill="#00FFAF"/>
<path d="M133.23 66.6401H127.679V72.1929H133.23V66.6401Z" fill="#00FFAF"/>
<path d="M138.781 66.6401H133.229V72.1929H138.781V66.6401Z" fill="#00FFAF"/>
<path d="M144.332 66.6401H138.78V72.1929H144.332V66.6401Z" fill="#00FFAF"/>
<path d="M149.884 66.6401H144.333V72.1929H149.884V66.6401Z" fill="#00FFAF"/>
<path d="M155.435 66.6401H149.883V72.1929H155.435V66.6401Z" fill="#00FFAF"/>
<path d="M160.986 66.6401H155.435V72.1929H160.986V66.6401Z" fill="#00FFAF"/>
<path d="M166.537 66.6401H160.986V72.1929H166.537V66.6401Z" fill="#00FFAF"/>
<path d="M172.088 66.6401H166.537V72.1929H172.088V66.6401Z" fill="#1D2633"/>
<path d="M177.639 66.6401H172.088V72.1929H177.639V66.6401Z" fill="white"/>
<path d="M183.191 66.6401H177.64V72.1929H183.191V66.6401Z" fill="#1D2633"/>
<path d="M33.3075 72.1929H27.7563V77.7463H33.3075V72.1929Z" fill="#1D2633"/>
<path d="M38.8584 72.1929H33.3071V77.7463H38.8584V72.1929Z" fill="white"/>
<path d="M44.4106 72.1929H38.8594V77.7463H44.4106V72.1929Z" fill="#1D2633"/>
<path d="M49.9614 72.1929H44.4102V77.7463H49.9614V72.1929Z" fill="#00FFAF"/>
<path d="M55.5126 72.1929H49.9614V77.7463H55.5126V72.1929Z" fill="#00FFAF"/>
<path d="M61.0635 72.1929H55.5122V77.7463H61.0635V72.1929Z" fill="#00FFAF"/>
<path d="M66.6147 72.1929H61.0635V77.7463H66.6147V72.1929Z" fill="#00FFAF"/>
<path d="M72.1652 72.1929H66.6143V77.7463H72.1652V72.1929Z" fill="#00FFAF"/>
<path d="M77.7175 72.1929H72.1665V77.7463H77.7175V72.1929Z" fill="#00FFAF"/>
<path d="M83.2687 72.1929H77.7178V77.7463H83.2687V72.1929Z" fill="white"/>
<path d="M88.8195 72.1929H83.2686V77.7463H88.8195V72.1929Z" fill="white"/>
<path d="M94.3703 72.1929H88.8193V77.7463H94.3703V72.1929Z" fill="#00FFAF"/>
<path d="M99.9211 72.1929H94.3701V77.7463H99.9211V72.1929Z" fill="#00FFAF"/>
<path d="M105.473 72.1929H99.9224V77.7463H105.473V72.1929Z" fill="#00FFAF"/>
<path d="M111.025 72.1929H105.474V77.7463H111.025V72.1929Z" fill="white"/>
<path d="M116.576 72.1929H111.024V77.7463H116.576V72.1929Z" fill="#00FFAF"/>
<path d="M122.128 72.1929H116.577V77.7463H122.128V72.1929Z" fill="#00FFAF"/>
<path d="M127.679 72.1929H122.127V77.7463H127.679V72.1929Z" fill="#00FFAF"/>
<path d="M133.23 72.1929H127.679V77.7463H133.23V72.1929Z" fill="#00FFAF"/>
<path d="M138.781 72.1929H133.229V77.7463H138.781V72.1929Z" fill="#00FFAF"/>
<path d="M144.332 72.1929H138.78V77.7463H144.332V72.1929Z" fill="#00FFAF"/>
<path d="M149.884 72.1929H144.333V77.7463H149.884V72.1929Z" fill="#00FFAF"/>
<path d="M155.435 72.1929H149.883V77.7463H155.435V72.1929Z" fill="#00FFAF"/>
<path d="M160.986 72.1929H155.435V77.7463H160.986V72.1929Z" fill="#00FFAF"/>
<path d="M166.537 72.1929H160.986V77.7463H166.537V72.1929Z" fill="#00FFAF"/>
<path d="M172.088 72.1929H166.537V77.7463H172.088V72.1929Z" fill="#1D2633"/>
<path d="M177.639 72.1929H172.088V77.7463H177.639V72.1929Z" fill="white"/>
<path d="M183.191 72.1929H177.64V77.7463H183.191V72.1929Z" fill="#1D2633"/>
<path d="M33.3075 77.7466H27.7563V83.2996H33.3075V77.7466Z" fill="#1D2633"/>
<path d="M38.8584 77.7466H33.3071V83.2996H38.8584V77.7466Z" fill="white"/>
<path d="M44.4106 77.7466H38.8594V83.2996H44.4106V77.7466Z" fill="#1D2633"/>
<path d="M49.9614 77.7466H44.4102V83.2996H49.9614V77.7466Z" fill="#00FFAF"/>
<path d="M55.5126 77.7466H49.9614V83.2996H55.5126V77.7466Z" fill="#00FFAF"/>
<path d="M61.0635 77.7466H55.5122V83.2996H61.0635V77.7466Z" fill="#00FFAF"/>
<path d="M66.6147 77.7466H61.0635V83.2996H66.6147V77.7466Z" fill="#00FFAF"/>
<path d="M72.1652 77.7466H66.6143V83.2996H72.1652V77.7466Z" fill="#00FFAF"/>
<path d="M77.7175 77.7466H72.1665V83.2996H77.7175V77.7466Z" fill="white"/>
<path d="M83.2687 77.7466H77.7178V83.2996H83.2687V77.7466Z" fill="white"/>
<path d="M88.8195 77.7466H83.2686V83.2996H88.8195V77.7466Z" fill="#00FFAF"/>
<path d="M94.3703 77.7466H88.8193V83.2996H94.3703V77.7466Z" fill="#00FFAF"/>
<path d="M99.9211 77.7466H94.3701V83.2996H99.9211V77.7466Z" fill="#00FFAF"/>
<path d="M105.473 77.7466H99.9224V83.2996H105.473V77.7466Z" fill="white"/>
<path d="M111.025 77.7466H105.474V83.2996H111.025V77.7466Z" fill="#00FFAF"/>
<path d="M116.576 77.7466H111.024V83.2996H116.576V77.7466Z" fill="#00FFAF"/>
<path d="M122.128 77.7466H116.577V83.2996H122.128V77.7466Z" fill="#00FFAF"/>
<path d="M127.679 77.7466H122.127V83.2996H127.679V77.7466Z" fill="#00FFAF"/>
<path d="M133.23 77.7466H127.679V83.2996H133.23V77.7466Z" fill="#00FFAF"/>
<path d="M138.781 77.7466H133.229V83.2996H138.781V77.7466Z" fill="#00FFAF"/>
<path d="M144.332 77.7466H138.78V83.2996H144.332V77.7466Z" fill="#00FFAF"/>
<path d="M149.884 77.7466H144.333V83.2996H149.884V77.7466Z" fill="#00FFAF"/>
<path d="M155.435 77.7466H149.883V83.2996H155.435V77.7466Z" fill="#00FFAF"/>
<path d="M160.986 77.7466H155.435V83.2996H160.986V77.7466Z" fill="#00FFAF"/>
<path d="M166.537 77.7466H160.986V83.2996H166.537V77.7466Z" fill="#00FFAF"/>
<path d="M172.088 77.7466H166.537V83.2996H172.088V77.7466Z" fill="#1D2633"/>
<path d="M177.639 77.7466H172.088V83.2996H177.639V77.7466Z" fill="white"/>
<path d="M183.191 77.7466H177.64V83.2996H183.191V77.7466Z" fill="#1D2633"/>
<path d="M33.3075 83.3008H27.7563V88.8535H33.3075V83.3008Z" fill="#1D2633"/>
<path d="M38.8584 83.3008H33.3071V88.8535H38.8584V83.3008Z" fill="white"/>
<path d="M44.4106 83.3008H38.8594V88.8535H44.4106V83.3008Z" fill="#1D2633"/>
<path d="M49.9614 83.3008H44.4102V88.8535H49.9614V83.3008Z" fill="#00FFAF"/>
<path d="M55.5126 83.3008H49.9614V88.8535H55.5126V83.3008Z" fill="#00FFAF"/>
<path d="M61.0635 83.3008H55.5122V88.8535H61.0635V83.3008Z" fill="#00FFAF"/>
<path d="M66.6147 83.3008H61.0635V88.8535H66.6147V83.3008Z" fill="#00FFAF"/>
<path d="M72.1652 83.3008H66.6143V88.8535H72.1652V83.3008Z" fill="#00FFAF"/>
<path d="M77.7175 83.3008H72.1665V88.8535H77.7175V83.3008Z" fill="white"/>
<path d="M83.2687 83.3008H77.7178V88.8535H83.2687V83.3008Z" fill="white"/>
<path d="M88.8195 83.3008H83.2686V88.8535H88.8195V83.3008Z" fill="#00FFAF"/>
<path d="M94.3703 83.3008H88.8193V88.8535H94.3703V83.3008Z" fill="#00FFAF"/>
<path d="M99.9211 83.3008H94.3701V88.8535H99.9211V83.3008Z" fill="#00FFAF"/>
<path d="M105.473 83.3008H99.9224V88.8535H105.473V83.3008Z" fill="white"/>
<path d="M111.025 83.3008H105.474V88.8535H111.025V83.3008Z" fill="#00FFAF"/>
<path d="M116.576 83.3008H111.024V88.8535H116.576V83.3008Z" fill="#00FFAF"/>
<path d="M122.128 83.3008H116.577V88.8535H122.128V83.3008Z" fill="#00FFAF"/>
<path d="M127.679 83.3008H122.127V88.8535H127.679V83.3008Z" fill="#00FFAF"/>
<path d="M133.23 83.3008H127.679V88.8535H133.23V83.3008Z" fill="#00FFAF"/>
<path d="M138.781 83.3008H133.229V88.8535H138.781V83.3008Z" fill="#00FFAF"/>
<path d="M144.332 83.3008H138.78V88.8535H144.332V83.3008Z" fill="#00FFAF"/>
<path d="M149.884 83.3008H144.333V88.8535H149.884V83.3008Z" fill="#00FFAF"/>
<path d="M155.435 83.3008H149.883V88.8535H155.435V83.3008Z" fill="#00FFAF"/>
<path d="M160.986 83.3008H155.435V88.8535H160.986V83.3008Z" fill="#00FFAF"/>
<path d="M166.537 83.3008H160.986V88.8535H166.537V83.3008Z" fill="#00FFAF"/>
<path d="M172.088 83.3008H166.537V88.8535H172.088V83.3008Z" fill="#1D2633"/>
<path d="M177.639 83.3008H172.088V88.8535H177.639V83.3008Z" fill="white"/>
<path d="M183.191 83.3008H177.64V88.8535H183.191V83.3008Z" fill="#1D2633"/>
<path d="M33.3075 88.853H27.7563V94.4065H33.3075V88.853Z" fill="#1D2633"/>
<path d="M38.8584 88.853H33.3071V94.4065H38.8584V88.853Z" fill="white"/>
<path d="M44.4106 88.853H38.8594V94.4065H44.4106V88.853Z" fill="white"/>
<path d="M49.9614 88.853H44.4102V94.4065H49.9614V88.853Z" fill="#1D2633"/>
<path d="M55.5126 88.853H49.9614V94.4065H55.5126V88.853Z" fill="#00FFAF"/>
<path d="M61.0635 88.853H55.5122V94.4065H61.0635V88.853Z" fill="#00FFAF"/>
<path d="M66.6147 88.853H61.0635V94.4065H66.6147V88.853Z" fill="#00FFAF"/>
<path d="M72.1652 88.853H66.6143V94.4065H72.1652V88.853Z" fill="white"/>
<path d="M77.7175 88.853H72.1665V94.4065H77.7175V88.853Z" fill="white"/>
<path d="M83.2687 88.853H77.7178V94.4065H83.2687V88.853Z" fill="#00FFAF"/>
<path d="M88.8195 88.853H83.2686V94.4065H88.8195V88.853Z" fill="#00FFAF"/>
<path d="M94.3703 88.853H88.8193V94.4065H94.3703V88.853Z" fill="#00FFAF"/>
<path d="M99.9211 88.853H94.3701V94.4065H99.9211V88.853Z" fill="white"/>
<path d="M105.473 88.853H99.9224V94.4065H105.473V88.853Z" fill="#00FFAF"/>
<path d="M111.025 88.853H105.474V94.4065H111.025V88.853Z" fill="#00FFAF"/>
<path d="M116.576 88.853H111.024V94.4065H116.576V88.853Z" fill="#00FFAF"/>
<path d="M122.128 88.853H116.577V94.4065H122.128V88.853Z" fill="#00FFAF"/>
<path d="M127.679 88.853H122.127V94.4065H127.679V88.853Z" fill="#00FFAF"/>
<path d="M133.23 88.853H127.679V94.4065H133.23V88.853Z" fill="#00FFAF"/>
<path d="M138.781 88.853H133.229V94.4065H138.781V88.853Z" fill="#00FFAF"/>
<path d="M144.332 88.853H138.78V94.4065H144.332V88.853Z" fill="#00FFAF"/>
<path d="M149.884 88.853H144.333V94.4065H149.884V88.853Z" fill="#00FFAF"/>
<path d="M155.435 88.853H149.883V94.4065H155.435V88.853Z" fill="#00FFAF"/>
<path d="M160.986 88.853H155.435V94.4065H160.986V88.853Z" fill="#00FFAF"/>
<path d="M166.537 88.853H160.986V94.4065H166.537V88.853Z" fill="#1D2633"/>
<path d="M172.088 88.853H166.537V94.4065H172.088V88.853Z" fill="white"/>
<path d="M177.639 88.853H172.088V94.4065H177.639V88.853Z" fill="white"/>
<path d="M183.191 88.853H177.64V94.4065H183.191V88.853Z" fill="#1D2633"/>
<path d="M33.3075 94.4067H27.7563V99.9597H33.3075V94.4067Z" fill="#1D2633"/>
<path d="M38.8584 94.4067H33.3071V99.9597H38.8584V94.4067Z" fill="white"/>
<path d="M44.4106 94.4067H38.8594V99.9597H44.4106V94.4067Z" fill="white"/>
<path d="M49.9614 94.4067H44.4102V99.9597H49.9614V94.4067Z" fill="white"/>
<path d="M55.5126 94.4067H49.9614V99.9597H55.5126V94.4067Z" fill="#1D2633"/>
<path d="M61.0635 94.4067H55.5122V99.9597H61.0635V94.4067Z" fill="#1D2633"/>
<path d="M66.6147 94.4067H61.0635V99.9597H66.6147V94.4067Z" fill="#1D2633"/>
<path d="M72.1652 94.4067H66.6143V99.9597H72.1652V94.4067Z" fill="#1D2633"/>
<path d="M77.7175 94.4067H72.1665V99.9597H77.7175V94.4067Z" fill="#1D2633"/>
<path d="M83.2687 94.4067H77.7178V99.9597H83.2687V94.4067Z" fill="#1D2633"/>
<path d="M88.8195 94.4067H83.2686V99.9597H88.8195V94.4067Z" fill="#1D2633"/>
<path d="M94.3703 94.4067H88.8193V99.9597H94.3703V94.4067Z" fill="#1D2633"/>
<path d="M99.9211 94.4067H94.3701V99.9597H99.9211V94.4067Z" fill="#1D2633"/>
<path d="M105.473 94.4067H99.9224V99.9597H105.473V94.4067Z" fill="#1D2633"/>
<path d="M111.025 94.4067H105.474V99.9597H111.025V94.4067Z" fill="#1D2633"/>
<path d="M116.576 94.4067H111.024V99.9597H116.576V94.4067Z" fill="#1D2633"/>
<path d="M122.128 94.4067H116.577V99.9597H122.128V94.4067Z" fill="#1D2633"/>
<path d="M127.679 94.4067H122.127V99.9597H127.679V94.4067Z" fill="#1D2633"/>
<path d="M133.23 94.4067H127.679V99.9597H133.23V94.4067Z" fill="#1D2633"/>
<path d="M138.781 94.4067H133.229V99.9597H138.781V94.4067Z" fill="#1D2633"/>
<path d="M144.332 94.4067H138.78V99.9597H144.332V94.4067Z" fill="#1D2633"/>
<path d="M149.884 94.4067H144.333V99.9597H149.884V94.4067Z" fill="#1D2633"/>
<path d="M155.435 94.4067H149.883V99.9597H155.435V94.4067Z" fill="#1D2633"/>
<path d="M160.986 94.4067H155.435V99.9597H160.986V94.4067Z" fill="#1D2633"/>
<path d="M166.537 94.4067H160.986V99.9597H166.537V94.4067Z" fill="white"/>
<path d="M172.088 94.4067H166.537V99.9597H172.088V94.4067Z" fill="white"/>
<path d="M177.639 94.4067H172.088V99.9597H177.639V94.4067Z" fill="white"/>
<path d="M183.191 94.4067H177.64V99.9597H183.191V94.4067Z" fill="#1D2633"/>
<path d="M38.8584 99.96H33.3071V105.513H38.8584V99.96Z" fill="#1D2633"/>
<path d="M44.4106 99.96H38.8594V105.513H44.4106V99.96Z" fill="white"/>
<path d="M49.9614 99.96H44.4102V105.513H49.9614V99.96Z" fill="white"/>
<path d="M55.5126 99.96H49.9614V105.513H55.5126V99.96Z" fill="white"/>
<path d="M61.0635 99.96H55.5122V105.513H61.0635V99.96Z" fill="white"/>
<path d="M66.6147 99.96H61.0635V105.513H66.6147V99.96Z" fill="white"/>
<path d="M72.1652 99.96H66.6143V105.513H72.1652V99.96Z" fill="white"/>
<path d="M77.7175 99.96H72.1665V105.513H77.7175V99.96Z" fill="white"/>
<path d="M83.2687 99.96H77.7178V105.513H83.2687V99.96Z" fill="white"/>
<path d="M88.8195 99.96H83.2686V105.513H88.8195V99.96Z" fill="white"/>
<path d="M94.3703 99.96H88.8193V105.513H94.3703V99.96Z" fill="white"/>
<path d="M99.9211 99.96H94.3701V105.513H99.9211V99.96Z" fill="white"/>
<path d="M105.473 99.96H99.9224V105.513H105.473V99.96Z" fill="white"/>
<path d="M111.025 99.96H105.474V105.513H111.025V99.96Z" fill="white"/>
<path d="M116.576 99.96H111.024V105.513H116.576V99.96Z" fill="white"/>
<path d="M122.128 99.96H116.577V105.513H122.128V99.96Z" fill="white"/>
<path d="M127.679 99.96H122.127V105.513H127.679V99.96Z" fill="white"/>
<path d="M133.23 99.96H127.679V105.513H133.23V99.96Z" fill="white"/>
<path d="M138.781 99.96H133.229V105.513H138.781V99.96Z" fill="white"/>
<path d="M144.332 99.96H138.78V105.513H144.332V99.96Z" fill="white"/>
<path d="M149.884 99.96H144.333V105.513H149.884V99.96Z" fill="white"/>
<path d="M155.435 99.96H149.883V105.513H155.435V99.96Z" fill="white"/>
<path d="M160.986 99.96H155.435V105.513H160.986V99.96Z" fill="white"/>
<path d="M166.537 99.96H160.986V105.513H166.537V99.96Z" fill="white"/>
<path d="M172.088 99.96H166.537V105.513H172.088V99.96Z" fill="white"/>
<path d="M177.639 99.96H172.088V105.513H177.639V99.96Z" fill="#1D2633"/>
<path d="M44.4106 105.513H38.8594V111.067H44.4106V105.513Z" fill="#1D2633"/>
<path d="M49.9614 105.513H44.4102V111.067H49.9614V105.513Z" fill="#1D2633"/>
<path d="M55.5126 105.513H49.9614V111.067H55.5126V105.513Z" fill="#1D2633"/>
<path d="M61.0635 105.513H55.5122V111.067H61.0635V105.513Z" fill="#1D2633"/>
<path d="M66.6147 105.513H61.0635V111.067H66.6147V105.513Z" fill="#1D2633"/>
<path d="M72.1652 105.513H66.6143V111.067H72.1652V105.513Z" fill="#1D2633"/>
<path d="M77.7175 105.513H72.1665V111.067H77.7175V105.513Z" fill="#1D2633"/>
<path d="M83.2687 105.513H77.7178V111.067H83.2687V105.513Z" fill="#1D2633"/>
<path d="M88.8195 105.513H83.2686V111.067H88.8195V105.513Z" fill="#1D2633"/>
<path d="M94.3703 105.513H88.8193V111.067H94.3703V105.513Z" fill="#1D2633"/>
<path d="M99.9211 105.513H94.3701V111.067H99.9211V105.513Z" fill="#1D2633"/>
<path d="M105.473 105.513H99.9224V111.067H105.473V105.513Z" fill="#1D2633"/>
<path d="M111.025 105.513H105.474V111.067H111.025V105.513Z" fill="#1D2633"/>
<path d="M116.576 105.513H111.024V111.067H116.576V105.513Z" fill="#1D2633"/>
<path d="M122.128 105.513H116.577V111.067H122.128V105.513Z" fill="#1D2633"/>
<path d="M127.679 105.513H122.127V111.067H127.679V105.513Z" fill="#1D2633"/>
<path d="M133.23 105.513H127.679V111.067H133.23V105.513Z" fill="#1D2633"/>
<path d="M138.781 105.513H133.229V111.067H138.781V105.513Z" fill="#1D2633"/>
<path d="M144.332 105.513H138.78V111.067H144.332V105.513Z" fill="#1D2633"/>
<path d="M149.884 105.513H144.333V111.067H149.884V105.513Z" fill="#1D2633"/>
<path d="M155.435 105.513H149.883V111.067H155.435V105.513Z" fill="#1D2633"/>
<path d="M160.986 105.513H155.435V111.067H160.986V105.513Z" fill="#1D2633"/>
<path d="M166.537 105.513H160.986V111.067H166.537V105.513Z" fill="#1D2633"/>
<path d="M172.088 105.513H166.537V111.067H172.088V105.513Z" fill="#1D2633"/>
<path d="M38.8584 111.067H33.3071V116.62H38.8584V111.067Z" fill="#1D2633"/>
<path d="M44.4106 111.067H38.8594V116.62H44.4106V111.067Z" fill="white"/>
<path d="M49.9614 111.067H44.4102V116.62H49.9614V111.067Z" fill="white"/>
<path d="M55.5126 111.067H49.9614V116.62H55.5126V111.067Z" fill="white"/>
<path d="M61.0635 111.067H55.5122V116.62H61.0635V111.067Z" fill="white"/>
<path d="M66.6147 111.067H61.0635V116.62H66.6147V111.067Z" fill="white"/>
<path d="M72.1652 111.067H66.6143V116.62H72.1652V111.067Z" fill="white"/>
<path d="M77.7175 111.067H72.1665V116.62H77.7175V111.067Z" fill="white"/>
<path d="M83.2687 111.067H77.7178V116.62H83.2687V111.067Z" fill="white"/>
<path d="M88.8195 111.067H83.2686V116.62H88.8195V111.067Z" fill="white"/>
<path d="M94.3703 111.067H88.8193V116.62H94.3703V111.067Z" fill="white"/>
<path d="M99.9211 111.067H94.3701V116.62H99.9211V111.067Z" fill="white"/>
<path d="M105.473 111.067H99.9224V116.62H105.473V111.067Z" fill="white"/>
<path d="M111.025 111.067H105.474V116.62H111.025V111.067Z" fill="white"/>
<path d="M116.576 111.067H111.024V116.62H116.576V111.067Z" fill="white"/>
<path d="M122.128 111.067H116.577V116.62H122.128V111.067Z" fill="white"/>
<path d="M127.679 111.067H122.127V116.62H127.679V111.067Z" fill="white"/>
<path d="M133.23 111.067H127.679V116.62H133.23V111.067Z" fill="white"/>
<path d="M138.781 111.067H133.229V116.62H138.781V111.067Z" fill="white"/>
<path d="M144.332 111.067H138.78V116.62H144.332V111.067Z" fill="white"/>
<path d="M149.884 111.067H144.333V116.62H149.884V111.067Z" fill="white"/>
<path d="M155.435 111.067H149.883V116.62H155.435V111.067Z" fill="white"/>
<path d="M160.986 111.067H155.435V116.62H160.986V111.067Z" fill="white"/>
<path d="M166.537 111.067H160.986V116.62H166.537V111.067Z" fill="white"/>
<path d="M172.088 111.067H166.537V116.62H172.088V111.067Z" fill="white"/>
<path d="M177.639 111.067H172.088V116.62H177.639V111.067Z" fill="#1D2633"/>
<path d="M33.3075 116.62H27.7563V122.173H33.3075V116.62Z" fill="#1D2633"/>
<path d="M38.8584 116.62H33.3071V122.173H38.8584V116.62Z" fill="white"/>
<path d="M44.4106 116.62H38.8594V122.173H44.4106V116.62Z" fill="white"/>
<path d="M49.9614 116.62H44.4102V122.173H49.9614V116.62Z" fill="white"/>
<path d="M55.5126 116.62H49.9614V122.173H55.5126V116.62Z" fill="#1D2633"/>
<path d="M61.0635 116.62H55.5122V122.173H61.0635V116.62Z" fill="#1D2633"/>
<path d="M66.6147 116.62H61.0635V122.173H66.6147V116.62Z" fill="#1D2633"/>
<path d="M72.1652 116.62H66.6143V122.173H72.1652V116.62Z" fill="#1D2633"/>
<path d="M77.7175 116.62H72.1665V122.173H77.7175V116.62Z" fill="#1D2633"/>
<path d="M83.2687 116.62H77.7178V122.173H83.2687V116.62Z" fill="#1D2633"/>
<path d="M88.8195 116.62H83.2686V122.173H88.8195V116.62Z" fill="#1D2633"/>
<path d="M94.3703 116.62H88.8193V122.173H94.3703V116.62Z" fill="#1D2633"/>
<path d="M99.9211 116.62H94.3701V122.173H99.9211V116.62Z" fill="#1D2633"/>
<path d="M105.473 116.62H99.9224V122.173H105.473V116.62Z" fill="#1D2633"/>
<path d="M111.025 116.62H105.474V122.173H111.025V116.62Z" fill="#1D2633"/>
<path d="M116.576 116.62H111.024V122.173H116.576V116.62Z" fill="#1D2633"/>
<path d="M122.128 116.62H116.577V122.173H122.128V116.62Z" fill="#1D2633"/>
<path d="M127.679 116.62H122.127V122.173H127.679V116.62Z" fill="#1D2633"/>
<path d="M133.23 116.62H127.679V122.173H133.23V116.62Z" fill="#1D2633"/>
<path d="M138.781 116.62H133.229V122.173H138.781V116.62Z" fill="#1D2633"/>
<path d="M144.332 116.62H138.78V122.173H144.332V116.62Z" fill="#1D2633"/>
<path d="M149.884 116.62H144.333V122.173H149.884V116.62Z" fill="#1D2633"/>
<path d="M155.435 116.62H149.883V122.173H155.435V116.62Z" fill="#1D2633"/>
<path d="M160.986 116.62H155.435V122.173H160.986V116.62Z" fill="#1D2633"/>
<path d="M166.537 116.62H160.986V122.173H166.537V116.62Z" fill="white"/>
<path d="M172.088 116.62H166.537V122.173H172.088V116.62Z" fill="white"/>
<path d="M177.639 116.62H172.088V122.173H177.639V116.62Z" fill="white"/>
<path d="M183.191 116.62H177.64V122.173H183.191V116.62Z" fill="#1D2633"/>
<path d="M27.7563 122.172H22.2051V127.726H27.7563V122.172Z" fill="#1D2633"/>
<path d="M33.3075 122.172H27.7563V127.726H33.3075V122.172Z" fill="white"/>
<path d="M38.8584 122.172H33.3071V127.726H38.8584V122.172Z" fill="white"/>
<path d="M44.4106 122.172H38.8594V127.726H44.4106V122.172Z" fill="white"/>
<path d="M49.9614 122.172H44.4102V127.726H49.9614V122.172Z" fill="#1D2633"/>
<path d="M55.5126 122.172H49.9614V127.726H55.5126V122.172Z" fill="#1D2633"/>
<path d="M61.0635 122.172H55.5122V127.726H61.0635V122.172Z" fill="#1D2633"/>
<path d="M66.6147 122.172H61.0635V127.726H66.6147V122.172Z" fill="#1D2633"/>
<path d="M72.1652 122.172H66.6143V127.726H72.1652V122.172Z" fill="#1D2633"/>
<path d="M77.7175 122.172H72.1665V127.726H77.7175V122.172Z" fill="#1D2633"/>
<path d="M83.2687 122.172H77.7178V127.726H83.2687V122.172Z" fill="#1D2633"/>
<path d="M88.8195 122.172H83.2686V127.726H88.8195V122.172Z" fill="#1D2633"/>
<path d="M94.3703 122.172H88.8193V127.726H94.3703V122.172Z" fill="#1D2633"/>
<path d="M99.9211 122.172H94.3701V127.726H99.9211V122.172Z" fill="#1D2633"/>
<path d="M105.473 122.172H99.9224V127.726H105.473V122.172Z" fill="#1D2633"/>
<path d="M111.025 122.172H105.474V127.726H111.025V122.172Z" fill="#1D2633"/>
<path d="M116.576 122.172H111.024V127.726H116.576V122.172Z" fill="#1D2633"/>
<path d="M122.128 122.172H116.577V127.726H122.128V122.172Z" fill="#1D2633"/>
<path d="M127.679 122.172H122.127V127.726H127.679V122.172Z" fill="#1D2633"/>
<path d="M133.23 122.172H127.679V127.726H133.23V122.172Z" fill="#1D2633"/>
<path d="M138.781 122.172H133.229V127.726H138.781V122.172Z" fill="#1D2633"/>
<path d="M144.332 122.172H138.78V127.726H144.332V122.172Z" fill="#1D2633"/>
<path d="M149.884 122.172H144.333V127.726H149.884V122.172Z" fill="#1D2633"/>
<path d="M155.435 122.172H149.883V127.726H155.435V122.172Z" fill="#1D2633"/>
<path d="M160.986 122.172H155.435V127.726H160.986V122.172Z" fill="#1D2633"/>
<path d="M166.537 122.172H160.986V127.726H166.537V122.172Z" fill="#1D2633"/>
<path d="M172.088 122.172H166.537V127.726H172.088V122.172Z" fill="white"/>
<path d="M177.639 122.172H172.088V127.726H177.639V122.172Z" fill="white"/>
<path d="M183.191 122.172H177.64V127.726H183.191V122.172Z" fill="white"/>
<path d="M188.742 122.172H183.191V127.726H188.742V122.172Z" fill="#1D2633"/>
<path d="M22.2055 127.726H16.6543V133.28H22.2055V127.726Z" fill="#1D2633"/>
<path d="M27.7563 127.726H22.2051V133.28H27.7563V127.726Z" fill="white"/>
<path d="M33.3075 127.726H27.7563V133.28H33.3075V127.726Z" fill="white"/>
<path d="M38.8584 127.726H33.3071V133.28H38.8584V127.726Z" fill="white"/>
<path d="M44.4106 127.726H38.8594V133.28H44.4106V127.726Z" fill="#1D2633"/>
<path d="M49.9614 127.726H44.4102V133.28H49.9614V127.726Z" fill="white"/>
<path d="M55.5126 127.726H49.9614V133.28H55.5126V127.726Z" fill="white"/>
<path d="M61.0635 127.726H55.5122V133.28H61.0635V127.726Z" fill="white"/>
<path d="M66.6147 127.726H61.0635V133.28H66.6147V127.726Z" fill="#1D2633"/>
<path d="M72.1652 127.726H66.6143V133.28H72.1652V127.726Z" fill="white"/>
<path d="M77.7175 127.726H72.1665V133.28H77.7175V127.726Z" fill="white"/>
<path d="M83.2687 127.726H77.7178V133.28H83.2687V127.726Z" fill="#1D2633"/>
<path d="M88.8195 127.726H83.2686V133.28H88.8195V127.726Z" fill="white"/>
<path d="M94.3703 127.726H88.8193V133.28H94.3703V127.726Z" fill="white"/>
<path d="M99.9211 127.726H94.3701V133.28H99.9211V127.726Z" fill="#1D2633"/>
<path d="M105.473 127.726H99.9224V133.28H105.473V127.726Z" fill="white"/>
<path d="M111.025 127.726H105.474V133.28H111.025V127.726Z" fill="white"/>
<path d="M116.576 127.726H111.024V133.28H116.576V127.726Z" fill="#1D2633"/>
<path d="M122.128 127.726H116.577V133.28H122.128V127.726Z" fill="white"/>
<path d="M127.679 127.726H122.127V133.28H127.679V127.726Z" fill="white"/>
<path d="M133.23 127.726H127.679V133.28H133.23V127.726Z" fill="#1D2633"/>
<path d="M138.781 127.726H133.229V133.28H138.781V127.726Z" fill="white"/>
<path d="M144.332 127.726H138.78V133.28H144.332V127.726Z" fill="white"/>
<path d="M149.884 127.726H144.333V133.28H149.884V127.726Z" fill="#1D2633"/>
<path d="M155.435 127.726H149.883V133.28H155.435V127.726Z" fill="white"/>
<path d="M160.986 127.726H155.435V133.28H160.986V127.726Z" fill="white"/>
<path d="M166.537 127.726H160.986V133.28H166.537V127.726Z" fill="white"/>
<path d="M172.088 127.726H166.537V133.28H172.088V127.726Z" fill="#1D2633"/>
<path d="M177.639 127.726H172.088V133.28H177.639V127.726Z" fill="white"/>
<path d="M183.191 127.726H177.64V133.28H183.191V127.726Z" fill="white"/>
<path d="M188.742 127.726H183.191V133.28H188.742V127.726Z" fill="white"/>
<path d="M194.293 127.726H188.742V133.28H194.293V127.726Z" fill="#1D2633"/>
<path d="M16.6543 133.28H11.103V138.833H16.6543V133.28Z" fill="#1D2633"/>
<path d="M22.2055 133.28H16.6543V138.833H22.2055V133.28Z" fill="white"/>
<path d="M27.7563 133.28H22.2051V138.833H27.7563V133.28Z" fill="white"/>
<path d="M33.3075 133.28H27.7563V138.833H33.3075V133.28Z" fill="white"/>
<path d="M38.8584 133.28H33.3071V138.833H38.8584V133.28Z" fill="#1D2633"/>
<path d="M44.4106 133.28H38.8594V138.833H44.4106V133.28Z" fill="#1D2633"/>
<path d="M49.9614 133.28H44.4102V138.833H49.9614V133.28Z" fill="#1D2633"/>
<path d="M55.5126 133.28H49.9614V138.833H55.5126V133.28Z" fill="#1D2633"/>
<path d="M61.0635 133.28H55.5122V138.833H61.0635V133.28Z" fill="#1D2633"/>
<path d="M66.6147 133.28H61.0635V138.833H66.6147V133.28Z" fill="#1D2633"/>
<path d="M72.1652 133.28H66.6143V138.833H72.1652V133.28Z" fill="#1D2633"/>
<path d="M77.7175 133.28H72.1665V138.833H77.7175V133.28Z" fill="#1D2633"/>
<path d="M83.2687 133.28H77.7178V138.833H83.2687V133.28Z" fill="#1D2633"/>
<path d="M88.8195 133.28H83.2686V138.833H88.8195V133.28Z" fill="#1D2633"/>
<path d="M94.3703 133.28H88.8193V138.833H94.3703V133.28Z" fill="#1D2633"/>
<path d="M99.9211 133.28H94.3701V138.833H99.9211V133.28Z" fill="#1D2633"/>
<path d="M105.473 133.28H99.9224V138.833H105.473V133.28Z" fill="#1D2633"/>
<path d="M111.025 133.28H105.474V138.833H111.025V133.28Z" fill="#1D2633"/>
<path d="M116.576 133.28H111.024V138.833H116.576V133.28Z" fill="#1D2633"/>
<path d="M122.128 133.28H116.577V138.833H122.128V133.28Z" fill="#1D2633"/>
<path d="M127.679 133.28H122.127V138.833H127.679V133.28Z" fill="#1D2633"/>
<path d="M133.23 133.28H127.679V138.833H133.23V133.28Z" fill="#1D2633"/>
<path d="M138.781 133.28H133.229V138.833H138.781V133.28Z" fill="#1D2633"/>
<path d="M144.332 133.28H138.78V138.833H144.332V133.28Z" fill="#1D2633"/>
<path d="M149.884 133.28H144.333V138.833H149.884V133.28Z" fill="#1D2633"/>
<path d="M155.435 133.28H149.883V138.833H155.435V133.28Z" fill="#1D2633"/>
<path d="M160.986 133.28H155.435V138.833H160.986V133.28Z" fill="#1D2633"/>
<path d="M166.537 133.28H160.986V138.833H166.537V133.28Z" fill="#1D2633"/>
<path d="M172.088 133.28H166.537V138.833H172.088V133.28Z" fill="#1D2633"/>
<path d="M177.639 133.28H172.088V138.833H177.639V133.28Z" fill="#1D2633"/>
<path d="M183.191 133.28H177.64V138.833H183.191V133.28Z" fill="white"/>
<path d="M188.742 133.28H183.191V138.833H188.742V133.28Z" fill="white"/>
<path d="M194.293 133.28H188.742V138.833H194.293V133.28Z" fill="white"/>
<path d="M199.844 133.28H194.293V138.833H199.844V133.28Z" fill="#1D2633"/>
<path d="M16.6543 138.833H11.103V144.386H16.6543V138.833Z" fill="#1D2633"/>
<path d="M22.2055 138.833H16.6543V144.386H22.2055V138.833Z" fill="white"/>
<path d="M27.7563 138.833H22.2051V144.386H27.7563V138.833Z" fill="white"/>
<path d="M33.3075 138.833H27.7563V144.386H33.3075V138.833Z" fill="#1D2633"/>
<path d="M38.8584 138.833H33.3071V144.386H38.8584V138.833Z" fill="#1D2633"/>
<path d="M44.4106 138.833H38.8594V144.386H44.4106V138.833Z" fill="#1D2633"/>
<path d="M49.9614 138.833H44.4102V144.386H49.9614V138.833Z" fill="white"/>
<path d="M55.5126 138.833H49.9614V144.386H55.5126V138.833Z" fill="white"/>
<path d="M61.0635 138.833H55.5122V144.386H61.0635V138.833Z" fill="#1D2633"/>
<path d="M66.6147 138.833H61.0635V144.386H66.6147V138.833Z" fill="white"/>
<path d="M72.1652 138.833H66.6143V144.386H72.1652V138.833Z" fill="white"/>
<path d="M77.7175 138.833H72.1665V144.386H77.7175V138.833Z" fill="#1D2633"/>
<path d="M83.2687 138.833H77.7178V144.386H83.2687V138.833Z" fill="white"/>
<path d="M88.8195 138.833H83.2686V144.386H88.8195V138.833Z" fill="white"/>
<path d="M94.3703 138.833H88.8193V144.386H94.3703V138.833Z" fill="#1D2633"/>
<path d="M99.9211 138.833H94.3701V144.386H99.9211V138.833Z" fill="white"/>
<path d="M105.473 138.833H99.9224V144.386H105.473V138.833Z" fill="white"/>
<path d="M111.025 138.833H105.474V144.386H111.025V138.833Z" fill="white"/>
<path d="M116.576 138.833H111.024V144.386H116.576V138.833Z" fill="white"/>
<path d="M122.128 138.833H116.577V144.386H122.128V138.833Z" fill="#1D2633"/>
<path d="M127.679 138.833H122.127V144.386H127.679V138.833Z" fill="white"/>
<path d="M133.23 138.833H127.679V144.386H133.23V138.833Z" fill="white"/>
<path d="M138.781 138.833H133.229V144.386H138.781V138.833Z" fill="#1D2633"/>
<path d="M144.332 138.833H138.78V144.386H144.332V138.833Z" fill="white"/>
<path d="M149.884 138.833H144.333V144.386H149.884V138.833Z" fill="white"/>
<path d="M155.435 138.833H149.883V144.386H155.435V138.833Z" fill="#1D2633"/>
<path d="M160.986 138.833H155.435V144.386H160.986V138.833Z" fill="white"/>
<path d="M166.537 138.833H160.986V144.386H166.537V138.833Z" fill="white"/>
<path d="M172.088 138.833H166.537V144.386H172.088V138.833Z" fill="#1D2633"/>
<path d="M177.639 138.833H172.088V144.386H177.639V138.833Z" fill="#1D2633"/>
<path d="M183.191 138.833H177.64V144.386H183.191V138.833Z" fill="#1D2633"/>
<path d="M188.742 138.833H183.191V144.386H188.742V138.833Z" fill="white"/>
<path d="M194.293 138.833H188.742V144.386H194.293V138.833Z" fill="white"/>
<path d="M199.844 138.833H194.293V144.386H199.844V138.833Z" fill="#1D2633"/>
<path d="M11.102 144.386H5.55078V149.94H11.102V144.386Z" fill="#1D2633"/>
<path d="M16.6543 144.386H11.103V149.94H16.6543V144.386Z" fill="white"/>
<path d="M22.2055 144.386H16.6543V149.94H22.2055V144.386Z" fill="white"/>
<path d="M27.7563 144.386H22.2051V149.94H27.7563V144.386Z" fill="#1D2633"/>
<path d="M33.3075 144.386H27.7563V149.94H33.3075V144.386Z" fill="#1D2633"/>
<path d="M38.8584 144.386H33.3071V149.94H38.8584V144.386Z" fill="#1D2633"/>
<path d="M44.4106 144.386H38.8594V149.94H44.4106V144.386Z" fill="#1D2633"/>
<path d="M49.9614 144.386H44.4102V149.94H49.9614V144.386Z" fill="#1D2633"/>
<path d="M55.5126 144.386H49.9614V149.94H55.5126V144.386Z" fill="#1D2633"/>
<path d="M61.0635 144.386H55.5122V149.94H61.0635V144.386Z" fill="#1D2633"/>
<path d="M66.6147 144.386H61.0635V149.94H66.6147V144.386Z" fill="#1D2633"/>
<path d="M72.1652 144.386H66.6143V149.94H72.1652V144.386Z" fill="#1D2633"/>
<path d="M77.7175 144.386H72.1665V149.94H77.7175V144.386Z" fill="#1D2633"/>
<path d="M83.2687 144.386H77.7178V149.94H83.2687V144.386Z" fill="#1D2633"/>
<path d="M88.8195 144.386H83.2686V149.94H88.8195V144.386Z" fill="#1D2633"/>
<path d="M94.3703 144.386H88.8193V149.94H94.3703V144.386Z" fill="#1D2633"/>
<path d="M99.9211 144.386H94.3701V149.94H99.9211V144.386Z" fill="#1D2633"/>
<path d="M105.473 144.386H99.9224V149.94H105.473V144.386Z" fill="#1D2633"/>
<path d="M111.025 144.386H105.474V149.94H111.025V144.386Z" fill="#1D2633"/>
<path d="M116.576 144.386H111.024V149.94H116.576V144.386Z" fill="#1D2633"/>
<path d="M122.128 144.386H116.577V149.94H122.128V144.386Z" fill="#1D2633"/>
<path d="M127.679 144.386H122.127V149.94H127.679V144.386Z" fill="#1D2633"/>
<path d="M133.23 144.386H127.679V149.94H133.23V144.386Z" fill="#1D2633"/>
<path d="M138.781 144.386H133.229V149.94H138.781V144.386Z" fill="#1D2633"/>
<path d="M144.332 144.386H138.78V149.94H144.332V144.386Z" fill="#1D2633"/>
<path d="M149.884 144.386H144.333V149.94H149.884V144.386Z" fill="#1D2633"/>
<path d="M155.435 144.386H149.883V149.94H155.435V144.386Z" fill="#1D2633"/>
<path d="M160.986 144.386H155.435V149.94H160.986V144.386Z" fill="#1D2633"/>
<path d="M166.537 144.386H160.986V149.94H166.537V144.386Z" fill="#1D2633"/>
<path d="M172.088 144.386H166.537V149.94H172.088V144.386Z" fill="#1D2633"/>
<path d="M177.639 144.386H172.088V149.94H177.639V144.386Z" fill="#1D2633"/>
<path d="M183.191 144.386H177.64V149.94H183.191V144.386Z" fill="#1D2633"/>
<path d="M188.742 144.386H183.191V149.94H188.742V144.386Z" fill="#1D2633"/>
<path d="M194.293 144.386H188.742V149.94H194.293V144.386Z" fill="white"/>
<path d="M199.844 144.386H194.293V149.94H199.844V144.386Z" fill="white"/>
<path d="M205.395 144.386H199.844V149.94H205.395V144.386Z" fill="#1D2633"/>
<path d="M11.102 149.939H5.55078V155.493H11.102V149.939Z" fill="#1D2633"/>
<path d="M16.6543 149.939H11.103V155.493H16.6543V149.939Z" fill="white"/>
<path d="M22.2055 149.939H16.6543V155.493H22.2055V149.939Z" fill="white"/>
<path d="M27.7563 149.939H22.2051V155.493H27.7563V149.939Z" fill="white"/>
<path d="M33.3075 149.939H27.7563V155.493H33.3075V149.939Z" fill="white"/>
<path d="M38.8584 149.939H33.3071V155.493H38.8584V149.939Z" fill="white"/>
<path d="M44.4106 149.939H38.8594V155.493H44.4106V149.939Z" fill="white"/>
<path d="M49.9614 149.939H44.4102V155.493H49.9614V149.939Z" fill="white"/>
<path d="M55.5126 149.939H49.9614V155.493H55.5126V149.939Z" fill="white"/>
<path d="M61.0635 149.939H55.5122V155.493H61.0635V149.939Z" fill="white"/>
<path d="M66.6147 149.939H61.0635V155.493H66.6147V149.939Z" fill="white"/>
<path d="M72.1652 149.939H66.6143V155.493H72.1652V149.939Z" fill="white"/>
<path d="M77.7175 149.939H72.1665V155.493H77.7175V149.939Z" fill="white"/>
<path d="M83.2687 149.939H77.7178V155.493H83.2687V149.939Z" fill="white"/>
<path d="M88.8195 149.939H83.2686V155.493H88.8195V149.939Z" fill="white"/>
<path d="M94.3703 149.939H88.8193V155.493H94.3703V149.939Z" fill="white"/>
<path d="M99.9211 149.939H94.3701V155.493H99.9211V149.939Z" fill="white"/>
<path d="M105.473 149.939H99.9224V155.493H105.473V149.939Z" fill="white"/>
<path d="M111.025 149.939H105.474V155.493H111.025V149.939Z" fill="white"/>
<path d="M116.576 149.939H111.024V155.493H116.576V149.939Z" fill="white"/>
<path d="M122.128 149.939H116.577V155.493H122.128V149.939Z" fill="white"/>
<path d="M127.679 149.939H122.127V155.493H127.679V149.939Z" fill="white"/>
<path d="M133.23 149.939H127.679V155.493H133.23V149.939Z" fill="white"/>
<path d="M138.781 149.939H133.229V155.493H138.781V149.939Z" fill="white"/>
<path d="M144.332 149.939H138.78V155.493H144.332V149.939Z" fill="white"/>
<path d="M149.884 149.939H144.333V155.493H149.884V149.939Z" fill="white"/>
<path d="M155.435 149.939H149.883V155.493H155.435V149.939Z" fill="white"/>
<path d="M160.986 149.939H155.435V155.493H160.986V149.939Z" fill="white"/>
<path d="M166.537 149.939H160.986V155.493H166.537V149.939Z" fill="white"/>
<path d="M172.088 149.939H166.537V155.493H172.088V149.939Z" fill="white"/>
<path d="M177.639 149.939H172.088V155.493H177.639V149.939Z" fill="white"/>
<path d="M183.191 149.939H177.64V155.493H183.191V149.939Z" fill="white"/>
<path d="M188.742 149.939H183.191V155.493H188.742V149.939Z" fill="white"/>
<path d="M194.293 149.939H188.742V155.493H194.293V149.939Z" fill="white"/>
<path d="M199.844 149.939H194.293V155.493H199.844V149.939Z" fill="white"/>
<path d="M205.395 149.939H199.844V155.493H205.395V149.939Z" fill="#1D2633"/>
<path d="M5.55124 155.493H0V161.046H5.55124V155.493Z" fill="#1D2633"/>
<path d="M11.102 155.493H5.55078V161.046H11.102V155.493Z" fill="white"/>
<path d="M16.6543 155.493H11.103V161.046H16.6543V155.493Z" fill="white"/>
<path d="M22.2055 155.493H16.6543V161.046H22.2055V155.493Z" fill="white"/>
<path d="M27.7563 155.493H22.2051V161.046H27.7563V155.493Z" fill="white"/>
<path d="M33.3075 155.493H27.7563V161.046H33.3075V155.493Z" fill="white"/>
<path d="M38.8584 155.493H33.3071V161.046H38.8584V155.493Z" fill="white"/>
<path d="M44.4106 155.493H38.8594V161.046H44.4106V155.493Z" fill="white"/>
<path d="M49.9614 155.493H44.4102V161.046H49.9614V155.493Z" fill="white"/>
<path d="M55.5126 155.493H49.9614V161.046H55.5126V155.493Z" fill="white"/>
<path d="M61.0635 155.493H55.5122V161.046H61.0635V155.493Z" fill="white"/>
<path d="M66.6147 155.493H61.0635V161.046H66.6147V155.493Z" fill="white"/>
<path d="M72.1652 155.493H66.6143V161.046H72.1652V155.493Z" fill="white"/>
<path d="M77.7175 155.493H72.1665V161.046H77.7175V155.493Z" fill="white"/>
<path d="M83.2687 155.493H77.7178V161.046H83.2687V155.493Z" fill="white"/>
<path d="M88.8195 155.493H83.2686V161.046H88.8195V155.493Z" fill="white"/>
<path d="M94.3703 155.493H88.8193V161.046H94.3703V155.493Z" fill="#1D2633"/>
<path d="M99.9211 155.493H94.3701V161.046H99.9211V155.493Z" fill="#1D2633"/>
<path d="M105.473 155.493H99.9224V161.046H105.473V155.493Z" fill="#1D2633"/>
<path d="M111.025 155.493H105.474V161.046H111.025V155.493Z" fill="#1D2633"/>
<path d="M116.576 155.493H111.024V161.046H116.576V155.493Z" fill="#1D2633"/>
<path d="M122.128 155.493H116.577V161.046H122.128V155.493Z" fill="#1D2633"/>
<path d="M127.679 155.493H122.127V161.046H127.679V155.493Z" fill="white"/>
<path d="M133.23 155.493H127.679V161.046H133.23V155.493Z" fill="white"/>
<path d="M138.781 155.493H133.229V161.046H138.781V155.493Z" fill="white"/>
<path d="M144.332 155.493H138.78V161.046H144.332V155.493Z" fill="white"/>
<path d="M149.884 155.493H144.333V161.046H149.884V155.493Z" fill="white"/>
<path d="M155.435 155.493H149.883V161.046H155.435V155.493Z" fill="white"/>
<path d="M160.986 155.493H155.435V161.046H160.986V155.493Z" fill="white"/>
<path d="M166.537 155.493H160.986V161.046H166.537V155.493Z" fill="white"/>
<path d="M172.088 155.493H166.537V161.046H172.088V155.493Z" fill="white"/>
<path d="M177.639 155.493H172.088V161.046H177.639V155.493Z" fill="white"/>
<path d="M183.191 155.493H177.64V161.046H183.191V155.493Z" fill="white"/>
<path d="M188.742 155.493H183.191V161.046H188.742V155.493Z" fill="white"/>
<path d="M194.293 155.493H188.742V161.046H194.293V155.493Z" fill="white"/>
<path d="M199.844 155.493H194.293V161.046H199.844V155.493Z" fill="white"/>
<path d="M205.395 155.493H199.844V161.046H205.395V155.493Z" fill="white"/>
<path d="M210.947 155.493H205.396V161.046H210.947V155.493Z" fill="#1D2633"/>
<path d="M5.55124 161.047H0V166.6H5.55124V161.047Z" fill="#1D2633"/>
<path d="M11.102 161.047H5.55078V166.6H11.102V161.047Z" fill="white"/>
<path d="M16.6543 161.047H11.103V166.6H16.6543V161.047Z" fill="white"/>
<path d="M22.2055 161.047H16.6543V166.6H22.2055V161.047Z" fill="white"/>
<path d="M27.7563 161.047H22.2051V166.6H27.7563V161.047Z" fill="white"/>
<path d="M33.3075 161.047H27.7563V166.6H33.3075V161.047Z" fill="white"/>
<path d="M38.8584 161.047H33.3071V166.6H38.8584V161.047Z" fill="white"/>
<path d="M44.4106 161.047H38.8594V166.6H44.4106V161.047Z" fill="white"/>
<path d="M49.9614 161.047H44.4102V166.6H49.9614V161.047Z" fill="white"/>
<path d="M55.5126 161.047H49.9614V166.6H55.5126V161.047Z" fill="white"/>
<path d="M61.0635 161.047H55.5122V166.6H61.0635V161.047Z" fill="white"/>
<path d="M66.6147 161.047H61.0635V166.6H66.6147V161.047Z" fill="white"/>
<path d="M72.1652 161.047H66.6143V166.6H72.1652V161.047Z" fill="white"/>
<path d="M77.7175 161.047H72.1665V166.6H77.7175V161.047Z" fill="white"/>
<path d="M83.2687 161.047H77.7178V166.6H83.2687V161.047Z" fill="white"/>
<path d="M88.8195 161.047H83.2686V166.6H88.8195V161.047Z" fill="white"/>
<path d="M94.3703 161.047H88.8193V166.6H94.3703V161.047Z" fill="#1D2633"/>
<path d="M99.9211 161.047H94.3701V166.6H99.9211V161.047Z" fill="#1D2633"/>
<path d="M105.473 161.047H99.9224V166.6H105.473V161.047Z" fill="#1D2633"/>
<path d="M111.025 161.047H105.474V166.6H111.025V161.047Z" fill="#1D2633"/>
<path d="M116.576 161.047H111.024V166.6H116.576V161.047Z" fill="#1D2633"/>
<path d="M122.128 161.047H116.577V166.6H122.128V161.047Z" fill="#1D2633"/>
<path d="M127.679 161.047H122.127V166.6H127.679V161.047Z" fill="white"/>
<path d="M133.23 161.047H127.679V166.6H133.23V161.047Z" fill="white"/>
<path d="M138.781 161.047H133.229V166.6H138.781V161.047Z" fill="white"/>
<path d="M144.332 161.047H138.78V166.6H144.332V161.047Z" fill="white"/>
<path d="M149.884 161.047H144.333V166.6H149.884V161.047Z" fill="white"/>
<path d="M155.435 161.047H149.883V166.6H155.435V161.047Z" fill="white"/>
<path d="M160.986 161.047H155.435V166.6H160.986V161.047Z" fill="white"/>
<path d="M166.537 161.047H160.986V166.6H166.537V161.047Z" fill="white"/>
<path d="M172.088 161.047H166.537V166.6H172.088V161.047Z" fill="white"/>
<path d="M177.639 161.047H172.088V166.6H177.639V161.047Z" fill="white"/>
<path d="M183.191 161.047H177.64V166.6H183.191V161.047Z" fill="white"/>
<path d="M188.742 161.047H183.191V166.6H188.742V161.047Z" fill="white"/>
<path d="M194.293 161.047H188.742V166.6H194.293V161.047Z" fill="white"/>
<path d="M199.844 161.047H194.293V166.6H199.844V161.047Z" fill="white"/>
<path d="M205.395 161.047H199.844V166.6H205.395V161.047Z" fill="white"/>
<path d="M210.947 161.047H205.396V166.6H210.947V161.047Z" fill="#1D2633"/>
<path d="M5.55124 166.6H0V172.153H5.55124V166.6Z" fill="#1D2633"/>
<path d="M11.102 166.6H5.55078V172.153H11.102V166.6Z" fill="#1D2633"/>
<path d="M16.6543 166.6H11.103V172.153H16.6543V166.6Z" fill="white"/>
<path d="M22.2055 166.6H16.6543V172.153H22.2055V166.6Z" fill="white"/>
<path d="M27.7563 166.6H22.2051V172.153H27.7563V166.6Z" fill="white"/>
<path d="M33.3075 166.6H27.7563V172.153H33.3075V166.6Z" fill="white"/>
<path d="M38.8584 166.6H33.3071V172.153H38.8584V166.6Z" fill="white"/>
<path d="M44.4106 166.6H38.8594V172.153H44.4106V166.6Z" fill="white"/>
<path d="M49.9614 166.6H44.4102V172.153H49.9614V166.6Z" fill="white"/>
<path d="M55.5126 166.6H49.9614V172.153H55.5126V166.6Z" fill="white"/>
<path d="M61.0635 166.6H55.5122V172.153H61.0635V166.6Z" fill="white"/>
<path d="M66.6147 166.6H61.0635V172.153H66.6147V166.6Z" fill="white"/>
<path d="M72.1652 166.6H66.6143V172.153H72.1652V166.6Z" fill="white"/>
<path d="M77.7175 166.6H72.1665V172.153H77.7175V166.6Z" fill="white"/>
<path d="M83.2687 166.6H77.7178V172.153H83.2687V166.6Z" fill="white"/>
<path d="M88.8195 166.6H83.2686V172.153H88.8195V166.6Z" fill="white"/>
<path d="M94.3703 166.6H88.8193V172.153H94.3703V166.6Z" fill="white"/>
<path d="M99.9211 166.6H94.3701V172.153H99.9211V166.6Z" fill="white"/>
<path d="M105.473 166.6H99.9224V172.153H105.473V166.6Z" fill="white"/>
<path d="M111.025 166.6H105.474V172.153H111.025V166.6Z" fill="white"/>
<path d="M116.576 166.6H111.024V172.153H116.576V166.6Z" fill="white"/>
<path d="M122.128 166.6H116.577V172.153H122.128V166.6Z" fill="white"/>
<path d="M127.679 166.6H122.127V172.153H127.679V166.6Z" fill="white"/>
<path d="M133.23 166.6H127.679V172.153H133.23V166.6Z" fill="white"/>
<path d="M138.781 166.6H133.229V172.153H138.781V166.6Z" fill="white"/>
<path d="M144.332 166.6H138.78V172.153H144.332V166.6Z" fill="white"/>
<path d="M149.884 166.6H144.333V172.153H149.884V166.6Z" fill="white"/>
<path d="M155.435 166.6H149.883V172.153H155.435V166.6Z" fill="white"/>
<path d="M160.986 166.6H155.435V172.153H160.986V166.6Z" fill="white"/>
<path d="M166.537 166.6H160.986V172.153H166.537V166.6Z" fill="white"/>
<path d="M172.088 166.6H166.537V172.153H172.088V166.6Z" fill="white"/>
<path d="M177.639 166.6H172.088V172.153H177.639V166.6Z" fill="white"/>
<path d="M183.191 166.6H177.64V172.153H183.191V166.6Z" fill="white"/>
<path d="M188.742 166.6H183.191V172.153H188.742V166.6Z" fill="white"/>
<path d="M194.293 166.6H188.742V172.153H194.293V166.6Z" fill="white"/>
<path d="M199.844 166.6H194.293V172.153H199.844V166.6Z" fill="white"/>
<path d="M205.395 166.6H199.844V172.153H205.395V166.6Z" fill="#1D2633"/>
<path d="M210.947 166.6H205.396V172.153H210.947V166.6Z" fill="#1D2633"/>
<path d="M5.55124 172.153H0V177.707H5.55124V172.153Z" fill="#1D2633"/>
<path d="M11.102 172.153H5.55078V177.707H11.102V172.153Z" fill="white"/>
<path d="M16.6543 172.153H11.103V177.707H16.6543V172.153Z" fill="#1D2633"/>
<path d="M22.2055 172.153H16.6543V177.707H22.2055V172.153Z" fill="#1D2633"/>
<path d="M27.7563 172.153H22.2051V177.707H27.7563V172.153Z" fill="#1D2633"/>
<path d="M33.3075 172.153H27.7563V177.707H33.3075V172.153Z" fill="#1D2633"/>
<path d="M38.8584 172.153H33.3071V177.707H38.8584V172.153Z" fill="#1D2633"/>
<path d="M44.4106 172.153H38.8594V177.707H44.4106V172.153Z" fill="#1D2633"/>
<path d="M49.9614 172.153H44.4102V177.707H49.9614V172.153Z" fill="#1D2633"/>
<path d="M55.5126 172.153H49.9614V177.707H55.5126V172.153Z" fill="#1D2633"/>
<path d="M61.0635 172.153H55.5122V177.707H61.0635V172.153Z" fill="#1D2633"/>
<path d="M66.6147 172.153H61.0635V177.707H66.6147V172.153Z" fill="#1D2633"/>
<path d="M72.1652 172.153H66.6143V177.707H72.1652V172.153Z" fill="#1D2633"/>
<path d="M77.7175 172.153H72.1665V177.707H77.7175V172.153Z" fill="#1D2633"/>
<path d="M83.2687 172.153H77.7178V177.707H83.2687V172.153Z" fill="#1D2633"/>
<path d="M88.8195 172.153H83.2686V177.707H88.8195V172.153Z" fill="#1D2633"/>
<path d="M94.3703 172.153H88.8193V177.707H94.3703V172.153Z" fill="#1D2633"/>
<path d="M99.9211 172.153H94.3701V177.707H99.9211V172.153Z" fill="#1D2633"/>
<path d="M105.473 172.153H99.9224V177.707H105.473V172.153Z" fill="#1D2633"/>
<path d="M111.025 172.153H105.474V177.707H111.025V172.153Z" fill="#1D2633"/>
<path d="M116.576 172.153H111.024V177.707H116.576V172.153Z" fill="#1D2633"/>
<path d="M122.128 172.153H116.577V177.707H122.128V172.153Z" fill="#1D2633"/>
<path d="M127.679 172.153H122.127V177.707H127.679V172.153Z" fill="#1D2633"/>
<path d="M133.23 172.153H127.679V177.707H133.23V172.153Z" fill="#1D2633"/>
<path d="M138.781 172.153H133.229V177.707H138.781V172.153Z" fill="#1D2633"/>
<path d="M144.332 172.153H138.78V177.707H144.332V172.153Z" fill="#1D2633"/>
<path d="M149.884 172.153H144.333V177.707H149.884V172.153Z" fill="#1D2633"/>
<path d="M155.435 172.153H149.883V177.707H155.435V172.153Z" fill="#1D2633"/>
<path d="M160.986 172.153H155.435V177.707H160.986V172.153Z" fill="#1D2633"/>
<path d="M166.537 172.153H160.986V177.707H166.537V172.153Z" fill="#1D2633"/>
<path d="M172.088 172.153H166.537V177.707H172.088V172.153Z" fill="#1D2633"/>
<path d="M177.639 172.153H172.088V177.707H177.639V172.153Z" fill="#1D2633"/>
<path d="M183.191 172.153H177.64V177.707H183.191V172.153Z" fill="#1D2633"/>
<path d="M188.742 172.153H183.191V177.707H188.742V172.153Z" fill="#1D2633"/>
<path d="M194.293 172.153H188.742V177.707H194.293V172.153Z" fill="#1D2633"/>
<path d="M199.844 172.153H194.293V177.707H199.844V172.153Z" fill="#1D2633"/>
<path d="M205.395 172.153H199.844V177.707H205.395V172.153Z" fill="white"/>
<path d="M210.947 172.153H205.396V177.707H210.947V172.153Z" fill="#1D2633"/>
<path d="M5.55124 177.706H0V183.259H5.55124V177.706Z" fill="#1D2633"/>
<path d="M11.102 177.706H5.55078V183.259H11.102V177.706Z" fill="white"/>
<path d="M16.6543 177.706H11.103V183.259H16.6543V177.706Z" fill="white"/>
<path d="M22.2055 177.706H16.6543V183.259H22.2055V177.706Z" fill="white"/>
<path d="M27.7563 177.706H22.2051V183.259H27.7563V177.706Z" fill="white"/>
<path d="M33.3075 177.706H27.7563V183.259H33.3075V177.706Z" fill="white"/>
<path d="M38.8584 177.706H33.3071V183.259H38.8584V177.706Z" fill="white"/>
<path d="M44.4106 177.706H38.8594V183.259H44.4106V177.706Z" fill="white"/>
<path d="M49.9614 177.706H44.4102V183.259H49.9614V177.706Z" fill="white"/>
<path d="M55.5126 177.706H49.9614V183.259H55.5126V177.706Z" fill="white"/>
<path d="M61.0635 177.706H55.5122V183.259H61.0635V177.706Z" fill="white"/>
<path d="M66.6147 177.706H61.0635V183.259H66.6147V177.706Z" fill="white"/>
<path d="M72.1652 177.706H66.6143V183.259H72.1652V177.706Z" fill="white"/>
<path d="M77.7175 177.706H72.1665V183.259H77.7175V177.706Z" fill="white"/>
<path d="M83.2687 177.706H77.7178V183.259H83.2687V177.706Z" fill="white"/>
<path d="M88.8195 177.706H83.2686V183.259H88.8195V177.706Z" fill="white"/>
<path d="M94.3703 177.706H88.8193V183.259H94.3703V177.706Z" fill="white"/>
<path d="M99.9211 177.706H94.3701V183.259H99.9211V177.706Z" fill="white"/>
<path d="M105.473 177.706H99.9224V183.259H105.473V177.706Z" fill="white"/>
<path d="M111.025 177.706H105.474V183.259H111.025V177.706Z" fill="white"/>
<path d="M116.576 177.706H111.024V183.259H116.576V177.706Z" fill="white"/>
<path d="M122.128 177.706H116.577V183.259H122.128V177.706Z" fill="white"/>
<path d="M127.679 177.706H122.127V183.259H127.679V177.706Z" fill="white"/>
<path d="M133.23 177.706H127.679V183.259H133.23V177.706Z" fill="white"/>
<path d="M138.781 177.706H133.229V183.259H138.781V177.706Z" fill="white"/>
<path d="M144.332 177.706H138.78V183.259H144.332V177.706Z" fill="white"/>
<path d="M149.884 177.706H144.333V183.259H149.884V177.706Z" fill="white"/>
<path d="M155.435 177.706H149.883V183.259H155.435V177.706Z" fill="white"/>
<path d="M160.986 177.706H155.435V183.259H160.986V177.706Z" fill="white"/>
<path d="M166.537 177.706H160.986V183.259H166.537V177.706Z" fill="white"/>
<path d="M172.088 177.706H166.537V183.259H172.088V177.706Z" fill="white"/>
<path d="M177.639 177.706H172.088V183.259H177.639V177.706Z" fill="white"/>
<path d="M183.191 177.706H177.64V183.259H183.191V177.706Z" fill="white"/>
<path d="M188.742 177.706H183.191V183.259H188.742V177.706Z" fill="white"/>
<path d="M194.293 177.706H188.742V183.259H194.293V177.706Z" fill="white"/>
<path d="M199.844 177.706H194.293V183.259H199.844V177.706Z" fill="white"/>
<path d="M205.395 177.706H199.844V183.259H205.395V177.706Z" fill="white"/>
<path d="M210.947 177.706H205.396V183.259H210.947V177.706Z" fill="#1D2633"/>
<path opacity="0.3" d="M5.55124 183.26H0V188.813H5.55124V183.26Z" fill="#303030"/>
<path d="M11.102 183.26H5.55078V188.813H11.102V183.26Z" fill="#1D2633"/>
<path d="M16.6543 183.26H11.103V188.813H16.6543V183.26Z" fill="white"/>
<path d="M22.2055 183.26H16.6543V188.813H22.2055V183.26Z" fill="white"/>
<path d="M27.7563 183.26H22.2051V188.813H27.7563V183.26Z" fill="white"/>
<path d="M33.3075 183.26H27.7563V188.813H33.3075V183.26Z" fill="white"/>
<path d="M38.8584 183.26H33.3071V188.813H38.8584V183.26Z" fill="white"/>
<path d="M44.4106 183.26H38.8594V188.813H44.4106V183.26Z" fill="white"/>
<path d="M49.9614 183.26H44.4102V188.813H49.9614V183.26Z" fill="white"/>
<path d="M55.5126 183.26H49.9614V188.813H55.5126V183.26Z" fill="white"/>
<path d="M61.0635 183.26H55.5122V188.813H61.0635V183.26Z" fill="white"/>
<path d="M66.6147 183.26H61.0635V188.813H66.6147V183.26Z" fill="white"/>
<path d="M72.1652 183.26H66.6143V188.813H72.1652V183.26Z" fill="white"/>
<path d="M77.7175 183.26H72.1665V188.813H77.7175V183.26Z" fill="white"/>
<path d="M83.2687 183.26H77.7178V188.813H83.2687V183.26Z" fill="white"/>
<path d="M88.8195 183.26H83.2686V188.813H88.8195V183.26Z" fill="white"/>
<path d="M94.3703 183.26H88.8193V188.813H94.3703V183.26Z" fill="white"/>
<path d="M99.9211 183.26H94.3701V188.813H99.9211V183.26Z" fill="white"/>
<path d="M105.473 183.26H99.9224V188.813H105.473V183.26Z" fill="white"/>
<path d="M111.025 183.26H105.474V188.813H111.025V183.26Z" fill="white"/>
<path d="M116.576 183.26H111.024V188.813H116.576V183.26Z" fill="white"/>
<path d="M122.128 183.26H116.577V188.813H122.128V183.26Z" fill="white"/>
<path d="M127.679 183.26H122.127V188.813H127.679V183.26Z" fill="white"/>
<path d="M133.23 183.26H127.679V188.813H133.23V183.26Z" fill="white"/>
<path d="M138.781 183.26H133.229V188.813H138.781V183.26Z" fill="white"/>
<path d="M144.332 183.26H138.78V188.813H144.332V183.26Z" fill="white"/>
<path d="M149.884 183.26H144.333V188.813H149.884V183.26Z" fill="white"/>
<path d="M155.435 183.26H149.883V188.813H155.435V183.26Z" fill="white"/>
<path d="M160.986 183.26H155.435V188.813H160.986V183.26Z" fill="white"/>
<path d="M166.537 183.26H160.986V188.813H166.537V183.26Z" fill="white"/>
<path d="M172.088 183.26H166.537V188.813H172.088V183.26Z" fill="white"/>
<path d="M177.639 183.26H172.088V188.813H177.639V183.26Z" fill="white"/>
<path d="M183.191 183.26H177.64V188.813H183.191V183.26Z" fill="white"/>
<path d="M188.742 183.26H183.191V188.813H188.742V183.26Z" fill="white"/>
<path d="M194.293 183.26H188.742V188.813H194.293V183.26Z" fill="white"/>
<path d="M199.844 183.26H194.293V188.813H199.844V183.26Z" fill="white"/>
<path d="M205.395 183.26H199.844V188.813H205.395V183.26Z" fill="#1D2633"/>
<path opacity="0.3" d="M210.947 183.26H205.396V188.813H210.947V183.26Z" fill="#303030"/>
<path opacity="0.3" d="M11.102 188.812H5.55078V194.365H11.102V188.812Z" fill="#303030"/>
<path d="M16.6543 188.812H11.103V194.365H16.6543V188.812Z" fill="#1D2633"/>
<path d="M22.2055 188.812H16.6543V194.365H22.2055V188.812Z" fill="#1D2633"/>
<path d="M27.7563 188.812H22.2051V194.365H27.7563V188.812Z" fill="#1D2633"/>
<path d="M33.3075 188.812H27.7563V194.365H33.3075V188.812Z" fill="#1D2633"/>
<path d="M38.8584 188.812H33.3071V194.365H38.8584V188.812Z" fill="#1D2633"/>
<path d="M44.4106 188.812H38.8594V194.365H44.4106V188.812Z" fill="#1D2633"/>
<path d="M49.9614 188.812H44.4102V194.365H49.9614V188.812Z" fill="#1D2633"/>
<path d="M55.5126 188.812H49.9614V194.365H55.5126V188.812Z" fill="#1D2633"/>
<path d="M61.0635 188.812H55.5122V194.365H61.0635V188.812Z" fill="#1D2633"/>
<path d="M66.6147 188.812H61.0635V194.365H66.6147V188.812Z" fill="#1D2633"/>
<path d="M72.1652 188.812H66.6143V194.365H72.1652V188.812Z" fill="#1D2633"/>
<path d="M77.7175 188.812H72.1665V194.365H77.7175V188.812Z" fill="#1D2633"/>
<path d="M83.2687 188.812H77.7178V194.365H83.2687V188.812Z" fill="#1D2633"/>
<path d="M88.8195 188.812H83.2686V194.365H88.8195V188.812Z" fill="#1D2633"/>
<path d="M94.3703 188.812H88.8193V194.365H94.3703V188.812Z" fill="#1D2633"/>
<path d="M99.9211 188.812H94.3701V194.365H99.9211V188.812Z" fill="#1D2633"/>
<path d="M105.473 188.812H99.9224V194.365H105.473V188.812Z" fill="#1D2633"/>
<path d="M111.025 188.812H105.474V194.365H111.025V188.812Z" fill="#1D2633"/>
<path d="M116.576 188.812H111.024V194.365H116.576V188.812Z" fill="#1D2633"/>
<path d="M122.128 188.812H116.577V194.365H122.128V188.812Z" fill="#1D2633"/>
<path d="M127.679 188.812H122.127V194.365H127.679V188.812Z" fill="#1D2633"/>
<path d="M133.23 188.812H127.679V194.365H133.23V188.812Z" fill="#1D2633"/>
<path d="M138.781 188.812H133.229V194.365H138.781V188.812Z" fill="#1D2633"/>
<path d="M144.332 188.812H138.78V194.365H144.332V188.812Z" fill="#1D2633"/>
<path d="M149.884 188.812H144.333V194.365H149.884V188.812Z" fill="#1D2633"/>
<path d="M155.435 188.812H149.883V194.365H155.435V188.812Z" fill="#1D2633"/>
<path d="M160.986 188.812H155.435V194.365H160.986V188.812Z" fill="#1D2633"/>
<path d="M166.537 188.812H160.986V194.365H166.537V188.812Z" fill="#1D2633"/>
<path d="M172.088 188.812H166.537V194.365H172.088V188.812Z" fill="#1D2633"/>
<path d="M177.639 188.812H172.088V194.365H177.639V188.812Z" fill="#1D2633"/>
<path d="M183.191 188.812H177.64V194.365H183.191V188.812Z" fill="#1D2633"/>
<path d="M188.742 188.812H183.191V194.365H188.742V188.812Z" fill="#1D2633"/>
<path d="M194.293 188.812H188.742V194.365H194.293V188.812Z" fill="#1D2633"/>
<path d="M199.844 188.812H194.293V194.365H199.844V188.812Z" fill="#1D2633"/>
<path opacity="0.3" d="M205.395 188.812H199.844V194.365H205.395V188.812Z" fill="#303030"/>
<path opacity="0.3" d="M16.6543 194.366H11.103V199.92H16.6543V194.366Z" fill="#303030"/>
<path opacity="0.3" d="M22.2055 194.366H16.6543V199.92H22.2055V194.366Z" fill="#303030"/>
<path opacity="0.3" d="M27.7563 194.366H22.2051V199.92H27.7563V194.366Z" fill="#303030"/>
<path opacity="0.3" d="M33.3075 194.366H27.7563V199.92H33.3075V194.366Z" fill="#303030"/>
<path opacity="0.3" d="M38.8584 194.366H33.3071V199.92H38.8584V194.366Z" fill="#303030"/>
<path opacity="0.3" d="M44.4106 194.366H38.8594V199.92H44.4106V194.366Z" fill="#303030"/>
<path opacity="0.3" d="M49.9614 194.366H44.4102V199.92H49.9614V194.366Z" fill="#303030"/>
<path opacity="0.3" d="M55.5126 194.366H49.9614V199.92H55.5126V194.366Z" fill="#303030"/>
<path opacity="0.3" d="M61.0635 194.366H55.5122V199.92H61.0635V194.366Z" fill="#303030"/>
<path opacity="0.3" d="M66.6147 194.366H61.0635V199.92H66.6147V194.366Z" fill="#303030"/>
<path opacity="0.3" d="M72.1652 194.366H66.6143V199.92H72.1652V194.366Z" fill="#303030"/>
<path opacity="0.3" d="M77.7175 194.366H72.1665V199.92H77.7175V194.366Z" fill="#303030"/>
<path opacity="0.3" d="M83.2687 194.366H77.7178V199.92H83.2687V194.366Z" fill="#303030"/>
<path opacity="0.3" d="M88.8195 194.366H83.2686V199.92H88.8195V194.366Z" fill="#303030"/>
<path opacity="0.3" d="M94.3703 194.366H88.8193V199.92H94.3703V194.366Z" fill="#303030"/>
<path opacity="0.3" d="M99.9211 194.366H94.3701V199.92H99.9211V194.366Z" fill="#303030"/>
<path opacity="0.3" d="M105.473 194.366H99.9224V199.92H105.473V194.366Z" fill="#303030"/>
<path opacity="0.3" d="M111.025 194.366H105.474V199.92H111.025V194.366Z" fill="#303030"/>
<path opacity="0.3" d="M116.576 194.366H111.024V199.92H116.576V194.366Z" fill="#303030"/>
<path opacity="0.3" d="M122.128 194.366H116.577V199.92H122.128V194.366Z" fill="#303030"/>
<path opacity="0.3" d="M127.679 194.366H122.127V199.92H127.679V194.366Z" fill="#303030"/>
<path opacity="0.3" d="M133.23 194.366H127.679V199.92H133.23V194.366Z" fill="#303030"/>
<path opacity="0.3" d="M138.781 194.366H133.229V199.92H138.781V194.366Z" fill="#303030"/>
<path opacity="0.3" d="M144.332 194.366H138.78V199.92H144.332V194.366Z" fill="#303030"/>
<path opacity="0.3" d="M149.884 194.366H144.333V199.92H149.884V194.366Z" fill="#303030"/>
<path opacity="0.3" d="M155.435 194.366H149.883V199.92H155.435V194.366Z" fill="#303030"/>
<path opacity="0.3" d="M160.986 194.366H155.435V199.92H160.986V194.366Z" fill="#303030"/>
<path opacity="0.3" d="M166.537 194.366H160.986V199.92H166.537V194.366Z" fill="#303030"/>
<path opacity="0.3" d="M172.088 194.366H166.537V199.92H172.088V194.366Z" fill="#303030"/>
<path opacity="0.3" d="M177.639 194.366H172.088V199.92H177.639V194.366Z" fill="#303030"/>
<path opacity="0.3" d="M183.191 194.366H177.64V199.92H183.191V194.366Z" fill="#303030"/>
<path opacity="0.3" d="M188.742 194.366H183.191V199.92H188.742V194.366Z" fill="#303030"/>
<path opacity="0.3" d="M194.293 194.366H188.742V199.92H194.293V194.366Z" fill="#303030"/>
<path opacity="0.3" d="M199.844 194.366H194.293V199.92H199.844V194.366Z" fill="#303030"/>
</svg>
