<svg width="155" height="150" viewBox="0 0 155 150" fill="none" xmlns="http://www.w3.org/2000/svg">
<path d="M151.892 34.48L144.297 35.0242L144.767 41.5867L152.363 41.0427L151.892 34.48Z" fill="#1D2633"/>
<path d="M144.297 35.0242L136.701 35.5684L137.171 42.1309L144.767 41.5867L144.297 35.0242Z" fill="#1D2633"/>
<path d="M136.701 35.5684L129.105 36.1123L129.576 42.675L137.171 42.1309L136.701 35.5684Z" fill="#1D2633"/>
<path d="M129.105 36.1123L121.51 36.6565L121.98 43.2192L129.576 42.675L129.105 36.1123Z" fill="#1D2633"/>
<path d="M121.51 36.6565L113.914 37.2007L114.384 43.7632L121.98 43.2192L121.51 36.6565Z" fill="#1D2633"/>
<path d="M113.914 37.2007L106.319 37.7449L106.789 44.3074L114.385 43.7632L113.914 37.2007Z" fill="#1D2633"/>
<path d="M106.319 37.7449L98.7231 38.2888L99.1933 44.8516L106.789 44.3074L106.319 37.7449Z" fill="#1D2633"/>
<path d="M105.849 31.1821L98.2529 31.7263L98.7231 38.2888L106.319 37.7449L105.849 31.1821Z" fill="#1D2633"/>
<path d="M53.1693 41.5522L45.5737 42.0964L46.0439 48.6589L53.6395 48.1147L53.1693 41.5522Z" fill="#1D2633"/>
<path d="M45.5736 42.0964L37.978 42.6404L38.4482 49.2031L46.0438 48.6589L45.5736 42.0964Z" fill="#1D2633"/>
<path d="M37.9779 42.6404L30.3823 43.1846L30.8524 49.7473L38.4481 49.2031L37.9779 42.6404Z" fill="#1D2633"/>
<path d="M30.3822 43.1846L22.7866 43.7288L23.2567 50.2913L30.8524 49.7473L30.3822 43.1846Z" fill="#1D2633"/>
<path d="M22.787 43.7288L15.1914 44.2729L15.6615 50.8354L23.2571 50.2913L22.787 43.7288Z" fill="#1D2633"/>
<path d="M15.1913 44.2729L7.5957 44.8169L8.06583 51.3796L15.6614 50.8354L15.1913 44.2729Z" fill="#1D2633"/>
<path d="M137.171 42.1309L129.576 42.675L130.046 49.2375L137.641 48.6936L137.171 42.1309Z" fill="white"/>
<path d="M129.576 42.675L121.98 43.2192L122.45 49.7817L130.046 49.2375L129.576 42.675Z" fill="white"/>
<path d="M121.98 43.2192L114.384 43.7632L114.854 50.3259L122.45 49.7817L121.98 43.2192Z" fill="white"/>
<path d="M114.384 43.7632L106.789 44.3074L107.259 50.8701L114.854 50.3259L114.384 43.7632Z" fill="white"/>
<path d="M106.788 44.3074L99.1929 44.8516L99.663 51.4141L107.259 50.8701L106.788 44.3074Z" fill="white"/>
<path d="M53.6396 48.1147L46.0439 48.6589L46.5141 55.2217L54.1097 54.6775L53.6396 48.1147Z" fill="white"/>
<path d="M46.0439 48.6589L38.4482 49.2031L38.9184 55.7656L46.514 55.2217L46.0439 48.6589Z" fill="white"/>
<path d="M38.4482 49.2031L30.8525 49.7473L31.3227 56.3098L38.9183 55.7656L38.4482 49.2031Z" fill="white"/>
<path d="M30.8524 49.7473L23.2568 50.2913L23.727 56.854L31.3226 56.3098L30.8524 49.7473Z" fill="white"/>
<path d="M23.2567 50.2913L15.6611 50.8354L16.1313 57.3982L23.7269 56.854L23.2567 50.2913Z" fill="white"/>
<path d="M130.046 49.2375L122.45 49.7817L122.92 56.3442L130.516 55.8003L130.046 49.2375Z" fill="white"/>
<path d="M122.45 49.7817L114.854 50.3259L115.325 56.8884L122.92 56.3442L122.45 49.7817Z" fill="white"/>
<path d="M114.854 50.3259L107.259 50.8701L107.729 57.4326L115.325 56.8884L114.854 50.3259Z" fill="white"/>
<path d="M107.259 50.8701L99.6631 51.4141L100.133 57.9768L107.729 57.4326L107.259 50.8701Z" fill="white"/>
<path d="M54.1098 54.6775L46.5142 55.2217L46.9843 61.7842L54.5799 61.24L54.1098 54.6775Z" fill="white"/>
<path d="M46.5141 55.2217L38.9185 55.7656L39.3886 62.3284L46.9842 61.7842L46.5141 55.2217Z" fill="white"/>
<path d="M38.9184 55.7656L31.3228 56.3098L31.7929 62.8723L39.3885 62.3284L38.9184 55.7656Z" fill="white"/>
<path d="M31.3227 56.3098L23.7271 56.854L24.1972 63.4165L31.7928 62.8723L31.3227 56.3098Z" fill="white"/>
<path d="M122.92 56.3442L115.325 56.8884L115.795 63.4512L123.39 62.907L122.92 56.3442Z" fill="white"/>
<path d="M115.325 56.8884L107.729 57.4326L108.199 63.9951L115.795 63.4512L115.325 56.8884Z" fill="white"/>
<path d="M107.729 57.4326L100.133 57.9768L100.603 64.5393L108.199 63.9951L107.729 57.4326Z" fill="white"/>
<path d="M54.5795 61.24L46.9839 61.7842L47.454 68.3467L55.0496 67.8027L54.5795 61.24Z" fill="white"/>
<path d="M46.9838 61.7842L39.3882 62.3284L39.8583 68.8909L47.4539 68.3467L46.9838 61.7842Z" fill="white"/>
<path d="M39.3886 62.3284L31.793 62.8723L32.2631 69.4351L39.8587 68.8909L39.3886 62.3284Z" fill="white"/>
<path d="M115.795 63.4512L108.199 63.9951L108.669 70.5579L116.265 70.0137L115.795 63.4512Z" fill="white"/>
<path d="M108.199 63.9951L100.604 64.5393L101.074 71.1021L108.669 70.5579L108.199 63.9951Z" fill="white"/>
<path d="M55.0497 67.8027L47.4541 68.3467L47.9242 74.9094L55.5198 74.3652L55.0497 67.8027Z" fill="white"/>
<path d="M47.454 68.3467L39.8584 68.8909L40.3285 75.4536L47.9241 74.9094L47.454 68.3467Z" fill="white"/>
<path d="M39.8588 68.8909L32.2632 69.4351L32.7333 75.9976L40.3289 75.4536L39.8588 68.8909Z" fill="white"/>
<path d="M31.7929 62.8723L24.1973 63.4165L24.6674 69.9792L32.263 69.4351L31.7929 62.8723Z" fill="white"/>
<path d="M23.727 56.854L16.1313 57.3982L16.6015 63.9607L24.1971 63.4165L23.727 56.854Z" fill="white"/>
<path d="M15.6615 50.8354L8.06592 51.3796L8.53604 57.9421L16.1317 57.3982L15.6615 50.8354Z" fill="white"/>
<path d="M7.59561 44.8169L0 45.3611L0.470123 51.9238L8.06573 51.3796L7.59561 44.8169Z" fill="#1D2633"/>
<path d="M8.06583 51.3796L0.470215 51.9238L0.940338 58.4863L8.53595 57.9421L8.06583 51.3796Z" fill="#1D2633"/>
<path d="M8.53604 57.9421L0.94043 58.4863L1.41055 65.0488L9.00616 64.5049L8.53604 57.9421Z" fill="#1D2633"/>
<path d="M9.00577 64.5049L1.41016 65.0488L1.88028 71.6116L9.47589 71.0674L9.00577 64.5049Z" fill="#1D2633"/>
<path d="M9.47598 71.0674L1.88037 71.6116L2.35049 78.1741L9.94611 77.6301L9.47598 71.0674Z" fill="#1D2633"/>
<path d="M17.5419 77.0859L9.94629 77.6301L10.4164 84.1926L18.012 83.6484L17.5419 77.0859Z" fill="#1D2633"/>
<path d="M25.6078 83.1045L18.0122 83.6484L18.4823 90.2112L26.0779 89.667L25.6078 83.1045Z" fill="#1D2633"/>
<path d="M33.6732 89.1228L26.0776 89.667L26.5478 96.2295L34.1434 95.6855L33.6732 89.1228Z" fill="#1D2633"/>
<path d="M41.7392 95.1414L34.1436 95.6855L34.6137 102.248L42.2093 101.704L41.7392 95.1414Z" fill="#1D2633"/>
<path d="M17.0717 70.5232L9.47607 71.0674L9.9462 77.6301L17.5418 77.0859L17.0717 70.5232Z" fill="#00FFAF"/>
<path d="M25.1376 76.5417L17.542 77.0859L18.0121 83.6484L25.6077 83.1045L25.1376 76.5417Z" fill="#00FFAF"/>
<path d="M33.203 82.5603L25.6074 83.1045L26.0775 89.667L33.6732 89.1228L33.203 82.5603Z" fill="#00FFAF"/>
<path d="M41.269 88.5786L33.6733 89.1228L34.1435 95.6855L41.7391 95.1414L41.269 88.5786Z" fill="#00FFAF"/>
<path d="M16.6015 63.9607L9.00586 64.5049L9.47598 71.0674L17.0716 70.5232L16.6015 63.9607Z" fill="#00FFAF"/>
<path d="M24.6674 69.9792L17.0718 70.5232L17.5419 77.0859L25.1375 76.5417L24.6674 69.9792Z" fill="#00FFAF"/>
<path d="M32.7328 75.9976L25.1372 76.5417L25.6073 83.1045L33.2029 82.5603L32.7328 75.9976Z" fill="#00FFAF"/>
<path d="M40.7987 82.0161L33.2031 82.5603L33.6732 89.1228L41.2689 88.5786L40.7987 82.0161Z" fill="#00FFAF"/>
<path d="M16.1313 57.3982L8.53564 57.9421L9.00577 64.5049L16.6014 63.9607L16.1313 57.3982Z" fill="#1D2633"/>
<path d="M24.1972 63.4165L16.6016 63.9607L17.0717 70.5232L24.6673 69.9792L24.1972 63.4165Z" fill="#1D2633"/>
<path d="M32.2631 69.4351L24.6675 69.9792L25.1376 76.5417L32.7332 75.9976L32.2631 69.4351Z" fill="#1D2633"/>
<path d="M40.3285 75.4536L32.7329 75.9976L33.203 82.5603L40.7986 82.0161L40.3285 75.4536Z" fill="#1D2633"/>
<path d="M34.6137 102.248L27.0181 102.792L27.4882 109.355L35.0838 108.811L34.6137 102.248Z" fill="#1D2633"/>
<path d="M35.0839 108.811L27.4883 109.355L27.9584 115.917L35.554 115.373L35.0839 108.811Z" fill="#1D2633"/>
<path d="M27.9584 115.917L20.3628 116.461L20.8329 123.024L28.4285 122.48L27.9584 115.917Z" fill="#1D2633"/>
<path d="M28.4281 122.48L20.8325 123.024L21.3026 129.587L28.8983 129.042L28.4281 122.48Z" fill="#1D2633"/>
<path d="M28.8983 129.042L21.3027 129.587L21.7729 136.149L29.3685 135.605L28.8983 129.042Z" fill="#1D2633"/>
<path d="M29.3686 135.605L21.7729 136.149L22.2431 142.712L29.8387 142.168L29.3686 135.605Z" fill="#1D2633"/>
<path d="M29.8388 142.168L22.2432 142.712L22.7133 149.275L30.3089 148.73L29.8388 142.168Z" fill="#1D2633"/>
<path d="M37.4345 141.624L29.8389 142.168L30.309 148.73L37.9046 148.186L37.4345 141.624Z" fill="#1D2633"/>
<path d="M45.0297 141.08L37.4341 141.624L37.9042 148.186L45.4998 147.642L45.0297 141.08Z" fill="#1D2633"/>
<path d="M52.1552 133.973L44.5596 134.517L45.0297 141.08L52.6253 140.535L52.1552 133.973Z" fill="#1D2633"/>
<path d="M59.7509 133.429L52.1553 133.973L52.6254 140.535L60.221 139.991L59.7509 133.429Z" fill="#1D2633"/>
<path d="M66.8764 126.322L59.2808 126.866L59.7509 133.429L67.3465 132.885L66.8764 126.322Z" fill="#1D2633"/>
<path d="M74.4721 125.778L66.8765 126.322L67.3466 132.885L74.9422 132.34L74.4721 125.778Z" fill="#1D2633"/>
<path d="M36.9643 135.061L29.3687 135.605L29.8388 142.168L37.4344 141.624L36.9643 135.061Z" fill="#00FFAF"/>
<path d="M44.56 134.517L36.9644 135.061L37.4345 141.624L45.0301 141.08L44.56 134.517Z" fill="#00FFAF"/>
<path d="M51.6855 127.41L44.0898 127.954L44.56 134.517L52.1556 133.973L51.6855 127.41Z" fill="#00FFAF"/>
<path d="M59.2807 126.866L51.6851 127.41L52.1552 133.973L59.7508 133.429L59.2807 126.866Z" fill="#00FFAF"/>
<path d="M66.4062 119.759L58.8105 120.303L59.2807 126.866L66.8763 126.322L66.4062 119.759Z" fill="#00FFAF"/>
<path d="M74.0019 119.215L66.4062 119.759L66.8764 126.322L74.472 125.778L74.0019 119.215Z" fill="#00FFAF"/>
<path d="M36.494 128.499L28.8984 129.042L29.3686 135.605L36.9642 135.061L36.494 128.499Z" fill="#00FFAF"/>
<path d="M44.0898 127.954L36.4941 128.499L36.9643 135.061L44.5599 134.517L44.0898 127.954Z" fill="#00FFAF"/>
<path d="M51.2152 120.848L43.6196 121.392L44.0898 127.954L51.6854 127.41L51.2152 120.848Z" fill="#00FFAF"/>
<path d="M58.8109 120.303L51.2153 120.848L51.6855 127.41L59.2811 126.866L58.8109 120.303Z" fill="#00FFAF"/>
<path d="M65.9364 113.197L58.3408 113.741L58.8109 120.303L66.4066 119.759L65.9364 113.197Z" fill="#00FFAF"/>
<path d="M73.5316 112.653L65.936 113.197L66.4062 119.759L74.0018 119.215L73.5316 112.653Z" fill="#00FFAF"/>
<path d="M36.0238 121.936L28.4282 122.48L28.8983 129.042L36.494 128.499L36.0238 121.936Z" fill="#1D2633"/>
<path d="M43.6195 121.392L36.0239 121.936L36.494 128.499L44.0897 127.954L43.6195 121.392Z" fill="#1D2633"/>
<path d="M50.745 114.285L43.1494 114.829L43.6195 121.392L51.2151 120.848L50.745 114.285Z" fill="#1D2633"/>
<path d="M58.3407 113.741L50.7451 114.285L51.2152 120.848L58.8109 120.303L58.3407 113.741Z" fill="#1D2633"/>
<path d="M65.4662 106.634L57.8706 107.178L58.3407 113.741L65.9363 113.197L65.4662 106.634Z" fill="#1D2633"/>
<path d="M73.0619 106.09L65.4663 106.634L65.9364 113.197L73.532 112.653L73.0619 106.09Z" fill="#1D2633"/>
<path d="M81.5976 118.671L74.002 119.215L74.4721 125.778L82.0677 125.234L81.5976 118.671Z" fill="#1D2633"/>
<path d="M89.1933 118.127L81.5977 118.671L82.0678 125.234L89.6634 124.69L89.1933 118.127Z" fill="#1D2633"/>
<path d="M97.2592 124.146L89.6636 124.69L90.1337 131.252L97.7293 130.708L97.2592 124.146Z" fill="#1D2633"/>
<path d="M104.854 123.601L97.2588 124.146L97.7289 130.708L105.325 130.164L104.854 123.601Z" fill="#1D2633"/>
<path d="M112.92 129.62L105.325 130.164L105.795 136.727L113.39 136.182L112.92 129.62Z" fill="#1D2633"/>
<path d="M120.516 129.076L112.92 129.62L113.391 136.182L120.986 135.638L120.516 129.076Z" fill="#1D2633"/>
<path d="M128.581 135.094L120.986 135.638L121.456 142.201L129.052 141.657L128.581 135.094Z" fill="#1D2633"/>
<path d="M136.177 134.55L128.582 135.094L129.052 141.657L136.647 141.113L136.177 134.55Z" fill="#1D2633"/>
<path d="M81.1273 112.108L73.5317 112.653L74.0019 119.215L81.5975 118.671L81.1273 112.108Z" fill="#00FFAF"/>
<path d="M88.7231 111.564L81.1274 112.108L81.5976 118.671L89.1932 118.127L88.7231 111.564Z" fill="#00FFAF"/>
<path d="M96.789 117.583L89.1934 118.127L89.6635 124.69L97.2591 124.146L96.789 117.583Z" fill="#00FFAF"/>
<path d="M104.384 117.039L96.7886 117.583L97.2587 124.146L104.854 123.601L104.384 117.039Z" fill="#00FFAF"/>
<path d="M112.45 123.057L104.854 123.601L105.325 130.164L112.92 129.62L112.45 123.057Z" fill="#00FFAF"/>
<path d="M120.046 122.513L112.45 123.057L112.92 129.62L120.516 129.076L120.046 122.513Z" fill="#00FFAF"/>
<path d="M128.112 128.531L120.516 129.076L120.986 135.638L128.582 135.094L128.112 128.531Z" fill="#00FFAF"/>
<path d="M135.707 127.988L128.111 128.531L128.581 135.094L136.177 134.55L135.707 127.988Z" fill="#00FFAF"/>
<path d="M80.6571 105.546L73.0615 106.09L73.5316 112.653L81.1273 112.108L80.6571 105.546Z" fill="#00FFAF"/>
<path d="M88.2528 105.002L80.6572 105.546L81.1273 112.108L88.723 111.564L88.2528 105.002Z" fill="#00FFAF"/>
<path d="M96.3188 111.02L88.7231 111.564L89.1933 118.127L96.7889 117.583L96.3188 111.02Z" fill="#00FFAF"/>
<path d="M103.914 110.476L96.3188 111.02L96.789 117.583L104.385 117.039L103.914 110.476Z" fill="#00FFAF"/>
<path d="M111.98 116.495L104.384 117.039L104.854 123.601L112.45 123.057L111.98 116.495Z" fill="#00FFAF"/>
<path d="M119.576 115.95L111.98 116.495L112.45 123.057L120.046 122.513L119.576 115.95Z" fill="#00FFAF"/>
<path d="M127.642 121.969L120.046 122.513L120.516 129.076L128.112 128.531L127.642 121.969Z" fill="#00FFAF"/>
<path d="M135.237 121.425L127.642 121.969L128.112 128.531L135.707 127.988L135.237 121.425Z" fill="#00FFAF"/>
<path d="M80.1874 98.9834L72.5918 99.5273L73.0619 106.09L80.6575 105.546L80.1874 98.9834Z" fill="#1D2633"/>
<path d="M87.7826 98.4392L80.187 98.9834L80.6571 105.546L88.2527 105.002L87.7826 98.4392Z" fill="#1D2633"/>
<path d="M95.8485 104.458L88.2529 105.002L88.7231 111.564L96.3187 111.02L95.8485 104.458Z" fill="#1D2633"/>
<path d="M103.444 103.914L95.8486 104.458L96.3188 111.02L103.914 110.476L103.444 103.914Z" fill="#1D2633"/>
<path d="M111.51 109.932L103.915 110.476L104.385 117.039L111.98 116.495L111.51 109.932Z" fill="#1D2633"/>
<path d="M119.105 109.388L111.51 109.932L111.98 116.495L119.576 115.95L119.105 109.388Z" fill="#1D2633"/>
<path d="M127.171 115.406L119.576 115.95L120.046 122.513L127.641 121.969L127.171 115.406Z" fill="#1D2633"/>
<path d="M134.767 114.862L127.171 115.406L127.642 121.969L135.237 121.425L134.767 114.862Z" fill="#1D2633"/>
<path d="M143.773 134.006L136.177 134.55L136.647 141.113L144.243 140.569L143.773 134.006Z" fill="#1D2633"/>
<path d="M143.303 127.443L135.707 127.988L136.177 134.55L143.773 134.006L143.303 127.443Z" fill="#1D2633"/>
<path d="M142.832 120.881L135.237 121.425L135.707 127.988L143.303 127.443L142.832 120.881Z" fill="#1D2633"/>
<path d="M142.363 114.318L134.767 114.862L135.237 121.425L142.833 120.881L142.363 114.318Z" fill="#1D2633"/>
<path d="M141.892 107.756L134.297 108.3L134.767 114.862L142.363 114.318L141.892 107.756Z" fill="#1D2633"/>
<path d="M133.827 101.737L126.231 102.281L126.701 108.844L134.297 108.3L133.827 101.737Z" fill="#1D2633"/>
<path d="M133.356 95.1743L125.761 95.7185L126.231 102.281L133.826 101.737L133.356 95.1743Z" fill="#1D2633"/>
<path d="M125.291 89.156L117.695 89.7002L118.165 96.2627L125.761 95.7185L125.291 89.156Z" fill="#1D2633"/>
<path d="M132.416 82.0493L124.821 82.5933L125.291 89.156L132.887 88.6118L132.416 82.0493Z" fill="#1D2633"/>
<path d="M139.542 74.9424L131.946 75.4866L132.416 82.0493L140.012 81.5051L139.542 74.9424Z" fill="#1D2633"/>
<path d="M146.667 67.8357L139.072 68.3799L139.542 74.9424L147.138 74.3984L146.667 67.8357Z" fill="#1D2633"/>
<path d="M124.821 82.5933L117.225 83.1375L117.695 89.7002L125.291 89.156L124.821 82.5933Z" fill="#00FFAF"/>
<path d="M131.946 75.4866L124.351 76.0308L124.821 82.5933L132.416 82.0493L131.946 75.4866Z" fill="#00FFAF"/>
<path d="M139.072 68.3799L131.476 68.9241L131.946 75.4866L139.542 74.9424L139.072 68.3799Z" fill="#00FFAF"/>
<path d="M146.197 61.2732L138.602 61.8174L139.072 68.3799L146.667 67.8357L146.197 61.2732Z" fill="#00FFAF"/>
<path d="M124.35 76.0308L116.755 76.575L117.225 83.1375L124.821 82.5933L124.35 76.0308Z" fill="#00FFAF"/>
<path d="M131.476 68.9241L123.88 69.468L124.35 76.0308L131.946 75.4866L131.476 68.9241Z" fill="#00FFAF"/>
<path d="M138.601 61.8174L131.006 62.3613L131.476 68.9241L139.072 68.3799L138.601 61.8174Z" fill="#00FFAF"/>
<path d="M145.727 54.7104L138.131 55.2546L138.601 61.8174L146.197 61.2732L145.727 54.7104Z" fill="#00FFAF"/>
<path d="M123.88 69.468L116.285 70.0122L116.755 76.575L124.35 76.0308L123.88 69.468Z" fill="#1D2633"/>
<path d="M131.006 62.3613L123.41 62.9055L123.88 69.468L131.476 68.9241L131.006 62.3613Z" fill="#1D2633"/>
<path d="M138.131 55.2546L130.536 55.7988L131.006 62.3613L138.601 61.8174L138.131 55.2546Z" fill="#1D2633"/>
<path d="M145.257 48.1479L137.661 48.6921L138.131 55.2546L145.727 54.7104L145.257 48.1479Z" fill="#1D2633"/>
<path d="M123.41 62.9055L115.814 63.4497L116.285 70.0122L123.88 69.468L123.41 62.9055Z" fill="white"/>
<path d="M99.183 44.8523L91.5874 45.3965L92.0575 51.959L99.6531 51.4148L99.183 44.8523Z" fill="white"/>
<path d="M91.5873 45.3965L83.9917 45.9404L84.4618 52.5032L92.0574 51.959L91.5873 45.3965Z" fill="white"/>
<path d="M83.9921 45.9404L76.3965 46.4846L76.8666 53.0471L84.4622 52.5032L83.9921 45.9404Z" fill="white"/>
<path d="M99.6532 51.4148L92.0576 51.959L92.5277 58.5215L100.123 57.9775L99.6532 51.4148Z" fill="white"/>
<path d="M92.0575 51.959L84.4619 52.5032L84.932 59.0657L92.5276 58.5215L92.0575 51.959Z" fill="white"/>
<path d="M84.4623 52.5032L76.8667 53.0471L77.3368 59.6099L84.9324 59.0657L84.4623 52.5032Z" fill="white"/>
<path d="M100.123 57.9775L92.5278 58.5215L92.998 65.0842L100.594 64.54L100.123 57.9775Z" fill="white"/>
<path d="M92.5277 58.5215L84.9321 59.0657L85.4023 65.6284L92.9979 65.0842L92.5277 58.5215Z" fill="white"/>
<path d="M84.932 59.0657L77.3364 59.6099L77.8065 66.1724L85.4022 65.6284L84.932 59.0657Z" fill="white"/>
<path d="M92.998 65.0842L85.4023 65.6284L85.8725 72.1909L93.4681 71.6467L92.998 65.0842Z" fill="white"/>
<path d="M85.4023 65.6284L77.8066 66.1724L78.2768 72.7351L85.8724 72.1909L85.4023 65.6284Z" fill="white"/>
<path d="M100.614 64.5386L93.0181 65.0828L93.4882 71.6453L101.084 71.1013L100.614 64.5386Z" fill="white"/>
<path d="M76.4164 46.4832L68.8208 47.0273L69.2909 53.5898L76.8865 53.0459L76.4164 46.4832Z" fill="white"/>
<path d="M68.8207 47.0273L61.2251 47.5715L61.6952 54.134L69.2908 53.5898L68.8207 47.0273Z" fill="white"/>
<path d="M61.225 47.5715L53.6294 48.1155L54.0995 54.6782L61.6951 54.134L61.225 47.5715Z" fill="white"/>
<path d="M76.8861 53.0459L69.2905 53.5898L69.7607 60.1526L77.3563 59.6084L76.8861 53.0459Z" fill="white"/>
<path d="M69.2909 53.5898L61.6953 54.134L62.1654 60.6965L69.761 60.1526L69.2909 53.5898Z" fill="white"/>
<path d="M61.6952 54.134L54.0996 54.6782L54.5697 61.2407L62.1653 60.6965L61.6952 54.134Z" fill="white"/>
<path d="M98.2431 31.7271L90.6475 32.2712L91.1176 38.8337L98.7132 38.2896L98.2431 31.7271Z" fill="white"/>
<path d="M90.6473 32.2712L83.0518 32.8152L83.5219 39.3779L91.1175 38.8337L90.6473 32.2712Z" fill="white"/>
<path d="M83.0517 32.8152L75.4561 33.3594L75.9262 39.9221L83.5218 39.3779L83.0517 32.8152Z" fill="white"/>
<path d="M98.7133 38.2896L91.1177 38.8337L91.5878 45.3965L99.1834 44.8523L98.7133 38.2896Z" fill="white"/>
<path d="M91.1176 38.8337L83.522 39.3779L83.9921 45.9404L91.5877 45.3965L91.1176 38.8337Z" fill="white"/>
<path d="M83.5219 39.3779L75.9263 39.9221L76.3964 46.4846L83.992 45.9404L83.5219 39.3779Z" fill="white"/>
<path d="M75.476 33.3579L67.8804 33.9021L68.3505 40.4646L75.9461 39.9207L75.476 33.3579Z" fill="white"/>
<path d="M67.8803 33.9021L60.2847 34.4463L60.7548 41.0088L68.3504 40.4646L67.8803 33.9021Z" fill="white"/>
<path d="M60.2846 34.4463L52.689 34.9905L53.1591 41.553L60.7547 41.0088L60.2846 34.4463Z" fill="white"/>
<path d="M75.9462 39.9207L68.3506 40.4646L68.8207 47.0273L76.4163 46.4832L75.9462 39.9207Z" fill="white"/>
<path d="M68.3505 40.4646L60.7549 41.0088L61.225 47.5715L68.8206 47.0273L68.3505 40.4646Z" fill="white"/>
<path d="M89.7069 19.146L82.1113 19.6902L82.5815 26.2527L90.1771 25.7085L89.7069 19.146Z" fill="white"/>
<path d="M82.1112 19.6902L74.5156 20.2341L74.9857 26.7969L82.5814 26.2527L82.1112 19.6902Z" fill="white"/>
<path d="M90.1771 25.7085L82.5815 26.2527L83.0517 32.8152L90.6472 32.2712L90.1771 25.7085Z" fill="white"/>
<path d="M82.5815 26.2527L74.9858 26.7969L75.456 33.3594L83.0516 32.8152L82.5815 26.2527Z" fill="white"/>
<path d="M74.5356 20.2327L66.9399 20.7769L67.4101 27.3396L75.0057 26.7954L74.5356 20.2327Z" fill="white"/>
<path d="M66.9403 20.7769L59.3447 21.321L59.8148 27.8835L67.4105 27.3396L66.9403 20.7769Z" fill="white"/>
<path d="M75.0058 26.7954L67.4102 27.3396L67.8803 33.9021L75.4759 33.3579L75.0058 26.7954Z" fill="white"/>
<path d="M81.1713 6.56494L73.5757 7.10889L74.0458 13.6716L81.6414 13.1274L81.1713 6.56494Z" fill="white"/>
<path d="M81.6415 13.1274L74.0459 13.6716L74.5161 20.2341L82.1116 19.6902L81.6415 13.1274Z" fill="white"/>
<path d="M73.5956 7.10767L66 7.65161L66.4701 14.2144L74.0657 13.6702L73.5956 7.10767Z" fill="white"/>
<path d="M74.0658 13.6702L66.4702 14.2144L66.9403 20.7769L74.5359 20.2327L74.0658 13.6702Z" fill="white"/>
<path d="M67.4101 27.3396L59.8145 27.8835L60.2846 34.4463L67.8802 33.9021L67.4101 27.3396Z" fill="white"/>
<path d="M60.7548 41.0088L53.1592 41.553L53.6293 48.1155L61.2249 47.5715L60.7548 41.0088Z" fill="white"/>
<path d="M77.3564 59.6084L69.7607 60.1526L70.2309 66.7151L77.8265 66.1709L77.3564 59.6084Z" fill="white"/>
<path d="M69.7611 60.1526L62.1655 60.6965L62.6357 67.2593L70.2313 66.7151L69.7611 60.1526Z" fill="white"/>
<path d="M62.1654 60.6965L54.5698 61.2407L55.0399 67.8035L62.6356 67.2593L62.1654 60.6965Z" fill="white"/>
<path d="M70.2309 66.7151L62.6353 67.2593L63.1054 73.8218L70.701 73.2778L70.2309 66.7151Z" fill="white"/>
<path d="M62.6352 67.2593L55.0396 67.8035L55.5097 74.366L63.1053 73.8218L62.6352 67.2593Z" fill="white"/>
<path d="M77.8466 66.1697L70.251 66.7136L70.7211 73.2764L78.3167 72.7322L77.8466 66.1697Z" fill="white"/>
<path d="M63.1054 73.8218L55.5098 74.366L55.9799 80.9285L63.5755 80.3845L63.1054 73.8218Z" fill="white"/>
<path d="M55.5102 74.366L47.9146 74.9102L48.3847 81.4727L55.9803 80.9285L55.5102 74.366Z" fill="white"/>
<path d="M47.9145 74.9102L40.3188 75.4543L40.789 82.0168L48.3846 81.4727L47.9145 74.9102Z" fill="white"/>
<path d="M63.5756 80.3845L55.98 80.9285L56.4501 87.4912L64.0457 86.947L63.5756 80.3845Z" fill="white"/>
<path d="M55.9799 80.9285L48.3843 81.4727L48.8544 88.0354L56.45 87.4912L55.9799 80.9285Z" fill="white"/>
<path d="M48.3842 81.4727L40.7886 82.0168L41.2587 88.5793L48.8543 88.0354L48.3842 81.4727Z" fill="white"/>
<path d="M64.0458 86.947L56.4502 87.4912L56.9203 94.0537L64.5159 93.5098L64.0458 86.947Z" fill="white"/>
<path d="M56.4501 87.4912L48.8545 88.0354L49.3246 94.5979L56.9202 94.0537L56.4501 87.4912Z" fill="white"/>
<path d="M48.8544 88.0354L41.2588 88.5793L41.7289 95.1421L49.3245 94.5979L48.8544 88.0354Z" fill="white"/>
<path d="M56.9203 94.0537L49.3247 94.5979L49.7948 101.161L57.3904 100.616L56.9203 94.0537Z" fill="white"/>
<path d="M49.3246 94.5979L41.729 95.1421L42.1991 101.705L49.7947 101.161L49.3246 94.5979Z" fill="white"/>
<path d="M64.536 93.5083L56.9404 94.0522L57.4106 100.615L65.0062 100.071L64.536 93.5083Z" fill="white"/>
<path d="M85.9023 72.1887L78.3066 72.7329L78.7768 79.2954L86.3724 78.7515L85.9023 72.1887Z" fill="white"/>
<path d="M78.3065 72.7329L70.7109 73.2771L71.1811 79.8396L78.7767 79.2954L78.3065 72.7329Z" fill="white"/>
<path d="M70.7113 73.2771L63.1157 73.821L63.5858 80.3838L71.1815 79.8396L70.7113 73.2771Z" fill="white"/>
<path d="M86.3725 78.7515L78.7769 79.2954L79.247 85.8582L86.8426 85.314L86.3725 78.7515Z" fill="white"/>
<path d="M78.7768 79.2954L71.1812 79.8396L71.6513 86.4023L79.2469 85.8582L78.7768 79.2954Z" fill="white"/>
<path d="M71.1811 79.8396L63.5854 80.3838L64.0556 86.9463L71.6512 86.4023L71.1811 79.8396Z" fill="white"/>
<path d="M86.8427 85.314L79.2471 85.8582L79.7172 92.4207L87.3128 91.8765L86.8427 85.314Z" fill="white"/>
<path d="M79.247 85.8582L71.6514 86.4023L72.1215 92.9648L79.7171 92.4207L79.247 85.8582Z" fill="white"/>
<path d="M71.6513 86.4023L64.0557 86.9463L64.5258 93.509L72.1214 92.9648L71.6513 86.4023Z" fill="white"/>
<path d="M79.7172 92.4207L72.1216 92.9648L72.5917 99.5273L80.1873 98.9834L79.7172 92.4207Z" fill="white"/>
<path d="M72.1215 92.9648L64.5259 93.509L64.996 100.072L72.5916 99.5273L72.1215 92.9648Z" fill="white"/>
<path d="M57.3905 100.616L49.7949 101.161L50.265 107.723L57.8607 107.179L57.3905 100.616Z" fill="white"/>
<path d="M49.7948 101.161L42.1992 101.705L42.6693 108.267L50.265 107.723L49.7948 101.161Z" fill="white"/>
<path d="M42.2094 101.704L34.6138 102.248L35.0839 108.811L42.6795 108.267L42.2094 101.704Z" fill="white"/>
<path d="M57.8607 107.179L50.2651 107.723L50.7353 114.286L58.3309 113.742L57.8607 107.179Z" fill="white"/>
<path d="M50.265 107.723L42.6694 108.267L43.1396 114.83L50.7352 114.286L50.265 107.723Z" fill="white"/>
<path d="M42.6791 108.267L35.0835 108.811L35.5536 115.373L43.1492 114.829L42.6791 108.267Z" fill="white"/>
<path d="M43.1444 114.83L35.5488 115.374L36.019 121.936L43.6146 121.392L43.1444 114.83Z" fill="white"/>
<path d="M35.559 115.373L27.9634 115.917L28.4335 122.48L36.0291 121.936L35.559 115.373Z" fill="white"/>
<path d="M65.0058 100.071L57.4102 100.615L57.8803 107.177L65.4759 106.634L65.0058 100.071Z" fill="white"/>
<path d="M72.5917 99.5273L64.9961 100.072L65.4662 106.634L73.0618 106.09L72.5917 99.5273Z" fill="white"/>
<path d="M87.3324 91.8752L79.7368 92.4192L80.2069 98.9819L87.8026 98.4377L87.3324 91.8752Z" fill="white"/>
<path d="M108.679 70.5571L101.083 71.1013L101.554 77.6638L109.149 77.1196L108.679 70.5571Z" fill="white"/>
<path d="M101.083 71.1013L93.4878 71.6453L93.9579 78.208L101.554 77.6638L101.083 71.1013Z" fill="white"/>
<path d="M93.4882 71.6453L85.8926 72.1895L86.3627 78.7522L93.9583 78.208L93.4882 71.6453Z" fill="white"/>
<path d="M109.149 77.1196L101.554 77.6638L102.024 84.2263L109.619 83.6824L109.149 77.1196Z" fill="white"/>
<path d="M101.554 77.6638L93.958 78.208L94.4281 84.7705L102.024 84.2263L101.554 77.6638Z" fill="white"/>
<path d="M93.9579 78.208L86.3623 78.7522L86.8324 85.3147L94.428 84.7705L93.9579 78.208Z" fill="white"/>
<path d="M109.62 83.6824L102.024 84.2263L102.494 90.7891L110.09 90.2449L109.62 83.6824Z" fill="white"/>
<path d="M102.024 84.2263L94.4282 84.7705L94.8983 91.3333L102.494 90.7891L102.024 84.2263Z" fill="white"/>
<path d="M94.4281 84.7705L86.8325 85.3147L87.3026 91.8772L94.8983 91.3333L94.4281 84.7705Z" fill="white"/>
<path d="M102.494 90.7891L94.8984 91.3333L95.3686 97.8958L102.964 97.3516L102.494 90.7891Z" fill="white"/>
<path d="M94.8983 91.3333L87.3027 91.8772L87.7729 98.4399L95.3685 97.8958L94.8983 91.3333Z" fill="white"/>
<path d="M110.109 90.2434L102.514 90.7876L102.984 97.3501L110.579 96.8062L110.109 90.2434Z" fill="white"/>
<path d="M116.255 70.0144L108.659 70.5586L109.129 77.1211L116.725 76.5769L116.255 70.0144Z" fill="white"/>
<path d="M116.725 76.5769L109.129 77.1211L109.6 83.6838L117.195 83.1396L116.725 76.5769Z" fill="white"/>
<path d="M117.195 83.1396L109.6 83.6838L110.07 90.2463L117.665 89.7021L117.195 83.1396Z" fill="white"/>
<path d="M117.685 89.7007L110.089 90.2449L110.559 96.8076L118.155 96.2634L117.685 89.7007Z" fill="white"/>
<path d="M102.964 97.3516L95.3687 97.8958L95.8388 104.458L103.434 103.914L102.964 97.3516Z" fill="white"/>
<path d="M95.3686 97.8958L87.7729 98.4399L88.2431 105.002L95.8387 104.458L95.3686 97.8958Z" fill="white"/>
<path d="M110.579 96.8062L102.984 97.3501L103.454 103.913L111.05 103.369L110.579 96.8062Z" fill="white"/>
<path d="M118.155 96.2634L110.56 96.8076L111.03 103.37L118.625 102.826L118.155 96.2634Z" fill="white"/>
<path d="M125.761 95.7185L118.166 96.2627L118.636 102.825L126.231 102.281L125.761 95.7185Z" fill="white"/>
<path d="M111.05 103.369L103.454 103.913L103.924 110.475L111.52 109.931L111.05 103.369Z" fill="white"/>
<path d="M118.625 102.826L111.03 103.37L111.5 109.933L119.096 109.389L118.625 102.826Z" fill="white"/>
<path d="M126.231 102.281L118.635 102.825L119.105 109.388L126.701 108.844L126.231 102.281Z" fill="white"/>
<path d="M126.696 108.844L119.101 109.388L119.571 115.951L127.166 115.407L126.696 108.844Z" fill="white"/>
<path d="M134.302 108.299L126.706 108.844L127.176 115.406L134.772 114.862L134.302 108.299Z" fill="white"/>
<path d="M130.536 55.7988L122.94 56.343L123.41 62.9055L131.006 62.3613L130.536 55.7988Z" fill="white"/>
<path d="M137.661 48.6921L130.065 49.2361L130.536 55.7988L138.131 55.2546L137.661 48.6921Z" fill="white"/>
<path d="M144.787 41.5854L137.191 42.1294L137.661 48.6921L145.257 48.1479L144.787 41.5854Z" fill="white"/>
<path d="M52.6991 34.9897L45.1035 35.5337L45.5736 42.0964L53.1693 41.5522L52.6991 34.9897Z" fill="#1D2633"/>
<path d="M97.7826 25.1638L90.187 25.7078L90.6571 32.2705L98.2527 31.7263L97.7826 25.1638Z" fill="#1D2633"/>
<path d="M97.3124 18.6011L89.7168 19.1453L90.1869 25.7078L97.7825 25.1638L97.3124 18.6011Z" fill="#1D2633"/>
<path d="M59.8246 27.8828L52.229 28.427L52.6991 34.9897L60.2947 34.4456L59.8246 27.8828Z" fill="#1D2633"/>
<path d="M59.3544 21.3203L51.7588 21.8645L52.2289 28.427L59.8245 27.8828L59.3544 21.3203Z" fill="#1D2633"/>
<path d="M89.247 12.5825L81.6514 13.1267L82.1215 19.6895L89.7171 19.1453L89.247 12.5825Z" fill="#1D2633"/>
<path d="M88.7768 6.02002L81.1812 6.56421L81.6513 13.1267L89.2469 12.5825L88.7768 6.02002Z" fill="#1D2633"/>
<path d="M66.4799 14.2136L58.8843 14.7578L59.3544 21.3203L66.95 20.7761L66.4799 14.2136Z" fill="#1D2633"/>
<path d="M66.0097 7.65088L58.4141 8.19507L58.8842 14.7578L66.4798 14.2136L66.0097 7.65088Z" fill="#1D2633"/>
<path d="M80.7309 0L73.1353 0.544189L73.6054 7.10693L81.201 6.56274L80.7309 0Z" fill="#1D2633"/>
<path d="M73.1352 0.544189L65.5396 1.08838L66.0097 7.65088L73.6053 7.10693L73.1352 0.544189Z" fill="#1D2633"/>
<path d="M152.362 41.0427L144.767 41.5867L145.237 48.1494L152.832 47.6052L152.362 41.0427Z" fill="#1D2633"/>
<path d="M152.832 47.6052L145.237 48.1494L145.707 54.7119L153.303 54.168L152.832 47.6052Z" fill="#1D2633"/>
<path d="M153.303 54.168L145.707 54.7119L146.177 61.2747L153.773 60.7305L153.303 54.168Z" fill="#1D2633"/>
<path d="M153.773 60.7305L146.177 61.2747L146.647 67.8372L154.243 67.293L153.773 60.7305Z" fill="#1D2633"/>
</svg>
