<svg width="54" height="53" viewBox="0 0 54 53" fill="none" xmlns="http://www.w3.org/2000/svg">
<path d="M48.3687 44.6567L45.7349 47.3542L48.432 49.9878L51.0657 47.29L48.3687 44.6567Z" fill="#1D2633"/>
<path d="M40.4028 47.4194L37.769 50.1169L40.4661 52.7502L43.0999 50.0527L40.4028 47.4194Z" fill="#1D2633"/>
<path d="M45.7358 47.3535L43.1021 50.051L45.7991 52.6843L48.4329 49.9868L45.7358 47.3535Z" fill="#1D2633"/>
<path d="M50.6773 46.9116L48.0439 49.6089L50.741 52.2422L53.3744 49.5452L50.6773 46.9116Z" fill="#1D2633"/>
<path d="M51.001 41.9604L48.3677 44.6577L51.0648 47.291L53.6982 44.594L51.001 41.9604Z" fill="#1D2633"/>
<path d="M50.9395 36.6274L48.3062 39.3247L51.0032 41.958L53.6366 39.2607L50.9395 36.6274Z" fill="#1D2633"/>
<path d="M32.3037 28.9722L29.6699 31.6699L32.3666 34.3027L35.0004 31.6052L32.3037 28.9722Z" fill="#1D2633"/>
<path d="M35.001 31.606L32.3672 34.3035L35.0643 36.9368L37.6981 34.2393L35.001 31.606Z" fill="#1D2633"/>
<path d="M37.6996 34.2402L35.0659 36.9377L37.763 39.571L40.3968 36.8735L37.6996 34.2402Z" fill="#1D2633"/>
<path d="M40.3965 36.8735L37.7627 39.571L40.4598 42.2046L43.0936 39.5068L40.3965 36.8735Z" fill="#1D2633"/>
<path d="M43.0933 39.5063L40.4595 42.2039L43.1566 44.8372L45.7904 42.1396L43.0933 39.5063Z" fill="#1D2633"/>
<path d="M45.792 42.1416L43.1582 44.8391L45.8553 47.4724L48.4891 44.7749L45.792 42.1416Z" fill="#1D2633"/>
<path d="M18.8179 15.8018L16.1846 18.499L18.8817 21.1323L21.515 18.4351L18.8179 15.8018Z" fill="#1D2633"/>
<path d="M21.5162 18.4365L18.8828 21.1335L21.58 23.7668L24.2133 21.0698L21.5162 18.4365Z" fill="#1D2633"/>
<path d="M24.2134 21.0698L21.5801 23.7668L24.2772 26.4001L26.9105 23.7031L24.2134 21.0698Z" fill="#1D2633"/>
<path d="M26.9102 23.7026L24.2769 26.3999L26.974 29.0332L29.6074 26.3359L26.9102 23.7026Z" fill="#1D2633"/>
<path d="M29.6089 26.3374L26.9756 29.0347L29.6727 31.668L32.306 28.9709L29.6089 26.3374Z" fill="#1D2633"/>
<path d="M16.1196 13.1704L13.4858 15.8679L16.1826 18.5007L18.8163 15.8032L16.1196 13.1704Z" fill="#1D2633"/>
<path d="M2.63336 0L0 2.69727L2.69714 5.33057L5.33051 2.63354L2.63336 0Z" fill="#1D2633"/>
<path d="M5.3316 2.63477L2.69824 5.33179L5.39539 7.96509L8.02869 5.26807L5.3316 2.63477Z" fill="#1D2633"/>
<path d="M8.02881 5.26807L5.39551 7.96509L8.09259 10.5986L10.726 7.90137L8.02881 5.26807Z" fill="#1D2633"/>
<path d="M10.7256 7.90088L8.09229 10.5981L10.7894 13.2314L13.4227 10.5344L10.7256 7.90088Z" fill="#1D2633"/>
<path d="M13.4244 10.5356L10.791 13.2329L13.4881 15.8662L16.1215 13.1692L13.4244 10.5356Z" fill="#1D2633"/>
</svg>
