<svg width="54" height="53" viewBox="0 0 54 53" fill="none" xmlns="http://www.w3.org/2000/svg">
<path d="M2.63281 47.2903L5.26659 49.988L7.9637 47.3545L5.32993 44.657L2.63281 47.2903Z" fill="#1D2633"/>
<path d="M10.5981 50.053L13.2319 52.7505L15.929 50.1172L13.2953 47.4197L10.5981 50.053Z" fill="#1D2633"/>
<path d="M5.26562 49.9868L7.8994 52.6843L10.5965 50.051L7.96272 47.3535L5.26562 49.9868Z" fill="#1D2633"/>
<path d="M0.32373 49.5452L2.95709 52.2422L5.65419 49.6089L3.02083 46.9119L0.32373 49.5452Z" fill="#1D2633"/>
<path d="M0 44.594L2.63336 47.291L5.33046 44.6577L2.6971 41.9607L0 44.594Z" fill="#1D2633"/>
<path d="M0.0615234 39.261L2.69485 41.9583L5.39195 39.325L2.75862 36.6277L0.0615234 39.261Z" fill="#1D2633"/>
<path d="M18.6978 31.6052L21.3315 34.3027L24.0282 31.6699L21.3945 28.9724L18.6978 31.6052Z" fill="#1D2633"/>
<path d="M16 34.239L18.6338 36.9365L21.3309 34.3032L18.6971 31.6057L16 34.239Z" fill="#1D2633"/>
<path d="M13.3018 36.8735L15.9355 39.571L18.6326 36.9377L15.9989 34.2402L13.3018 36.8735Z" fill="#1D2633"/>
<path d="M10.6045 39.5068L13.2383 42.2046L15.9354 39.571L13.3016 36.8735L10.6045 39.5068Z" fill="#1D2633"/>
<path d="M7.9082 42.1399L10.542 44.8374L13.2391 42.2041L10.6053 39.5066L7.9082 42.1399Z" fill="#1D2633"/>
<path d="M5.20898 44.7749L7.84274 47.4724L10.5399 44.8391L7.9061 42.1416L5.20898 44.7749Z" fill="#1D2633"/>
<path d="M32.1836 18.4353L34.817 21.1323L37.514 18.499L34.8807 15.8018L32.1836 18.4353Z" fill="#1D2633"/>
<path d="M29.4849 21.0698L32.1182 23.7668L34.8153 21.1335L32.182 18.4365L29.4849 21.0698Z" fill="#1D2633"/>
<path d="M26.7881 23.7031L29.4214 26.4004L32.1186 23.7668L29.4852 21.0698L26.7881 23.7031Z" fill="#1D2633"/>
<path d="M24.0913 26.3362L26.7247 29.0332L29.4218 26.3999L26.7884 23.7026L24.0913 26.3362Z" fill="#1D2633"/>
<path d="M21.3926 28.9712L24.0259 31.6682L26.723 29.0349L24.0897 26.3376L21.3926 28.9712Z" fill="#1D2633"/>
<path d="M34.8818 15.8035L37.5156 18.501L40.2123 15.8682L37.5785 13.1707L34.8818 15.8035Z" fill="#1D2633"/>
<path d="M48.3677 2.63354L51.001 5.33057L53.6981 2.69727L51.0648 0L48.3677 2.63354Z" fill="#1D2633"/>
<path d="M45.6694 5.26807L48.3028 7.96509L50.9999 5.33179L48.3665 2.63477L45.6694 5.26807Z" fill="#1D2633"/>
<path d="M42.9722 7.90137L45.6055 10.5986L48.3026 7.96509L45.6693 5.26807L42.9722 7.90137Z" fill="#1D2633"/>
<path d="M40.2754 10.5344L42.9088 13.2314L45.6059 10.5981L42.9725 7.90088L40.2754 10.5344Z" fill="#1D2633"/>
<path d="M37.5767 13.1694L40.21 15.8665L42.9071 13.2332L40.2738 10.5361L37.5767 13.1694Z" fill="#1D2633"/>
</svg>
