<svg width="194" height="148" viewBox="0 0 194 148" fill="none" xmlns="http://www.w3.org/2000/svg">
<path d="M8.27832 9.22314H96.6674V116.009H8.27832V9.22314Z" fill="white"/>
<path d="M104.528 69.8912H95.3V79.1146H86.0842V88.3378H95.3V116.007H9.21576V9.22327H95.3V42.2218H86.0842V51.4449H95.3V42.2218H104.528V32.9984H113.744V23.7753H104.528V9.22327H95.3V0H9.21576V9.22327H0V116.007H9.21576V125.231H95.3V116.007H104.528V69.8912Z" fill="#1D2633"/>
<path d="M73.0982 22.4087H21.5117V31.6321H73.0982V22.4087Z" fill="#1D2633"/>
<path d="M52.5968 22.4087H21.5117V31.6321H52.5968V22.4087Z" fill="#1D2633"/>
<path d="M60.4572 43.2466H21.5117V52.47H60.4572V43.2466Z" fill="#1D2633"/>
<path d="M60.833 31.2231H149.222V138.009H60.833V31.2231Z" fill="white"/>
<path d="M184.755 45.7754V36.5522H166.298V45.7754H157.082V54.9985H147.854V64.2219H138.638V73.4451H129.41V82.6682H120.182V91.8914H110.966V101.115H101.738V128.784H129.41V119.561H138.638V110.338H147.854V101.115H157.082V91.8914H166.298V82.6682H175.526V73.4451H184.755V64.2219H193.97V45.7754H184.755Z" fill="white"/>
<path d="M184.755 45.7754V36.5522H166.298V45.7754H157.082V54.9985H147.854V64.2219H138.638V73.4451H129.41V82.6682H120.182V91.8914H110.966V101.115H120.182V110.338H129.41V119.561H138.638V110.338H147.854V101.115H157.082V91.8914H166.298V82.6682H175.526V73.4451H184.755V64.2219H193.97V45.7754H184.755Z" fill="white"/>
<path d="M184.755 45.7754V36.5522H166.298V54.9985H175.527V64.2219H193.971V45.7754H184.755Z" fill="white"/>
<path d="M157.082 91.8911H147.854V101.115H138.638V110.338H147.854V138.007H61.77V31.2231H147.854V64.2217H138.638V73.4448H147.854V64.2217H157.082V54.9983H166.298V45.7751H157.082V31.2231H147.854V22H61.77V31.2231H52.5542V138.007H61.77V147.23H147.854V138.007H157.082V91.8911Z" fill="#1D2633"/>
<path d="M166.298 82.667H157.083V91.8901H166.298V82.667Z" fill="#1D2633"/>
<path d="M175.527 73.4448H166.298V82.668H175.527V73.4448Z" fill="#1D2633"/>
<path d="M184.755 64.2217H175.526V73.4448H184.755V64.2217Z" fill="#1D2633"/>
<path d="M193.971 45.7754H184.755V64.2219H193.971V45.7754Z" fill="#1D2633"/>
<path d="M120.182 91.8911H110.966V101.115H120.182V91.8911Z" fill="#1D2633"/>
<path d="M129.41 82.667H120.182V91.8901H129.41V82.667Z" fill="#1D2633"/>
<path d="M138.639 73.4448H129.411V82.668H138.639V73.4448Z" fill="#1D2633"/>
<path d="M184.755 36.5522H166.298V45.7754H184.755V36.5522Z" fill="#1D2633"/>
<path d="M101.738 119.561H74.0659V128.784H129.41V119.561H138.638V110.338H129.41V119.561H110.966V101.115H101.738V119.561Z" fill="#1D2633"/>
<path d="M125.652 44.4087H74.0659V53.6321H125.652V44.4087Z" fill="#00FFAF"/>
<path d="M105.151 44.4087H74.0659V53.6321H105.151V44.4087Z" fill="#1D2633"/>
<path d="M113.011 65.2466H74.0659V74.47H113.011V65.2466Z" fill="#00FFAF"/>
<path d="M92.5223 65.2466H74.0659V74.47H92.5223V65.2466Z" fill="#1D2633"/>
</svg>
