<svg width="49" height="49" viewBox="0 0 49 49" fill="none" xmlns="http://www.w3.org/2000/svg">
<path d="M28.8146 19.2095H19.2095V28.8147H28.8146V19.2095Z" fill="#00FFAF"/>
<path d="M28.8146 9.60303H19.2095V19.2083H28.8146V9.60303Z" fill="#00FFAF"/>
<path d="M38.4196 19.2095H28.8145V28.8147H38.4196V19.2095Z" fill="#00FFAF"/>
<path d="M19.2101 19.2095H9.60498V28.8147H19.2101V19.2095Z" fill="#00FFAF"/>
<path d="M28.8146 28.8142H19.2095V38.4194H28.8146V28.8142Z" fill="#00FFAF"/>
<path d="M19.2101 9.60303H9.60498V19.2083H19.2101V9.60303Z" fill="#1D2633"/>
<path d="M28.8146 0H19.2095V9.60522H28.8146V0Z" fill="#1D2633"/>
<path d="M38.4196 9.60303H28.8145V19.2083H38.4196V9.60303Z" fill="#1D2633"/>
<path d="M38.4196 28.8142H28.8145V38.4194H38.4196V28.8142Z" fill="#1D2633"/>
<path d="M28.8146 38.4192H19.2095V48.0244H28.8146V38.4192Z" fill="#1D2633"/>
<path d="M19.2101 28.8142H9.60498V38.4194H19.2101V28.8142Z" fill="#1D2633"/>
<path d="M9.60519 19.2095H0V28.8147H9.60519V19.2095Z" fill="#1D2633"/>
<path d="M48.0261 19.2095H38.4209V28.8147H48.0261V19.2095Z" fill="#1D2633"/>
</svg>
