<svg width="311" height="181" viewBox="0 0 311 181" fill="none" xmlns="http://www.w3.org/2000/svg">
<path d="M301.632 135.74L285.875 133.451L283.586 149.209L299.343 151.498L301.632 135.74Z" fill="#00FFAF"/>
<path d="M308.5 88.4667L292.742 86.1777L290.453 101.936L306.211 104.225L308.5 88.4667Z" fill="#00FFAF"/>
<path d="M310.788 72.7089L295.03 70.4199L292.741 86.1778L308.499 88.4668L310.788 72.7089Z" fill="#00FFAF"/>
<path d="M295.03 70.4198L279.272 68.1309L276.983 83.8888L292.741 86.1777L295.03 70.4198Z" fill="#00FFAF"/>
<path d="M297.319 54.6625L281.562 52.3735L279.273 68.1314L295.03 70.4204L297.319 54.6625Z" fill="#00FFAF"/>
<path d="M299.343 151.498L283.585 149.209L281.296 164.967L297.054 167.256L299.343 151.498Z" fill="#00FFAF"/>
<path d="M306.211 104.225L290.453 101.936L288.164 117.693L303.922 119.982L306.211 104.225Z" fill="#00FFAF"/>
<path d="M303.921 119.982L288.164 117.693L285.875 133.451L301.632 135.74L303.921 119.982Z" fill="#00FFAF"/>
<path d="M283.586 149.209L267.828 146.92L265.539 162.678L281.297 164.967L283.586 149.209Z" fill="#00FFAF"/>
<path d="M281.297 164.967L265.539 162.678L263.25 178.436L279.008 180.725L281.297 164.967Z" fill="#00FFAF"/>
<path d="M281.562 52.3735L265.804 50.0845L263.515 65.8424L279.273 68.1313L281.562 52.3735Z" fill="#00FFAF"/>
<path d="M265.539 162.678L249.781 160.389L247.492 176.147L263.25 178.436L265.539 162.678Z" fill="#00FFAF"/>
<path d="M265.804 50.0839L250.046 47.7949L247.757 63.5528L263.515 65.8418L265.804 50.0839Z" fill="#00FFAF"/>
<path d="M249.781 160.389L234.023 158.1L231.734 173.858L247.492 176.146L249.781 160.389Z" fill="#00FFAF"/>
<path d="M250.046 47.7948L234.288 45.5059L231.999 61.2638L247.757 63.5527L250.046 47.7948Z" fill="#00FFAF"/>
<path d="M234.023 158.1L218.265 155.811L215.976 171.568L231.734 173.857L234.023 158.1Z" fill="#00FFAF"/>
<path d="M234.288 45.5063L218.53 43.2173L216.241 58.9752L231.999 61.2642L234.288 45.5063Z" fill="#00FFAF"/>
<path d="M218.265 155.811L202.507 153.522L200.218 169.28L215.976 171.569L218.265 155.811Z" fill="#00FFAF"/>
<path d="M218.53 43.2172L202.772 40.9282L200.483 56.6861L216.241 58.9751L218.53 43.2172Z" fill="#00FFAF"/>
<path d="M202.507 153.522L186.75 151.233L184.461 166.991L200.218 169.28L202.507 153.522Z" fill="#00FFAF"/>
<path d="M202.772 40.9281L187.014 38.6392L184.725 54.3971L200.483 56.686L202.772 40.9281Z" fill="#00FFAF"/>
<path d="M186.75 151.233L170.992 148.944L168.703 164.702L184.461 166.991L186.75 151.233Z" fill="#00FFAF"/>
<path d="M187.014 38.6391L171.256 36.3501L168.967 52.108L184.725 54.397L187.014 38.6391Z" fill="#00FFAF"/>
<path d="M170.991 148.944L155.233 146.655L152.944 162.413L168.702 164.702L170.991 148.944Z" fill="#00FFAF"/>
<path d="M171.256 36.3505L155.499 34.0615L153.21 49.8194L168.967 52.1084L171.256 36.3505Z" fill="#00FFAF"/>
<path d="M155.233 146.655L139.476 144.366L137.187 160.124L152.945 162.413L155.233 146.655Z" fill="#00FFAF"/>
<path d="M155.498 34.0614L139.74 31.7725L137.451 47.5304L153.209 49.8193L155.498 34.0614Z" fill="#00FFAF"/>
<path d="M139.476 144.366L123.718 142.077L121.429 157.835L137.187 160.124L139.476 144.366Z" fill="#00FFAF"/>
<path d="M139.74 31.7724L123.982 29.4834L121.693 45.2413L137.451 47.5303L139.74 31.7724Z" fill="#00FFAF"/>
<path d="M123.718 142.077L107.96 139.788L105.671 155.546L121.429 157.835L123.718 142.077Z" fill="#00FFAF"/>
<path d="M123.983 29.4833L108.225 27.1943L105.936 42.9522L121.694 45.2412L123.983 29.4833Z" fill="#00FFAF"/>
<path d="M107.96 139.788L92.2021 137.499L89.9132 153.257L105.671 155.546L107.96 139.788Z" fill="#00FFAF"/>
<path d="M108.281 27.2026L92.5234 24.9136L90.2345 40.6715L105.992 42.9605L108.281 27.2026Z" fill="#00FFAF"/>
<path d="M92.2584 137.507L76.5005 135.218L74.2115 150.976L89.9694 153.265L92.2584 137.507Z" fill="#00FFAF"/>
<path d="M92.5235 24.914L76.7656 22.625L74.4766 38.3829L90.2345 40.6719L92.5235 24.914Z" fill="#00FFAF"/>
<path d="M76.5006 135.219L60.7427 132.93L58.4537 148.688L74.2116 150.977L76.5006 135.219Z" fill="#00FFAF"/>
<path d="M76.7652 22.6249L61.0073 20.3359L58.7183 36.0938L74.4762 38.3828L76.7652 22.6249Z" fill="#00FFAF"/>
<path d="M74.4766 38.3827L58.7188 36.0938L56.4298 51.8516L72.1877 54.1406L74.4766 38.3827Z" fill="#00FFAF"/>
<path d="M58.7188 36.0937L42.9609 33.8047L40.672 49.5626L56.4299 51.8516L58.7188 36.0937Z" fill="#00FFAF"/>
<path d="M56.4298 51.8515L40.6719 49.5625L38.3829 65.3204L54.1408 67.6094L56.4298 51.8515Z" fill="#00FFAF"/>
<path d="M54.1407 67.6088L38.3828 65.3198L36.0938 81.0777L51.8517 83.3667L54.1407 67.6088Z" fill="#00FFAF"/>
<path d="M51.8516 83.3671L36.0938 81.0781L33.8048 96.836L49.5627 99.125L51.8516 83.3671Z" fill="#00FFAF"/>
<path d="M60.7428 132.93L44.9849 130.641L42.6959 146.399L58.4538 148.688L60.7428 132.93Z" fill="#00FFAF"/>
<path d="M44.9849 130.641L29.2271 128.352L26.9381 144.109L42.696 146.398L44.9849 130.641Z" fill="#00FFAF"/>
<path d="M63.0318 117.172L47.2739 114.883L44.9849 130.641L60.7428 132.93L63.0318 117.172Z" fill="#00FFAF"/>
<path d="M47.274 114.883L31.5161 112.594L29.2271 128.352L44.985 130.641L47.274 114.883Z" fill="#00FFAF"/>
<path d="M49.5626 99.1249L33.8047 96.8359L31.5157 112.594L47.2736 114.883L49.5626 99.1249Z" fill="#00FFAF"/>
<path d="M288.22 117.702L272.462 115.413L270.173 131.17L285.931 133.459L288.22 117.702Z" fill="#1D2633"/>
<path d="M295.087 70.4281L279.329 68.1392L277.04 83.8971L292.798 86.186L295.087 70.4281Z" fill="#1D2633"/>
<path d="M297.376 54.6708L281.618 52.3818L279.329 68.1397L295.087 70.4287L297.376 54.6708Z" fill="#1D2633"/>
<path d="M281.618 52.3818L265.86 50.0928L263.571 65.8507L279.329 68.1397L281.618 52.3818Z" fill="#1D2633"/>
<path d="M283.907 36.6239L268.149 34.335L265.86 50.0929L281.618 52.3818L283.907 36.6239Z" fill="#1D2633"/>
<path d="M285.931 133.459L270.173 131.17L267.884 146.928L283.642 149.217L285.931 133.459Z" fill="#1D2633"/>
<path d="M292.798 86.186L277.04 83.897L274.751 99.6549L290.509 101.944L292.798 86.186Z" fill="#1D2633"/>
<path d="M290.509 101.944L274.751 99.6548L272.462 115.413L288.22 117.702L290.509 101.944Z" fill="#1D2633"/>
<path d="M272.462 115.413L256.704 113.124L254.415 128.881L270.173 131.17L272.462 115.413Z" fill="white"/>
<path d="M279.329 68.1391L263.571 65.8501L261.282 81.608L277.04 83.897L279.329 68.1391Z" fill="white"/>
<path d="M277.04 83.8969L261.282 81.6079L258.993 97.3658L274.751 99.6548L277.04 83.8969Z" fill="white"/>
<path d="M274.751 99.6547L258.993 97.3657L256.704 113.124L272.462 115.413L274.751 99.6547Z" fill="white"/>
<path d="M270.173 131.17L254.416 128.881L252.127 144.639L267.884 146.928L270.173 131.17Z" fill="#1D2633"/>
<path d="M267.884 146.929L252.126 144.64L249.837 160.398L265.595 162.687L267.884 146.929Z" fill="#1D2633"/>
<path d="M268.149 34.3349L252.391 32.0459L250.102 47.8038L265.86 50.0928L268.149 34.3349Z" fill="#1D2633"/>
<path d="M252.127 144.64L236.369 142.351L234.08 158.108L249.838 160.397L252.127 144.64Z" fill="#1D2633"/>
<path d="M252.391 32.0458L236.633 29.7568L234.344 45.5147L250.102 47.8037L252.391 32.0458Z" fill="#1D2633"/>
<path d="M236.368 142.351L220.61 140.062L218.321 155.819L234.079 158.108L236.368 142.351Z" fill="#1D2633"/>
<path d="M236.633 29.7568L220.875 27.4678L218.587 43.2257L234.344 45.5147L236.633 29.7568Z" fill="#1D2633"/>
<path d="M220.61 140.061L204.853 137.772L202.564 153.53L218.321 155.819L220.61 140.061Z" fill="#1D2633"/>
<path d="M220.875 27.4677L205.117 25.1787L202.828 40.9366L218.586 43.2256L220.875 27.4677Z" fill="#1D2633"/>
<path d="M204.853 137.772L189.095 135.483L186.806 151.241L202.564 153.53L204.853 137.772Z" fill="#1D2633"/>
<path d="M205.117 25.1786L189.359 22.8896L187.07 38.6475L202.828 40.9365L205.117 25.1786Z" fill="#1D2633"/>
<path d="M189.095 135.483L173.337 133.194L171.048 148.952L186.806 151.241L189.095 135.483Z" fill="#1D2633"/>
<path d="M189.359 22.8896L173.602 20.6006L171.313 36.3585L187.07 38.6475L189.359 22.8896Z" fill="#1D2633"/>
<path d="M173.337 133.194L157.579 130.905L155.29 146.663L171.048 148.952L173.337 133.194Z" fill="#1D2633"/>
<path d="M173.602 20.6005L157.844 18.3115L155.555 34.0694L171.313 36.3584L173.602 20.6005Z" fill="#1D2633"/>
<path d="M157.579 130.905L141.821 128.616L139.532 144.374L155.29 146.663L157.579 130.905Z" fill="#1D2633"/>
<path d="M157.844 18.3114L142.086 16.0225L139.797 31.7804L155.555 34.0693L157.844 18.3114Z" fill="#1D2633"/>
<path d="M141.821 128.617L126.063 126.328L123.774 142.086L139.532 144.375L141.821 128.617Z" fill="#1D2633"/>
<path d="M142.086 16.0229L126.328 13.7339L124.039 29.4918L139.797 31.7808L142.086 16.0229Z" fill="#1D2633"/>
<path d="M126.063 126.328L110.305 124.039L108.016 139.796L123.774 142.085L126.063 126.328Z" fill="#1D2633"/>
<path d="M126.328 13.7338L110.57 11.4448L108.281 27.2027L124.039 29.4917L126.328 13.7338Z" fill="#1D2633"/>
<path d="M110.305 124.038L94.5474 121.75L92.2584 137.507L108.016 139.796L110.305 124.038Z" fill="#1D2633"/>
<path d="M110.57 11.4447L94.812 9.15576L92.523 24.9137L108.281 27.2026L110.57 11.4447Z" fill="#1D2633"/>
<path d="M94.5474 121.749L78.7896 119.46L76.5006 135.218L92.2585 137.507L94.5474 121.749Z" fill="#1D2633"/>
<path d="M94.8121 9.15568L79.0542 6.8667L76.7652 22.6246L92.5231 24.9136L94.8121 9.15568Z" fill="#1D2633"/>
<path d="M78.7896 119.46L63.0317 117.171L60.7428 132.929L76.5007 135.218L78.7896 119.46Z" fill="#1D2633"/>
<path d="M79.0543 6.86711L63.2964 4.57812L61.0074 20.336L76.7653 22.625L79.0543 6.86711Z" fill="#1D2633"/>
<path d="M63.0318 117.172L47.2739 114.883L44.9849 130.641L60.7428 132.93L63.0318 117.172Z" fill="#1D2633"/>
<path d="M63.2965 4.57804L47.5386 2.28906L45.2496 18.047L61.0075 20.3359L63.2965 4.57804Z" fill="#1D2633"/>
<path d="M47.2735 114.883L31.5156 112.594L29.2266 128.352L44.9845 130.641L47.2735 114.883Z" fill="#1D2633"/>
<path d="M47.5387 2.28898L31.7808 0L29.4918 15.7579L45.2497 18.0469L47.5387 2.28898Z" fill="#1D2633"/>
<path d="M31.5157 112.594L15.7578 110.305L13.4688 126.063L29.2267 128.352L31.5157 112.594Z" fill="#1D2633"/>
<path d="M265.86 50.0922L250.102 47.8032L247.813 63.5611L263.571 65.8501L265.86 50.0922Z" fill="white"/>
<path d="M250.102 47.8031L234.344 45.5142L232.055 61.2721L247.813 63.561L250.102 47.8031Z" fill="white"/>
<path d="M234.344 45.5141L218.586 43.2251L216.297 58.983L232.055 61.272L234.344 45.5141Z" fill="white"/>
<path d="M218.587 43.2255L202.829 40.9365L200.54 56.6944L216.298 58.9834L218.587 43.2255Z" fill="white"/>
<path d="M202.829 40.9364L187.071 38.6475L184.782 54.4054L200.54 56.6943L202.829 40.9364Z" fill="white"/>
<path d="M187.07 38.6474L171.312 36.3584L169.024 52.1163L184.781 54.4053L187.07 38.6474Z" fill="white"/>
<path d="M171.313 36.3583L155.555 34.0693L153.266 49.8272L169.024 52.1162L171.313 36.3583Z" fill="white"/>
<path d="M155.555 34.0697L139.797 31.7808L137.508 47.5387L153.266 49.8276L155.555 34.0697Z" fill="white"/>
<path d="M139.797 31.7807L124.039 29.4917L121.75 45.2496L137.508 47.5386L139.797 31.7807Z" fill="white"/>
<path d="M124.039 29.4916L108.281 27.2026L105.992 42.9605L121.75 45.2495L124.039 29.4916Z" fill="white"/>
<path d="M108.281 27.2026L92.5234 24.9136L90.2345 40.6715L105.992 42.9605L108.281 27.2026Z" fill="white"/>
<path d="M92.523 24.914L76.7651 22.625L74.4762 38.3829L90.2341 40.6719L92.523 24.914Z" fill="white"/>
<path d="M76.7652 22.6249L61.0073 20.3359L58.7183 36.0938L74.4762 38.3828L76.7652 22.6249Z" fill="white"/>
<path d="M61.0074 20.3359L45.2495 18.0469L42.9605 33.8048L58.7184 36.0938L61.0074 20.3359Z" fill="white"/>
<path d="M45.2496 18.0468L29.4917 15.7578L27.2027 31.5157L42.9606 33.8047L45.2496 18.0468Z" fill="#1D2633"/>
<path d="M29.4918 15.7582L13.7339 13.4692L11.4449 29.2271L27.2028 31.5161L29.4918 15.7582Z" fill="#1D2633"/>
<path d="M263.571 65.85L247.813 63.561L245.524 79.3189L261.282 81.6079L263.571 65.85Z" fill="white"/>
<path d="M247.813 63.561L232.055 61.272L229.766 77.0299L245.524 79.3188L247.813 63.561Z" fill="white"/>
<path d="M232.055 61.2724L216.297 58.9834L214.008 74.7413L229.766 77.0303L232.055 61.2724Z" fill="white"/>
<path d="M216.297 58.9833L200.54 56.6943L198.251 72.4522L214.008 74.7412L216.297 58.9833Z" fill="white"/>
<path d="M200.54 56.6943L184.782 54.4053L182.493 70.1632L198.251 72.4522L200.54 56.6943Z" fill="white"/>
<path d="M184.782 54.4052L169.024 52.1162L166.735 67.8741L182.493 70.1631L184.782 54.4052Z" fill="white"/>
<path d="M169.024 52.1166L153.266 49.8276L150.977 65.5855L166.735 67.8745L169.024 52.1166Z" fill="white"/>
<path d="M153.266 49.8276L137.508 47.5386L135.219 63.2965L150.977 65.5855L153.266 49.8276Z" fill="white"/>
<path d="M137.508 47.5385L121.75 45.2495L119.461 61.0074L135.219 63.2964L137.508 47.5385Z" fill="white"/>
<path d="M121.75 45.2494L105.992 42.9604L103.703 58.7183L119.461 61.0073L121.75 45.2494Z" fill="white"/>
<path d="M105.992 42.9604L90.2344 40.6714L87.9454 56.4293L103.703 58.7183L105.992 42.9604Z" fill="white"/>
<path d="M90.2345 40.6718L74.4766 38.3828L72.1876 54.1407L87.9455 56.4297L90.2345 40.6718Z" fill="white"/>
<path d="M74.4762 38.3827L58.7183 36.0938L56.4293 51.8516L72.1872 54.1406L74.4762 38.3827Z" fill="white"/>
<path d="M58.7183 36.0937L42.9604 33.8047L40.6715 49.5626L56.4294 51.8516L58.7183 36.0937Z" fill="white"/>
<path d="M42.9605 33.8046L27.2026 31.5156L24.9137 47.2735L40.6716 49.5625L42.9605 33.8046Z" fill="white"/>
<path d="M27.2027 31.516L11.4448 29.2271L9.15584 44.9849L24.9137 47.2739L27.2027 31.516Z" fill="#1D2633"/>
<path d="M261.282 81.6078L245.524 79.3188L243.235 95.0767L258.993 97.3657L261.282 81.6078Z" fill="white"/>
<path d="M245.524 79.3193L229.766 77.0303L227.477 92.7882L243.235 95.0772L245.524 79.3193Z" fill="white"/>
<path d="M229.766 77.0302L214.008 74.7412L211.719 90.4991L227.477 92.7881L229.766 77.0302Z" fill="white"/>
<path d="M214.008 74.7411L198.25 72.4521L195.962 88.21L211.719 90.499L214.008 74.7411Z" fill="white"/>
<path d="M198.251 72.4521L182.493 70.1631L180.204 85.921L195.962 88.21L198.251 72.4521Z" fill="white"/>
<path d="M182.493 70.163L166.735 67.874L164.446 83.6319L180.204 85.9209L182.493 70.163Z" fill="white"/>
<path d="M166.735 67.8744L150.977 65.5854L148.688 81.3433L164.446 83.6323L166.735 67.8744Z" fill="white"/>
<path d="M150.977 65.5854L135.219 63.2964L132.93 79.0543L148.688 81.3433L150.977 65.5854Z" fill="white"/>
<path d="M135.219 63.2963L119.461 61.0073L117.172 76.7652L132.93 79.0542L135.219 63.2963Z" fill="white"/>
<path d="M119.461 61.0072L103.703 58.7183L101.414 74.4762L117.172 76.7651L119.461 61.0072Z" fill="white"/>
<path d="M103.703 58.7187L87.9453 56.4297L85.6563 72.1876L101.414 74.4766L103.703 58.7187Z" fill="white"/>
<path d="M87.9454 56.4296L72.1875 54.1406L69.8985 69.8985L85.6564 72.1875L87.9454 56.4296Z" fill="white"/>
<path d="M72.1876 54.1405L56.4297 51.8516L54.1407 67.6095L69.8986 69.8984L72.1876 54.1405Z" fill="white"/>
<path d="M56.4298 51.8515L40.6719 49.5625L38.3829 65.3204L54.1408 67.6094L56.4298 51.8515Z" fill="white"/>
<path d="M40.6715 49.5629L24.9136 47.2739L22.6246 63.0318L38.3825 65.3208L40.6715 49.5629Z" fill="white"/>
<path d="M24.9137 47.2734L9.15576 44.9844L6.86678 60.7423L22.6247 63.0313L24.9137 47.2734Z" fill="#1D2633"/>
<path d="M258.993 97.3656L243.235 95.0767L240.946 110.835L256.704 113.124L258.993 97.3656Z" fill="white"/>
<path d="M243.235 95.0771L227.478 92.7881L225.189 108.546L240.946 110.835L243.235 95.0771Z" fill="white"/>
<path d="M227.478 92.788L211.72 90.499L209.431 106.257L225.189 108.546L227.478 92.788Z" fill="white"/>
<path d="M211.719 90.4989L195.961 88.21L193.672 103.968L209.43 106.257L211.719 90.4989Z" fill="white"/>
<path d="M195.962 88.2099L180.204 85.9209L177.915 101.679L193.673 103.968L195.962 88.2099Z" fill="white"/>
<path d="M180.204 85.9213L164.446 83.6323L162.157 99.3902L177.915 101.679L180.204 85.9213Z" fill="white"/>
<path d="M164.446 83.6322L148.688 81.3433L146.399 97.1012L162.157 99.3901L164.446 83.6322Z" fill="white"/>
<path d="M148.688 81.3432L132.93 79.0542L130.641 94.8121L146.399 97.1011L148.688 81.3432Z" fill="white"/>
<path d="M132.93 79.0541L117.172 76.7651L114.883 92.523L130.641 94.812L132.93 79.0541Z" fill="white"/>
<path d="M117.172 76.7655L101.414 74.4766L99.1251 90.2345L114.883 92.5234L117.172 76.7655Z" fill="white"/>
<path d="M101.414 74.4765L85.6562 72.1875L83.3673 87.9454L99.1252 90.2344L101.414 74.4765Z" fill="white"/>
<path d="M85.6563 72.1874L69.8984 69.8984L67.6095 85.6563L83.3674 87.9453L85.6563 72.1874Z" fill="white"/>
<path d="M69.8985 69.8979L54.1406 67.6089L51.8516 83.3668L67.6095 85.6558L69.8985 69.8979Z" fill="white"/>
<path d="M54.1407 67.6088L38.3828 65.3198L36.0938 81.0777L51.8517 83.3667L54.1407 67.6088Z" fill="white"/>
<path d="M38.3824 65.3202L22.6245 63.0312L20.3355 78.7891L36.0934 81.0781L38.3824 65.3202Z" fill="white"/>
<path d="M22.6246 63.0312L6.8667 60.7422L4.57772 76.5001L20.3356 78.7891L22.6246 63.0312Z" fill="#1D2633"/>
<path d="M256.704 113.124L240.946 110.835L238.657 126.593L254.415 128.882L256.704 113.124Z" fill="white"/>
<path d="M240.946 110.835L225.188 108.546L222.899 124.304L238.657 126.593L240.946 110.835Z" fill="white"/>
<path d="M225.189 108.546L209.431 106.257L207.142 122.015L222.9 124.304L225.189 108.546Z" fill="white"/>
<path d="M209.431 106.257L193.673 103.968L191.384 119.726L207.142 122.015L209.431 106.257Z" fill="white"/>
<path d="M193.672 103.968L177.915 101.679L175.626 117.437L191.383 119.726L193.672 103.968Z" fill="white"/>
<path d="M177.915 101.679L162.157 99.3901L159.868 115.148L175.626 117.437L177.915 101.679Z" fill="white"/>
<path d="M162.157 99.3901L146.399 97.1011L144.11 112.859L159.868 115.148L162.157 99.3901Z" fill="white"/>
<path d="M146.399 97.101L130.641 94.812L128.352 110.57L144.11 112.859L146.399 97.101Z" fill="white"/>
<path d="M130.641 94.8114L114.883 92.5225L112.594 108.28L128.352 110.569L130.641 94.8114Z" fill="white"/>
<path d="M114.883 92.5229L99.1255 90.2339L96.8365 105.992L112.594 108.281L114.883 92.5229Z" fill="white"/>
<path d="M99.1256 90.2338L83.3677 87.9448L81.0787 103.703L96.8366 105.992L99.1256 90.2338Z" fill="white"/>
<path d="M83.3673 87.9447L67.6094 85.6558L65.3204 101.414L81.0783 103.703L83.3673 87.9447Z" fill="white"/>
<path d="M67.6095 85.6557L51.8516 83.3667L49.5626 99.1246L65.3205 101.414L67.6095 85.6557Z" fill="white"/>
<path d="M51.8516 83.3671L36.0938 81.0781L33.8048 96.836L49.5627 99.125L51.8516 83.3671Z" fill="white"/>
<path d="M36.0938 81.078L20.3359 78.7891L18.047 94.547L33.8049 96.8359L36.0938 81.078Z" fill="white"/>
<path d="M20.336 78.789L4.57812 76.5L2.28914 92.2579L18.047 94.5469L20.336 78.789Z" fill="#1D2633"/>
<path d="M254.415 128.882L238.657 126.593L236.368 142.351L252.126 144.64L254.415 128.882Z" fill="white"/>
<path d="M238.657 126.593L222.899 124.304L220.61 140.062L236.368 142.351L238.657 126.593Z" fill="white"/>
<path d="M222.899 124.304L207.142 122.015L204.853 137.773L220.611 140.062L222.899 124.304Z" fill="white"/>
<path d="M207.142 122.015L191.384 119.726L189.095 135.483L204.853 137.772L207.142 122.015Z" fill="white"/>
<path d="M191.384 119.726L175.626 117.437L173.337 133.195L189.095 135.484L191.384 119.726Z" fill="white"/>
<path d="M175.626 117.436L159.868 115.147L157.579 130.905L173.337 133.194L175.626 117.436Z" fill="white"/>
<path d="M159.868 115.147L144.11 112.858L141.821 128.616L157.579 130.905L159.868 115.147Z" fill="white"/>
<path d="M144.11 112.858L128.352 110.569L126.063 126.327L141.821 128.616L144.11 112.858Z" fill="white"/>
<path d="M128.352 110.57L112.594 108.281L110.305 124.039L126.063 126.328L128.352 110.57Z" fill="white"/>
<path d="M112.594 108.281L96.8364 105.992L94.5474 121.75L110.305 124.039L112.594 108.281Z" fill="white"/>
<path d="M96.8365 105.992L81.0786 103.703L78.7896 119.461L94.5475 121.75L96.8365 105.992Z" fill="white"/>
<path d="M81.0782 103.703L65.3203 101.414L63.0313 117.171L78.7892 119.46L81.0782 103.703Z" fill="white"/>
<path d="M65.3204 101.414L49.5625 99.125L47.2735 114.883L63.0314 117.172L65.3204 101.414Z" fill="white"/>
<path d="M49.5626 99.1249L33.8047 96.8359L31.5157 112.594L47.2736 114.883L49.5626 99.1249Z" fill="white"/>
<path d="M33.8048 96.8359L18.0469 94.5469L15.7579 110.305L31.5158 112.594L33.8048 96.8359Z" fill="#1D2633"/>
<path d="M18.047 94.5468L2.28906 92.2578L8.24449e-05 108.016L15.758 110.305L18.047 94.5468Z" fill="#1D2633"/>
<path d="M131.525 90.147L133.702 75.1597L135.501 75.4209L133.566 88.7432L142.269 90.0073L144.204 76.6851L146.003 76.9463L144.068 90.2686L146.555 90.6299L145.784 95.9365L143.985 95.6753L144.514 92.0337L131.525 90.147Z" fill="#1D2633"/>
<path d="M158.326 89.5061L149.756 88.261C149.73 89.1638 150.014 89.969 150.607 90.6746C151.201 91.366 151.98 91.781 152.943 91.9207C154.215 92.1057 155.269 91.7678 156.105 90.9065L157.608 91.6457C157.037 92.3489 156.32 92.8611 155.458 93.1814C154.595 93.5017 153.681 93.592 152.72 93.4524C151.181 93.2288 149.979 92.5486 149.117 91.4104C148.257 90.2576 147.934 88.9412 148.149 87.4607C148.364 85.9807 149.039 84.8167 150.175 83.969C151.328 83.1086 152.63 82.7834 154.08 82.9944C155.531 83.2048 156.672 83.885 157.502 85.033C158.35 86.1692 158.666 87.4768 158.451 88.9573C158.419 89.1795 158.378 89.3625 158.326 89.5061ZM149.968 86.9543L156.874 87.9578C156.835 87.0754 156.534 86.3132 155.969 85.6721C155.405 85.031 154.687 84.6467 153.813 84.5198C152.97 84.3977 152.189 84.5642 151.474 85.0193C150.758 85.4744 150.256 86.1199 149.968 86.9543Z" fill="#1D2633"/>
<path d="M162.126 90.1934L161.5 94.501L159.857 94.2622L161.308 84.271L162.951 84.5098L162.351 88.6396L168.235 89.4941L168.835 85.3643L170.479 85.603L169.027 95.5942L167.384 95.356L168.009 91.0479L162.126 90.1934Z" fill="#1D2633"/>
<path d="M174.511 96.3911L175.733 87.9756L172.003 87.4341L172.232 85.8579L181.314 87.1768L181.085 88.7529L177.355 88.2114L176.132 96.6265L174.511 96.3911Z" fill="#1D2633"/>
<path d="M182.511 102.654L180.891 102.419L183.068 87.4316L184.688 87.667L184.488 89.0435C185.591 88.1152 186.874 87.7573 188.34 87.9702C189.746 88.1748 190.842 88.8481 191.629 89.9902C192.432 91.1196 192.726 92.4243 192.511 93.9043C192.294 95.3999 191.639 96.5742 190.548 97.4282C189.471 98.2847 188.23 98.6103 186.824 98.4062C185.359 98.1934 184.229 97.4853 183.437 96.2817L182.511 102.654ZM190.195 90.9609C189.658 90.1875 188.901 89.73 187.923 89.5879C186.947 89.4463 186.09 89.6694 185.355 90.2578C184.602 90.8594 184.153 91.6626 184.007 92.6689C183.861 93.6758 184.062 94.5742 184.613 95.3643C185.151 96.1382 185.908 96.5952 186.885 96.7373C187.862 96.8794 188.718 96.6563 189.453 96.0674C190.218 95.4839 190.676 94.6807 190.824 93.6592C190.972 92.6377 190.762 91.7388 190.195 90.9609Z" fill="#1D2633"/>
<path d="M129.269 109.584L127.382 109.311L136.153 95.2808L137.574 95.4873L141.991 111.433L140.126 111.162L139.116 107.501L131.279 106.362L129.269 109.584ZM138.625 105.729L136.511 97.9629L132.253 104.804L138.625 105.729Z" fill="#1D2633"/>
<path d="M143.501 111.652L142.834 111.555L143.063 109.979L143.619 110.06C144.566 110.197 145.193 109.215 145.498 107.113L146.262 101.851L154.011 102.976L152.56 112.968L150.916 112.729L152.139 104.314L147.654 103.662L147.07 107.682C146.857 109.146 146.439 110.208 145.814 110.866C145.189 111.523 144.418 111.785 143.501 111.652Z" fill="#1D2633"/>
<path d="M158 106.73L157 113.613L155.357 113.374L156.809 103.383L158.452 103.621L161.287 110.79L166.023 104.721L167.666 104.96L166.215 114.951L164.572 114.712L165.565 107.874L161.454 113.081L160.454 112.936L158 106.73Z" fill="#1D2633"/>
<path d="M174.892 105.782C176.357 105.995 177.486 106.704 178.279 107.907L178.479 106.53L180.1 106.766L178.648 116.757L177.028 116.522L177.228 115.146C176.125 116.073 174.842 116.431 173.376 116.218C171.97 116.014 170.865 115.347 170.062 114.218C169.273 113.091 168.988 111.78 169.205 110.284C169.418 108.819 170.063 107.651 171.142 106.779C172.251 105.913 173.5 105.58 174.892 105.782ZM177.103 108.825C176.565 108.051 175.808 107.593 174.831 107.452C173.854 107.31 172.997 107.533 172.262 108.122C171.51 108.723 171.061 109.527 170.915 110.533C170.769 111.54 170.97 112.438 171.521 113.228C172.058 114.002 172.816 114.459 173.793 114.601C174.769 114.743 175.626 114.52 176.361 113.931C177.113 113.33 177.563 112.527 177.709 111.52C177.855 110.513 177.653 109.615 177.103 108.825Z" fill="#1D2633"/>
<path d="M181.218 114.523L182.922 114.34C183.179 115.481 183.996 116.151 185.373 116.351C186.157 116.465 186.829 116.393 187.389 116.134C187.947 115.875 188.262 115.501 188.333 115.013C188.391 114.613 188.291 114.262 188.033 113.961C187.774 113.658 187.423 113.475 186.979 113.41L184.537 113.056L184.737 111.679L187.068 112.018C187.482 112.078 187.847 112.01 188.163 111.814C188.479 111.618 188.661 111.35 188.711 111.009C188.778 110.55 188.599 110.14 188.176 109.776C187.753 109.412 187.186 109.178 186.475 109.075C185.099 108.875 184.132 109.286 183.576 110.309L181.994 109.648C182.432 108.82 183.074 108.218 183.923 107.842C184.771 107.467 185.727 107.356 186.793 107.511C187.948 107.679 188.876 108.102 189.579 108.777C190.269 109.437 190.553 110.189 190.431 111.032C190.304 111.906 189.788 112.541 188.884 112.939C189.769 113.611 190.138 114.451 189.992 115.458C189.865 116.332 189.343 117.011 188.426 117.498C187.526 117.971 186.447 118.117 185.188 117.934C184.108 117.777 183.218 117.399 182.519 116.798C181.82 116.198 181.387 115.44 181.218 114.523Z" fill="#1D2633"/>
<path d="M192.976 117.546C192.128 116.41 191.813 115.095 192.03 113.6C192.247 112.105 192.924 110.934 194.059 110.085C195.195 109.238 196.511 108.922 198.006 109.14C199.486 109.355 200.65 110.031 201.498 111.166C202.358 112.319 202.68 113.635 202.466 115.115C202.25 116.596 201.567 117.766 200.414 118.627C199.278 119.475 197.97 119.791 196.49 119.575C194.995 119.358 193.823 118.682 192.976 117.546ZM197.767 110.783C196.761 110.637 195.875 110.856 195.11 111.44C194.345 112.024 193.888 112.827 193.74 113.848C193.592 114.869 193.801 115.77 194.368 116.547C194.935 117.325 195.722 117.786 196.728 117.933C197.735 118.079 198.621 117.86 199.386 117.275C200.151 116.692 200.608 115.889 200.756 114.867C200.904 113.846 200.695 112.947 200.128 112.169C199.56 111.391 198.774 110.929 197.767 110.783Z" fill="#1D2633"/>
<path d="M205.456 110.449L210.607 111.197C211.317 111.3 211.918 111.584 212.411 112.048C212.902 112.513 213.186 113.053 213.263 113.669C213.248 113.772 213.25 113.916 213.268 114.101C213.129 115.063 212.674 115.752 211.902 116.169C212.832 116.848 213.219 117.72 213.064 118.786C212.941 119.63 212.548 120.284 211.884 120.746C211.22 121.209 210.443 121.375 209.555 121.247L204.004 120.44L205.456 110.449ZM210.378 112.773L206.87 112.264L206.499 114.817L210.007 115.327C210.392 115.383 210.727 115.307 211.015 115.099C211.302 114.892 211.472 114.603 211.526 114.233C211.58 113.862 211.498 113.541 211.281 113.267C211.063 112.995 210.763 112.829 210.378 112.773ZM206.299 116.194L205.876 119.103L209.784 119.67C210.184 119.729 210.537 119.64 210.843 119.405C211.149 119.169 211.333 118.845 211.393 118.43C211.453 118.016 211.37 117.649 211.145 117.329C210.919 117.009 210.607 116.82 210.207 116.762L206.299 116.194Z" fill="#1D2633"/>
<path d="M220.675 112.433C222.141 112.646 223.27 113.354 224.062 114.557L224.262 113.181L225.883 113.416L224.431 123.408L222.811 123.173L223.011 121.796C221.909 122.724 220.625 123.081 219.159 122.868C217.753 122.664 216.648 121.998 215.845 120.868C215.056 119.741 214.771 118.43 214.988 116.935C215.201 115.469 215.847 114.301 216.925 113.43C218.034 112.564 219.283 112.231 220.675 112.433ZM222.886 115.475C222.348 114.701 221.591 114.244 220.614 114.102C219.637 113.96 218.781 114.183 218.046 114.772C217.293 115.373 216.844 116.176 216.698 117.183C216.552 118.19 216.753 119.088 217.304 119.879C217.841 120.652 218.599 121.11 219.576 121.251C220.553 121.393 221.409 121.17 222.144 120.582C222.896 119.981 223.346 119.177 223.492 118.17C223.638 117.164 223.436 116.266 222.886 115.475Z" fill="#1D2633"/>
<path fill-rule="evenodd" clip-rule="evenodd" d="M100.444 58.0723L101.443 58.2188L110.868 59.5864L111.543 58.4443C111.821 58.3228 111.956 58.1982 111.945 58.0742C111.927 57.9438 111.871 57.8159 111.759 57.6909C111.647 57.5688 111.531 57.4463 111.409 57.332C111.286 57.2183 111.231 57.0874 111.25 56.957C111.429 56.5166 111.668 56.377 111.945 56.5439C112.232 56.7012 112.513 56.75 112.783 56.6826L115.965 52.02C116.135 52.0449 116.279 52.0083 116.39 51.9399C116.5 51.8564 116.576 51.6465 116.622 51.3276C116.638 51.2212 116.571 51.1191 116.411 51.0283C116.253 50.9326 116.088 50.8862 115.923 50.8975C115.749 50.894 115.603 50.9722 115.479 51.1182C115.365 51.2666 115.361 51.543 115.464 51.9473C115.115 52.2529 114.733 52.5635 114.333 52.8755C113.934 53.1938 113.515 53.4438 113.077 53.645C112.635 53.8408 112.172 53.9575 111.701 53.9844C111.233 54.0146 110.73 53.8916 110.209 53.6182L110.52 51.4766L113.726 51.9424C113.917 51.9702 113.958 51.8228 113.827 51.5024C113.702 51.1753 113.537 50.8794 113.323 50.6021C113.178 50.4087 113.116 50.1064 113.117 49.687C113.124 49.2524 113.19 48.8008 113.317 48.3062C113.449 47.8159 113.63 47.3335 113.885 46.8608C114.139 46.3877 114.468 46.0093 114.883 45.7441L111.425 45.2417L111.974 41.4658C111.981 41.415 112.04 41.3218 112.152 41.188C112.276 41.0493 112.374 40.9136 112.449 40.7788C112.53 40.6382 112.535 40.4961 112.467 40.3633C112.399 40.2319 112.194 40.1431 111.825 40.0894C111.498 40.042 111.315 40.0967 111.293 40.2529C111.268 40.4199 111.278 40.6201 111.333 40.8608C111.38 41.1055 111.433 41.352 111.47 41.6284C111.521 41.897 111.474 42.1167 111.334 42.2905L108.372 41.8604L108.99 42.8999L107.841 43.481L111.092 43.9531L110.916 45.168L107.665 44.6958C107.649 44.8052 107.686 44.8877 107.78 44.9385C107.875 44.9873 107.906 45.0689 107.89 45.1787C107.647 45.4976 107.398 45.8765 107.157 46.2935C106.912 46.71 106.709 47.1328 106.54 47.5713C106.381 47.998 106.295 48.4316 106.291 48.8721C106.286 49.3208 106.408 49.7446 106.653 50.1675C106.732 50.4307 106.645 50.5786 106.406 50.605C106.159 50.6401 106.024 50.708 106.007 50.8213L108.009 51.1118L105.66 53.2104L105.462 53.1816C105.279 52.79 105.096 52.3618 104.898 51.8813C104.7 51.3936 104.431 50.9487 104.084 50.542C104.16 50.4141 104.254 50.3594 104.375 50.3765C104.479 50.3921 104.599 50.4136 104.719 50.4448C104.847 50.4746 104.975 50.4893 105.102 50.4824C105.232 50.4692 105.329 50.3828 105.416 50.1968C105.038 49.0664 105.024 47.9077 105.347 46.7129C105.678 45.5195 106.343 44.5034 107.349 43.6577L107.09 43.3716L103.418 42.8384L103.843 39.9155C103.877 39.6753 103.967 39.5347 104.12 39.481C104.269 39.438 104.366 39.2725 104.404 39.0117C104.456 38.6533 104.283 38.4546 103.892 38.3979C103.502 38.3413 103.29 38.4839 103.238 38.8423C103.215 38.9995 103.258 39.1899 103.364 39.4165C103.476 39.6338 103.37 39.8467 103.061 40.0581L100.108 39.6289L100.732 40.5415L99.8617 41.3267L103.06 41.791L102.918 42.7656L99.467 42.2642C99.3905 42.3579 99.4157 42.4565 99.533 42.5342C99.6485 42.6235 99.7914 42.6997 99.9458 42.7642C100.109 42.8301 100.241 42.894 100.344 42.9438C100.447 43.0073 100.459 43.0684 100.355 43.1396C99.5168 43.7012 98.9078 44.2832 98.5332 44.8921C98.1609 45.501 97.9283 46.0796 97.8315 46.6143C97.7434 47.1514 97.7328 47.6436 97.8098 48.103C97.8791 48.5542 97.9642 48.8892 98.0415 49.1255C98.0505 49.2964 97.9106 49.4473 97.6324 49.6045L99.3786 49.8584L97.2854 51.9937C97.0892 51.6006 96.8457 51.1982 96.5695 50.7744C96.2967 50.3442 96.0685 49.939 95.8918 49.5601C95.9076 49.4512 96.0941 49.4053 96.4455 49.4111C96.8029 49.4185 96.9303 49.3642 96.8381 49.2417C96.4366 48.8789 96.2211 48.4106 96.2066 47.8301C96.1911 47.2451 96.2871 46.665 96.5017 46.0898C96.7157 45.5195 97.0107 45.0103 97.3884 44.5605C97.7664 44.1177 98.1706 43.8643 98.6054 43.7876L98.5266 43.4487L95.2741 42.9761L95.8098 39.2881C95.8294 39.1533 95.9243 39.0454 96.0915 38.9399C96.2643 38.8423 96.3036 38.7095 96.213 38.562C96.2516 38.2959 96.0249 38.124 95.521 38.0513C95.2572 38.1196 95.1013 38.2251 95.0679 38.3638C95.0374 38.4863 95.0398 38.6484 95.0866 38.8394C95.1342 39.0176 95.1599 39.2051 95.1797 39.3848C95.195 39.5635 95.1335 39.7427 94.9961 39.9175L91.7425 39.4448L92.3557 40.4834L91.4657 41.3506L94.7193 41.8232L94.5667 42.8735L90.7726 42.3223C90.7538 42.4517 90.8182 42.5869 90.9643 42.7202C91.1221 42.8574 91.3695 43.0581 91.7351 43.3291C91.1553 43.6079 90.6704 43.9868 90.2868 44.4829C89.8993 44.9775 89.7174 45.4907 89.7218 46.0107L87.1701 47.4219C87.0851 47.2939 87.0655 47.1411 87.1184 46.9375C87.1808 46.7368 87.1461 46.5859 87.0155 46.4951C86.8337 46.3525 86.6262 46.3394 86.3645 46.4409C86.1045 46.5308 85.9541 46.6816 85.899 46.8647C85.8027 47.1533 85.858 47.3687 86.0778 47.5161C86.2994 47.6494 86.4262 47.8066 86.4565 47.9814L90.5309 56.6323L100.444 58.0723ZM103.804 53.9741C103.514 53.8726 103.371 53.7598 103.392 53.6201C103.5 53.6357 103.627 53.6235 103.754 53.5776C103.89 53.521 104.016 53.5796 104.137 53.7285C104.211 53.9907 104.106 54.0762 103.804 53.9741ZM103.039 52.8296C103.293 52.6138 103.533 52.6484 103.737 52.9312L103.426 53.3809L103.039 52.8296ZM106.39 56.9937L104.469 56.7144L104.61 55.7441L106.531 56.0229L106.39 56.9937ZM109.454 53.5088C108.927 53.4321 108.527 53.4937 108.275 53.6958C108.016 53.8892 107.871 54.0815 107.844 54.2666L106.978 54.1411L109.765 51.3667L109.454 53.5088ZM106.2 53.2886L108.471 51.1792L109.266 51.2944L106.596 54.0854C106.444 54.2061 106.282 54.1436 106.108 53.9194C105.948 53.688 105.979 53.4756 106.2 53.2886ZM105.637 53.9463C105.613 54.1108 105.447 54.165 105.15 54.104C104.843 54.0498 104.702 53.9531 104.723 53.8135C104.847 53.7002 105.043 53.6514 105.301 53.6753C105.549 53.6953 105.66 53.7856 105.637 53.9463ZM104.964 53.3071L104.214 53.1982L104.278 52.7568C104.388 52.7729 104.539 52.8203 104.729 52.8828C104.919 52.9565 104.994 53.102 104.964 53.3071ZM104.246 51.8291C104.384 52.0278 104.498 52.1977 104.591 52.353C104.463 52.4424 104.342 52.4521 104.208 52.3828C104.077 52.3057 103.952 52.2603 103.837 52.2432C103.597 51.9819 103.536 51.7979 103.674 51.6772C103.918 51.5781 104.105 51.6201 104.246 51.8291ZM103.544 50.4634C103.729 50.5991 103.796 50.8384 103.744 51.1968C103.59 51.4219 103.392 51.395 103.156 51.1323C102.907 50.8574 102.805 50.6064 102.84 50.3613C103.13 50.2881 103.371 50.3227 103.544 50.4634ZM102.67 51.5312C102.798 51.4155 102.923 51.4487 103.031 51.6523C103.15 51.8486 103.253 52.0171 103.344 52.1719C102.539 52.2749 102.306 52.0601 102.67 51.5312ZM102.898 53.7998L102.352 53.7207L102.465 52.9438L102.898 53.7998ZM101.607 55.3076L103.355 55.5615L103.214 56.5322L101.466 56.2783L101.607 55.3076ZM95.4206 52.6304C95.1057 52.5591 94.9685 52.3965 95.0033 52.1572C95.1136 52.1733 95.2749 52.1694 95.4735 52.145C95.678 52.1167 95.829 52.25 95.9313 52.5366C95.9109 52.6763 95.746 52.7012 95.4206 52.6304ZM100.012 56.0669L98.5085 55.8486L98.6495 54.8784L100.153 55.0967L100.012 56.0669ZM101.139 53.293L99.0185 52.9849L101.567 50.3433L101.139 53.293ZM99.9601 49.9429L101.131 50.1128L98.15 53.1104L97.665 52.3325L99.9601 49.9429ZM97.4092 54.6982L97.2682 55.6685L95.5133 55.4136L95.6543 54.4429L97.4092 54.6982ZM97.1802 52.7178C96.8964 52.9282 96.6416 52.8911 96.4319 52.6089C96.5873 52.5005 96.7549 52.4541 96.9376 52.4805C97.1245 52.5078 97.1989 52.5894 97.1802 52.7178ZM96.5371 51.8853C96.5022 52.1255 96.3329 52.1011 96.0364 51.8125L96.0724 51.5649C96.4038 51.6133 96.5607 51.7227 96.5371 51.8853ZM95.4631 50.4844C95.7096 50.5205 95.856 50.6006 95.898 50.7188C95.9386 50.8325 96.0155 50.9653 96.1363 51.125C95.9002 51.1982 95.6523 51.1401 95.4186 50.9326C95.1778 50.7305 95.1908 50.5855 95.4631 50.4844ZM95.286 51.7036L94.5744 51.6001L94.6104 51.3525C94.7234 51.3691 94.8731 51.3687 95.0528 51.3574C95.247 51.3457 95.3219 51.4561 95.286 51.7036ZM94.3503 49.3364L95.3911 49.4873L95.3026 50.0962L94.2618 49.9453L94.3503 49.3364ZM94.2099 50.3022C94.4828 50.3423 94.6473 50.4253 94.6858 50.543C94.7253 50.6567 94.794 50.7881 94.8841 50.9429C94.7585 51.0327 94.6369 51.0425 94.5177 50.9756C94.4017 50.9004 94.2752 50.8545 94.1327 50.834L94.2099 50.3022ZM94.3386 52.0376C94.4425 52.0981 94.4879 52.1958 94.4693 52.3242C94.449 52.4639 94.3536 52.4883 94.1827 52.4082C94.0094 52.3272 93.9489 52.0991 94.0047 51.7153C94.1267 51.8765 94.239 51.9873 94.3386 52.0376ZM94.1924 54.231L94.0514 55.2012L92.2204 54.9351L92.3614 53.9648L94.1924 54.231ZM93.0193 52.1133L91.2251 51.853L93.3362 49.9321L93.0193 52.1133ZM87.9719 49.5898C87.7035 49.0645 87.5425 48.4956 87.4969 47.8848L89.7061 46.6758C89.634 46.8047 89.6011 46.9692 89.6175 47.1758C89.629 47.3921 89.6517 47.5855 89.678 47.7861C89.7088 47.9854 89.6878 48.1553 89.6235 48.3174C89.5541 48.4727 89.4067 48.5591 89.1843 48.5859L91.1376 48.8696L88.8388 50.9648C88.5217 50.5664 88.2354 50.1094 87.9719 49.5898ZM89.2926 51.3276L91.7595 48.96L93.0971 49.1543L90.5121 51.749L89.2926 51.3276Z" fill="#F0AE27"/>
<path fill-rule="evenodd" clip-rule="evenodd" d="M120.324 70.7385C114.478 64.7863 108.166 63.801 98.9225 68.6183C95.7682 64.6193 85.0731 57.1882 76.295 65.3312C67.5141 73.4733 71.4992 84.3957 73.3855 88.8459C75.2717 93.3005 82.7451 104.156 92.3355 110.438C102.862 107.29 111.44 100.96 117.302 95.0104C123.172 89.0661 126.172 76.6857 120.324 70.7385ZM110.165 97.6379C106.035 101.828 99.9956 106.282 92.5879 108.497C85.8336 104.076 80.5722 96.4338 79.244 93.2956C77.9157 90.1652 75.1121 82.4777 81.2905 76.7458C87.4714 71.0114 95.0017 76.2448 97.2249 79.0602C103.73 75.6657 108.176 76.3615 112.29 80.5515C116.405 84.7365 114.295 93.4557 110.165 97.6379Z" fill="#F0AE27"/>
<path fill-rule="evenodd" clip-rule="evenodd" d="M102.245 63.0228C102.062 64.2801 100.897 65.1527 99.6358 64.9696C98.379 64.7869 97.5086 63.619 97.6912 62.3616C97.8741 61.1019 99.0405 60.2332 100.297 60.4158C101.558 60.5989 102.428 61.7635 102.245 63.0228Z" fill="#F0AE27"/>
</svg>
