<svg width="435" height="249" viewBox="0 0 435 249" fill="none" xmlns="http://www.w3.org/2000/svg">
<path d="M201.475 36.418L194.812 56.4702L213.942 68.5449L208.837 70.4033L192.968 60.314L187.046 78.334L182.314 80.0557L189.191 58.6567L171.216 47.4302L176.259 45.5947L191.16 54.7671L196.556 38.208L201.475 36.418Z" fill="#1D2633" stroke="#1D2633" stroke-width="2" stroke-miterlimit="10"/>
<path d="M301.632 203.108L285.875 200.819L283.586 216.577L299.343 218.866L301.632 203.108Z" fill="#00FFAF"/>
<path d="M308.499 155.834L292.741 153.545L290.452 169.303L306.21 171.592L308.499 155.834Z" fill="#00FFAF"/>
<path d="M310.788 140.077L295.03 137.788L292.741 153.545L308.499 155.834L310.788 140.077Z" fill="#00FFAF"/>
<path d="M295.03 137.788L279.272 135.499L276.983 151.256L292.741 153.545L295.03 137.788Z" fill="#00FFAF"/>
<path d="M297.319 122.03L281.561 119.741L279.272 135.499L295.03 137.788L297.319 122.03Z" fill="#00FFAF"/>
<path d="M299.343 218.866L283.586 216.577L281.297 232.335L297.054 234.624L299.343 218.866Z" fill="#00FFAF"/>
<path d="M306.21 171.592L290.452 169.303L288.163 185.061L303.921 187.35L306.21 171.592Z" fill="#00FFAF"/>
<path d="M303.921 187.35L288.163 185.061L285.874 200.819L301.632 203.108L303.921 187.35Z" fill="#00FFAF"/>
<path d="M283.586 216.577L267.828 214.288L265.539 230.046L281.297 232.335L283.586 216.577Z" fill="#00FFAF"/>
<path d="M281.297 232.335L265.539 230.046L263.25 245.804L279.008 248.093L281.297 232.335Z" fill="#00FFAF"/>
<path d="M281.561 119.741L265.803 117.452L263.514 133.21L279.272 135.499L281.561 119.741Z" fill="#00FFAF"/>
<path d="M265.539 230.045L249.781 227.756L247.492 243.514L263.25 245.803L265.539 230.045Z" fill="#00FFAF"/>
<path d="M265.804 117.452L250.046 115.163L247.757 130.92L263.515 133.209L265.804 117.452Z" fill="#00FFAF"/>
<path d="M249.781 227.756L234.023 225.467L231.734 241.225L247.492 243.514L249.781 227.756Z" fill="#00FFAF"/>
<path d="M250.046 115.163L234.288 112.874L231.999 128.631L247.757 130.92L250.046 115.163Z" fill="#00FFAF"/>
<path d="M234.023 225.467L218.265 223.178L215.976 238.936L231.734 241.225L234.023 225.467Z" fill="#00FFAF"/>
<path d="M234.288 112.874L218.53 110.585L216.241 126.343L231.999 128.632L234.288 112.874Z" fill="#00FFAF"/>
<path d="M218.265 223.179L202.507 220.89L200.218 236.648L215.976 238.937L218.265 223.179Z" fill="#00FFAF"/>
<path d="M218.53 110.585L202.772 108.296L200.483 124.054L216.241 126.343L218.53 110.585Z" fill="#00FFAF"/>
<path d="M202.507 220.89L186.749 218.601L184.46 234.358L200.218 236.647L202.507 220.89Z" fill="#00FFAF"/>
<path d="M202.772 108.296L187.014 106.007L184.725 121.765L200.483 124.054L202.772 108.296Z" fill="#00FFAF"/>
<path d="M186.749 218.601L170.991 216.312L168.702 232.069L184.46 234.358L186.749 218.601Z" fill="#00FFAF"/>
<path d="M187.014 106.007L171.256 103.718L168.967 119.476L184.725 121.765L187.014 106.007Z" fill="#00FFAF"/>
<path d="M170.991 216.311L155.233 214.022L152.944 229.78L168.702 232.069L170.991 216.311Z" fill="#00FFAF"/>
<path d="M171.256 103.718L155.498 101.429L153.209 117.187L168.967 119.476L171.256 103.718Z" fill="#00FFAF"/>
<path d="M155.233 214.023L139.475 211.734L137.186 227.492L152.944 229.781L155.233 214.023Z" fill="#00FFAF"/>
<path d="M155.498 101.429L139.74 99.1401L137.451 114.898L153.209 117.187L155.498 101.429Z" fill="#00FFAF"/>
<path d="M139.476 211.734L123.718 209.445L121.429 225.203L137.187 227.492L139.476 211.734Z" fill="#00FFAF"/>
<path d="M139.74 99.1401L123.982 96.8511L121.693 112.609L137.451 114.898L139.74 99.1401Z" fill="#00FFAF"/>
<path d="M123.718 209.445L107.96 207.156L105.671 222.914L121.429 225.203L123.718 209.445Z" fill="#00FFAF"/>
<path d="M123.983 96.851L108.225 94.562L105.936 110.32L121.694 112.609L123.983 96.851Z" fill="#00FFAF"/>
<path d="M107.96 207.156L92.2019 204.867L89.9129 220.625L105.671 222.914L107.96 207.156Z" fill="#00FFAF"/>
<path d="M108.281 94.5702L92.5233 92.2812L90.2343 108.039L105.992 110.328L108.281 94.5702Z" fill="#00FFAF"/>
<path d="M92.2584 204.875L76.5005 202.586L74.2115 218.344L89.9694 220.633L92.2584 204.875Z" fill="#00FFAF"/>
<path d="M92.5233 92.2817L76.7654 89.9927L74.4764 105.751L90.2343 108.04L92.5233 92.2817Z" fill="#00FFAF"/>
<path d="M76.5006 202.586L60.7427 200.297L58.4537 216.055L74.2116 218.344L76.5006 202.586Z" fill="#00FFAF"/>
<path d="M76.7653 89.9926L61.0074 87.7036L58.7185 103.462L74.4764 105.75L76.7653 89.9926Z" fill="#00FFAF"/>
<path d="M74.4763 105.75L58.7184 103.461L56.4294 119.219L72.1873 121.508L74.4763 105.75Z" fill="#00FFAF"/>
<path d="M58.7185 103.461L42.9606 101.172L40.6716 116.93L56.4295 119.219L58.7185 103.461Z" fill="#00FFAF"/>
<path d="M56.4295 119.219L40.6716 116.93L38.3827 132.688L54.1405 134.977L56.4295 119.219Z" fill="#00FFAF"/>
<path d="M54.1406 134.976L38.3827 132.688L36.0937 148.445L51.8516 150.734L54.1406 134.976Z" fill="#00FFAF"/>
<path d="M51.8516 150.735L36.0938 148.446L33.8048 164.204L49.5627 166.493L51.8516 150.735Z" fill="#00FFAF"/>
<path d="M60.7426 200.297L44.9847 198.008L42.6958 213.766L58.4537 216.055L60.7426 200.297Z" fill="#00FFAF"/>
<path d="M44.9847 198.008L29.2268 195.719L26.9378 211.477L42.6957 213.766L44.9847 198.008Z" fill="#00FFAF"/>
<path d="M63.0316 184.539L47.2737 182.25L44.9847 198.008L60.7426 200.297L63.0316 184.539Z" fill="#00FFAF"/>
<path d="M47.2736 182.25L31.5157 179.961L29.2268 195.719L44.9847 198.008L47.2736 182.25Z" fill="#00FFAF"/>
<path d="M49.5626 166.493L33.8047 164.204L31.5157 179.962L47.2736 182.25L49.5626 166.493Z" fill="#00FFAF"/>
<path d="M288.22 185.069L272.462 182.78L270.173 198.538L285.931 200.827L288.22 185.069Z" fill="#1D2633"/>
<path d="M295.087 137.796L279.329 135.507L277.04 151.265L292.798 153.554L295.087 137.796Z" fill="#1D2633"/>
<path d="M297.376 122.038L281.618 119.75L279.329 135.507L295.087 137.796L297.376 122.038Z" fill="#1D2633"/>
<path d="M281.618 119.749L265.86 117.46L263.571 133.218L279.329 135.507L281.618 119.749Z" fill="#1D2633"/>
<path d="M283.907 103.992L268.149 101.703L265.86 117.461L281.618 119.75L283.907 103.992Z" fill="#1D2633"/>
<path d="M285.931 200.827L270.173 198.538L267.884 214.296L283.642 216.585L285.931 200.827Z" fill="#1D2633"/>
<path d="M292.798 153.554L277.04 151.265L274.751 167.023L290.509 169.312L292.798 153.554Z" fill="#1D2633"/>
<path d="M290.509 169.311L274.751 167.022L272.462 182.78L288.22 185.069L290.509 169.311Z" fill="#1D2633"/>
<path d="M272.462 182.78L256.704 180.491L254.415 196.249L270.173 198.538L272.462 182.78Z" fill="white"/>
<path d="M279.329 135.507L263.571 133.218L261.282 148.976L277.04 151.265L279.329 135.507Z" fill="white"/>
<path d="M277.04 151.265L261.282 148.976L258.993 164.733L274.751 167.022L277.04 151.265Z" fill="white"/>
<path d="M274.751 167.022L258.993 164.733L256.704 180.491L272.462 182.78L274.751 167.022Z" fill="white"/>
<path d="M270.173 198.538L254.415 196.249L252.126 212.007L267.884 214.296L270.173 198.538Z" fill="#1D2633"/>
<path d="M267.884 214.296L252.126 212.007L249.837 227.765L265.595 230.054L267.884 214.296Z" fill="#1D2633"/>
<path d="M268.149 101.703L252.391 99.4136L250.102 115.171L265.86 117.46L268.149 101.703Z" fill="#1D2633"/>
<path d="M252.126 212.007L236.368 209.718L234.079 225.476L249.837 227.765L252.126 212.007Z" fill="#1D2633"/>
<path d="M252.391 99.4135L236.633 97.1245L234.344 112.882L250.102 115.171L252.391 99.4135Z" fill="#1D2633"/>
<path d="M236.368 209.718L220.611 207.429L218.322 223.187L234.08 225.476L236.368 209.718Z" fill="#1D2633"/>
<path d="M236.633 97.1244L220.875 94.8354L218.586 110.593L234.344 112.882L236.633 97.1244Z" fill="#1D2633"/>
<path d="M220.611 207.429L204.853 205.14L202.564 220.898L218.322 223.187L220.611 207.429Z" fill="#1D2633"/>
<path d="M220.875 94.8354L205.117 92.5464L202.828 108.304L218.586 110.593L220.875 94.8354Z" fill="#1D2633"/>
<path d="M204.853 205.14L189.095 202.851L186.806 218.609L202.564 220.898L204.853 205.14Z" fill="#1D2633"/>
<path d="M205.118 92.5463L189.36 90.2573L187.071 106.015L202.829 108.304L205.118 92.5463Z" fill="#1D2633"/>
<path d="M189.095 202.851L173.337 200.562L171.048 216.32L186.806 218.609L189.095 202.851Z" fill="#1D2633"/>
<path d="M189.36 90.2572L173.602 87.9683L171.313 103.726L187.071 106.015L189.36 90.2572Z" fill="#1D2633"/>
<path d="M173.337 200.562L157.579 198.273L155.29 214.031L171.048 216.32L173.337 200.562Z" fill="#1D2633"/>
<path d="M173.602 87.9682L157.844 85.6792L155.555 101.437L171.313 103.726L173.602 87.9682Z" fill="#1D2633"/>
<path d="M157.579 198.273L141.821 195.984L139.532 211.742L155.29 214.031L157.579 198.273Z" fill="#1D2633"/>
<path d="M157.844 85.6791L142.086 83.3901L139.797 99.148L155.555 101.437L157.844 85.6791Z" fill="#1D2633"/>
<path d="M141.821 195.984L126.063 193.695L123.774 209.453L139.532 211.742L141.821 195.984Z" fill="#1D2633"/>
<path d="M142.086 83.3905L126.328 81.1016L124.039 96.8595L139.797 99.1484L142.086 83.3905Z" fill="#1D2633"/>
<path d="M126.063 193.695L110.305 191.406L108.016 207.164L123.774 209.453L126.063 193.695Z" fill="#1D2633"/>
<path d="M126.328 81.1015L110.57 78.8125L108.281 94.5704L124.039 96.8594L126.328 81.1015Z" fill="#1D2633"/>
<path d="M110.305 191.406L94.5475 189.117L92.2585 204.875L108.016 207.164L110.305 191.406Z" fill="#1D2633"/>
<path d="M110.57 78.8124L94.8123 76.5234L92.5233 92.2813L108.281 94.5703L110.57 78.8124Z" fill="#1D2633"/>
<path d="M94.5473 189.117L78.7894 186.828L76.5004 202.586L92.2583 204.875L94.5473 189.117Z" fill="#1D2633"/>
<path d="M94.8122 76.5234L79.0543 74.2344L76.7653 89.9923L92.5232 92.2813L94.8122 76.5234Z" fill="#1D2633"/>
<path d="M78.7895 186.828L63.0316 184.539L60.7426 200.297L76.5005 202.586L78.7895 186.828Z" fill="#1D2633"/>
<path d="M79.0543 74.2348L63.2964 71.9458L61.0074 87.7037L76.7653 89.9927L79.0543 74.2348Z" fill="#1D2633"/>
<path d="M63.0316 184.539L47.2737 182.25L44.9847 198.008L60.7426 200.297L63.0316 184.539Z" fill="#1D2633"/>
<path d="M63.2963 71.9457L47.5385 69.6567L45.2495 85.4146L61.0074 87.7036L63.2963 71.9457Z" fill="#1D2633"/>
<path d="M47.2736 182.25L31.5157 179.961L29.2268 195.719L44.9847 198.008L47.2736 182.25Z" fill="#1D2633"/>
<path d="M47.5385 69.6567L31.7806 67.3677L29.4917 83.1256L45.2496 85.4146L47.5385 69.6567Z" fill="#1D2633"/>
<path d="M31.5158 179.961L15.7579 177.672L13.469 193.43L29.2269 195.719L31.5158 179.961Z" fill="#1D2633"/>
<path d="M265.86 117.46L250.102 115.171L247.813 130.929L263.571 133.218L265.86 117.46Z" fill="white"/>
<path d="M250.102 115.171L234.344 112.882L232.055 128.64L247.813 130.929L250.102 115.171Z" fill="white"/>
<path d="M234.344 112.882L218.586 110.593L216.297 126.351L232.055 128.64L234.344 112.882Z" fill="white"/>
<path d="M218.586 110.593L202.828 108.304L200.54 124.062L216.297 126.351L218.586 110.593Z" fill="white"/>
<path d="M202.829 108.304L187.071 106.015L184.782 121.773L200.54 124.062L202.829 108.304Z" fill="white"/>
<path d="M187.071 106.015L171.313 103.726L169.024 119.484L184.782 121.773L187.071 106.015Z" fill="white"/>
<path d="M171.313 103.726L155.555 101.437L153.266 117.195L169.024 119.484L171.313 103.726Z" fill="white"/>
<path d="M155.555 101.437L139.797 99.1484L137.508 114.906L153.266 117.195L155.555 101.437Z" fill="white"/>
<path d="M139.797 99.1484L124.039 96.8594L121.75 112.617L137.508 114.906L139.797 99.1484Z" fill="white"/>
<path d="M124.039 96.8593L108.281 94.5703L105.992 110.328L121.75 112.617L124.039 96.8593Z" fill="white"/>
<path d="M108.281 94.5702L92.5233 92.2812L90.2343 108.039L105.992 110.328L108.281 94.5702Z" fill="white"/>
<path d="M92.5233 92.2817L76.7654 89.9927L74.4764 105.751L90.2343 108.04L92.5233 92.2817Z" fill="white"/>
<path d="M76.7653 89.9926L61.0074 87.7036L58.7185 103.462L74.4764 105.75L76.7653 89.9926Z" fill="white"/>
<path d="M61.0074 87.7035L45.2495 85.4146L42.9605 101.172L58.7184 103.461L61.0074 87.7035Z" fill="white"/>
<path d="M45.2496 85.4145L29.4917 83.1255L27.2027 98.8834L42.9606 101.172L45.2496 85.4145Z" fill="#1D2633"/>
<path d="M29.4917 83.1259L13.7338 80.8369L11.4448 96.5948L27.2027 98.8838L29.4917 83.1259Z" fill="#1D2633"/>
<path d="M263.571 133.218L247.813 130.929L245.524 146.687L261.282 148.976L263.571 133.218Z" fill="white"/>
<path d="M247.813 130.929L232.055 128.64L229.766 144.398L245.524 146.687L247.813 130.929Z" fill="white"/>
<path d="M232.055 128.64L216.297 126.351L214.008 142.109L229.766 144.398L232.055 128.64Z" fill="white"/>
<path d="M216.297 126.351L200.54 124.062L198.251 139.82L214.008 142.109L216.297 126.351Z" fill="white"/>
<path d="M200.54 124.062L184.782 121.773L182.493 137.531L198.251 139.82L200.54 124.062Z" fill="white"/>
<path d="M184.782 121.773L169.024 119.484L166.735 135.242L182.493 137.531L184.782 121.773Z" fill="white"/>
<path d="M169.024 119.484L153.266 117.195L150.977 132.953L166.735 135.242L169.024 119.484Z" fill="white"/>
<path d="M153.266 117.195L137.508 114.906L135.219 130.664L150.977 132.953L153.266 117.195Z" fill="white"/>
<path d="M137.508 114.906L121.75 112.617L119.461 128.375L135.219 130.664L137.508 114.906Z" fill="white"/>
<path d="M121.75 112.617L105.992 110.328L103.703 126.086L119.461 128.375L121.75 112.617Z" fill="white"/>
<path d="M105.992 110.328L90.2344 108.039L87.9454 123.797L103.703 126.086L105.992 110.328Z" fill="white"/>
<path d="M90.2342 108.039L74.4763 105.75L72.1873 121.508L87.9452 123.797L90.2342 108.039Z" fill="white"/>
<path d="M74.4763 105.75L58.7184 103.461L56.4294 119.219L72.1873 121.508L74.4763 105.75Z" fill="white"/>
<path d="M58.7185 103.461L42.9606 101.172L40.6716 116.93L56.4295 119.219L58.7185 103.461Z" fill="white"/>
<path d="M42.9607 101.172L27.2028 98.8833L24.9138 114.641L40.6717 116.93L42.9607 101.172Z" fill="white"/>
<path d="M27.2027 98.8837L11.4448 96.5947L9.15584 112.353L24.9137 114.642L27.2027 98.8837Z" fill="#1D2633"/>
<path d="M261.282 148.976L245.524 146.687L243.235 162.444L258.993 164.733L261.282 148.976Z" fill="white"/>
<path d="M245.524 146.687L229.766 144.398L227.477 160.156L243.235 162.445L245.524 146.687Z" fill="white"/>
<path d="M229.766 144.398L214.008 142.109L211.719 157.867L227.477 160.156L229.766 144.398Z" fill="white"/>
<path d="M214.009 142.109L198.251 139.82L195.962 155.578L211.72 157.867L214.009 142.109Z" fill="white"/>
<path d="M198.251 139.82L182.493 137.531L180.204 153.289L195.962 155.578L198.251 139.82Z" fill="white"/>
<path d="M182.493 137.531L166.735 135.242L164.446 151L180.204 153.289L182.493 137.531Z" fill="white"/>
<path d="M166.735 135.242L150.977 132.953L148.688 148.711L164.446 151L166.735 135.242Z" fill="white"/>
<path d="M150.977 132.953L135.219 130.664L132.93 146.422L148.688 148.711L150.977 132.953Z" fill="white"/>
<path d="M135.219 130.664L119.461 128.375L117.172 144.133L132.93 146.422L135.219 130.664Z" fill="white"/>
<path d="M119.461 128.375L103.703 126.086L101.414 141.844L117.172 144.133L119.461 128.375Z" fill="white"/>
<path d="M103.703 126.086L87.9453 123.797L85.6563 139.555L101.414 141.844L103.703 126.086Z" fill="white"/>
<path d="M87.9453 123.797L72.1874 121.508L69.8984 137.266L85.6563 139.555L87.9453 123.797Z" fill="white"/>
<path d="M72.1875 121.508L56.4296 119.219L54.1406 134.977L69.8985 137.266L72.1875 121.508Z" fill="white"/>
<path d="M56.4295 119.219L40.6716 116.93L38.3827 132.688L54.1405 134.977L56.4295 119.219Z" fill="white"/>
<path d="M40.6716 116.931L24.9137 114.642L22.6247 130.399L38.3826 132.688L40.6716 116.931Z" fill="white"/>
<path d="M24.9138 114.641L9.15588 112.352L6.8669 128.11L22.6248 130.399L24.9138 114.641Z" fill="#1D2633"/>
<path d="M258.993 164.733L243.235 162.444L240.946 178.202L256.704 180.491L258.993 164.733Z" fill="white"/>
<path d="M243.235 162.445L227.477 160.156L225.188 175.914L240.946 178.203L243.235 162.445Z" fill="white"/>
<path d="M227.477 160.156L211.719 157.867L209.431 173.625L225.188 175.914L227.477 160.156Z" fill="white"/>
<path d="M211.72 157.867L195.962 155.578L193.673 171.336L209.431 173.625L211.72 157.867Z" fill="white"/>
<path d="M195.962 155.578L180.204 153.289L177.915 169.046L193.673 171.335L195.962 155.578Z" fill="white"/>
<path d="M180.204 153.289L164.446 151L162.157 166.758L177.915 169.047L180.204 153.289Z" fill="white"/>
<path d="M164.446 151L148.688 148.711L146.399 164.469L162.157 166.758L164.446 151Z" fill="white"/>
<path d="M148.688 148.711L132.93 146.422L130.641 162.18L146.399 164.469L148.688 148.711Z" fill="white"/>
<path d="M132.93 146.422L117.172 144.133L114.883 159.891L130.641 162.18L132.93 146.422Z" fill="white"/>
<path d="M117.172 144.133L101.414 141.844L99.1252 157.602L114.883 159.891L117.172 144.133Z" fill="white"/>
<path d="M101.414 141.844L85.6564 139.555L83.3674 155.313L99.1253 157.602L101.414 141.844Z" fill="white"/>
<path d="M85.6563 139.555L69.8984 137.266L67.6095 153.024L83.3674 155.313L85.6563 139.555Z" fill="white"/>
<path d="M69.8985 137.266L54.1406 134.977L51.8516 150.734L67.6095 153.023L69.8985 137.266Z" fill="white"/>
<path d="M54.1406 134.976L38.3827 132.688L36.0937 148.445L51.8516 150.734L54.1406 134.976Z" fill="white"/>
<path d="M38.3827 132.688L22.6248 130.399L20.3358 146.157L36.0937 148.446L38.3827 132.688Z" fill="white"/>
<path d="M22.6248 130.399L6.86694 128.11L4.57796 143.868L20.3359 146.157L22.6248 130.399Z" fill="#1D2633"/>
<path d="M256.704 180.492L240.946 178.203L238.657 193.961L254.415 196.25L256.704 180.492Z" fill="white"/>
<path d="M240.946 178.203L225.188 175.914L222.899 191.671L238.657 193.96L240.946 178.203Z" fill="white"/>
<path d="M225.189 175.913L209.431 173.625L207.142 189.382L222.9 191.671L225.189 175.913Z" fill="white"/>
<path d="M209.431 173.624L193.673 171.335L191.384 187.093L207.142 189.382L209.431 173.624Z" fill="white"/>
<path d="M193.673 171.336L177.915 169.047L175.626 184.805L191.384 187.094L193.673 171.336Z" fill="white"/>
<path d="M177.915 169.047L162.157 166.758L159.868 182.516L175.626 184.805L177.915 169.047Z" fill="white"/>
<path d="M162.157 166.758L146.399 164.469L144.11 180.227L159.868 182.516L162.157 166.758Z" fill="white"/>
<path d="M146.399 164.469L130.641 162.18L128.352 177.938L144.11 180.227L146.399 164.469Z" fill="white"/>
<path d="M130.641 162.179L114.883 159.89L112.594 175.648L128.352 177.937L130.641 162.179Z" fill="white"/>
<path d="M114.883 159.891L99.1252 157.602L96.8363 173.359L112.594 175.648L114.883 159.891Z" fill="white"/>
<path d="M99.1253 157.601L83.3674 155.312L81.0785 171.07L96.8363 173.359L99.1253 157.601Z" fill="white"/>
<path d="M83.3674 155.312L67.6095 153.023L65.3205 168.781L81.0784 171.07L83.3674 155.312Z" fill="white"/>
<path d="M67.6096 153.023L51.8517 150.734L49.5627 166.492L65.3206 168.781L67.6096 153.023Z" fill="white"/>
<path d="M51.8516 150.735L36.0938 148.446L33.8048 164.204L49.5627 166.493L51.8516 150.735Z" fill="white"/>
<path d="M36.0937 148.446L20.3358 146.157L18.0468 161.915L33.8047 164.204L36.0937 148.446Z" fill="white"/>
<path d="M20.3358 146.157L4.57788 143.868L2.2889 159.626L18.0468 161.915L20.3358 146.157Z" fill="#1D2633"/>
<path d="M254.415 196.249L238.657 193.96L236.368 209.718L252.126 212.007L254.415 196.249Z" fill="white"/>
<path d="M238.657 193.96L222.9 191.671L220.611 207.429L236.368 209.718L238.657 193.96Z" fill="white"/>
<path d="M222.899 191.671L207.142 189.382L204.853 205.14L220.611 207.429L222.899 191.671Z" fill="white"/>
<path d="M207.142 189.382L191.384 187.093L189.095 202.851L204.853 205.14L207.142 189.382Z" fill="white"/>
<path d="M191.384 187.094L175.626 184.805L173.337 200.563L189.095 202.852L191.384 187.094Z" fill="white"/>
<path d="M175.626 184.804L159.868 182.515L157.579 198.273L173.337 200.562L175.626 184.804Z" fill="white"/>
<path d="M159.868 182.515L144.11 180.226L141.821 195.984L157.579 198.273L159.868 182.515Z" fill="white"/>
<path d="M144.11 180.226L128.352 177.937L126.063 193.695L141.821 195.984L144.11 180.226Z" fill="white"/>
<path d="M128.352 177.937L112.594 175.648L110.305 191.406L126.063 193.695L128.352 177.937Z" fill="white"/>
<path d="M112.594 175.648L96.8364 173.359L94.5474 189.117L110.305 191.406L112.594 175.648Z" fill="white"/>
<path d="M96.8363 173.359L81.0784 171.07L78.7894 186.828L94.5473 189.117L96.8363 173.359Z" fill="white"/>
<path d="M81.0785 171.07L65.3206 168.781L63.0316 184.539L78.7895 186.828L81.0785 171.07Z" fill="white"/>
<path d="M65.3205 168.782L49.5626 166.493L47.2736 182.251L63.0315 184.54L65.3205 168.782Z" fill="white"/>
<path d="M49.5626 166.493L33.8047 164.204L31.5157 179.962L47.2736 182.25L49.5626 166.493Z" fill="white"/>
<path d="M33.8048 164.204L18.0469 161.915L15.7579 177.672L31.5158 179.961L33.8048 164.204Z" fill="#1D2633"/>
<path d="M18.0468 161.914L2.28894 159.625L-3.96254e-05 175.383L15.7579 177.672L18.0468 161.914Z" fill="#1D2633"/>
<path d="M131.525 157.515L133.702 142.527L135.501 142.789L133.566 156.111L142.269 157.375L144.204 144.053L146.003 144.314L144.068 157.636L146.555 157.998L145.784 163.304L143.985 163.043L144.514 159.401L131.525 157.515Z" fill="#1D2633"/>
<path d="M158.326 156.874L149.755 155.629C149.73 156.531 150.014 157.337 150.607 158.042C151.201 158.734 151.98 159.149 152.942 159.288C154.215 159.473 155.269 159.135 156.105 158.274L157.607 159.013C157.036 159.717 156.319 160.229 155.458 160.549C154.595 160.869 153.681 160.96 152.72 160.82C151.18 160.596 149.979 159.916 149.117 158.778C148.256 157.625 147.934 156.309 148.149 154.828C148.364 153.348 149.039 152.184 150.175 151.337C151.328 150.476 152.629 150.151 154.08 150.362C155.531 150.573 156.672 151.253 157.502 152.401C158.35 153.537 158.666 154.844 158.451 156.325C158.419 156.547 158.377 156.73 158.326 156.874ZM149.968 154.322L156.874 155.325C156.835 154.443 156.534 153.681 155.969 153.04C155.405 152.399 154.686 152.014 153.813 151.887C152.97 151.765 152.189 151.932 151.474 152.387C150.757 152.842 150.256 153.488 149.968 154.322Z" fill="#1D2633"/>
<path d="M162.125 157.561L161.5 161.869L159.857 161.63L161.308 151.639L162.951 151.877L162.351 156.007L168.235 156.862L168.835 152.732L170.478 152.971L169.027 162.962L167.384 162.724L168.009 158.416L162.125 157.561Z" fill="#1D2633"/>
<path d="M174.511 163.759L175.733 155.343L172.003 154.802L172.232 153.226L181.313 154.544L181.084 156.121L177.354 155.579L176.132 163.994L174.511 163.759Z" fill="#1D2633"/>
<path d="M182.511 170.022L180.89 169.787L183.067 154.799L184.688 155.035L184.488 156.411C185.59 155.483 186.874 155.125 188.34 155.338C189.746 155.542 190.842 156.216 191.629 157.358C192.431 158.487 192.726 159.792 192.511 161.272C192.294 162.768 191.639 163.942 190.548 164.796C189.471 165.652 188.23 165.978 186.824 165.774C185.358 165.561 184.229 164.853 183.437 163.649L182.511 170.022ZM190.195 158.329C189.657 157.555 188.901 157.098 187.923 156.956C186.946 156.814 186.09 157.037 185.355 157.625C184.602 158.227 184.153 159.03 184.007 160.037C183.861 161.043 184.062 161.942 184.613 162.732C185.151 163.506 185.908 163.963 186.885 164.105C187.862 164.247 188.718 164.024 189.453 163.435C190.218 162.852 190.675 162.048 190.824 161.027C190.972 160.005 190.762 159.106 190.195 158.329Z" fill="#1D2633"/>
<path d="M129.269 176.952L127.382 176.678L136.153 162.648L137.574 162.855L141.991 178.8L140.126 178.529L139.116 174.869L131.279 173.73L129.269 176.952ZM138.625 173.097L136.511 165.331L132.253 172.171L138.625 173.097Z" fill="#1D2633"/>
<path d="M143.501 179.02L142.834 178.923L143.063 177.347L143.619 177.427C144.566 177.565 145.193 176.583 145.498 174.481L146.262 169.218L154.011 170.344L152.56 180.335L150.916 180.097L152.138 171.682L147.654 171.03L147.07 175.049C146.857 176.514 146.439 177.576 145.814 178.233C145.189 178.891 144.418 179.153 143.501 179.02Z" fill="#1D2633"/>
<path d="M158 174.098L157 180.98L155.357 180.742L156.808 170.75L158.451 170.989L161.287 178.157L166.023 172.089L167.666 172.328L166.215 182.319L164.571 182.08L165.565 175.242L161.453 180.448L160.454 180.303L158 174.098Z" fill="#1D2633"/>
<path d="M174.892 173.15C176.357 173.363 177.486 174.071 178.279 175.275L178.479 173.898L180.099 174.133L178.648 184.125L177.027 183.89L177.227 182.513C176.125 183.441 174.841 183.798 173.376 183.586C171.97 183.382 170.865 182.715 170.061 181.586C169.273 180.459 168.988 179.148 169.205 177.652C169.418 176.187 170.063 175.019 171.142 174.147C172.25 173.281 173.5 172.948 174.892 173.15ZM177.103 176.193C176.565 175.419 175.808 174.961 174.831 174.819C173.854 174.677 172.997 174.901 172.262 175.489C171.51 176.09 171.061 176.894 170.915 177.901C170.768 178.907 170.97 179.806 171.52 180.596C172.058 181.369 172.815 181.827 173.792 181.969C174.769 182.111 175.625 181.887 176.361 181.299C177.113 180.698 177.562 179.894 177.709 178.887C177.855 177.881 177.653 176.983 177.103 176.193Z" fill="#1D2633"/>
<path d="M181.217 181.891L182.922 181.708C183.179 182.848 183.996 183.519 185.373 183.719C186.157 183.833 186.829 183.76 187.388 183.502C187.947 183.242 188.262 182.869 188.333 182.38C188.391 181.981 188.291 181.63 188.033 181.328C187.774 181.026 187.423 180.843 186.979 180.778L184.536 180.423L184.736 179.047L187.068 179.385C187.482 179.445 187.847 179.378 188.163 179.182C188.479 178.986 188.661 178.718 188.711 178.377C188.777 177.918 188.599 177.507 188.176 177.143C187.752 176.779 187.185 176.546 186.475 176.443C185.098 176.243 184.132 176.654 183.575 177.676L181.994 177.016C182.431 176.188 183.074 175.586 183.922 175.21C184.77 174.835 185.727 174.724 186.793 174.879C187.948 175.047 188.876 175.469 189.579 176.145C190.269 176.805 190.553 177.556 190.43 178.4C190.303 179.274 189.788 179.909 188.884 180.307C189.768 180.979 190.138 181.819 189.992 182.825C189.865 183.699 189.343 184.379 188.426 184.865C187.526 185.339 186.446 185.484 185.188 185.301C184.107 185.145 183.218 184.766 182.519 184.166C181.82 183.566 181.386 182.808 181.217 181.891Z" fill="#1D2633"/>
<path d="M192.975 184.914C192.128 183.778 191.813 182.463 192.03 180.967C192.247 179.473 192.923 178.301 194.059 177.453C195.195 176.606 196.51 176.29 198.005 176.507C199.485 176.722 200.65 177.398 201.498 178.534C202.358 179.687 202.68 181.003 202.465 182.483C202.25 183.964 201.566 185.134 200.414 185.995C199.278 186.842 197.969 187.158 196.489 186.943C194.994 186.726 193.823 186.05 192.975 184.914ZM197.767 178.151C196.76 178.005 195.875 178.224 195.11 178.808C194.345 179.392 193.888 180.194 193.74 181.216C193.591 182.237 193.801 183.137 194.368 183.915C194.935 184.692 195.722 185.154 196.728 185.3C197.735 185.446 198.621 185.228 199.386 184.643C200.15 184.06 200.607 183.256 200.756 182.235C200.904 181.213 200.694 180.314 200.127 179.537C199.56 178.759 198.773 178.297 197.767 178.151Z" fill="#1D2633"/>
<path d="M205.455 177.816L210.606 178.565C211.317 178.668 211.918 178.952 212.41 179.416C212.901 179.881 213.186 180.42 213.263 181.037C213.248 181.14 213.25 181.284 213.268 181.468C213.128 182.431 212.673 183.12 211.902 183.537C212.831 184.216 213.218 185.088 213.064 186.154C212.941 186.998 212.547 187.651 211.884 188.114C211.219 188.577 210.443 188.743 209.555 188.614L204.004 187.808L205.455 177.816ZM210.377 180.141L206.869 179.631L206.498 182.185L210.006 182.695C210.391 182.75 210.727 182.674 211.014 182.467C211.302 182.259 211.472 181.97 211.526 181.601C211.579 181.23 211.498 180.908 211.28 180.635C211.063 180.362 210.762 180.197 210.377 180.141ZM206.298 183.562L205.876 186.471L209.784 187.038C210.183 187.096 210.536 187.008 210.843 186.772C211.149 186.537 211.332 186.212 211.392 185.798C211.452 185.384 211.37 185.017 211.144 184.696C210.919 184.376 210.606 184.187 210.206 184.129L206.298 183.562Z" fill="#1D2633"/>
<path d="M220.675 179.8C222.14 180.013 223.269 180.722 224.062 181.925L224.262 180.548L225.882 180.784L224.431 190.776L222.81 190.54L223.01 189.163C221.908 190.091 220.624 190.449 219.159 190.236C217.753 190.032 216.648 189.365 215.844 188.236C215.056 187.109 214.771 185.798 214.988 184.302C215.201 182.837 215.846 181.669 216.925 180.798C218.033 179.931 219.283 179.598 220.675 179.8ZM222.886 182.842C222.348 182.069 221.591 181.611 220.614 181.47C219.637 181.328 218.78 181.551 218.045 182.139C217.293 182.741 216.844 183.544 216.698 184.55C216.551 185.557 216.753 186.456 217.304 187.246C217.841 188.02 218.599 188.477 219.575 188.619C220.552 188.761 221.408 188.538 222.144 187.949C222.896 187.348 223.345 186.545 223.492 185.537C223.638 184.531 223.436 183.633 222.886 182.842Z" fill="#1D2633"/>
<path fill-rule="evenodd" clip-rule="evenodd" d="M100.444 125.44L101.443 125.586L110.868 126.954L111.543 125.812C111.821 125.69 111.955 125.566 111.945 125.442C111.927 125.312 111.87 125.184 111.758 125.059C111.647 124.937 111.531 124.814 111.409 124.7C111.286 124.586 111.231 124.455 111.25 124.325C111.429 123.884 111.668 123.745 111.945 123.912C112.232 124.069 112.513 124.118 112.783 124.05L115.965 119.388C116.135 119.413 116.279 119.376 116.39 119.308C116.5 119.224 116.576 119.014 116.622 118.695C116.638 118.589 116.571 118.487 116.411 118.396C116.253 118.3 116.088 118.254 115.923 118.265C115.749 118.262 115.602 118.34 115.479 118.486C115.365 118.634 115.361 118.911 115.464 119.315C115.115 119.621 114.733 119.931 114.333 120.243C113.934 120.562 113.514 120.812 113.077 121.013C112.635 121.208 112.172 121.325 111.7 121.352C111.233 121.382 110.729 121.259 110.208 120.986L110.52 118.844L113.726 119.31C113.917 119.338 113.958 119.19 113.827 118.87C113.702 118.543 113.537 118.247 113.323 117.97C113.178 117.776 113.116 117.474 113.117 117.055C113.124 116.62 113.189 116.168 113.317 115.674C113.449 115.184 113.63 114.701 113.885 114.229C114.138 113.755 114.467 113.377 114.882 113.112L111.425 112.609L111.974 108.833C111.981 108.783 112.04 108.689 112.152 108.556C112.275 108.417 112.373 108.281 112.449 108.146C112.53 108.006 112.534 107.864 112.467 107.731C112.398 107.6 112.193 107.511 111.825 107.457C111.497 107.41 111.315 107.464 111.292 107.621C111.268 107.788 111.278 107.988 111.333 108.229C111.38 108.473 111.433 108.72 111.47 108.996C111.521 109.265 111.474 109.484 111.334 109.658L108.372 109.228L108.989 110.268L107.841 110.849L111.092 111.321L110.916 112.536L107.665 112.063C107.649 112.173 107.685 112.255 107.78 112.306C107.875 112.355 107.905 112.437 107.89 112.546C107.647 112.865 107.398 113.244 107.157 113.661C106.912 114.078 106.709 114.5 106.539 114.939C106.38 115.366 106.295 115.799 106.29 116.24C106.285 116.688 106.408 117.112 106.653 117.535C106.732 117.798 106.645 117.946 106.405 117.973C106.158 118.008 106.024 118.076 106.007 118.189L108.009 118.479L105.66 120.578L105.461 120.549C105.279 120.158 105.096 119.729 104.898 119.249C104.699 118.761 104.431 118.316 104.084 117.91C104.16 117.782 104.254 117.727 104.374 117.744C104.479 117.76 104.599 117.781 104.719 117.812C104.847 117.842 104.975 117.857 105.101 117.85C105.231 117.837 105.328 117.75 105.416 117.564C105.037 116.434 105.024 115.275 105.346 114.081C105.677 112.887 106.343 111.871 107.349 111.025L107.089 110.739L103.418 110.206L103.842 107.283C103.877 107.043 103.967 106.902 104.12 106.849C104.269 106.806 104.366 106.64 104.404 106.379C104.456 106.021 104.282 105.822 103.892 105.766C103.502 105.709 103.289 105.852 103.237 106.21C103.215 106.367 103.258 106.558 103.363 106.784C103.476 107.001 103.37 107.214 103.061 107.426L100.108 106.997L100.732 107.909L99.8615 108.694L103.06 109.159L102.918 110.133L99.4668 109.632C99.3902 109.726 99.4155 109.824 99.5328 109.902C99.6482 109.991 99.7911 110.067 99.9455 110.132C100.108 110.198 100.241 110.262 100.344 110.312C100.447 110.375 100.459 110.436 100.354 110.507C99.5165 111.069 98.9075 111.651 98.533 112.26C98.1606 112.869 97.928 113.447 97.8313 113.982C97.7431 114.519 97.7325 115.011 97.8095 115.471C97.8789 115.922 97.964 116.257 98.0412 116.493C98.0503 116.664 97.9104 116.815 97.6322 116.972L99.3784 117.226L97.2851 119.361C97.089 118.968 96.8455 118.566 96.5693 118.142C96.2964 117.712 96.0682 117.307 95.8916 116.928C95.9074 116.819 96.0938 116.773 96.4452 116.779C96.8026 116.786 96.93 116.732 96.8379 116.609C96.4363 116.247 96.2209 115.778 96.2063 115.198C96.1908 114.613 96.2869 114.033 96.5014 113.458C96.7155 112.887 97.0105 112.378 97.3882 111.928C97.7662 111.485 98.1704 111.232 98.6051 111.155L98.5264 110.816L95.2738 110.344L95.8095 106.656C95.8291 106.521 95.924 106.413 96.0913 106.308C96.2641 106.21 96.3034 106.077 96.2127 105.93C96.2514 105.664 96.0246 105.492 95.5208 105.419C95.257 105.487 95.101 105.593 95.0677 105.731C95.0372 105.854 95.0395 106.016 95.0864 106.207C95.134 106.385 95.1596 106.573 95.1795 106.752C95.1947 106.931 95.1333 107.11 94.9958 107.285L91.7422 106.812L92.3554 107.851L91.4655 108.718L94.7191 109.191L94.5665 110.241L90.7723 109.69C90.7535 109.819 90.8179 109.955 90.964 110.088C91.1218 110.225 91.3692 110.426 91.7348 110.697C91.155 110.976 90.6701 111.354 90.2866 111.851C89.8991 112.345 89.7171 112.858 89.7215 113.378L87.1699 114.79C87.0848 114.662 87.0652 114.509 87.1181 114.305C87.1806 114.104 87.1459 113.954 87.0152 113.863C86.8335 113.72 86.626 113.707 86.3643 113.809C86.1043 113.898 85.9539 114.049 85.8988 114.232C85.8024 114.521 85.8578 114.736 86.0776 114.884C86.2992 115.017 86.426 115.174 86.4562 115.349L90.5306 124L100.444 125.44ZM103.803 121.342C103.513 121.24 103.371 121.127 103.391 120.988C103.5 121.003 103.627 120.991 103.754 120.945C103.89 120.889 104.016 120.947 104.137 121.096C104.211 121.358 104.106 121.444 103.803 121.342ZM103.039 120.197C103.292 119.981 103.533 120.016 103.737 120.299L103.426 120.749L103.039 120.197ZM106.39 124.361L104.469 124.082L104.61 123.112L106.531 123.391L106.39 124.361ZM109.453 120.876C108.926 120.8 108.527 120.861 108.275 121.063C108.016 121.257 107.871 121.449 107.844 121.634L106.978 121.509L109.765 118.734L109.453 120.876ZM106.2 120.656L108.471 118.547L109.265 118.662L106.596 121.453C106.444 121.574 106.282 121.511 106.108 121.287C105.948 121.056 105.979 120.843 106.2 120.656ZM105.637 121.314C105.613 121.479 105.446 121.533 105.15 121.472C104.842 121.417 104.702 121.321 104.722 121.181C104.847 121.068 105.043 121.019 105.301 121.043C105.548 121.063 105.66 121.153 105.637 121.314ZM104.964 120.675L104.214 120.566L104.278 120.125C104.388 120.141 104.539 120.188 104.728 120.25C104.919 120.324 104.994 120.47 104.964 120.675ZM104.246 119.197C104.384 119.396 104.498 119.565 104.591 119.721C104.463 119.81 104.342 119.82 104.208 119.75C104.076 119.673 103.952 119.628 103.837 119.611C103.597 119.35 103.536 119.166 103.674 119.045C103.917 118.946 104.105 118.988 104.246 119.197ZM103.543 117.831C103.729 117.967 103.796 118.206 103.743 118.564C103.59 118.79 103.392 118.763 103.155 118.5C102.907 118.225 102.804 117.974 102.84 117.729C103.13 117.656 103.371 117.69 103.543 117.831ZM102.67 118.899C102.798 118.783 102.923 118.816 103.031 119.02C103.15 119.216 103.253 119.385 103.344 119.54C102.539 119.643 102.306 119.428 102.67 118.899ZM102.898 121.167L102.352 121.088L102.465 120.312L102.898 121.167ZM101.606 122.675L103.355 122.929L103.214 123.9L101.466 123.646L101.606 122.675ZM95.4203 119.998C95.1054 119.927 94.9682 119.764 95.003 119.525C95.1133 119.541 95.2747 119.537 95.4733 119.513C95.6778 119.484 95.8287 119.618 95.931 119.904C95.9107 120.044 95.7458 120.069 95.4203 119.998ZM100.012 123.435L98.5082 123.216L98.6492 122.246L100.153 122.464L100.012 123.435ZM101.138 120.661L99.0183 120.353L101.567 117.711L101.138 120.661ZM99.9599 117.311L101.131 117.48L98.1498 120.478L97.6648 119.7L99.9599 117.311ZM97.4089 122.066L97.2679 123.036L95.5131 122.781L95.654 121.811L97.4089 122.066ZM97.18 120.085C96.8962 120.296 96.6414 120.259 96.4317 119.977C96.587 119.868 96.7546 119.822 96.9374 119.848C97.1243 119.875 97.1986 119.957 97.18 120.085ZM96.5368 119.253C96.5019 119.493 96.3327 119.469 96.0362 119.18L96.0721 118.933C96.4035 118.981 96.5605 119.09 96.5368 119.253ZM95.4628 117.852C95.7094 117.888 95.8557 117.968 95.8977 118.086C95.9384 118.2 96.0152 118.333 96.136 118.493C95.9 118.566 95.652 118.508 95.4184 118.3C95.1775 118.098 95.1906 117.953 95.4628 117.852ZM95.2857 119.071L94.5742 118.968L94.6101 118.72C94.7231 118.737 94.8728 118.736 95.0526 118.725C95.2467 118.713 95.3217 118.824 95.2857 119.071ZM94.35 116.704L95.3908 116.855L95.3023 117.464L94.2616 117.313L94.35 116.704ZM94.2097 117.67C94.4825 117.71 94.6471 117.793 94.6855 117.911C94.725 118.024 94.7937 118.156 94.8839 118.311C94.7582 118.4 94.6367 118.41 94.5175 118.343C94.4015 118.268 94.2749 118.222 94.1325 118.202L94.2097 117.67ZM94.3384 119.405C94.4422 119.466 94.4877 119.563 94.469 119.692C94.4488 119.832 94.3533 119.856 94.1824 119.776C94.0091 119.695 93.9487 119.467 94.0045 119.083C94.1264 119.244 94.2388 119.355 94.3384 119.405ZM94.1921 121.599L94.0511 122.569L92.2201 122.303L92.3611 121.333L94.1921 121.599ZM93.0191 119.481L91.2249 119.221L93.3359 117.3L93.0191 119.481ZM87.9717 116.958C87.7033 116.432 87.5422 115.863 87.4966 115.252L89.7058 114.043C89.6337 114.172 89.6009 114.337 89.6173 114.543C89.6288 114.76 89.6514 114.953 89.6777 115.154C89.7086 115.353 89.6875 115.523 89.6233 115.685C89.5538 115.84 89.4064 115.927 89.1841 115.954L91.1374 116.237L88.8385 118.333C88.5215 117.934 88.2351 117.477 87.9717 116.958ZM89.2924 118.695L91.7593 116.328L93.0969 116.522L90.5118 119.117L89.2924 118.695Z" fill="#F0AE27"/>
<path fill-rule="evenodd" clip-rule="evenodd" d="M120.324 138.106C114.478 132.154 108.166 131.169 98.9224 135.986C95.7681 131.987 85.073 124.556 76.2949 132.699C67.5139 140.841 71.499 151.763 73.3853 156.214C75.2716 160.668 82.745 171.524 92.3354 177.805C102.862 174.658 111.44 168.328 117.302 162.378C123.172 156.434 126.172 144.053 120.324 138.106ZM110.165 165.006C106.035 169.195 99.9954 173.65 92.5878 175.864C85.8335 171.444 80.572 163.801 79.2439 160.663C77.9156 157.533 75.112 149.845 81.2904 144.113C87.4713 138.379 95.0015 143.612 97.2248 146.428C103.73 143.033 108.176 143.729 112.289 147.919C116.404 152.104 114.295 160.823 110.165 165.006Z" fill="#F0AE27"/>
<path fill-rule="evenodd" clip-rule="evenodd" d="M102.245 130.39C102.062 131.648 100.897 132.52 99.6358 132.337C98.379 132.155 97.5086 130.987 97.6912 129.729C97.8741 128.47 99.0405 127.601 100.297 127.784C101.558 127.967 102.428 129.131 102.245 130.39Z" fill="#F0AE27"/>
<path d="M403.883 176.545L389.193 170.4L383.048 185.09L397.738 191.235L403.883 176.545Z" fill="#00FFAF"/>
<path d="M422.317 132.475L407.627 126.331L401.482 141.02L416.172 147.165L422.317 132.475Z" fill="#00FFAF"/>
<path d="M434.607 103.096L419.917 96.9507L413.772 111.641L428.462 117.785L434.607 103.096Z" fill="#00FFAF"/>
<path d="M419.917 96.9505L405.227 90.8057L399.082 105.496L413.772 111.64L419.917 96.9505Z" fill="#00FFAF"/>
<path d="M426.062 82.2605L411.372 76.1157L405.227 90.8056L419.917 96.9505L426.062 82.2605Z" fill="#00FFAF"/>
<path d="M397.738 191.235L383.048 185.09L376.903 199.78L391.593 205.925L397.738 191.235Z" fill="#00FFAF"/>
<path d="M416.172 147.165L401.482 141.02L395.337 155.71L410.027 161.855L416.172 147.165Z" fill="#00FFAF"/>
<path d="M410.027 161.855L395.338 155.71L389.193 170.4L403.883 176.545L410.027 161.855Z" fill="#00FFAF"/>
<path d="M383.048 185.09L368.358 178.945L362.213 193.635L376.903 199.78L383.048 185.09Z" fill="#00FFAF"/>
<path d="M376.903 199.78L362.213 193.635L356.068 208.325L370.758 214.47L376.903 199.78Z" fill="#00FFAF"/>
<path d="M411.371 76.116L396.682 69.9712L390.537 84.6611L405.227 90.8059L411.371 76.116Z" fill="#00FFAF"/>
<path d="M362.213 193.635L347.523 187.49L341.378 202.18L356.068 208.325L362.213 193.635Z" fill="#00FFAF"/>
<path d="M396.682 69.971L381.992 63.8262L375.847 78.5161L390.537 84.6609L396.682 69.971Z" fill="#00FFAF"/>
<path d="M347.523 187.49L332.833 181.345L326.689 196.035L341.378 202.18L347.523 187.49Z" fill="#00FFAF"/>
<path d="M381.992 63.8265L367.302 57.6816L361.157 72.3716L375.847 78.5164L381.992 63.8265Z" fill="#00FFAF"/>
<path d="M332.833 181.345L318.144 175.2L311.999 189.89L326.689 196.035L332.833 181.345Z" fill="#00FFAF"/>
<path d="M367.302 57.6814L352.612 51.5366L346.467 66.2265L361.157 72.3714L367.302 57.6814Z" fill="#00FFAF"/>
<path d="M318.144 175.2L303.454 169.056L297.309 183.746L311.999 189.89L318.144 175.2Z" fill="#00FFAF"/>
<path d="M352.612 51.5369L337.922 45.3921L331.777 60.082L346.467 66.2268L352.612 51.5369Z" fill="#00FFAF"/>
<path d="M303.454 169.055L288.764 162.911L282.619 177.601L297.309 183.745L303.454 169.055Z" fill="#00FFAF"/>
<path d="M337.922 45.3919L323.232 39.2471L317.087 53.937L331.777 60.0818L337.922 45.3919Z" fill="#00FFAF"/>
<path d="M288.764 162.911L274.074 156.766L267.929 171.456L282.619 177.601L288.764 162.911Z" fill="#00FFAF"/>
<path d="M323.232 39.2474L308.542 33.1025L302.397 47.7925L317.087 53.9373L323.232 39.2474Z" fill="#00FFAF"/>
<path d="M274.074 156.766L259.384 150.621L253.239 165.311L267.929 171.456L274.074 156.766Z" fill="#00FFAF"/>
<path d="M308.542 33.1023L293.852 26.9575L287.707 41.6474L302.397 47.7923L308.542 33.1023Z" fill="#00FFAF"/>
<path d="M259.384 150.621L244.694 144.477L238.549 159.166L253.239 165.311L259.384 150.621Z" fill="#00FFAF"/>
<path d="M293.852 26.9578L279.162 20.813L273.017 35.5029L287.707 41.6477L293.852 26.9578Z" fill="#00FFAF"/>
<path d="M244.694 144.476L230.004 138.332L223.859 153.021L238.549 159.166L244.694 144.476Z" fill="#00FFAF"/>
<path d="M279.162 20.8128L264.472 14.668L258.327 29.3579L273.017 35.5027L279.162 20.8128Z" fill="#00FFAF"/>
<path d="M230.004 138.332L215.314 132.187L209.169 146.877L223.859 153.022L230.004 138.332Z" fill="#00FFAF"/>
<path d="M337.975 45.4139L323.285 39.269L317.14 53.959L331.83 60.1038L337.975 45.4139Z" fill="#00FFAF"/>
<path d="M288.816 162.933L274.126 156.788L267.982 171.478L282.672 177.623L288.816 162.933Z" fill="#00FFAF"/>
<path d="M323.285 39.2693L308.595 33.1245L302.45 47.8144L317.14 53.9592L323.285 39.2693Z" fill="#00FFAF"/>
<path d="M274.127 156.788L259.437 150.643L253.292 165.333L267.982 171.478L274.127 156.788Z" fill="#00FFAF"/>
<path d="M308.595 33.1243L293.905 26.9795L287.76 41.6694L302.45 47.8142L308.595 33.1243Z" fill="#00FFAF"/>
<path d="M259.437 150.643L244.747 144.499L238.602 159.188L253.292 165.333L259.437 150.643Z" fill="#00FFAF"/>
<path d="M293.905 26.9798L279.215 20.835L273.07 35.5249L287.76 41.6697L293.905 26.9798Z" fill="#00FFAF"/>
<path d="M287.76 41.6697L273.07 35.5249L266.925 50.2148L281.615 56.3596L287.76 41.6697Z" fill="#00FFAF"/>
<path d="M273.07 35.5247L258.38 29.3799L252.236 44.0698L266.925 50.2146L273.07 35.5247Z" fill="#00FFAF"/>
<path d="M260.78 64.9046L246.091 58.7598L239.946 73.4497L254.636 79.5945L260.78 64.9046Z" fill="#00FFAF"/>
<path d="M428.462 117.785L413.772 111.641L407.627 126.331L422.317 132.475L428.462 117.785Z" fill="#00FFAF"/>
<path d="M266.926 50.2146L252.236 44.0698L246.091 58.7597L260.781 64.9046L266.926 50.2146Z" fill="#00FFAF"/>
<path d="M254.636 79.5945L239.946 73.4497L233.801 88.1396L248.491 94.2844L254.636 79.5945Z" fill="#00FFAF"/>
<path d="M248.491 94.284L233.801 88.1392L227.656 102.829L242.346 108.974L248.491 94.284Z" fill="#00FFAF"/>
<path d="M244.747 144.498L230.057 138.354L223.912 153.043L238.602 159.188L244.747 144.498Z" fill="#00FFAF"/>
<path d="M250.891 129.809L236.201 123.664L230.057 138.354L244.747 144.499L250.891 129.809Z" fill="#00FFAF"/>
<path d="M236.202 123.664L221.512 117.519L215.367 132.209L230.057 138.354L236.202 123.664Z" fill="#00FFAF"/>
<path d="M242.346 108.974L227.656 102.829L221.512 117.519L236.201 123.664L242.346 108.974Z" fill="#00FFAF"/>
<path d="M395.39 155.732L380.7 149.587L374.556 164.277L389.245 170.422L395.39 155.732Z" fill="#1D2633"/>
<path d="M419.969 96.9725L405.28 90.8276L399.135 105.518L413.825 111.662L419.969 96.9725Z" fill="#1D2633"/>
<path d="M426.114 82.283L411.424 76.1382L405.279 90.8281L419.969 96.9729L426.114 82.283Z" fill="#1D2633"/>
<path d="M411.424 76.138L396.734 69.9932L390.59 84.6831L405.28 90.8279L411.424 76.138Z" fill="#1D2633"/>
<path d="M417.569 61.448L402.879 55.3032L396.734 69.9931L411.424 76.138L417.569 61.448Z" fill="#1D2633"/>
<path d="M389.245 170.422L374.556 164.277L368.411 178.967L383.101 185.112L389.245 170.422Z" fill="#1D2633"/>
<path d="M407.68 126.352L392.99 120.208L386.845 134.897L401.535 141.042L407.68 126.352Z" fill="#1D2633"/>
<path d="M401.535 141.042L386.845 134.897L380.701 149.587L395.39 155.732L401.535 141.042Z" fill="#1D2633"/>
<path d="M380.7 149.587L366.01 143.442L359.866 158.132L374.556 164.277L380.7 149.587Z" fill="white"/>
<path d="M405.28 90.8279L390.59 84.6831L384.445 99.373L399.135 105.518L405.28 90.8279Z" fill="white"/>
<path d="M392.99 120.208L378.3 114.063L372.155 128.753L386.845 134.898L392.99 120.208Z" fill="white"/>
<path d="M386.845 134.897L372.155 128.752L366.011 143.442L380.7 149.587L386.845 134.897Z" fill="white"/>
<path d="M374.556 164.277L359.866 158.132L353.721 172.822L368.411 178.967L374.556 164.277Z" fill="#1D2633"/>
<path d="M368.411 178.967L353.721 172.822L347.576 187.512L362.266 193.657L368.411 178.967Z" fill="#1D2633"/>
<path d="M402.879 55.3035L388.189 49.1587L382.044 63.8486L396.734 69.9934L402.879 55.3035Z" fill="#1D2633"/>
<path d="M353.721 172.822L339.031 166.677L332.886 181.367L347.576 187.512L353.721 172.822Z" fill="#1D2633"/>
<path d="M388.189 49.1585L373.499 43.0137L367.355 57.7036L382.044 63.8484L388.189 49.1585Z" fill="#1D2633"/>
<path d="M339.031 166.678L324.341 160.533L318.196 175.223L332.886 181.367L339.031 166.678Z" fill="#1D2633"/>
<path d="M373.499 43.014L358.809 36.8691L352.665 51.5591L367.355 57.7039L373.499 43.014Z" fill="#1D2633"/>
<path d="M324.341 160.533L309.651 154.388L303.506 169.078L318.196 175.222L324.341 160.533Z" fill="#1D2633"/>
<path d="M358.809 36.8689L344.12 30.7241L337.975 45.414L352.665 51.5589L358.809 36.8689Z" fill="#1D2633"/>
<path d="M309.651 154.388L294.961 148.243L288.816 162.933L303.506 169.078L309.651 154.388Z" fill="#1D2633"/>
<path d="M344.119 30.7244L329.43 24.5796L323.285 39.2695L337.975 45.4143L344.119 30.7244Z" fill="#1D2633"/>
<path d="M294.961 148.243L280.271 142.098L274.127 156.788L288.817 162.933L294.961 148.243Z" fill="#1D2633"/>
<path d="M329.429 24.5794L314.74 18.4346L308.595 33.1245L323.285 39.2693L329.429 24.5794Z" fill="#1D2633"/>
<path d="M280.271 142.098L265.581 135.954L259.436 150.644L274.126 156.788L280.271 142.098Z" fill="#1D2633"/>
<path d="M314.74 18.4344L300.05 12.2896L293.905 26.9795L308.595 33.1243L314.74 18.4344Z" fill="#1D2633"/>
<path d="M265.582 135.953L250.892 129.809L244.747 144.499L259.437 150.643L265.582 135.953Z" fill="#1D2633"/>
<path d="M300.05 12.2898L285.36 6.14502L279.215 20.8349L293.905 26.9798L300.05 12.2898Z" fill="#1D2633"/>
<path d="M250.891 129.809L236.201 123.664L230.057 138.354L244.747 144.499L250.891 129.809Z" fill="#1D2633"/>
<path d="M285.36 6.14482L270.67 0L264.525 14.6899L279.215 20.8347L285.36 6.14482Z" fill="#1D2633"/>
<path d="M236.202 123.664L221.512 117.519L215.367 132.209L230.057 138.354L236.202 123.664Z" fill="#1D2633"/>
<path d="M396.734 69.9934L382.044 63.8486L375.899 78.5386L390.589 84.6834L396.734 69.9934Z" fill="white"/>
<path d="M382.045 63.8484L367.355 57.7036L361.21 72.3935L375.9 78.5383L382.045 63.8484Z" fill="white"/>
<path d="M367.354 57.7034L352.665 51.5586L346.52 66.2485L361.21 72.3933L367.354 57.7034Z" fill="white"/>
<path d="M352.665 51.5589L337.975 45.4141L331.83 60.104L346.52 66.2488L352.665 51.5589Z" fill="white"/>
<path d="M337.975 45.4139L323.285 39.269L317.14 53.959L331.83 60.1038L337.975 45.4139Z" fill="white"/>
<path d="M323.285 39.2693L308.595 33.1245L302.45 47.8144L317.14 53.9592L323.285 39.2693Z" fill="white"/>
<path d="M308.595 33.1243L293.905 26.9795L287.76 41.6694L302.45 47.8142L308.595 33.1243Z" fill="white"/>
<path d="M293.905 26.9798L279.215 20.835L273.07 35.5249L287.76 41.6697L293.905 26.9798Z" fill="white"/>
<path d="M279.215 20.8348L264.525 14.6899L258.38 29.3799L273.07 35.5247L279.215 20.8348Z" fill="#1D2633"/>
<path d="M264.525 14.6902L249.835 8.54541L243.69 23.2353L258.38 29.3801L264.525 14.6902Z" fill="#1D2633"/>
<path d="M390.59 84.6829L375.9 78.5381L369.755 93.228L384.445 99.3728L390.59 84.6829Z" fill="white"/>
<path d="M375.9 78.5384L361.21 72.3936L355.065 87.0835L369.755 93.2283L375.9 78.5384Z" fill="white"/>
<path d="M361.21 72.3934L346.52 66.2485L340.375 80.9385L355.065 87.0833L361.21 72.3934Z" fill="white"/>
<path d="M346.52 66.2488L331.83 60.104L325.685 74.7939L340.375 80.9387L346.52 66.2488Z" fill="white"/>
<path d="M331.83 60.1038L317.14 53.959L310.995 68.6489L325.685 74.7937L331.83 60.1038Z" fill="white"/>
<path d="M317.14 53.9593L302.45 47.8145L296.305 62.5044L310.995 68.6492L317.14 53.9593Z" fill="white"/>
<path d="M302.45 47.8143L287.76 41.6694L281.615 56.3594L296.305 62.5042L302.45 47.8143Z" fill="white"/>
<path d="M287.76 41.6697L273.07 35.5249L266.925 50.2148L281.615 56.3596L287.76 41.6697Z" fill="white"/>
<path d="M273.07 35.5247L258.38 29.3799L252.236 44.0698L266.925 50.2146L273.07 35.5247Z" fill="white"/>
<path d="M258.38 29.3797L243.69 23.2349L237.546 37.9248L252.236 44.0696L258.38 29.3797Z" fill="#1D2633"/>
<path d="M378.3 114.063L363.61 107.918L357.465 122.608L372.155 128.753L378.3 114.063Z" fill="white"/>
<path d="M363.61 107.918L348.92 101.773L342.775 116.463L357.465 122.608L363.61 107.918Z" fill="white"/>
<path d="M348.92 101.773L334.23 95.6284L328.086 110.318L342.775 116.463L348.92 101.773Z" fill="white"/>
<path d="M334.23 95.6282L319.541 89.4834L313.396 104.173L328.086 110.318L334.23 95.6282Z" fill="white"/>
<path d="M319.54 89.4837L304.85 83.3389L298.706 98.0288L313.396 104.174L319.54 89.4837Z" fill="white"/>
<path d="M304.851 83.3387L290.161 77.1938L284.016 91.8838L298.706 98.0286L304.851 83.3387Z" fill="white"/>
<path d="M290.16 77.1941L275.471 71.0493L269.326 85.7392L284.016 91.8841L290.16 77.1941Z" fill="white"/>
<path d="M275.471 71.0491L260.781 64.9043L254.636 79.5942L269.326 85.739L275.471 71.0491Z" fill="white"/>
<path d="M260.78 64.9046L246.091 58.7598L239.946 73.4497L254.636 79.5945L260.78 64.9046Z" fill="white"/>
<path d="M246.091 58.7596L231.401 52.6147L225.256 67.3047L239.946 73.4495L246.091 58.7596Z" fill="#1D2633"/>
<path d="M372.155 128.753L357.465 122.608L351.321 137.298L366.011 143.443L372.155 128.753Z" fill="white"/>
<path d="M357.465 122.608L342.775 116.463L336.631 131.153L351.32 137.298L357.465 122.608Z" fill="white"/>
<path d="M342.775 116.463L328.086 110.318L321.941 125.008L336.631 131.153L342.775 116.463Z" fill="white"/>
<path d="M328.085 110.318L313.396 104.173L307.251 118.863L321.941 125.008L328.085 110.318Z" fill="white"/>
<path d="M313.396 104.174L298.706 98.0288L292.561 112.719L307.251 118.864L313.396 104.174Z" fill="white"/>
<path d="M298.706 98.0286L284.016 91.8838L277.871 106.574L292.561 112.719L298.706 98.0286Z" fill="white"/>
<path d="M284.016 91.8841L269.326 85.7393L263.181 100.429L277.871 106.574L284.016 91.8841Z" fill="white"/>
<path d="M269.326 85.7391L254.636 79.5942L248.491 94.2842L263.181 100.429L269.326 85.7391Z" fill="white"/>
<path d="M254.636 79.5945L239.946 73.4497L233.801 88.1396L248.491 94.2844L254.636 79.5945Z" fill="white"/>
<path d="M239.946 73.4495L225.256 67.3047L219.111 81.9946L233.801 88.1394L239.946 73.4495Z" fill="#1D2633"/>
<path d="M366.011 143.443L351.321 137.298L345.176 151.988L359.866 158.133L366.011 143.443Z" fill="white"/>
<path d="M351.321 137.298L336.631 131.153L330.486 145.843L345.176 151.988L351.321 137.298Z" fill="white"/>
<path d="M336.631 131.153L321.941 125.008L315.796 139.698L330.486 145.843L336.631 131.153Z" fill="white"/>
<path d="M321.941 125.008L307.251 118.863L301.106 133.553L315.796 139.698L321.941 125.008Z" fill="white"/>
<path d="M307.251 118.864L292.561 112.719L286.416 127.409L301.106 133.553L307.251 118.864Z" fill="white"/>
<path d="M292.561 112.719L277.871 106.574L271.726 121.264L286.416 127.408L292.561 112.719Z" fill="white"/>
<path d="M277.871 106.574L263.181 100.429L257.036 115.119L271.726 121.263L277.871 106.574Z" fill="white"/>
<path d="M263.181 100.429L248.491 94.2842L242.346 108.974L257.036 115.119L263.181 100.429Z" fill="white"/>
<path d="M248.491 94.284L233.801 88.1392L227.656 102.829L242.346 108.974L248.491 94.284Z" fill="white"/>
<path d="M233.801 88.1394L219.111 81.9946L212.967 96.6845L227.656 102.829L233.801 88.1394Z" fill="#1D2633"/>
<path d="M359.866 158.133L345.176 151.988L339.031 166.678L353.721 172.823L359.866 158.133Z" fill="white"/>
<path d="M345.176 151.988L330.486 145.843L324.341 160.533L339.031 166.678L345.176 151.988Z" fill="white"/>
<path d="M330.486 145.843L315.796 139.698L309.651 154.388L324.341 160.532L330.486 145.843Z" fill="white"/>
<path d="M315.796 139.698L301.106 133.553L294.961 148.243L309.651 154.388L315.796 139.698Z" fill="white"/>
<path d="M301.106 133.553L286.416 127.408L280.271 142.098L294.961 148.243L301.106 133.553Z" fill="white"/>
<path d="M286.416 127.408L271.726 121.264L265.581 135.954L280.271 142.098L286.416 127.408Z" fill="white"/>
<path d="M271.726 121.263L257.036 115.119L250.892 129.809L265.581 135.953L271.726 121.263Z" fill="white"/>
<path d="M257.036 115.119L242.346 108.974L236.201 123.664L250.891 129.809L257.036 115.119Z" fill="white"/>
<path d="M242.346 108.974L227.656 102.829L221.512 117.519L236.202 123.664L242.346 108.974Z" fill="#1D2633"/>
<path d="M227.656 102.829L212.967 96.6846L206.822 111.374L221.512 117.519L227.656 102.829Z" fill="#1D2633"/>
<path d="M413.825 111.662L399.135 105.518L392.99 120.207L407.68 126.352L413.825 111.662Z" fill="#1D2633"/>
<path d="M399.135 105.518L384.445 99.373L378.3 114.063L392.99 120.208L399.135 105.518Z" fill="white"/>
<path d="M384.445 99.3728L369.755 93.228L363.61 107.918L378.3 114.063L384.445 99.3728Z" fill="white"/>
<path d="M369.755 93.2283L355.065 87.0835L348.92 101.773L363.61 107.918L369.755 93.2283Z" fill="white"/>
<path d="M355.065 87.0833L340.375 80.9385L334.23 95.6284L348.92 101.773L355.065 87.0833Z" fill="white"/>
<path d="M340.375 80.9388L325.685 74.7939L319.54 89.4839L334.23 95.6287L340.375 80.9388Z" fill="white"/>
<path d="M325.685 74.7937L310.995 68.6489L304.85 83.3388L319.54 89.4837L325.685 74.7937Z" fill="white"/>
<path d="M310.995 68.6487L296.305 62.5039L290.161 77.1938L304.851 83.3386L310.995 68.6487Z" fill="white"/>
<path d="M296.305 62.5042L281.615 56.3594L275.471 71.0493L290.16 77.1941L296.305 62.5042Z" fill="white"/>
<path d="M281.615 56.3592L266.926 50.2144L260.781 64.9043L275.471 71.0491L281.615 56.3592Z" fill="white"/>
<path d="M266.926 50.2146L252.236 44.0698L246.091 58.7597L260.781 64.9046L266.926 50.2146Z" fill="white"/>
<path d="M252.236 44.0696L237.546 37.9248L231.401 52.6147L246.091 58.7595L252.236 44.0696Z" fill="#1D2633"/>
<path d="M355.232 80.9479C354.965 80.298 354.968 79.571 355.239 78.9245L358.554 70.9992C359.067 69.7722 358.489 68.362 357.262 67.8488L350.04 64.8278C348.813 64.3146 347.403 64.8928 346.89 66.1203L343.873 73.3312C343.36 74.5583 343.938 75.9684 345.166 76.4816L353.085 79.7946C353.732 80.0715 354.245 80.5964 354.503 81.2487C354.769 81.8981 354.767 82.6257 354.497 83.2717L335.396 128.935C334.883 130.162 335.46 131.572 336.688 132.086L343.91 135.107C345.136 135.62 346.547 135.041 347.06 133.814L365.87 88.8469C366.383 87.6198 365.804 86.2096 364.578 85.6965L356.655 82.3825C356.009 82.112 355.497 81.5934 355.232 80.9479Z" fill="#1D2633"/>
<path d="M290.238 83.9383C290.886 83.6746 291.61 83.679 292.254 83.9486L311.851 92.1458C313.073 92.6571 314.48 92.0804 314.991 90.8582L318.315 82.9119C318.583 82.2708 319.096 81.7635 319.738 81.5003C320.387 81.2367 321.11 81.241 321.754 81.5101L329.687 84.8285C330.909 85.3397 332.316 84.763 332.827 83.5409L335.864 76.2801C336.375 75.0584 335.798 73.6517 334.576 73.141L326.661 69.8299C325.317 69.2674 324.679 67.7186 325.243 66.3714L328.562 58.4354C329.074 57.2137 328.497 55.807 327.275 55.2957L295.822 42.139C294.579 41.6195 293.153 42.2064 292.634 43.4466L289.637 50.6131C289.117 51.8563 289.704 53.2821 290.944 53.8011L323.088 67.2469C324.435 67.8104 325.072 69.3587 324.51 70.7103L320.903 79.3343C320.632 79.9803 320.118 80.4906 319.469 80.7542C318.821 81.0179 318.097 81.0135 317.454 80.7445L297.848 72.5433C296.626 72.0321 295.22 72.6092 294.709 73.8309L291.387 81.7718C291.118 82.4159 290.607 82.9246 289.961 83.1893C289.315 83.4539 288.594 83.4505 287.951 83.1815L280.002 79.8563C278.78 79.3455 277.374 79.9222 276.862 81.1439L273.834 88.3836C273.323 89.6058 273.9 91.012 275.122 91.5233L283.06 94.8441C283.704 95.1131 284.212 95.6243 284.477 96.2699C284.742 96.9159 284.739 97.6366 284.469 98.2806L281.149 106.219C280.638 107.441 281.215 108.847 282.437 109.358L313.902 122.52C315.145 123.04 316.571 122.453 317.09 121.213L320.077 114.073C320.597 112.83 320.01 111.404 318.769 110.885L286.623 97.4383C285.98 97.1688 285.468 96.6566 285.201 96.0101C284.938 95.368 284.938 94.6458 285.206 94.0047L288.824 85.3573C289.087 84.7142 289.599 84.203 290.242 83.9369L290.238 83.9383Z" fill="#1D2633"/>
<path d="M359.471 93.8036C359.395 93.8334 359.312 93.8324 359.235 93.8031L358.131 93.3412C358.055 93.3095 357.997 93.2489 357.964 93.1732C357.935 93.0961 357.936 93.014 357.965 92.9369L360.224 87.5365C360.292 87.3744 360.214 87.1849 360.052 87.1171L359.152 86.7406C358.989 86.6727 358.8 86.7504 358.732 86.9125L356.473 92.3129C356.441 92.3886 356.381 92.4467 356.305 92.4794C356.229 92.5087 356.146 92.5082 356.069 92.4789L354.965 92.017C354.889 91.9852 354.831 91.9242 354.798 91.849C354.769 91.7723 354.77 91.6893 354.799 91.6127L357.058 86.2123C357.126 86.0497 357.048 85.8607 356.886 85.7929L355.986 85.4164C355.823 85.348 355.635 85.4262 355.567 85.5883L353.349 90.8895C353.281 91.0516 353.358 91.2406 353.521 91.3085L354.523 91.7274C354.599 91.7597 354.656 91.8202 354.689 91.8959C354.719 91.9725 354.718 92.0555 354.69 92.1322L354.27 93.1346C354.202 93.2968 354.279 93.4857 354.442 93.5536L355.342 93.9301C355.504 93.9979 355.694 93.9203 355.761 93.7582L356.181 92.7562C356.212 92.6801 356.274 92.6229 356.349 92.5897C356.425 92.5604 356.508 92.5609 356.585 92.5902L357.689 93.0521C357.765 93.0839 357.823 93.1449 357.855 93.2201C357.885 93.2972 357.884 93.3793 357.855 93.4564L357.436 94.4584C357.368 94.621 357.446 94.8099 357.608 94.8783L358.508 95.2543C358.67 95.3226 358.86 95.245 358.928 95.0829L359.347 94.0805C359.379 94.0048 359.439 93.9467 359.515 93.9139C359.591 93.8846 359.674 93.8856 359.751 93.9144L360.753 94.3339C360.916 94.4017 361.104 94.3236 361.172 94.1615L363.389 88.8607C363.457 88.6981 363.38 88.5092 363.218 88.4413L362.318 88.0648C362.156 87.997 361.966 88.0746 361.898 88.2367L359.639 93.6371C359.608 93.7133 359.549 93.7719 359.477 93.806L359.471 93.8036Z" fill="white"/>
<path d="M352.014 107.102L352.445 106.071C352.508 105.922 352.438 105.751 352.289 105.689L351.365 105.302C351.216 105.24 351.045 105.31 350.983 105.459L350.556 106.48C350.525 106.553 350.468 106.609 350.398 106.638L350.368 106.65C350.297 106.682 350.213 106.681 350.144 106.649L349.116 106.218C348.967 106.156 348.796 106.226 348.734 106.375L347.12 110.235C347.057 110.384 347.127 110.554 347.276 110.617L348.297 111.044C348.37 111.074 348.426 111.132 348.455 111.202L348.467 111.232C348.499 111.303 348.498 111.386 348.466 111.456L348.039 112.476C347.977 112.625 348.046 112.796 348.195 112.858L349.119 113.245C349.268 113.307 349.439 113.237 349.501 113.088L349.928 112.068C349.959 111.994 350.016 111.938 350.087 111.909L350.116 111.897C350.188 111.866 350.271 111.866 350.34 111.899L351.361 112.325C351.509 112.387 351.68 112.318 351.743 112.169L353.352 108.322C353.414 108.173 353.344 108.002 353.195 107.94L352.182 107.516C352.109 107.486 352.053 107.428 352.025 107.358L352.012 107.328C351.984 107.255 351.983 107.175 352.016 107.106L352.014 107.102ZM350.083 111.822L350.053 111.834C349.982 111.865 349.899 111.865 349.83 111.833L348.715 111.366C348.642 111.336 348.586 111.278 348.556 111.208L348.545 111.178C348.514 111.107 348.514 111.024 348.546 110.954L350.238 106.909C350.268 106.836 350.326 106.78 350.397 106.751L350.426 106.739C350.498 106.707 350.58 106.708 350.65 106.74L351.765 107.207C351.838 107.237 351.894 107.295 351.923 107.365L351.935 107.395C351.966 107.466 351.966 107.549 351.933 107.618L350.241 111.663C350.211 111.736 350.153 111.793 350.083 111.822Z" fill="white"/>
<path d="M355.237 99.3524L355.2 99.368C355.13 99.3968 355.053 99.3953 354.982 99.366L353.952 98.9349C353.808 98.8748 353.739 98.7078 353.799 98.5638L354.806 96.1566C354.867 96.0125 354.798 95.8455 354.654 95.7855L353.712 95.3914C353.569 95.3314 353.401 95.3997 353.341 95.5438L350.448 102.459C350.388 102.603 350.457 102.77 350.601 102.83L351.542 103.224C351.686 103.284 351.853 103.216 351.914 103.072L352.969 100.55C353.029 100.406 353.196 100.337 353.34 100.397L354.373 100.83C354.444 100.859 354.498 100.916 354.527 100.983L354.542 101.02C354.572 101.091 354.57 101.167 354.541 101.238L353.497 103.734C353.437 103.878 353.505 104.045 353.649 104.105L354.591 104.499C354.737 104.56 354.902 104.491 354.962 104.347L355.969 101.94C356.029 101.796 355.96 101.629 355.816 101.569L354.78 101.135C354.71 101.106 354.657 101.05 354.626 100.982L354.611 100.945C354.583 100.874 354.583 100.798 354.613 100.727L355.081 99.6072C355.111 99.5364 355.167 99.4832 355.235 99.4534L355.272 99.4378C355.343 99.409 355.419 99.41 355.489 99.4398L356.521 99.8714C356.667 99.9324 356.831 99.8626 356.891 99.7186L357.85 97.4266C357.91 97.2825 357.843 97.116 357.699 97.056L356.756 96.6614C356.61 96.6004 356.445 96.6697 356.385 96.8138L355.388 99.1976C355.358 99.2679 355.306 99.3289 355.235 99.3577L355.237 99.3524Z" fill="white"/>
<path d="M348.086 116.495L348.504 115.496C348.572 115.333 348.494 115.144 348.332 115.076L347.445 114.705C347.283 114.637 347.094 114.715 347.026 114.877L346.608 115.877C346.576 115.953 346.515 116.01 346.44 116.043C346.363 116.073 346.28 116.071 346.203 116.043L345.203 115.624C345.042 115.557 344.852 115.634 344.785 115.797L342.523 121.202C342.455 121.364 342.533 121.554 342.695 121.621L343.583 121.993C343.744 122.06 343.934 121.983 344.001 121.82L346.303 116.318C346.335 116.242 346.396 116.185 346.471 116.152C346.548 116.122 346.63 116.123 346.708 116.152L347.81 116.613C347.885 116.645 347.942 116.706 347.976 116.781C348.005 116.858 348.004 116.941 347.975 117.018L345.67 122.528C345.603 122.69 345.68 122.879 345.842 122.947L346.729 123.318C346.891 123.386 347.081 123.308 347.149 123.146L349.41 117.74C349.478 117.578 349.4 117.389 349.237 117.321L348.238 116.903C348.162 116.871 348.105 116.81 348.072 116.735C348.046 116.656 348.05 116.572 348.085 116.498L348.086 116.495Z" fill="white"/>
<path d="M344.161 126.149L344.152 126.126C344.122 126.052 344.123 125.969 344.156 125.897L344.579 124.887C344.642 124.736 344.57 124.561 344.419 124.498L343.506 124.116C343.354 124.052 343.18 124.124 343.116 124.276L342.694 125.286C342.663 125.359 342.605 125.418 342.533 125.449L342.51 125.458C342.437 125.489 342.354 125.488 342.282 125.454L341.248 125.022C341.096 124.959 340.922 125.03 340.859 125.182L338.588 130.611C338.524 130.763 338.595 130.937 338.747 131.001L339.66 131.383C339.812 131.447 339.986 131.375 340.05 131.223L341.211 128.447L341.798 127.045L341.82 127.096C341.85 127.171 341.849 127.254 341.815 127.326L341.392 128.338C341.328 128.49 341.401 128.664 341.552 128.728L342.466 129.11C342.617 129.173 342.791 129.102 342.854 128.949L343.276 127.942C343.306 127.869 343.365 127.81 343.437 127.779L343.488 127.757L341.743 131.931C341.679 132.083 341.751 132.258 341.902 132.321L342.816 132.703C342.967 132.766 343.142 132.695 343.206 132.543L345.48 127.106C345.544 126.954 345.472 126.78 345.32 126.716L344.307 126.293C344.243 126.263 344.194 126.211 344.162 126.146L344.161 126.149ZM343.443 127.692C343.368 127.722 343.285 127.721 343.213 127.689L342.098 127.223C342.025 127.192 341.967 127.134 341.936 127.062L341.925 127.035C341.894 126.962 341.895 126.879 341.928 126.807L342.386 125.71C342.417 125.637 342.475 125.578 342.547 125.547L342.574 125.536C342.647 125.506 342.73 125.507 342.802 125.54L343.909 126.003C343.982 126.034 344.041 126.092 344.072 126.163L344.083 126.19C344.113 126.263 344.112 126.346 344.08 126.419L343.615 127.531C343.583 127.607 343.519 127.663 343.44 127.691L343.443 127.692Z" fill="white"/>
<path d="M332.939 142.279L335.044 141.767L329.655 139.513L326.675 146.638L332.063 148.892L332.56 147.704L328.711 146.094L329.474 144.27L332.758 145.643L333.253 144.458L329.969 143.084L330.698 141.342L332.939 142.279Z" fill="#1D2633"/>
<path d="M324.429 140.588L322.558 139.806L323.224 138.215L326.209 139.464L328.314 138.952L322.181 136.387L319.2 143.511L322.411 144.854C324.211 145.607 325.586 145.223 326.18 143.803C326.775 142.381 326.126 141.301 324.428 140.591L324.429 140.588ZM322.84 143.638L321.236 142.967L322.062 140.991L323.666 141.662C324.642 142.07 324.959 142.59 324.684 143.247C324.409 143.904 323.791 144.033 322.841 143.635L322.84 143.638Z" fill="#1D2633"/>
<path d="M339.404 143.591L336.471 142.364L333.49 149.489L335.026 150.131L335.87 148.113L337.265 148.697C339.136 149.479 340.711 148.983 341.369 147.41C342.027 145.837 341.274 144.375 339.4 143.592L339.404 143.591ZM337.731 147.497L336.367 146.926L337.511 144.191L338.875 144.762C339.858 145.173 340.199 145.887 339.831 146.767C339.463 147.646 338.718 147.906 337.732 147.494L337.731 147.497Z" fill="#1D2633"/>
<path d="M317.21 140.864C316.724 140.916 316.217 140.84 315.744 140.642C314.357 140.062 313.766 138.652 314.337 137.289C314.907 135.925 316.325 135.357 317.712 135.937C318.235 136.156 318.645 136.5 318.926 136.958L320.368 136.605L320.321 136.512C319.914 135.678 319.178 135.02 318.194 134.608C317.126 134.161 316.008 134.115 315.044 134.479C314.073 134.846 313.305 135.609 312.877 136.632C312.449 137.655 312.437 138.756 312.847 139.725C313.258 140.696 314.068 141.474 315.127 141.917C316.187 142.361 317.364 142.398 318.314 141.972C317.966 141.387 317.626 140.823 317.626 140.823L317.208 140.867L317.21 140.864Z" fill="#1D2633"/>
<path d="M309.304 135.184C309.455 134.823 309.572 134.454 309.653 134.085L307.986 134.491C307.969 134.53 307.952 134.572 307.935 134.612C306.886 137.121 303.99 138.311 301.478 137.26C298.966 136.209 297.779 133.315 298.83 130.803C299.881 128.291 302.775 127.104 305.287 128.154C306.24 128.552 306.999 129.215 307.521 130.024L309.027 129.657C308.356 128.411 307.266 127.377 305.859 126.788C302.591 125.422 298.831 126.964 297.464 130.232C296.097 133.499 297.639 137.259 300.907 138.626C304.175 139.993 307.934 138.451 309.301 135.183L309.304 135.184Z" fill="#1D2633"/>
<path d="M309.581 131.049C309.71 131.526 309.783 132.021 309.797 132.522L302.742 134.241L301.081 131.885L301.792 130.185L303.454 132.54L309.581 131.049Z" fill="#1D2633"/>
</svg>
