<svg width="228" height="215" viewBox="0 0 228 215" fill="none" xmlns="http://www.w3.org/2000/svg">
<path d="M197.061 176.545L182.371 170.4L176.226 185.09L190.916 191.235L197.061 176.545Z" fill="#00FFAF"/>
<path d="M215.495 132.475L200.805 126.331L194.66 141.02L209.35 147.165L215.495 132.475Z" fill="#00FFAF"/>
<path d="M227.785 103.096L213.095 96.9507L206.95 111.641L221.64 117.785L227.785 103.096Z" fill="#00FFAF"/>
<path d="M213.095 96.9505L198.405 90.8057L192.26 105.496L206.95 111.64L213.095 96.9505Z" fill="#00FFAF"/>
<path d="M219.24 82.2605L204.55 76.1157L198.405 90.8056L213.095 96.9505L219.24 82.2605Z" fill="#00FFAF"/>
<path d="M190.916 191.235L176.227 185.09L170.082 199.78L184.772 205.925L190.916 191.235Z" fill="#00FFAF"/>
<path d="M209.351 147.165L194.661 141.02L188.516 155.71L203.206 161.855L209.351 147.165Z" fill="#00FFAF"/>
<path d="M203.206 161.855L188.516 155.71L182.371 170.4L197.061 176.545L203.206 161.855Z" fill="#00FFAF"/>
<path d="M176.227 185.09L161.537 178.945L155.392 193.635L170.082 199.78L176.227 185.09Z" fill="#00FFAF"/>
<path d="M170.082 199.78L155.392 193.635L149.247 208.325L163.937 214.47L170.082 199.78Z" fill="#00FFAF"/>
<path d="M204.55 76.116L189.86 69.9712L183.715 84.6611L198.405 90.8059L204.55 76.116Z" fill="#00FFAF"/>
<path d="M155.392 193.635L140.702 187.49L134.557 202.18L149.247 208.325L155.392 193.635Z" fill="#00FFAF"/>
<path d="M189.86 69.971L175.17 63.8262L169.026 78.5161L183.716 84.6609L189.86 69.971Z" fill="#00FFAF"/>
<path d="M140.702 187.49L126.012 181.345L119.867 196.035L134.557 202.18L140.702 187.49Z" fill="#00FFAF"/>
<path d="M175.17 63.8265L160.48 57.6816L154.335 72.3716L169.025 78.5164L175.17 63.8265Z" fill="#00FFAF"/>
<path d="M126.012 181.345L111.322 175.2L105.177 189.89L119.867 196.035L126.012 181.345Z" fill="#00FFAF"/>
<path d="M160.48 57.6814L145.791 51.5366L139.646 66.2265L154.336 72.3714L160.48 57.6814Z" fill="#00FFAF"/>
<path d="M111.322 175.2L96.6323 169.056L90.4875 183.746L105.177 189.89L111.322 175.2Z" fill="#00FFAF"/>
<path d="M145.79 51.5369L131.1 45.3921L124.955 60.082L139.645 66.2268L145.79 51.5369Z" fill="#00FFAF"/>
<path d="M96.6323 169.055L81.9424 162.911L75.7976 177.601L90.4875 183.745L96.6323 169.055Z" fill="#00FFAF"/>
<path d="M131.101 45.3919L116.411 39.2471L110.266 53.937L124.956 60.0818L131.101 45.3919Z" fill="#00FFAF"/>
<path d="M81.9424 162.911L67.2524 156.766L61.1076 171.456L75.7975 177.601L81.9424 162.911Z" fill="#00FFAF"/>
<path d="M116.411 39.2474L101.721 33.1025L95.5759 47.7925L110.266 53.9373L116.411 39.2474Z" fill="#00FFAF"/>
<path d="M67.2524 156.766L52.5625 150.621L46.4177 165.311L61.1076 171.456L67.2524 156.766Z" fill="#00FFAF"/>
<path d="M101.721 33.1023L87.0308 26.9575L80.8859 41.6474L95.5759 47.7923L101.721 33.1023Z" fill="#00FFAF"/>
<path d="M52.5625 150.621L37.8726 144.477L31.7277 159.166L46.4177 165.311L52.5625 150.621Z" fill="#00FFAF"/>
<path d="M87.0307 26.9578L72.3408 20.813L66.196 35.5029L80.8859 41.6477L87.0307 26.9578Z" fill="#00FFAF"/>
<path d="M37.8725 144.476L23.1826 138.332L17.0378 153.021L31.7277 159.166L37.8725 144.476Z" fill="#00FFAF"/>
<path d="M72.3408 20.8128L57.6509 14.668L51.5061 29.3579L66.196 35.5027L72.3408 20.8128Z" fill="#00FFAF"/>
<path d="M23.1826 138.332L8.49268 132.187L2.34786 146.877L17.0378 153.022L23.1826 138.332Z" fill="#00FFAF"/>
<path d="M131.153 45.4139L116.463 39.269L110.319 53.959L125.008 60.1038L131.153 45.4139Z" fill="#00FFAF"/>
<path d="M81.9946 162.933L67.3047 156.788L61.1599 171.478L75.8498 177.623L81.9946 162.933Z" fill="#00FFAF"/>
<path d="M116.463 39.2693L101.773 33.1245L95.6281 47.8144L110.318 53.9592L116.463 39.2693Z" fill="#00FFAF"/>
<path d="M67.3052 156.788L52.6152 150.643L46.4704 165.333L61.1603 171.478L67.3052 156.788Z" fill="#00FFAF"/>
<path d="M101.773 33.1243L87.0835 26.9795L80.9387 41.6694L95.6286 47.8142L101.773 33.1243Z" fill="#00FFAF"/>
<path d="M52.6147 150.643L37.9248 144.499L31.78 159.188L46.4699 165.333L52.6147 150.643Z" fill="#00FFAF"/>
<path d="M87.083 26.9798L72.3931 20.835L66.2482 35.5249L80.9382 41.6697L87.083 26.9798Z" fill="#00FFAF"/>
<path d="M80.9385 41.6697L66.2485 35.5249L60.1037 50.2148L74.7936 56.3596L80.9385 41.6697Z" fill="#00FFAF"/>
<path d="M66.2485 35.5247L51.5586 29.3799L45.4138 44.0698L60.1037 50.2146L66.2485 35.5247Z" fill="#00FFAF"/>
<path d="M53.959 64.9046L39.269 58.7598L33.1242 73.4497L47.8141 79.5945L53.959 64.9046Z" fill="#00FFAF"/>
<path d="M221.64 117.785L206.95 111.641L200.805 126.331L215.495 132.475L221.64 117.785Z" fill="#00FFAF"/>
<path d="M60.104 50.2146L45.4141 44.0698L39.2692 58.7597L53.9592 64.9046L60.104 50.2146Z" fill="#00FFAF"/>
<path d="M47.8139 79.5945L33.124 73.4497L26.9792 88.1396L41.6691 94.2844L47.8139 79.5945Z" fill="#00FFAF"/>
<path d="M41.6694 94.284L26.9795 88.1392L20.8347 102.829L35.5246 108.974L41.6694 94.284Z" fill="#00FFAF"/>
<path d="M37.9253 144.498L23.2354 138.354L17.0905 153.043L31.7805 159.188L37.9253 144.498Z" fill="#00FFAF"/>
<path d="M44.0698 129.809L29.3799 123.664L23.2351 138.354L37.925 144.499L44.0698 129.809Z" fill="#00FFAF"/>
<path d="M29.3799 123.664L14.6899 117.519L8.54512 132.209L23.235 138.354L29.3799 123.664Z" fill="#00FFAF"/>
<path d="M35.5249 108.974L20.835 102.829L14.6901 117.519L29.3801 123.664L35.5249 108.974Z" fill="#00FFAF"/>
<path d="M188.568 155.732L173.878 149.587L167.734 164.277L182.424 170.422L188.568 155.732Z" fill="#1D2633"/>
<path d="M213.148 96.9725L198.458 90.8276L192.313 105.518L207.003 111.662L213.148 96.9725Z" fill="#1D2633"/>
<path d="M219.292 82.283L204.603 76.1382L198.458 90.8281L213.148 96.9729L219.292 82.283Z" fill="#1D2633"/>
<path d="M204.603 76.138L189.913 69.9932L183.768 84.6831L198.458 90.8279L204.603 76.138Z" fill="#1D2633"/>
<path d="M210.748 61.448L196.058 55.3032L189.913 69.9931L204.603 76.138L210.748 61.448Z" fill="#1D2633"/>
<path d="M182.424 170.422L167.734 164.277L161.589 178.967L176.279 185.112L182.424 170.422Z" fill="#1D2633"/>
<path d="M200.858 126.352L186.168 120.208L180.024 134.897L194.714 141.042L200.858 126.352Z" fill="#1D2633"/>
<path d="M194.713 141.042L180.023 134.897L173.879 149.587L188.569 155.732L194.713 141.042Z" fill="#1D2633"/>
<path d="M173.879 149.587L159.189 143.442L153.044 158.132L167.734 164.277L173.879 149.587Z" fill="white"/>
<path d="M198.458 90.8279L183.768 84.6831L177.623 99.373L192.313 105.518L198.458 90.8279Z" fill="white"/>
<path d="M186.168 120.208L171.478 114.063L165.333 128.753L180.023 134.898L186.168 120.208Z" fill="white"/>
<path d="M180.023 134.897L165.333 128.752L159.189 143.442L173.879 149.587L180.023 134.897Z" fill="white"/>
<path d="M167.734 164.277L153.044 158.132L146.899 172.822L161.589 178.967L167.734 164.277Z" fill="#1D2633"/>
<path d="M161.589 178.967L146.899 172.822L140.755 187.512L155.445 193.657L161.589 178.967Z" fill="#1D2633"/>
<path d="M196.057 55.3035L181.367 49.1587L175.222 63.8486L189.912 69.9934L196.057 55.3035Z" fill="#1D2633"/>
<path d="M146.899 172.822L132.209 166.677L126.065 181.367L140.755 187.512L146.899 172.822Z" fill="#1D2633"/>
<path d="M181.368 49.1585L166.678 43.0137L160.533 57.7036L175.223 63.8484L181.368 49.1585Z" fill="#1D2633"/>
<path d="M132.209 166.678L117.52 160.533L111.375 175.223L126.065 181.367L132.209 166.678Z" fill="#1D2633"/>
<path d="M166.678 43.014L151.988 36.8691L145.843 51.5591L160.533 57.7039L166.678 43.014Z" fill="#1D2633"/>
<path d="M117.52 160.533L102.83 154.388L96.6848 169.078L111.375 175.222L117.52 160.533Z" fill="#1D2633"/>
<path d="M151.988 36.8689L137.298 30.7241L131.153 45.414L145.843 51.5589L151.988 36.8689Z" fill="#1D2633"/>
<path d="M102.83 154.388L88.1396 148.243L81.9948 162.933L96.6847 169.078L102.83 154.388Z" fill="#1D2633"/>
<path d="M137.298 30.7244L122.608 24.5796L116.463 39.2695L131.153 45.4143L137.298 30.7244Z" fill="#1D2633"/>
<path d="M88.1396 148.243L73.4497 142.098L67.3049 156.788L81.9948 162.933L88.1396 148.243Z" fill="#1D2633"/>
<path d="M122.608 24.5794L107.918 18.4346L101.773 33.1245L116.463 39.2693L122.608 24.5794Z" fill="#1D2633"/>
<path d="M73.4497 142.098L58.7598 135.954L52.6149 150.644L67.3049 156.788L73.4497 142.098Z" fill="#1D2633"/>
<path d="M107.918 18.4344L93.228 12.2896L87.0832 26.9795L101.773 33.1243L107.918 18.4344Z" fill="#1D2633"/>
<path d="M58.7597 135.953L44.0698 129.809L37.925 144.499L52.6149 150.643L58.7597 135.953Z" fill="#1D2633"/>
<path d="M93.228 12.2898L78.5381 6.14502L72.3933 20.8349L87.0832 26.9798L93.228 12.2898Z" fill="#1D2633"/>
<path d="M44.0698 129.809L29.3799 123.664L23.2351 138.354L37.925 144.499L44.0698 129.809Z" fill="#1D2633"/>
<path d="M78.5381 6.14482L63.8481 0L57.7033 14.6899L72.3932 20.8347L78.5381 6.14482Z" fill="#1D2633"/>
<path d="M29.3799 123.664L14.6899 117.519L8.54512 132.209L23.235 138.354L29.3799 123.664Z" fill="#1D2633"/>
<path d="M189.913 69.9934L175.223 63.8486L169.078 78.5386L183.768 84.6834L189.913 69.9934Z" fill="white"/>
<path d="M175.223 63.8484L160.533 57.7036L154.388 72.3935L169.078 78.5383L175.223 63.8484Z" fill="white"/>
<path d="M160.533 57.7034L145.843 51.5586L139.698 66.2485L154.388 72.3933L160.533 57.7034Z" fill="white"/>
<path d="M145.843 51.5589L131.153 45.4141L125.008 60.104L139.698 66.2488L145.843 51.5589Z" fill="white"/>
<path d="M131.153 45.4139L116.463 39.269L110.319 53.959L125.008 60.1038L131.153 45.4139Z" fill="white"/>
<path d="M116.463 39.2693L101.773 33.1245L95.6281 47.8144L110.318 53.9592L116.463 39.2693Z" fill="white"/>
<path d="M101.773 33.1243L87.0835 26.9795L80.9387 41.6694L95.6286 47.8142L101.773 33.1243Z" fill="white"/>
<path d="M87.083 26.9798L72.3931 20.835L66.2482 35.5249L80.9382 41.6697L87.083 26.9798Z" fill="white"/>
<path d="M72.3935 20.8348L57.7036 14.6899L51.5588 29.3799L66.2487 35.5247L72.3935 20.8348Z" fill="#1D2633"/>
<path d="M57.7036 14.6902L43.0137 8.54541L36.8689 23.2353L51.5588 29.3801L57.7036 14.6902Z" fill="#1D2633"/>
<path d="M183.768 84.6829L169.078 78.5381L162.933 93.228L177.623 99.3728L183.768 84.6829Z" fill="white"/>
<path d="M169.078 78.5384L154.388 72.3936L148.243 87.0835L162.933 93.2283L169.078 78.5384Z" fill="white"/>
<path d="M154.388 72.3934L139.698 66.2485L133.553 80.9385L148.243 87.0833L154.388 72.3934Z" fill="white"/>
<path d="M139.698 66.2488L125.008 60.104L118.863 74.7939L133.553 80.9387L139.698 66.2488Z" fill="white"/>
<path d="M125.008 60.1038L110.318 53.959L104.174 68.6489L118.863 74.7937L125.008 60.1038Z" fill="white"/>
<path d="M110.318 53.9593L95.6284 47.8145L89.4836 62.5044L104.174 68.6492L110.318 53.9593Z" fill="white"/>
<path d="M95.6284 47.8143L80.9385 41.6694L74.7937 56.3594L89.4836 62.5042L95.6284 47.8143Z" fill="white"/>
<path d="M80.9385 41.6697L66.2485 35.5249L60.1037 50.2148L74.7936 56.3596L80.9385 41.6697Z" fill="white"/>
<path d="M66.2485 35.5247L51.5586 29.3799L45.4138 44.0698L60.1037 50.2146L66.2485 35.5247Z" fill="white"/>
<path d="M51.5586 29.3797L36.8687 23.2349L30.7238 37.9248L45.4138 44.0696L51.5586 29.3797Z" fill="#1D2633"/>
<path d="M171.478 114.063L156.789 107.918L150.644 122.608L165.334 128.753L171.478 114.063Z" fill="white"/>
<path d="M156.788 107.918L142.098 101.773L135.953 116.463L150.643 122.608L156.788 107.918Z" fill="white"/>
<path d="M142.099 101.773L127.409 95.6284L121.264 110.318L135.954 116.463L142.099 101.773Z" fill="white"/>
<path d="M127.409 95.6282L112.719 89.4834L106.574 104.173L121.264 110.318L127.409 95.6282Z" fill="white"/>
<path d="M112.719 89.4837L98.0288 83.3389L91.884 98.0288L106.574 104.174L112.719 89.4837Z" fill="white"/>
<path d="M98.0288 83.3387L83.3389 77.1938L77.1941 91.8838L91.884 98.0286L98.0288 83.3387Z" fill="white"/>
<path d="M83.3388 77.1941L68.6489 71.0493L62.5041 85.7392L77.194 91.8841L83.3388 77.1941Z" fill="white"/>
<path d="M68.6489 71.0491L53.959 64.9043L47.8142 79.5942L62.5041 85.739L68.6489 71.0491Z" fill="white"/>
<path d="M53.959 64.9046L39.269 58.7598L33.1242 73.4497L47.8141 79.5945L53.959 64.9046Z" fill="white"/>
<path d="M39.269 58.7596L24.5791 52.6147L18.4343 67.3047L33.1242 73.4495L39.269 58.7596Z" fill="#1D2633"/>
<path d="M165.333 128.753L150.644 122.608L144.499 137.298L159.189 143.443L165.333 128.753Z" fill="white"/>
<path d="M150.644 122.608L135.954 116.463L129.809 131.153L144.499 137.298L150.644 122.608Z" fill="white"/>
<path d="M135.954 116.463L121.264 110.318L115.119 125.008L129.809 131.153L135.954 116.463Z" fill="white"/>
<path d="M121.264 110.318L106.574 104.173L100.429 118.863L115.119 125.008L121.264 110.318Z" fill="white"/>
<path d="M106.574 104.174L91.8838 98.0288L85.739 112.719L100.429 118.864L106.574 104.174Z" fill="white"/>
<path d="M91.8843 98.0286L77.1943 91.8838L71.0495 106.574L85.7394 112.719L91.8843 98.0286Z" fill="white"/>
<path d="M77.1938 91.8841L62.5039 85.7393L56.3591 100.429L71.049 106.574L77.1938 91.8841Z" fill="white"/>
<path d="M62.5044 85.7391L47.8145 79.5942L41.6696 94.2842L56.3596 100.429L62.5044 85.7391Z" fill="white"/>
<path d="M47.8139 79.5945L33.124 73.4497L26.9792 88.1396L41.6691 94.2844L47.8139 79.5945Z" fill="white"/>
<path d="M33.1245 73.4495L18.4346 67.3047L12.2898 81.9946L26.9797 88.1394L33.1245 73.4495Z" fill="#1D2633"/>
<path d="M159.189 143.443L144.499 137.298L138.354 151.988L153.044 158.133L159.189 143.443Z" fill="white"/>
<path d="M144.499 137.298L129.809 131.153L123.664 145.843L138.354 151.988L144.499 137.298Z" fill="white"/>
<path d="M129.809 131.153L115.119 125.008L108.974 139.698L123.664 145.843L129.809 131.153Z" fill="white"/>
<path d="M115.119 125.008L100.429 118.863L94.2844 133.553L108.974 139.698L115.119 125.008Z" fill="white"/>
<path d="M100.429 118.864L85.7393 112.719L79.5944 127.409L94.2844 133.553L100.429 118.864Z" fill="white"/>
<path d="M85.7392 112.719L71.0493 106.574L64.9045 121.264L79.5944 127.408L85.7392 112.719Z" fill="white"/>
<path d="M71.0493 106.574L56.3594 100.429L50.2146 115.119L64.9045 121.263L71.0493 106.574Z" fill="white"/>
<path d="M56.3594 100.429L41.6694 94.2842L35.5246 108.974L50.2145 115.119L56.3594 100.429Z" fill="white"/>
<path d="M41.6694 94.284L26.9795 88.1392L20.8347 102.829L35.5246 108.974L41.6694 94.284Z" fill="white"/>
<path d="M26.9795 88.1394L12.2896 81.9946L6.14473 96.6845L20.8347 102.829L26.9795 88.1394Z" fill="#1D2633"/>
<path d="M153.044 158.133L138.354 151.988L132.209 166.678L146.899 172.823L153.044 158.133Z" fill="white"/>
<path d="M138.354 151.988L123.664 145.843L117.519 160.533L132.209 166.678L138.354 151.988Z" fill="white"/>
<path d="M123.665 145.843L108.975 139.698L102.83 154.388L117.52 160.532L123.665 145.843Z" fill="white"/>
<path d="M108.974 139.698L94.2842 133.553L88.1394 148.243L102.829 154.388L108.974 139.698Z" fill="white"/>
<path d="M94.2846 133.553L79.5947 127.408L73.4499 142.098L88.1398 148.243L94.2846 133.553Z" fill="white"/>
<path d="M79.5942 127.408L64.9043 121.264L58.7595 135.954L73.4494 142.098L79.5942 127.408Z" fill="white"/>
<path d="M64.9048 121.263L50.2148 115.119L44.07 129.809L58.7599 135.953L64.9048 121.263Z" fill="white"/>
<path d="M50.2143 115.119L35.5244 108.974L29.3796 123.664L44.0695 129.809L50.2143 115.119Z" fill="white"/>
<path d="M35.5244 108.974L20.8345 102.829L14.6897 117.519L29.3796 123.664L35.5244 108.974Z" fill="#1D2633"/>
<path d="M20.8349 102.829L6.14502 96.6846L0.000202832 111.374L14.6901 117.519L20.8349 102.829Z" fill="#1D2633"/>
<path d="M207.003 111.662L192.313 105.518L186.168 120.207L200.858 126.352L207.003 111.662Z" fill="#1D2633"/>
<path d="M192.313 105.518L177.623 99.373L171.478 114.063L186.168 120.208L192.313 105.518Z" fill="white"/>
<path d="M177.623 99.3728L162.933 93.228L156.788 107.918L171.478 114.063L177.623 99.3728Z" fill="white"/>
<path d="M162.933 93.2283L148.243 87.0835L142.098 101.773L156.788 107.918L162.933 93.2283Z" fill="white"/>
<path d="M148.243 87.0833L133.553 80.9385L127.408 95.6284L142.098 101.773L148.243 87.0833Z" fill="white"/>
<path d="M133.553 80.9388L118.863 74.7939L112.718 89.4839L127.408 95.6287L133.553 80.9388Z" fill="white"/>
<path d="M118.863 74.7937L104.173 68.6489L98.0285 83.3388L112.718 89.4837L118.863 74.7937Z" fill="white"/>
<path d="M104.174 68.6487L89.4839 62.5039L83.3391 77.1938L98.029 83.3386L104.174 68.6487Z" fill="white"/>
<path d="M89.4834 62.5042L74.7935 56.3594L68.6486 71.0493L83.3386 77.1941L89.4834 62.5042Z" fill="white"/>
<path d="M74.7939 56.3592L60.104 50.2144L53.9592 64.9043L68.6491 71.0491L74.7939 56.3592Z" fill="white"/>
<path d="M60.104 50.2146L45.4141 44.0698L39.2692 58.7597L53.9592 64.9046L60.104 50.2146Z" fill="white"/>
<path d="M45.414 44.0696L30.7241 37.9248L24.5793 52.6147L39.2692 58.7595L45.414 44.0696Z" fill="#1D2633"/>
<path d="M148.41 80.9479C148.143 80.298 148.146 79.571 148.417 78.9245L151.732 70.9992C152.245 69.7722 151.667 68.362 150.44 67.8488L143.218 64.8278C141.991 64.3146 140.581 64.8928 140.068 66.1203L137.051 73.3312C136.538 74.5583 137.116 75.9684 138.343 76.4816L146.263 79.7946C146.91 80.0715 147.423 80.5964 147.681 81.2487C147.947 81.8981 147.945 82.6257 147.675 83.2717L128.574 128.935C128.061 130.162 128.638 131.572 129.866 132.086L137.088 135.107C138.314 135.62 139.725 135.041 140.238 133.814L159.048 88.8469C159.561 87.6198 158.982 86.2096 157.756 85.6965L149.833 82.3825C149.187 82.112 148.675 81.5934 148.41 80.9479Z" fill="#1D2633"/>
<path d="M83.4161 83.9383C84.0644 83.6746 84.7881 83.679 85.4317 83.9486L105.029 92.1458C106.251 92.6571 107.658 92.0804 108.169 90.8582L111.493 82.9119C111.761 82.2708 112.274 81.7635 112.916 81.5003C113.565 81.2367 114.288 81.241 114.932 81.5101L122.865 84.8285C124.087 85.3397 125.494 84.763 126.005 83.5409L129.042 76.2801C129.553 75.0584 128.976 73.6517 127.754 73.141L119.839 69.8299C118.495 69.2674 117.857 67.7186 118.421 66.3714L121.74 58.4354C122.252 57.2137 121.675 55.807 120.453 55.2957L89 42.139C87.7572 41.6195 86.331 42.2064 85.8122 43.4466L82.8145 50.6131C82.2946 51.8563 82.8816 53.2821 84.1218 53.8011L116.266 67.2469C117.613 67.8104 118.25 69.3587 117.688 70.7103L114.081 79.3343C113.81 79.9803 113.296 80.4906 112.647 80.7542C111.999 81.0179 111.275 81.0135 110.632 80.7445L91.0263 72.5433C89.8044 72.0321 88.3979 72.6092 87.8868 73.8309L84.5651 81.7718C84.2959 82.4159 83.7849 82.9246 83.1392 83.1893C82.4934 83.4539 81.7724 83.4505 81.1288 83.1815L73.1798 79.8563C71.958 79.3455 70.5515 79.9222 70.0404 81.1439L67.012 88.3836C66.5008 89.6058 67.0777 91.012 68.2996 91.5233L76.238 94.8441C76.8816 95.1131 77.3904 95.6243 77.6553 96.2699C77.92 96.9159 77.9167 97.6366 77.6474 98.2806L74.3268 106.219C73.8157 107.441 74.3925 108.847 75.6145 109.358L107.08 122.52C108.323 123.04 109.749 122.453 110.268 121.213L113.255 114.073C113.775 112.83 113.188 111.404 111.947 110.885L79.8012 97.4383C79.1576 97.1688 78.6462 96.6566 78.3788 96.0101C78.1155 95.368 78.1163 94.6458 78.3844 94.0047L82.0017 85.3573C82.2646 84.7142 82.7767 84.203 83.4198 83.9369L83.4161 83.9383Z" fill="#1D2633"/>
<path d="M152.65 93.8036C152.573 93.8334 152.49 93.8324 152.413 93.8031L151.309 93.3412C151.233 93.3095 151.176 93.2489 151.143 93.1732C151.113 93.0961 151.114 93.014 151.143 92.9369L153.402 87.5365C153.47 87.3744 153.392 87.1849 153.23 87.1171L152.33 86.7406C152.168 86.6727 151.978 86.7504 151.91 86.9125L149.651 92.3129C149.62 92.3886 149.559 92.4467 149.483 92.4794C149.407 92.5087 149.324 92.5082 149.247 92.4789L148.143 92.017C148.067 91.9852 148.009 91.9242 147.976 91.849C147.947 91.7723 147.948 91.6893 147.977 91.6127L150.236 86.2123C150.304 86.0497 150.226 85.8607 150.065 85.7929L149.164 85.4164C149.001 85.348 148.813 85.4262 148.745 85.5883L146.528 90.8895C146.46 91.0516 146.537 91.2406 146.699 91.3085L147.701 91.7274C147.777 91.7597 147.835 91.8202 147.867 91.8959C147.897 91.9725 147.897 92.0555 147.868 92.1322L147.449 93.1346C147.381 93.2968 147.458 93.4857 147.62 93.5536L148.52 93.9301C148.682 93.9979 148.872 93.9203 148.94 93.7582L149.359 92.7562C149.391 92.6801 149.452 92.6229 149.527 92.5897C149.603 92.5604 149.686 92.5609 149.763 92.5902L150.867 93.0521C150.943 93.0839 151.001 93.1449 151.034 93.2201C151.064 93.2972 151.062 93.3793 151.033 93.4564L150.614 94.4584C150.546 94.621 150.624 94.8099 150.786 94.8783L151.686 95.2543C151.849 95.3226 152.038 95.245 152.106 95.0829L152.525 94.0805C152.557 94.0048 152.617 93.9467 152.693 93.9139C152.77 93.8846 152.852 93.8856 152.929 93.9144L153.931 94.3339C154.094 94.4017 154.282 94.3236 154.35 94.1615L156.568 88.8607C156.635 88.6981 156.559 88.5092 156.396 88.4413L155.496 88.0648C155.334 87.997 155.144 88.0746 155.076 88.2367L152.817 93.6371C152.786 93.7133 152.727 93.7719 152.655 93.806L152.65 93.8036Z" fill="white"/>
<path d="M145.192 107.102L145.623 106.071C145.686 105.922 145.616 105.751 145.467 105.689L144.543 105.302C144.394 105.24 144.223 105.31 144.161 105.459L143.734 106.48C143.703 106.553 143.646 106.609 143.576 106.638L143.546 106.65C143.475 106.682 143.391 106.681 143.322 106.649L142.294 106.218C142.145 106.156 141.975 106.226 141.912 106.375L140.298 110.235C140.235 110.384 140.305 110.554 140.454 110.617L141.475 111.044C141.548 111.074 141.604 111.132 141.633 111.202L141.645 111.232C141.677 111.303 141.676 111.386 141.644 111.456L141.217 112.476C141.155 112.625 141.224 112.796 141.374 112.858L142.297 113.245C142.446 113.307 142.617 113.237 142.679 113.088L143.106 112.068C143.137 111.994 143.194 111.938 143.265 111.909L143.294 111.897C143.366 111.866 143.449 111.866 143.518 111.899L144.539 112.325C144.687 112.387 144.858 112.318 144.921 112.169L146.53 108.322C146.592 108.173 146.522 108.002 146.373 107.94L145.36 107.516C145.287 107.486 145.231 107.428 145.203 107.358L145.19 107.328C145.162 107.255 145.162 107.175 145.194 107.106L145.192 107.102ZM143.261 111.822L143.231 111.834C143.16 111.865 143.078 111.865 143.008 111.833L141.893 111.366C141.82 111.336 141.764 111.278 141.734 111.208L141.723 111.178C141.692 111.107 141.692 111.024 141.724 110.954L143.416 106.909C143.447 106.836 143.504 106.78 143.575 106.751L143.604 106.739C143.676 106.707 143.759 106.708 143.828 106.74L144.943 107.207C145.016 107.237 145.072 107.295 145.101 107.365L145.113 107.395C145.144 107.466 145.144 107.549 145.111 107.618L143.419 111.663C143.389 111.736 143.331 111.793 143.261 111.822Z" fill="white"/>
<path d="M148.415 99.3524L148.378 99.368C148.308 99.3968 148.231 99.3953 148.16 99.366L147.13 98.9349C146.986 98.8748 146.917 98.7078 146.977 98.5638L147.984 96.1566C148.044 96.0125 147.976 95.8455 147.832 95.7855L146.89 95.3914C146.746 95.3314 146.579 95.3997 146.519 95.5438L143.626 102.459C143.566 102.603 143.635 102.77 143.779 102.83L144.72 103.224C144.864 103.284 145.031 103.216 145.091 103.072L146.147 100.55C146.207 100.406 146.374 100.337 146.518 100.397L147.551 100.83C147.622 100.859 147.676 100.916 147.705 100.983L147.72 101.02C147.75 101.091 147.748 101.167 147.719 101.238L146.675 103.734C146.614 103.878 146.683 104.045 146.827 104.105L147.768 104.499C147.915 104.56 148.08 104.491 148.14 104.347L149.147 101.94C149.207 101.796 149.138 101.629 148.994 101.569L147.958 101.135C147.888 101.106 147.835 101.05 147.804 100.982L147.789 100.945C147.761 100.874 147.761 100.798 147.791 100.727L148.259 99.6072C148.289 99.5364 148.345 99.4832 148.413 99.4534L148.45 99.4378C148.521 99.409 148.597 99.41 148.667 99.4398L149.699 99.8714C149.845 99.9324 150.009 99.8626 150.069 99.7186L151.028 97.4266C151.088 97.2825 151.02 97.116 150.877 97.056L149.934 96.6614C149.787 96.6004 149.623 96.6697 149.563 96.8138L148.566 99.1976C148.536 99.2679 148.483 99.3289 148.413 99.3577L148.415 99.3524Z" fill="white"/>
<path d="M141.264 116.495L141.682 115.496C141.75 115.333 141.672 115.144 141.51 115.076L140.623 114.705C140.461 114.637 140.272 114.715 140.204 114.877L139.786 115.877C139.754 115.953 139.693 116.01 139.618 116.043C139.541 116.073 139.458 116.071 139.381 116.043L138.381 115.624C138.22 115.557 138.03 115.634 137.962 115.797L135.701 121.202C135.633 121.364 135.711 121.554 135.873 121.621L136.761 121.993C136.922 122.06 137.112 121.983 137.179 121.82L139.481 116.318C139.513 116.242 139.574 116.185 139.649 116.152C139.726 116.122 139.808 116.123 139.886 116.152L140.988 116.613C141.063 116.645 141.12 116.706 141.154 116.781C141.183 116.858 141.182 116.941 141.153 117.018L138.848 122.528C138.781 122.69 138.858 122.879 139.02 122.947L139.907 123.318C140.069 123.386 140.259 123.308 140.327 123.146L142.588 117.74C142.656 117.578 142.578 117.389 142.415 117.321L141.416 116.903C141.34 116.871 141.283 116.81 141.25 116.735C141.224 116.656 141.228 116.572 141.263 116.498L141.264 116.495Z" fill="white"/>
<path d="M137.339 126.149L137.33 126.126C137.3 126.052 137.301 125.969 137.334 125.897L137.757 124.887C137.82 124.736 137.748 124.561 137.597 124.498L136.684 124.116C136.532 124.052 136.358 124.124 136.294 124.276L135.872 125.286C135.841 125.359 135.783 125.418 135.711 125.449L135.688 125.458C135.615 125.489 135.532 125.488 135.46 125.454L134.426 125.022C134.274 124.959 134.1 125.03 134.036 125.182L131.765 130.611C131.702 130.763 131.773 130.937 131.925 131.001L132.838 131.383C132.99 131.447 133.164 131.375 133.228 131.223L134.389 128.447L134.976 127.045L134.998 127.096C135.028 127.171 135.027 127.254 134.993 127.326L134.57 128.338C134.506 128.49 134.578 128.664 134.73 128.728L135.643 129.11C135.795 129.173 135.969 129.102 136.032 128.949L136.454 127.942C136.484 127.869 136.543 127.81 136.615 127.779L136.666 127.757L134.921 131.931C134.857 132.083 134.929 132.258 135.08 132.321L135.994 132.703C136.145 132.766 136.32 132.695 136.384 132.543L138.658 127.106C138.722 126.954 138.65 126.78 138.498 126.716L137.485 126.293C137.421 126.263 137.372 126.211 137.34 126.146L137.339 126.149ZM136.62 127.692C136.546 127.722 136.463 127.721 136.391 127.689L135.276 127.223C135.203 127.192 135.145 127.134 135.114 127.062L135.103 127.035C135.072 126.962 135.073 126.879 135.106 126.807L135.564 125.71C135.595 125.637 135.653 125.578 135.725 125.547L135.752 125.536C135.825 125.506 135.908 125.507 135.98 125.54L137.087 126.003C137.16 126.034 137.219 126.092 137.25 126.163L137.261 126.19C137.291 126.263 137.29 126.346 137.258 126.419L136.793 127.531C136.761 127.607 136.697 127.663 136.618 127.691L136.62 127.692Z" fill="white"/>
<path d="M126.117 142.279L128.221 141.767L122.833 139.513L119.853 146.638L125.241 148.892L125.738 147.704L121.888 146.094L122.651 144.27L125.936 145.643L126.431 144.458L123.147 143.084L123.876 141.342L126.117 142.279Z" fill="#1D2633"/>
<path d="M117.607 140.588L115.736 139.806L116.402 138.215L119.387 139.464L121.492 138.952L115.359 136.387L112.378 143.511L115.589 144.854C117.389 145.607 118.764 145.223 119.358 143.803C119.953 142.381 119.304 141.301 117.606 140.591L117.607 140.588ZM116.018 143.638L114.414 142.967L115.24 140.991L116.844 141.662C117.82 142.07 118.137 142.59 117.862 143.247C117.587 143.904 116.969 144.033 116.019 143.635L116.018 143.638Z" fill="#1D2633"/>
<path d="M132.582 143.591L129.649 142.364L126.668 149.489L128.204 150.131L129.048 148.113L130.443 148.697C132.314 149.479 133.889 148.983 134.547 147.41C135.205 145.837 134.452 144.375 132.578 143.592L132.582 143.591ZM130.909 147.497L129.545 146.926L130.689 144.191L132.053 144.762C133.036 145.173 133.377 145.887 133.009 146.767C132.641 147.646 131.896 147.906 130.91 147.494L130.909 147.497Z" fill="#1D2633"/>
<path d="M110.388 140.864C109.902 140.916 109.396 140.84 108.922 140.642C107.535 140.062 106.944 138.652 107.515 137.289C108.085 135.925 109.503 135.357 110.89 135.937C111.413 136.156 111.823 136.5 112.104 136.958L113.547 136.605L113.499 136.512C113.092 135.678 112.356 135.02 111.372 134.608C110.305 134.161 109.187 134.115 108.222 134.479C107.252 134.846 106.483 135.609 106.055 136.632C105.627 137.655 105.616 138.756 106.025 139.725C106.437 140.696 107.246 141.474 108.305 141.917C109.365 142.361 110.542 142.398 111.492 141.972C111.144 141.387 110.804 140.823 110.804 140.823L110.387 140.867L110.388 140.864Z" fill="#1D2633"/>
<path d="M102.482 135.184C102.633 134.823 102.75 134.454 102.831 134.085L101.164 134.491C101.148 134.53 101.13 134.572 101.114 134.612C100.064 137.121 97.1684 138.311 94.6565 137.26C92.1447 136.209 90.9575 133.315 92.0081 130.803C93.0591 128.291 95.9536 127.104 98.4655 128.154C99.4179 128.552 100.177 129.215 100.699 130.024L102.205 129.657C101.534 128.411 100.445 127.377 99.0368 126.788C95.7689 125.422 92.0094 126.964 90.6423 130.232C89.2755 133.499 90.8173 137.259 94.0852 138.626C97.3532 139.993 101.113 138.451 102.479 135.183L102.482 135.184Z" fill="#1D2633"/>
<path d="M102.759 131.049C102.888 131.526 102.961 132.021 102.975 132.522L95.9205 134.241L94.2588 131.885L94.9699 130.185L96.632 132.54L102.759 131.049Z" fill="#1D2633"/>
</svg>
