<svg width="66" height="46" viewBox="0 0 66 46" fill="none" xmlns="http://www.w3.org/2000/svg">
<path d="M5.06708 0H0V5.06934H5.06708V0Z" fill="#030730"/>
<path d="M5.06708 5.06934H0V10.1387H5.06708V5.06934Z" fill="#030730"/>
<path d="M10.134 5.06934H5.06689V10.1387H10.134V5.06934Z" fill="#030730"/>
<path d="M15.2014 10.1387H10.1343V15.2075H15.2014V10.1387Z" fill="#030730"/>
<path d="M20.2682 15.2075H15.2012V20.2769H20.2682V15.2075Z" fill="#030730"/>
<path d="M25.3356 20.2769H20.2686V25.3462H25.3356V20.2769Z" fill="#030730"/>
<path d="M30.4025 25.3462H25.3354V30.4155H30.4025V25.3462Z" fill="#030730"/>
<path d="M35.4694 30.4155H30.4023V35.4844H35.4694V30.4155Z" fill="#030730"/>
<path d="M40.5368 25.3462H35.4697V30.4155H40.5368V25.3462Z" fill="#030730"/>
<path d="M45.6037 20.2769H40.5366V25.3462H45.6037V20.2769Z" fill="#030730"/>
<path d="M50.6706 15.2075H45.6035V20.2769H50.6706V15.2075Z" fill="#030730"/>
<path d="M55.738 10.1387H50.6709V15.2075H55.738V10.1387Z" fill="#030730"/>
<path d="M5.06708 10.1387H0V15.2075H5.06708V10.1387Z" fill="#030730"/>
<path d="M5.06708 15.2075H0V20.2769H5.06708V15.2075Z" fill="#030730"/>
<path d="M5.06708 20.2769H0V25.3462H5.06708V20.2769Z" fill="#030730"/>
<path d="M5.06708 25.3462H0V30.4155H5.06708V25.3462Z" fill="#030730"/>
<path d="M5.06708 30.4155H0V35.4844H5.06708V30.4155Z" fill="#030730"/>
<path d="M5.06708 35.4844H0V40.5537H5.06708V35.4844Z" fill="#030730"/>
<path d="M5.06708 40.5537H0V45.623H5.06708V40.5537Z" fill="#030730"/>
<path d="M10.134 40.5537H5.06689V45.623H10.134V40.5537Z" fill="#030730"/>
<path d="M15.2014 40.5537H10.1343V45.623H15.2014V40.5537Z" fill="#030730"/>
<path d="M20.2682 40.5537H15.2012V45.623H20.2682V40.5537Z" fill="#030730"/>
<path d="M25.3356 40.5537H20.2686V45.623H25.3356V40.5537Z" fill="#030730"/>
<path d="M30.4025 40.5537H25.3354V45.623H30.4025V40.5537Z" fill="#030730"/>
<path d="M35.4694 40.5537H30.4023V45.623H35.4694V40.5537Z" fill="#030730"/>
<path d="M40.5368 40.5537H35.4697V45.623H40.5368V40.5537Z" fill="#030730"/>
<path d="M45.6037 40.5537H40.5366V45.623H45.6037V40.5537Z" fill="#030730"/>
<path d="M50.6706 40.5537H45.6035V45.623H50.6706V40.5537Z" fill="#030730"/>
<path d="M55.738 40.5537H50.6709V45.623H55.738V40.5537Z" fill="#030730"/>
<path d="M60.8049 40.5537H55.7378V45.623H60.8049V40.5537Z" fill="#030730"/>
<path d="M65.8718 40.5537H60.8047V45.623H65.8718V40.5537Z" fill="#030730"/>
<path d="M30.4025 0H25.3354V5.06934H30.4025V0Z" fill="#030730"/>
<path d="M35.4694 0H30.4023V5.06934H35.4694V0Z" fill="#030730"/>
<path d="M40.5368 0H35.4697V5.06934H40.5368V0Z" fill="#030730"/>
<path d="M45.6037 0H40.5366V5.06934H45.6037V0Z" fill="#030730"/>
<path d="M10.134 0H5.06689V5.06934H10.134V0Z" fill="#030730"/>
<path d="M15.2014 0H10.1343V5.06934H15.2014V0Z" fill="#030730"/>
<path d="M20.2682 0H15.2012V5.06934H20.2682V0Z" fill="#030730"/>
<path d="M25.3356 0H20.2686V5.06934H25.3356V0Z" fill="#030730"/>
<path d="M50.6706 0H45.6035V5.06934H50.6706V0Z" fill="#030730"/>
<path d="M55.738 0H50.6709V5.06934H55.738V0Z" fill="#030730"/>
<path d="M30.4025 5.06934H25.3354V10.1387H30.4025V5.06934Z" fill="white"/>
<path d="M35.4694 5.06934H30.4023V10.1387H35.4694V5.06934Z" fill="white"/>
<path d="M40.5368 5.06934H35.4697V10.1387H40.5368V5.06934Z" fill="white"/>
<path d="M45.6037 5.06934H40.5366V10.1387H45.6037V5.06934Z" fill="white"/>
<path d="M15.2014 5.06934H10.1343V10.1387H15.2014V5.06934Z" fill="white"/>
<path d="M20.2682 5.06934H15.2012V10.1387H20.2682V5.06934Z" fill="white"/>
<path d="M25.3356 5.06934H20.2686V10.1387H25.3356V5.06934Z" fill="white"/>
<path d="M50.6706 5.06934H45.6035V10.1387H50.6706V5.06934Z" fill="white"/>
<path d="M30.4025 10.1387H25.3354V15.2075H30.4025V10.1387Z" fill="white"/>
<path d="M35.4694 10.1387H30.4023V15.2075H35.4694V10.1387Z" fill="white"/>
<path d="M40.5368 10.1387H35.4697V15.2075H40.5368V10.1387Z" fill="white"/>
<path d="M45.6037 10.1387H40.5366V15.2075H45.6037V10.1387Z" fill="white"/>
<path d="M20.2682 10.1387H15.2012V15.2075H20.2682V10.1387Z" fill="white"/>
<path d="M25.3356 10.1387H20.2686V15.2075H25.3356V10.1387Z" fill="white"/>
<path d="M30.4025 15.2075H25.3354V20.2769H30.4025V15.2075Z" fill="white"/>
<path d="M35.4694 15.2075H30.4023V20.2769H35.4694V15.2075Z" fill="white"/>
<path d="M40.5368 15.2075H35.4697V20.2769H40.5368V15.2075Z" fill="white"/>
<path d="M30.4025 20.2769H25.3354V25.3462H30.4025V20.2769Z" fill="white"/>
<path d="M35.4694 20.2769H30.4023V25.3462H35.4694V20.2769Z" fill="white"/>
<path d="M35.4694 25.3462H30.4023V30.4155H35.4694V25.3462Z" fill="white"/>
<path d="M40.5368 20.2769H35.4697V25.3462H40.5368V20.2769Z" fill="white"/>
<path d="M45.6037 15.2075H40.5366V20.2769H45.6037V15.2075Z" fill="white"/>
<path d="M25.3356 15.2075H20.2686V20.2769H25.3356V15.2075Z" fill="white"/>
<path d="M50.6706 10.1387H45.6035V15.2075H50.6706V10.1387Z" fill="white"/>
<path d="M55.738 5.06934H50.6709V10.1387H55.738V5.06934Z" fill="white"/>
<path d="M60.8049 0H55.7378V5.06934H60.8049V0Z" fill="#030730"/>
<path d="M10.134 35.4844H5.06689V40.5537H10.134V35.4844Z" fill="white"/>
<path d="M15.2014 35.4844H10.1343V40.5537H15.2014V35.4844Z" fill="white"/>
<path d="M20.2682 35.4844H15.2012V40.5537H20.2682V35.4844Z" fill="white"/>
<path d="M25.3356 35.4844H20.2686V40.5537H25.3356V35.4844Z" fill="white"/>
<path d="M30.4025 35.4844H25.3354V40.5537H30.4025V35.4844Z" fill="white"/>
<path d="M35.4694 35.4844H30.4023V40.5537H35.4694V35.4844Z" fill="white"/>
<path d="M40.5368 35.4844H35.4697V40.5537H40.5368V35.4844Z" fill="white"/>
<path d="M45.6037 35.4844H40.5366V40.5537H45.6037V35.4844Z" fill="white"/>
<path d="M50.6706 35.4844H45.6035V40.5537H50.6706V35.4844Z" fill="white"/>
<path d="M55.738 35.4844H50.6709V40.5537H55.738V35.4844Z" fill="white"/>
<path d="M60.8049 35.4844H55.7378V40.5537H60.8049V35.4844Z" fill="white"/>
<path d="M10.134 30.4155H5.06689V35.4844H10.134V30.4155Z" fill="white"/>
<path d="M15.2014 30.4155H10.1343V35.4844H15.2014V30.4155Z" fill="white"/>
<path d="M20.2682 30.4155H15.2012V35.4844H20.2682V30.4155Z" fill="white"/>
<path d="M25.3356 30.4155H20.2686V35.4844H25.3356V30.4155Z" fill="white"/>
<path d="M30.4025 30.4155H25.3354V35.4844H30.4025V30.4155Z" fill="white"/>
<path d="M40.5368 30.4155H35.4697V35.4844H40.5368V30.4155Z" fill="white"/>
<path d="M45.6037 30.4155H40.5366V35.4844H45.6037V30.4155Z" fill="white"/>
<path d="M50.6706 30.4155H45.6035V35.4844H50.6706V30.4155Z" fill="white"/>
<path d="M55.738 30.4155H50.6709V35.4844H55.738V30.4155Z" fill="white"/>
<path d="M60.8049 30.4155H55.7378V35.4844H60.8049V30.4155Z" fill="white"/>
<path d="M10.134 25.3462H5.06689V30.4155H10.134V25.3462Z" fill="white"/>
<path d="M15.2014 25.3462H10.1343V30.4155H15.2014V25.3462Z" fill="white"/>
<path d="M20.2682 25.3462H15.2012V30.4155H20.2682V25.3462Z" fill="white"/>
<path d="M25.3356 25.3462H20.2686V30.4155H25.3356V25.3462Z" fill="white"/>
<path d="M45.6037 25.3462H40.5366V30.4155H45.6037V25.3462Z" fill="white"/>
<path d="M50.6706 25.3462H45.6035V30.4155H50.6706V25.3462Z" fill="white"/>
<path d="M55.738 25.3462H50.6709V30.4155H55.738V25.3462Z" fill="white"/>
<path d="M60.8049 25.3462H55.7378V30.4155H60.8049V25.3462Z" fill="white"/>
<path d="M10.134 20.2769H5.06689V25.3462H10.134V20.2769Z" fill="white"/>
<path d="M15.2014 20.2769H10.1343V25.3462H15.2014V20.2769Z" fill="white"/>
<path d="M20.2682 20.2769H15.2012V25.3462H20.2682V20.2769Z" fill="white"/>
<path d="M50.6706 20.2769H45.6035V25.3462H50.6706V20.2769Z" fill="white"/>
<path d="M55.738 20.2769H50.6709V25.3462H55.738V20.2769Z" fill="white"/>
<path d="M60.8049 20.2769H55.7378V25.3462H60.8049V20.2769Z" fill="white"/>
<path d="M10.134 15.2075H5.06689V20.2769H10.134V15.2075Z" fill="white"/>
<path d="M15.2014 15.2075H10.1343V20.2769H15.2014V15.2075Z" fill="white"/>
<path d="M55.738 15.2075H50.6709V20.2769H55.738V15.2075Z" fill="white"/>
<path d="M60.8049 15.2075H55.7378V20.2769H60.8049V15.2075Z" fill="white"/>
<path d="M10.134 10.1387H5.06689V15.2075H10.134V10.1387Z" fill="white"/>
<path d="M60.8049 10.1387H55.7378V15.2075H60.8049V10.1387Z" fill="white"/>
<path d="M65.8718 35.4844H60.8047V40.5537H65.8718V35.4844Z" fill="#030730"/>
<path d="M65.8718 30.4155H60.8047V35.4844H65.8718V30.4155Z" fill="#030730"/>
<path d="M65.8718 25.3462H60.8047V30.4155H65.8718V25.3462Z" fill="#030730"/>
<path d="M65.8718 20.2769H60.8047V25.3462H65.8718V20.2769Z" fill="#030730"/>
<path d="M65.8718 15.2075H60.8047V20.2769H65.8718V15.2075Z" fill="#030730"/>
<path d="M65.8718 10.1387H60.8047V15.2075H65.8718V10.1387Z" fill="#030730"/>
<path d="M65.8718 5.06934H60.8047V10.1387H65.8718V5.06934Z" fill="#030730"/>
<path d="M60.8049 5.06934H55.7378V10.1387H60.8049V5.06934Z" fill="#030730"/>
<path d="M65.8718 0H60.8047V5.06934H65.8718V0Z" fill="#030730"/>
</svg>
