<svg width="71" height="51" viewBox="0 0 71 51" fill="none" xmlns="http://www.w3.org/2000/svg">
<path d="M50.6706 0H45.6035V5.06934H50.6706V0Z" fill="#030730"/>
<path d="M45.6037 0H40.5366V5.06934H45.6037V0Z" fill="#030730"/>
<path d="M40.5368 5.06934H35.4697V10.1387H40.5368V5.06934Z" fill="#030730"/>
<path d="M55.738 0H50.6709V5.06934H55.738V0Z" fill="#030730"/>
<path d="M50.6706 5.06934H45.6035V10.1387H50.6706V5.06934Z" fill="white"/>
<path d="M45.6037 5.06934H40.5366V10.1387H45.6037V5.06934Z" fill="white"/>
<path d="M55.738 5.06934H50.6709V10.1387H55.738V5.06934Z" fill="white"/>
<path d="M50.6706 10.1387H45.6035V15.2075H50.6706V10.1387Z" fill="white"/>
<path d="M45.6037 10.1387H40.5366V15.2075H45.6037V10.1387Z" fill="white"/>
<path d="M40.5368 10.1387H35.4697V15.2075H40.5368V10.1387Z" fill="white"/>
<path d="M55.738 10.1387H50.6709V15.2075H55.738V10.1387Z" fill="white"/>
<path d="M50.6706 15.2075H45.6035V20.2769H50.6706V15.2075Z" fill="white"/>
<path d="M45.6037 15.2075H40.5366V20.2769H45.6037V15.2075Z" fill="white"/>
<path d="M55.738 15.2075H50.6709V20.2769H55.738V15.2075Z" fill="white"/>
<path d="M60.8049 10.1387H55.7378V15.2075H60.8049V10.1387Z" fill="white"/>
<path d="M60.8049 15.2075H55.7378V20.2769H60.8049V15.2075Z" fill="white"/>
<path d="M50.6706 20.2769H45.6035V25.3462H50.6706V20.2769Z" fill="white"/>
<path d="M45.6037 20.2769H40.5366V25.3462H45.6037V20.2769Z" fill="white"/>
<path d="M55.738 20.2769H50.6709V25.3462H55.738V20.2769Z" fill="white"/>
<path d="M45.6037 25.3462H40.5366V30.4155H45.6037V25.3462Z" fill="white"/>
<path d="M40.5368 25.3462H35.4697V30.4155H40.5368V25.3462Z" fill="white"/>
<path d="M50.6706 25.3462H45.6035V30.4155H50.6706V25.3462Z" fill="white"/>
<path d="M45.6037 30.4155H40.5366V35.4844H45.6037V30.4155Z" fill="white"/>
<path d="M40.5368 30.4155H35.4697V35.4844H40.5368V30.4155Z" fill="white"/>
<path d="M50.6706 30.4155H45.6035V35.4844H50.6706V30.4155Z" fill="white"/>
<path d="M55.738 30.4155H50.6709V35.4844H55.738V30.4155Z" fill="white"/>
<path d="M60.8049 30.4155H55.7378V35.4844H60.8049V30.4155Z" fill="white"/>
<path d="M50.6706 35.4844H45.6035V40.5537H50.6706V35.4844Z" fill="white"/>
<path d="M45.6037 35.4844H40.5366V40.5537H45.6037V35.4844Z" fill="white"/>
<path d="M55.738 35.4844H50.6709V40.5537H55.738V35.4844Z" fill="white"/>
<path d="M60.8049 35.4844H55.7378V40.5537H60.8049V35.4844Z" fill="white"/>
<path d="M65.8723 35.4844H60.8052V40.5537H65.8723V35.4844Z" fill="white"/>
<path d="M25.3351 40.5537H20.2681V45.623H25.3351V40.5537Z" fill="white"/>
<path d="M20.2682 40.5537H15.2012V45.623H20.2682V40.5537Z" fill="white"/>
<path d="M15.2014 40.5537H10.1343V45.623H15.2014V40.5537Z" fill="white"/>
<path d="M10.134 40.5537H5.06689V45.623H10.134V40.5537Z" fill="white"/>
<path d="M30.4025 40.5537H25.3354V45.623H30.4025V40.5537Z" fill="white"/>
<path d="M35.4694 40.5537H30.4023V45.623H35.4694V40.5537Z" fill="white"/>
<path d="M40.5368 40.5537H35.4697V45.623H40.5368V40.5537Z" fill="white"/>
<path d="M20.2682 35.4844H15.2012V40.5537H20.2682V35.4844Z" fill="white"/>
<path d="M15.2014 35.4844H10.1343V40.5537H15.2014V35.4844Z" fill="white"/>
<path d="M25.3351 35.4844H20.2681V40.5537H25.3351V35.4844Z" fill="white"/>
<path d="M30.4025 35.4844H25.3354V40.5537H30.4025V35.4844Z" fill="white"/>
<path d="M20.2682 25.3462H15.2012V30.4155H20.2682V25.3462Z" fill="white"/>
<path d="M25.3351 25.3462H20.2681V30.4155H25.3351V25.3462Z" fill="white"/>
<path d="M30.4025 25.3462H25.3354V30.4155H30.4025V25.3462Z" fill="white"/>
<path d="M25.3351 20.2769H20.2681V25.3462H25.3351V20.2769Z" fill="white"/>
<path d="M30.4025 20.2769H25.3354V25.3462H30.4025V20.2769Z" fill="white"/>
<path d="M35.4694 20.2769H30.4023V25.3462H35.4694V20.2769Z" fill="white"/>
<path d="M25.3351 15.2075H20.2681V20.2769H25.3351V15.2075Z" fill="white"/>
<path d="M30.4025 15.2075H25.3354V20.2769H30.4025V15.2075Z" fill="white"/>
<path d="M15.2014 20.2769H10.1343V25.3462H15.2014V20.2769Z" fill="white"/>
<path d="M20.2682 20.2769H15.2012V25.3462H20.2682V20.2769Z" fill="white"/>
<path d="M15.2014 15.2075H10.1343V20.2769H15.2014V15.2075Z" fill="white"/>
<path d="M20.2682 15.2075H15.2012V20.2769H20.2682V15.2075Z" fill="white"/>
<path d="M35.4694 15.2075H30.4023V20.2769H35.4694V15.2075Z" fill="white"/>
<path d="M20.235 10.1387H15.168V15.2075H20.235V10.1387Z" fill="white"/>
<path d="M25.3019 10.1387H20.2349V15.2075H25.3019V10.1387Z" fill="white"/>
<path d="M30.3693 10.1387H25.3022V15.2075H30.3693V10.1387Z" fill="white"/>
<path d="M35.4694 35.4844H30.4023V40.5537H35.4694V35.4844Z" fill="white"/>
<path d="M60.8049 5.06934H55.7378V10.1387H60.8049V5.06934Z" fill="#030730"/>
<path d="M65.8723 10.1387H60.8052V15.2075H65.8723V10.1387Z" fill="#030730"/>
<path d="M65.8723 15.2075H60.8052V20.2769H65.8723V15.2075Z" fill="#030730"/>
<path d="M60.8049 20.2769H55.7378V25.3462H60.8049V20.2769Z" fill="#030730"/>
<path d="M60.8049 25.3462H55.7378V30.4155H60.8049V25.3462Z" fill="#030730"/>
<path d="M65.8723 30.4155H60.8052V35.4844H65.8723V30.4155Z" fill="#030730"/>
<path d="M70.9391 35.4844H65.8721V40.5537H70.9391V35.4844Z" fill="#030730"/>
<path d="M70.9391 40.5537H65.8721V45.623H70.9391V40.5537Z" fill="#030730"/>
<path d="M65.8723 40.5537H60.8052V45.623H65.8723V40.5537Z" fill="#030730"/>
<path d="M60.8049 40.5537H55.7378V45.623H60.8049V40.5537Z" fill="#030730"/>
<path d="M55.738 40.5537H50.6709V45.623H55.738V40.5537Z" fill="#030730"/>
<path d="M45.6037 40.5537H40.5366V45.623H45.6037V40.5537Z" fill="#030730"/>
<path d="M40.5368 35.4844H35.4697V40.5537H40.5368V35.4844Z" fill="#030730"/>
<path d="M35.4694 30.4155H30.4023V35.4844H35.4694V30.4155Z" fill="#030730"/>
<path d="M35.4694 25.3462H30.4023V30.4155H35.4694V25.3462Z" fill="#030730"/>
<path d="M40.5368 20.2769H35.4697V25.3462H40.5368V20.2769Z" fill="#030730"/>
<path d="M40.5368 15.2075H35.4697V20.2769H40.5368V15.2075Z" fill="#030730"/>
<path d="M35.4694 10.1387H30.4023V15.2075H35.4694V10.1387Z" fill="#030730"/>
<path d="M30.4025 5.06934H25.3354V10.1387H30.4025V5.06934Z" fill="#030730"/>
<path d="M25.3351 5.06934H20.2681V10.1387H25.3351V5.06934Z" fill="#030730"/>
<path d="M20.2682 5.06934H15.2012V10.1387H20.2682V5.06934Z" fill="#030730"/>
<path d="M15.2014 10.1387H10.1343V15.2075H15.2014V10.1387Z" fill="#030730"/>
<path d="M10.0676 15.2075H5.00049V20.2769H10.0676V15.2075Z" fill="#030730"/>
<path d="M10.0676 20.2769H5.00049V25.3462H10.0676V20.2769Z" fill="#030730"/>
<path d="M15.1345 25.3462H10.0674V30.4155H15.1345V25.3462Z" fill="#030730"/>
<path d="M15.1345 30.4155H10.0674V35.4844H15.1345V30.4155Z" fill="#030730"/>
<path d="M10.134 35.4844H5.06689V40.5537H10.134V35.4844Z" fill="#030730"/>
<path d="M5.06708 40.5537H0V45.623H5.06708V40.5537Z" fill="#030730"/>
<path d="M5.06708 45.623H0V50.6924H5.06708V45.623Z" fill="#030730"/>
<path d="M10.134 45.623H5.06689V50.6924H10.134V45.623Z" fill="#030730"/>
<path d="M15.2014 45.623H10.1343V50.6924H15.2014V45.623Z" fill="#030730"/>
<path d="M20.2682 45.623H15.2012V50.6924H20.2682V45.623Z" fill="#030730"/>
<path d="M25.3351 45.623H20.2681V50.6924H25.3351V45.623Z" fill="#030730"/>
<path d="M30.4025 45.623H25.3354V50.6924H30.4025V45.623Z" fill="#030730"/>
<path d="M35.4694 45.623H30.4023V50.6924H35.4694V45.623Z" fill="#030730"/>
<path d="M40.5368 45.623H35.4697V50.6924H40.5368V45.623Z" fill="#030730"/>
<path d="M45.6037 45.623H40.5366V50.6924H45.6037V45.623Z" fill="#030730"/>
<path d="M20.2018 30.4155H15.1348V35.4844H20.2018V30.4155Z" fill="#030730"/>
<path d="M25.3019 30.4155H20.2349V35.4844H25.3019V30.4155Z" fill="white"/>
<path d="M30.4025 30.4155H25.3354V35.4844H30.4025V30.4155Z" fill="#030730"/>
<path d="M50.6706 40.5537H45.6035V45.623H50.6706V40.5537Z" fill="#030730"/>
<path d="M55.738 25.3462H50.6709V30.4155H55.738V25.3462Z" fill="#030730"/>
</svg>
