<svg width="71" height="31" viewBox="0 0 71 31" fill="none" xmlns="http://www.w3.org/2000/svg">
<path d="M25.3356 0H20.2686V5.06934H25.3356V0Z" fill="#030730"/>
<path d="M20.2682 0H15.2012V5.06934H20.2682V0Z" fill="#030730"/>
<path d="M15.2014 5.06934H10.1343V10.1387H15.2014V5.06934Z" fill="#030730"/>
<path d="M10.134 10.1387H5.06689V15.208H10.134V10.1387Z" fill="#030730"/>
<path d="M5.06708 15.208H0V20.2769H5.06708V15.208Z" fill="#030730"/>
<path d="M5.06708 20.2769H0V25.3462H5.06708V20.2769Z" fill="#030730"/>
<path d="M5.06708 25.3462H0V30.4155H5.06708V25.3462Z" fill="#030730"/>
<path d="M10.134 25.3462H5.06689V30.4155H10.134V25.3462Z" fill="#030730"/>
<path d="M15.2014 25.3462H10.1343V30.4155H15.2014V25.3462Z" fill="#030730"/>
<path d="M20.2682 25.3462H15.2012V30.4155H20.2682V25.3462Z" fill="#030730"/>
<path d="M20.2682 20.2769H15.2012V25.3462H20.2682V20.2769Z" fill="#030730"/>
<path d="M30.4025 0H25.3354V5.06934H30.4025V0Z" fill="#030730"/>
<path d="M35.4694 0H30.4023V5.06934H35.4694V0Z" fill="#030730"/>
<path d="M40.5368 0H35.4697V5.06934H40.5368V0Z" fill="#030730"/>
<path d="M45.6037 0H40.5366V5.06934H45.6037V0Z" fill="#030730"/>
<path d="M50.6706 0H45.6035V5.06934H50.6706V0Z" fill="#030730"/>
<path d="M55.738 0H50.6709V5.06934H55.738V0Z" fill="#030730"/>
<path d="M25.3356 5.06934H20.2686V10.1387H25.3356V5.06934Z" fill="white"/>
<path d="M20.2682 5.06934H15.2012V10.1387H20.2682V5.06934Z" fill="white"/>
<path d="M30.4025 5.06934H25.3354V10.1387H30.4025V5.06934Z" fill="white"/>
<path d="M35.4694 5.06934H30.4023V10.1387H35.4694V5.06934Z" fill="white"/>
<path d="M40.5368 5.06934H35.4697V10.1387H40.5368V5.06934Z" fill="white"/>
<path d="M45.6037 5.06934H40.5366V10.1387H45.6037V5.06934Z" fill="white"/>
<path d="M50.6706 5.06934H45.6035V10.1387H50.6706V5.06934Z" fill="white"/>
<path d="M55.738 5.06934H50.6709V10.1387H55.738V5.06934Z" fill="white"/>
<path d="M60.8049 5.06934H55.7378V10.1387H60.8049V5.06934Z" fill="#030730"/>
<path d="M65.8718 10.1387H60.8047V15.208H65.8718V10.1387Z" fill="#030730"/>
<path d="M70.9391 15.208H65.8721V20.2769H70.9391V15.208Z" fill="#030730"/>
<path d="M70.9391 20.2769H65.8721V25.3462H70.9391V20.2769Z" fill="#030730"/>
<path d="M70.9391 25.3462H65.8721V30.4155H70.9391V25.3462Z" fill="#030730"/>
<path d="M65.8718 25.3462H60.8047V30.4155H65.8718V25.3462Z" fill="#030730"/>
<path d="M60.8049 25.3462H55.7378V30.4155H60.8049V25.3462Z" fill="#030730"/>
<path d="M55.738 25.3462H50.6709V30.4155H55.738V25.3462Z" fill="#030730"/>
<path d="M55.738 20.2769H50.6709V25.3462H55.738V20.2769Z" fill="#030730"/>
<path d="M55.738 15.208H50.6709V20.2769H55.738V15.208Z" fill="#030730"/>
<path d="M50.6706 10.1387H45.6035V15.208H50.6706V10.1387Z" fill="#030730"/>
<path d="M45.6037 10.1387H40.5366V15.208H45.6037V10.1387Z" fill="#030730"/>
<path d="M40.5368 10.1387H35.4697V15.208H40.5368V10.1387Z" fill="#030730"/>
<path d="M35.4694 10.1387H30.4023V15.208H35.4694V10.1387Z" fill="#030730"/>
<path d="M30.4025 10.1387H25.3354V15.208H30.4025V10.1387Z" fill="#030730"/>
<path d="M25.3356 10.1387H20.2686V15.208H25.3356V10.1387Z" fill="#030730"/>
<path d="M20.2682 10.1387H15.2012V15.208H20.2682V10.1387Z" fill="white"/>
<path d="M15.2014 10.1387H10.1343V15.208H15.2014V10.1387Z" fill="white"/>
<path d="M60.8049 10.1387H55.7378V15.208H60.8049V10.1387Z" fill="white"/>
<path d="M55.738 10.1387H50.6709V15.208H55.738V10.1387Z" fill="white"/>
<path d="M65.8718 15.208H60.8047V20.2769H65.8718V15.208Z" fill="white"/>
<path d="M60.8049 15.208H55.7378V20.2769H60.8049V15.208Z" fill="white"/>
<path d="M65.8718 20.2769H60.8047V25.3462H65.8718V20.2769Z" fill="white"/>
<path d="M60.8049 20.2769H55.7378V25.3462H60.8049V20.2769Z" fill="white"/>
<path d="M15.2014 15.208H10.1343V20.2769H15.2014V15.208Z" fill="white"/>
<path d="M10.134 15.208H5.06689V20.2769H10.134V15.208Z" fill="white"/>
<path d="M15.2014 20.2769H10.1343V25.3462H15.2014V20.2769Z" fill="white"/>
<path d="M10.134 20.2769H5.06689V25.3462H10.134V20.2769Z" fill="white"/>
<path d="M20.2682 15.208H15.2012V20.2769H20.2682V15.208Z" fill="#030730"/>
</svg>
