<svg width="344" height="572" viewBox="0 0 344 572" fill="none" xmlns="http://www.w3.org/2000/svg">
<path d="M88.0327 385.152H38.1606C36.4401 385.152 35.0444 386.359 35.0444 387.848V431.001C35.0444 432.49 36.4401 433.697 38.1606 433.697H88.0327C89.7544 433.697 91.1489 432.49 91.1489 431.001V387.848C91.1489 386.359 89.7544 385.152 88.0327 385.152Z" fill="#00FFAF"/>
<path d="M238.393 61.3774H188.521C186.8 61.3774 185.404 62.5845 185.404 64.0737V107.227C185.404 108.715 186.8 109.923 188.521 109.923H238.393C240.114 109.923 241.509 108.715 241.509 107.227V64.0737C241.509 62.5845 240.114 61.3774 238.393 61.3774Z" fill="#00FFAF"/>
<path d="M316.232 139.447H253.092C250.909 139.447 249.14 140.854 249.14 142.59V192.799C249.14 194.535 250.909 195.943 253.092 195.943H316.232C318.415 195.943 320.185 194.535 320.185 192.799V142.59C320.185 140.854 318.415 139.447 316.232 139.447Z" fill="#861BE3"/>
<path d="M162.697 434.996H99.5573C97.374 434.996 95.6045 436.403 95.6045 438.139V488.348C95.6045 490.084 97.374 491.491 99.5573 491.491H162.697C164.88 491.491 166.65 490.084 166.65 488.348V438.139C166.65 436.403 164.88 434.996 162.697 434.996Z" fill="#861BE3"/>
<path d="M201.598 195.449H189.739V207.312H201.598V195.449Z" fill="#030730"/>
<path d="M201.598 207.312H189.739V219.176H201.598V207.312Z" fill="#030730"/>
<path d="M213.456 207.312H201.598V219.176H213.456V207.312Z" fill="#030730"/>
<path d="M213.456 219.176H201.598V231.04H213.456V219.176Z" fill="#030730"/>
<path d="M225.315 219.176H213.456V231.04H225.315V219.176Z" fill="#030730"/>
<path d="M237.174 219.176H225.315V231.04H237.174V219.176Z" fill="#030730"/>
<path d="M249.032 219.176H237.174V231.04H249.032V219.176Z" fill="#030730"/>
<path d="M260.891 219.176H249.032V231.04H260.891V219.176Z" fill="#030730"/>
<path d="M272.75 219.176H260.891V231.04H272.75V219.176Z" fill="#030730"/>
<path d="M284.609 219.176H272.75V231.04H284.609V219.176Z" fill="#030730"/>
<path d="M296.467 219.176H284.609V231.04H296.467V219.176Z" fill="#030730"/>
<path d="M308.326 219.176H296.467V231.04H308.326V219.176Z" fill="#030730"/>
<path d="M320.185 219.176H308.326V231.04H320.185V219.176Z" fill="#030730"/>
<path d="M225.315 231.04H213.456V242.904H225.315V231.04Z" fill="#00FFAF"/>
<path d="M237.174 231.04H225.315V242.904H237.174V231.04Z" fill="#00FFAF"/>
<path d="M249.032 231.04H237.174V242.904H249.032V231.04Z" fill="#00FFAF"/>
<path d="M260.891 231.04H249.032V242.904H260.891V231.04Z" fill="#00FFAF"/>
<path d="M272.75 231.04H260.891V242.904H272.75V231.04Z" fill="#00FFAF"/>
<path d="M284.609 231.04H272.75V242.904H284.609V231.04Z" fill="#00FFAF"/>
<path d="M296.467 231.04H284.609V242.904H296.467V231.04Z" fill="#00FFAF"/>
<path d="M308.326 231.04H296.467V242.904H308.326V231.04Z" fill="#00FFAF"/>
<path d="M320.185 231.04H308.326V242.904H320.185V231.04Z" fill="#00FFAF"/>
<path d="M225.315 242.904H213.456V254.767H225.315V242.904Z" fill="#00FFAF"/>
<path d="M237.174 242.904H225.315V254.767H237.174V242.904Z" fill="#00FFAF"/>
<path d="M249.032 242.904H237.174V254.767H249.032V242.904Z" fill="#00FFAF"/>
<path d="M260.891 242.904H249.032V254.767H260.891V242.904Z" fill="#00FFAF"/>
<path d="M272.75 242.904H260.891V254.767H272.75V242.904Z" fill="#00FFAF"/>
<path d="M284.609 242.904H272.75V254.767H284.609V242.904Z" fill="#00FFAF"/>
<path d="M296.467 242.904H284.609V254.767H296.467V242.904Z" fill="#00FFAF"/>
<path d="M308.326 242.904H296.467V254.767H308.326V242.904Z" fill="#00FFAF"/>
<path d="M320.185 242.904H308.326V254.767H320.185V242.904Z" fill="#00FFAF"/>
<path d="M225.315 254.767H213.456V266.631H225.315V254.767Z" fill="#00FFAF"/>
<path d="M237.174 254.767H225.315V266.631H237.174V254.767Z" fill="#00FFAF"/>
<path d="M249.032 254.767H237.174V266.631H249.032V254.767Z" fill="#00FFAF"/>
<path d="M260.891 254.767H249.032V266.631H260.891V254.767Z" fill="#00FFAF"/>
<path d="M272.75 254.767H260.891V266.631H272.75V254.767Z" fill="#00FFAF"/>
<path d="M284.609 254.767H272.75V266.631H284.609V254.767Z" fill="#00FFAF"/>
<path d="M225.315 266.631H213.456V278.495H225.315V266.631Z" fill="#00FFAF"/>
<path d="M237.174 266.631H225.315V278.495H237.174V266.631Z" fill="#00FFAF"/>
<path d="M249.032 266.631H237.174V278.495H249.032V266.631Z" fill="#00FFAF"/>
<path d="M260.891 266.631H249.032V278.495H260.891V266.631Z" fill="#00FFAF"/>
<path d="M272.75 266.631H260.891V278.495H272.75V266.631Z" fill="#00FFAF"/>
<path d="M225.315 278.495H213.456V290.358H225.315V278.495Z" fill="#00FFAF"/>
<path d="M237.174 278.495H225.315V290.358H237.174V278.495Z" fill="#00FFAF"/>
<path d="M249.032 278.495H237.174V290.358H249.032V278.495Z" fill="#00FFAF"/>
<path d="M260.891 278.495H249.032V290.358H260.891V278.495Z" fill="#00FFAF"/>
<path d="M237.174 290.358H225.315V302.222H237.174V290.358Z" fill="#00FFAF"/>
<path d="M249.032 290.358H237.174V302.222H249.032V290.358Z" fill="#00FFAF"/>
<path d="M249.032 302.222H237.174V314.085H249.032V302.222Z" fill="#00FFAF"/>
<path d="M260.891 290.358H249.032V302.222H260.891V290.358Z" fill="#00FFAF"/>
<path d="M272.75 278.495H260.891V290.358H272.75V278.495Z" fill="#00FFAF"/>
<path d="M284.609 266.631H272.75V278.495H284.609V266.631Z" fill="#00FFAF"/>
<path d="M296.467 254.767H284.609V266.631H296.467V254.767Z" fill="#00FFAF"/>
<path d="M308.326 254.767H296.467V266.631H308.326V254.767Z" fill="#030730"/>
<path d="M320.185 254.767H308.326V266.631H320.185V254.767Z" fill="#00FFAF"/>
<path d="M332.043 242.904H320.185V254.767H332.043V242.904Z" fill="#00FFAF"/>
<path d="M332.043 254.767H320.185V266.631H332.043V254.767Z" fill="#00FFAF"/>
<path d="M320.185 266.631H308.326V278.495H320.185V266.631Z" fill="#00FFAF"/>
<path d="M320.185 278.495H308.326V290.358H320.185V278.495Z" fill="#00FFAF"/>
<path d="M332.043 266.631H320.185V278.495H332.043V266.631Z" fill="#00FFAF"/>
<path d="M332.043 278.495H320.185V290.358H332.043V278.495Z" fill="#00FFAF"/>
<path d="M320.185 290.358H308.326V302.222H320.185V290.358Z" fill="#00FFAF"/>
<path d="M320.185 302.222H308.326V314.085H320.185V302.222Z" fill="#00FFAF"/>
<path d="M332.043 290.358H320.185V302.222H332.043V290.358Z" fill="#00FFAF"/>
<path d="M332.043 302.222H320.185V314.085H332.043V302.222Z" fill="#00FFAF"/>
<path d="M320.185 314.085H308.326V325.949H320.185V314.085Z" fill="#00FFAF"/>
<path d="M320.185 325.949H308.326V337.813H320.185V325.949Z" fill="#00FFAF"/>
<path d="M308.326 266.631H296.467V278.495H308.326V266.631Z" fill="#00FFAF"/>
<path d="M308.326 278.495H296.467V290.358H308.326V278.495Z" fill="#00FFAF"/>
<path d="M308.326 290.358H296.467V302.222H308.326V290.358Z" fill="#00FFAF"/>
<path d="M308.326 302.222H296.467V314.085H308.326V302.222Z" fill="#00FFAF"/>
<path d="M308.326 314.085H296.467V325.949H308.326V314.085Z" fill="#00FFAF"/>
<path d="M308.326 325.949H296.467V337.813H308.326V325.949Z" fill="#00FFAF"/>
<path d="M296.467 278.495H284.609V290.358H296.467V278.495Z" fill="#00FFAF"/>
<path d="M296.467 290.358H284.609V302.222H296.467V290.358Z" fill="#00FFAF"/>
<path d="M296.467 302.222H284.609V314.085H296.467V302.222Z" fill="#00FFAF"/>
<path d="M296.467 314.085H284.609V325.949H296.467V314.085Z" fill="#00FFAF"/>
<path d="M296.467 325.949H284.609V337.813H296.467V325.949Z" fill="#00FFAF"/>
<path d="M284.609 290.358H272.75V302.222H284.609V290.358Z" fill="#00FFAF"/>
<path d="M284.609 302.222H272.75V314.085H284.609V302.222Z" fill="#00FFAF"/>
<path d="M284.609 314.085H272.75V325.949H284.609V314.085Z" fill="#00FFAF"/>
<path d="M284.609 325.949H272.75V337.813H284.609V325.949Z" fill="#00FFAF"/>
<path d="M272.75 302.222H260.891V314.085H272.75V302.222Z" fill="#00FFAF"/>
<path d="M272.75 314.085H260.891V325.949H272.75V314.085Z" fill="#00FFAF"/>
<path d="M272.75 325.949H260.891V337.813H272.75V325.949Z" fill="#00FFAF"/>
<path d="M260.891 314.085H249.032V325.949H260.891V314.085Z" fill="#00FFAF"/>
<path d="M260.891 325.949H249.032V337.813H260.891V325.949Z" fill="#00FFAF"/>
<path d="M320.185 337.813H308.326V349.677H320.185V337.813Z" fill="#00FFAF"/>
<path d="M308.326 337.813H296.467V349.677H308.326V337.813Z" fill="#00FFAF"/>
<path d="M296.467 337.813H284.609V349.677H296.467V337.813Z" fill="#00FFAF"/>
<path d="M284.609 337.813H272.75V349.677H284.609V337.813Z" fill="#00FFAF"/>
<path d="M272.75 337.813H260.891V349.677H272.75V337.813Z" fill="#00FFAF"/>
<path d="M260.891 337.813H249.032V349.677H260.891V337.813Z" fill="#00FFAF"/>
<path d="M249.032 337.813H237.174V349.677H249.032V337.813Z" fill="#00FFAF"/>
<path d="M249.032 325.949H237.174V337.813H249.032V325.949Z" fill="#00FFAF"/>
<path d="M225.315 325.949H213.456V337.813H225.315V325.949Z" fill="#00FFAF"/>
<path d="M213.456 325.949H201.598V337.813H213.456V325.949Z" fill="#00FFAF"/>
<path d="M201.598 325.949H189.739V337.813H201.598V325.949Z" fill="#00FFAF"/>
<path d="M225.315 314.085H213.456V325.949H225.315V314.085Z" fill="#00FFAF"/>
<path d="M237.174 325.949H225.315V337.813H237.174V325.949Z" fill="#00FFAF"/>
<path d="M237.174 314.085H225.315V325.949H237.174V314.085Z" fill="#00FFAF"/>
<path d="M213.456 314.085H201.598V325.949H213.456V314.085Z" fill="#00FFAF"/>
<path d="M225.315 302.222H213.456V314.085H225.315V302.222Z" fill="#00FFAF"/>
<path d="M213.456 302.222H201.598V314.085H213.456V302.222Z" fill="#00FFAF"/>
<path d="M213.456 290.358H201.598V302.222H213.456V290.358Z" fill="#00FFAF"/>
<path d="M201.598 314.085H189.739V325.949H201.598V314.085Z" fill="#00FFAF"/>
<path d="M189.739 325.949H177.88V337.813H189.739V325.949Z" fill="#00FFAF"/>
<path d="M237.174 337.813H225.315V349.677H237.174V337.813Z" fill="#00FFAF"/>
<path d="M225.315 337.813H213.456V349.677H225.315V337.813Z" fill="#00FFAF"/>
<path d="M237.174 349.574H225.315V361.438H237.174V349.574Z" fill="#00FFAF"/>
<path d="M237.174 361.335H225.315V373.199H237.174V361.335Z" fill="#00FFAF"/>
<path d="M225.315 349.574H213.456V361.438H225.315V349.574Z" fill="#00FFAF"/>
<path d="M213.456 337.813H201.598V349.677H213.456V337.813Z" fill="#00FFAF"/>
<path d="M201.598 337.813H189.739V349.677H201.598V337.813Z" fill="#00FFAF"/>
<path d="M189.739 337.813H177.88V349.677H189.739V337.813Z" fill="#00FFAF"/>
<path d="M332.043 314.085H320.185V325.949H332.043V314.085Z" fill="#00FFAF"/>
<path d="M332.043 325.949H320.185V337.813H332.043V325.949Z" fill="#00FFAF"/>
<path d="M332.043 231.04H320.185V242.904H332.043V231.04Z" fill="#030730"/>
<path d="M343.902 242.904H332.043V254.767H343.902V242.904Z" fill="#030730"/>
<path d="M343.902 254.767H332.043V266.631H343.902V254.767Z" fill="#030730"/>
<path d="M343.902 266.631H332.043V278.495H343.902V266.631Z" fill="#030730"/>
<path d="M343.902 278.495H332.043V290.358H343.902V278.495Z" fill="#030730"/>
<path d="M343.902 290.358H332.043V302.222H343.902V290.358Z" fill="#030730"/>
<path d="M343.902 302.222H332.043V314.085H343.902V302.222Z" fill="#030730"/>
<path d="M343.902 314.085H332.043V325.949H343.902V314.085Z" fill="#030730"/>
<path d="M343.902 325.949H332.043V337.813H343.902V325.949Z" fill="#030730"/>
<path d="M332.043 337.813H320.185V349.677H332.043V337.813Z" fill="#030730"/>
<path d="M320.185 349.677H308.326V361.541H320.185V349.677Z" fill="#030730"/>
<path d="M308.326 349.677H296.467V361.541H308.326V349.677Z" fill="#030730"/>
<path d="M296.467 349.677H284.609V361.541H296.467V349.677Z" fill="#030730"/>
<path d="M284.609 349.677H272.75V361.541H284.609V349.677Z" fill="#030730"/>
<path d="M272.75 349.677H260.891V361.541H272.75V349.677Z" fill="#030730"/>
<path d="M260.891 349.677H249.032V361.541H260.891V349.677Z" fill="#030730"/>
<path d="M249.032 349.677H237.174V361.541H249.032V349.677Z" fill="#030730"/>
<path d="M249.032 361.335H237.174V373.199H249.032V361.335Z" fill="#030730"/>
<path d="M249.032 373.199H237.174V385.063H249.032V373.199Z" fill="#030730"/>
<path d="M237.174 373.199H225.315V385.063H237.174V373.199Z" fill="#030730"/>
<path d="M225.315 361.335H213.456V373.199H225.315V361.335Z" fill="#030730"/>
<path d="M213.456 349.472H201.598V361.335H213.456V349.472Z" fill="#030730"/>
<path d="M201.598 349.472H189.739V361.335H201.598V349.472Z" fill="#030730"/>
<path d="M189.739 349.472H177.88V361.335H189.739V349.472Z" fill="#030730"/>
<path d="M177.88 337.813H166.022V349.677H177.88V337.813Z" fill="#030730"/>
<path d="M249.032 385.061H237.174V396.924H249.032V385.061Z" fill="#030730"/>
<path d="M213.456 231.04H201.598V242.904H213.456V231.04Z" fill="#030730"/>
<path d="M213.456 242.904H201.598V254.767H213.456V242.904Z" fill="#030730"/>
<path d="M213.456 254.767H201.598V266.631H213.456V254.767Z" fill="#030730"/>
<path d="M213.456 266.631H201.598V278.495H213.456V266.631Z" fill="#030730"/>
<path d="M213.456 278.495H201.598V290.358H213.456V278.495Z" fill="#030730"/>
<path d="M225.315 290.358H213.456V302.222H225.315V290.358Z" fill="#030730"/>
<path d="M237.174 302.222H225.315V314.085H237.174V302.222Z" fill="#030730"/>
<path d="M249.032 314.085H237.174V325.949H249.032V314.085Z" fill="#030730"/>
<path d="M260.891 302.222H249.032V314.085H260.891V302.222Z" fill="#030730"/>
<path d="M272.75 290.358H260.891V302.222H272.75V290.358Z" fill="#030730"/>
<path d="M284.609 278.495H272.75V290.358H284.609V278.495Z" fill="#030730"/>
<path d="M296.467 266.631H284.609V278.495H296.467V266.631Z" fill="#030730"/>
<path d="M201.598 278.495H189.739V290.358H201.598V278.495Z" fill="#030730"/>
<path d="M201.598 290.358H189.739V302.222H201.598V290.358Z" fill="#030730"/>
<path d="M201.598 302.222H189.739V314.085H201.598V302.222Z" fill="#030730"/>
<path d="M189.739 302.222H177.88V314.085H189.739V302.222Z" fill="#030730"/>
<path d="M189.739 314.085H177.88V325.949H189.739V314.085Z" fill="#030730"/>
<path d="M177.88 314.085H166.022V325.949H177.88V314.085Z" fill="#030730"/>
<path d="M177.88 325.949H166.022V337.813H177.88V325.949Z" fill="#030730"/>
<path d="M166.022 325.949H154.163V337.813H166.022V325.949Z" fill="#030730"/>
<path d="M166.022 337.813H154.163V349.677H166.022V337.813Z" fill="#030730"/>
<path d="M154.163 337.813H141.696V349.677H154.163V337.813Z" fill="#030730"/>
<path d="M189.739 195.449H177.88V207.312H189.739V195.449Z" fill="#030730"/>
<path d="M189.739 183.585H177.88V195.449H189.739V183.585Z" fill="#030730"/>
<path d="M177.88 183.585H166.022V195.449H177.88V183.585Z" fill="#030730"/>
<path d="M177.88 171.722H166.022V183.585H177.88V171.722Z" fill="#030730"/>
<path d="M166.022 171.722H154.163V183.585H166.022V171.722Z" fill="#030730"/>
<path d="M166.022 159.858H154.163V171.722H166.022V159.858Z" fill="#030730"/>
<path d="M154.163 159.858H142.304V171.722H154.163V159.858Z" fill="#030730"/>
<path d="M142.304 159.858H130.446V171.722H142.304V159.858Z" fill="#030730"/>
<path d="M142.304 147.994H130.446V159.858H142.304V147.994Z" fill="#030730"/>
<path d="M130.446 147.994H118.587V159.858H130.446V147.994Z" fill="#030730"/>
<path d="M118.587 147.994H106.728V159.858H118.587V147.994Z" fill="#030730"/>
<path d="M106.728 147.994H94.8695V159.858H106.728V147.994Z" fill="#030730"/>
<path d="M94.8695 147.994H83.0108V159.858H94.8695V147.994Z" fill="#030730"/>
<path d="M83.0108 147.994H71.1522V159.858H83.0108V147.994Z" fill="#030730"/>
<path d="M83.0108 159.858H71.1522V171.722H83.0108V159.858Z" fill="#030730"/>
<path d="M71.1522 159.858H59.2935V171.722H71.1522V159.858Z" fill="#030730"/>
<path d="M59.2935 159.858H47.4348V171.722H59.2935V159.858Z" fill="#030730"/>
<path d="M59.2935 171.722H47.4348V183.585H59.2935V171.722Z" fill="#030730"/>
<path d="M47.4348 171.722H35.5761V183.585H47.4348V171.722Z" fill="#030730"/>
<path d="M47.4348 183.585H35.5761V195.449H47.4348V183.585Z" fill="#030730"/>
<path d="M35.5761 183.585H23.7174V195.449H35.5761V183.585Z" fill="#030730"/>
<path d="M35.5761 195.449H23.7174V207.312H35.5761V195.449Z" fill="#030730"/>
<path d="M23.7174 195.449H11.8587V207.312H23.7174V195.449Z" fill="#030730"/>
<path d="M23.7174 207.312H11.8587V219.176H23.7174V207.312Z" fill="#030730"/>
<path d="M11.8587 207.312H0V219.176H11.8587V207.312Z" fill="#030730"/>
<path d="M11.8587 219.176H0V231.04H11.8587V219.176Z" fill="#030730"/>
<path d="M11.8587 231.04H0V242.904H11.8587V231.04Z" fill="#030730"/>
<path d="M11.8587 242.904H0V254.767H11.8587V242.904Z" fill="#030730"/>
<path d="M11.8587 254.767H0V266.631H11.8587V254.767Z" fill="#030730"/>
<path d="M11.8587 266.631H0V278.495H11.8587V266.631Z" fill="#030730"/>
<path d="M11.8587 278.495H0V290.358H11.8587V278.495Z" fill="#030730"/>
<path d="M23.7174 278.495H11.8587V290.358H23.7174V278.495Z" fill="#030730"/>
<path d="M23.7174 290.358H11.8587V302.222H23.7174V290.358Z" fill="#030730"/>
<path d="M35.5761 290.358H23.7174V302.222H35.5761V290.358Z" fill="#030730"/>
<path d="M35.5761 302.222H23.7174V314.085H35.5761V302.222Z" fill="#030730"/>
<path d="M47.4348 302.222H35.5761V314.085H47.4348V302.222Z" fill="#030730"/>
<path d="M47.4348 314.085H35.5761V325.949H47.4348V314.085Z" fill="#030730"/>
<path d="M59.2935 314.085H47.4348V325.949H59.2935V314.085Z" fill="#030730"/>
<path d="M59.2935 325.949H47.4348V337.813H59.2935V325.949Z" fill="#030730"/>
<path d="M71.1522 325.949H59.2935V337.813H71.1522V325.949Z" fill="#030730"/>
<path d="M83.0108 337.813H71.1522V349.677H83.0108V337.813Z" fill="#030730"/>
<path d="M94.8695 337.813H83.0108V349.677H94.8695V337.813Z" fill="#030730"/>
<path d="M106.728 337.813H94.8695V349.677H106.728V337.813Z" fill="#030730"/>
<path d="M118.587 337.813H106.728V349.677H118.587V337.813Z" fill="white"/>
<path d="M118.587 349.677H106.728V361.541H118.587V349.677Z" fill="white"/>
<path d="M83.0108 325.949H71.1522V337.813H83.0108V325.949Z" fill="#030730"/>
<path d="M94.8695 325.949H83.0108V337.813H94.8695V325.949Z" fill="white"/>
<path d="M106.728 325.949H94.8695V337.813H106.728V325.949Z" fill="white"/>
<path d="M118.587 325.949H106.728V337.813H118.587V325.949Z" fill="white"/>
<path d="M83.0108 314.085H71.1522V325.949H83.0108V314.085Z" fill="white"/>
<path d="M94.8695 314.085H83.0108V325.949H94.8695V314.085Z" fill="white"/>
<path d="M94.8695 302.222H83.0108V314.085H94.8695V302.222Z" fill="white"/>
<path d="M106.728 314.085H94.8695V325.949H106.728V314.085Z" fill="white"/>
<path d="M118.587 314.085H106.728V325.949H118.587V314.085Z" fill="white"/>
<path d="M118.587 302.222H106.728V314.085H118.587V302.222Z" fill="white"/>
<path d="M118.587 290.358H106.728V302.222H118.587V290.358Z" fill="white"/>
<path d="M106.728 290.358H94.8695V302.222H106.728V290.358Z" fill="#030730"/>
<path d="M106.728 302.222H94.8695V314.085H106.728V302.222Z" fill="white"/>
<path d="M106.728 278.495H94.8695V290.358H106.728V278.495Z" fill="white"/>
<path d="M106.728 266.631H94.8695V278.495H106.728V266.631Z" fill="#030730"/>
<path d="M106.728 254.767H94.8695V266.631H106.728V254.767Z" fill="#030730"/>
<path d="M118.587 242.904H106.728V254.767H118.587V242.904Z" fill="#030730"/>
<path d="M118.587 231.04H106.728V242.904H118.587V231.04Z" fill="#030730"/>
<path d="M130.446 231.04H118.587V242.904H130.446V231.04Z" fill="#030730"/>
<path d="M130.446 219.176H118.587V231.04H130.446V219.176Z" fill="#030730"/>
<path d="M130.446 207.312H118.587V219.176H130.446V207.312Z" fill="#030730"/>
<path d="M130.446 195.449H118.587V207.312H130.446V195.449Z" fill="#030730"/>
<path d="M118.587 195.449H106.728V207.312H118.587V195.449Z" fill="#030730"/>
<path d="M106.728 195.449H94.8695V207.312H106.728V195.449Z" fill="#030730"/>
<path d="M118.587 207.312H106.728V219.176H118.587V207.312Z" fill="white"/>
<path d="M106.728 207.312H94.8695V219.176H106.728V207.312Z" fill="white"/>
<path d="M118.587 219.176H106.728V231.04H118.587V219.176Z" fill="white"/>
<path d="M106.728 219.176H94.8695V231.04H106.728V219.176Z" fill="white"/>
<path d="M106.728 231.04H94.8695V242.904H106.728V231.04Z" fill="white"/>
<path d="M94.8695 219.176H83.0108V231.04H94.8695V219.176Z" fill="white"/>
<path d="M94.8695 231.04H83.0108V242.904H94.8695V231.04Z" fill="white"/>
<path d="M94.8695 242.904H83.0108V254.767H94.8695V242.904Z" fill="white"/>
<path d="M94.8695 254.767H83.0108V266.631H94.8695V254.767Z" fill="white"/>
<path d="M94.8695 266.631H83.0108V278.495H94.8695V266.631Z" fill="white"/>
<path d="M94.8695 278.495H83.0108V290.358H94.8695V278.495Z" fill="white"/>
<path d="M94.8695 195.449H83.0108V207.312H94.8695V195.449Z" fill="#030730"/>
<path d="M94.8695 207.312H83.0108V219.176H94.8695V207.312Z" fill="#030730"/>
<path d="M106.728 242.904H94.8695V254.767H106.728V242.904Z" fill="#030730"/>
<path d="M94.8695 290.358H83.0108V302.222H94.8695V290.358Z" fill="white"/>
<path d="M83.0108 302.222H71.1522V314.085H83.0108V302.222Z" fill="white"/>
<path d="M83.0108 219.176H71.1522V231.04H83.0108V219.176Z" fill="white"/>
<path d="M83.0108 231.04H71.1522V242.904H83.0108V231.04Z" fill="white"/>
<path d="M83.0108 242.904H71.1522V254.767H83.0108V242.904Z" fill="white"/>
<path d="M83.0108 254.767H71.1522V266.631H83.0108V254.767Z" fill="white"/>
<path d="M83.0108 266.631H71.1522V278.495H83.0108V266.631Z" fill="white"/>
<path d="M83.0108 278.495H71.1522V290.358H83.0108V278.495Z" fill="white"/>
<path d="M83.0108 290.358H71.1522V302.222H83.0108V290.358Z" fill="white"/>
<path d="M71.1522 314.085H59.2935V325.949H71.1522V314.085Z" fill="white"/>
<path d="M71.1522 302.222H59.2935V314.085H71.1522V302.222Z" fill="white"/>
<path d="M71.1522 219.176H59.2935V231.04H71.1522V219.176Z" fill="white"/>
<path d="M71.1522 231.04H59.2935V242.904H71.1522V231.04Z" fill="white"/>
<path d="M71.1522 242.904H59.2935V254.767H71.1522V242.904Z" fill="white"/>
<path d="M71.1522 254.767H59.2935V266.631H71.1522V254.767Z" fill="white"/>
<path d="M71.1522 266.631H59.2935V278.495H71.1522V266.631Z" fill="white"/>
<path d="M71.1522 278.495H59.2935V290.358H71.1522V278.495Z" fill="white"/>
<path d="M71.1522 290.358H59.2935V302.222H71.1522V290.358Z" fill="white"/>
<path d="M59.2935 302.222H47.4348V314.085H59.2935V302.222Z" fill="white"/>
<path d="M59.2935 219.176H47.4348V231.04H59.2935V219.176Z" fill="white"/>
<path d="M59.2935 231.04H47.4348V242.904H59.2935V231.04Z" fill="white"/>
<path d="M59.2935 242.904H47.4348V254.767H59.2935V242.904Z" fill="white"/>
<path d="M59.2935 254.767H47.4348V266.631H59.2935V254.767Z" fill="white"/>
<path d="M59.2935 266.631H47.4348V278.495H59.2935V266.631Z" fill="white"/>
<path d="M59.2935 278.495H47.4348V290.358H59.2935V278.495Z" fill="white"/>
<path d="M59.2935 290.358H47.4348V302.222H59.2935V290.358Z" fill="white"/>
<path d="M47.4348 219.176H35.5761V231.04H47.4348V219.176Z" fill="white"/>
<path d="M47.4348 231.04H35.5761V242.904H47.4348V231.04Z" fill="white"/>
<path d="M47.4348 242.904H35.5761V254.767H47.4348V242.904Z" fill="white"/>
<path d="M47.4348 254.767H35.5761V266.631H47.4348V254.767Z" fill="white"/>
<path d="M47.4348 266.631H35.5761V278.495H47.4348V266.631Z" fill="white"/>
<path d="M47.4348 278.495H35.5761V290.358H47.4348V278.495Z" fill="white"/>
<path d="M35.5761 219.176H23.7174V231.04H35.5761V219.176Z" fill="white"/>
<path d="M83.0108 207.312H71.1522V219.176H83.0108V207.312Z" fill="white"/>
<path d="M71.1522 207.312H59.2935V219.176H71.1522V207.312Z" fill="white"/>
<path d="M59.2935 207.312H47.4348V219.176H59.2935V207.312Z" fill="white"/>
<path d="M47.4348 207.312H35.5761V219.176H47.4348V207.312Z" fill="white"/>
<path d="M83.0108 195.449H71.1522V207.312H83.0108V195.449Z" fill="white"/>
<path d="M71.1522 195.449H59.2935V207.312H71.1522V195.449Z" fill="white"/>
<path d="M59.2935 195.449H47.4348V207.312H59.2935V195.449Z" fill="white"/>
<path d="M83.0108 183.585H71.1522V195.449H83.0108V183.585Z" fill="white"/>
<path d="M71.1522 183.585H59.2935V195.449H71.1522V183.585Z" fill="white"/>
<path d="M59.2935 183.585H47.4348V195.449H59.2935V183.585Z" fill="white"/>
<path d="M118.587 183.585H106.728V195.449H118.587V183.585Z" fill="white"/>
<path d="M106.728 183.585H94.8695V195.449H106.728V183.585Z" fill="white"/>
<path d="M94.8695 183.585H83.0108V195.449H94.8695V183.585Z" fill="white"/>
<path d="M154.163 183.585H142.304V195.449H154.163V183.585Z" fill="white"/>
<path d="M166.022 183.585H154.163V195.449H166.022V183.585Z" fill="white"/>
<path d="M142.304 183.585H130.446V195.449H142.304V183.585Z" fill="white"/>
<path d="M130.446 183.585H118.587V195.449H130.446V183.585Z" fill="white"/>
<path d="M154.163 171.722H142.304V183.585H154.163V171.722Z" fill="white"/>
<path d="M142.304 171.722H130.446V183.585H142.304V171.722Z" fill="white"/>
<path d="M130.446 171.722H118.587V183.585H130.446V171.722Z" fill="white"/>
<path d="M130.446 159.858H118.587V171.722H130.446V159.858Z" fill="white"/>
<path d="M118.587 171.722H106.728V183.585H118.587V171.722Z" fill="white"/>
<path d="M106.728 171.722H94.8695V183.585H106.728V171.722Z" fill="white"/>
<path d="M94.8695 171.722H83.0108V183.585H94.8695V171.722Z" fill="white"/>
<path d="M83.0108 171.722H71.1522V183.585H83.0108V171.722Z" fill="white"/>
<path d="M71.1522 171.722H59.2935V183.585H71.1522V171.722Z" fill="white"/>
<path d="M118.587 159.858H106.728V171.722H118.587V159.858Z" fill="white"/>
<path d="M106.728 159.858H94.8695V171.722H106.728V159.858Z" fill="white"/>
<path d="M94.8695 159.858H83.0108V171.722H94.8695V159.858Z" fill="white"/>
<path d="M47.4348 195.449H35.5761V207.312H47.4348V195.449Z" fill="white"/>
<path d="M35.5761 207.312H23.7174V219.176H35.5761V207.312Z" fill="white"/>
<path d="M35.5761 231.04H23.7174V242.904H35.5761V231.04Z" fill="white"/>
<path d="M35.5761 242.904H23.7174V254.767H35.5761V242.904Z" fill="white"/>
<path d="M35.5761 254.767H23.7174V266.631H35.5761V254.767Z" fill="white"/>
<path d="M35.5761 266.631H23.7174V278.495H35.5761V266.631Z" fill="white"/>
<path d="M23.7174 219.176H11.8587V231.04H23.7174V219.176Z" fill="white"/>
<path d="M23.7174 231.04H11.8587V242.904H23.7174V231.04Z" fill="white"/>
<path d="M23.7174 242.904H11.8587V254.767H23.7174V242.904Z" fill="white"/>
<path d="M23.7174 254.767H11.8587V266.631H23.7174V254.767Z" fill="white"/>
<path d="M23.7174 266.631H11.8587V278.495H23.7174V266.631Z" fill="white"/>
<path d="M35.5761 278.495H23.7174V290.358H35.5761V278.495Z" fill="white"/>
<path d="M47.4348 290.358H35.5761V302.222H47.4348V290.358Z" fill="white"/>
<path d="M130.446 314.085H118.587V325.949H130.446V314.085Z" fill="white"/>
<path d="M142.304 314.085H130.446V325.949H142.304V314.085Z" fill="white"/>
<path d="M154.163 314.085H142.304V325.949H154.163V314.085Z" fill="white"/>
<path d="M130.446 325.949H118.587V337.813H130.446V325.949Z" fill="white"/>
<path d="M142.304 325.949H130.446V337.813H142.304V325.949Z" fill="white"/>
<path d="M154.163 325.949H142.304V337.813H154.163V325.949Z" fill="white"/>
<path d="M166.022 314.085H154.163V325.949H166.022V314.085Z" fill="white"/>
<path d="M130.446 302.222H118.587V314.085H130.446V302.222Z" fill="white"/>
<path d="M130.446 349.472H118.587V361.335H130.446V349.472Z" fill="white"/>
<path d="M130.446 361.335H118.587V373.199H130.446V361.335Z" fill="white"/>
<path d="M130.446 337.608H118.587V349.472H130.446V337.608Z" fill="white"/>
<path d="M142.304 302.222H130.446V314.085H142.304V302.222Z" fill="white"/>
<path d="M154.163 302.222H142.304V314.085H154.163V302.222Z" fill="white"/>
<path d="M166.022 302.222H154.163V314.085H166.022V302.222Z" fill="white"/>
<path d="M130.446 290.358H118.587V302.222H130.446V290.358Z" fill="white"/>
<path d="M142.304 290.358H130.446V302.222H142.304V290.358Z" fill="white"/>
<path d="M154.163 290.358H142.304V302.222H154.163V290.358Z" fill="white"/>
<path d="M166.022 290.358H154.163V302.222H166.022V290.358Z" fill="white"/>
<path d="M130.446 278.495H118.587V290.358H130.446V278.495Z" fill="white"/>
<path d="M142.304 278.495H130.446V290.358H142.304V278.495Z" fill="white"/>
<path d="M154.163 278.495H142.304V290.358H154.163V278.495Z" fill="white"/>
<path d="M166.022 278.495H154.163V290.358H166.022V278.495Z" fill="white"/>
<path d="M130.446 266.631H118.587V278.495H130.446V266.631Z" fill="white"/>
<path d="M142.304 266.631H130.446V278.495H142.304V266.631Z" fill="white"/>
<path d="M154.163 266.631H142.304V278.495H154.163V266.631Z" fill="white"/>
<path d="M166.022 266.631H154.163V278.495H166.022V266.631Z" fill="white"/>
<path d="M130.446 254.767H118.587V266.631H130.446V254.767Z" fill="white"/>
<path d="M118.587 278.495H106.728V290.358H118.587V278.495Z" fill="white"/>
<path d="M118.587 266.631H106.728V278.495H118.587V266.631Z" fill="white"/>
<path d="M118.587 254.767H106.728V266.631H118.587V254.767Z" fill="white"/>
<path d="M142.304 254.767H130.446V266.631H142.304V254.767Z" fill="white"/>
<path d="M154.163 254.767H142.304V266.631H154.163V254.767Z" fill="white"/>
<path d="M166.022 254.767H154.163V266.631H166.022V254.767Z" fill="white"/>
<path d="M142.304 242.904H130.446V254.767H142.304V242.904Z" fill="white"/>
<path d="M130.446 242.904H118.587V254.767H130.446V242.904Z" fill="white"/>
<path d="M154.163 242.904H142.304V254.767H154.163V242.904Z" fill="white"/>
<path d="M166.022 242.904H154.163V254.767H166.022V242.904Z" fill="white"/>
<path d="M154.163 231.04H142.304V242.904H154.163V231.04Z" fill="white"/>
<path d="M142.304 231.04H130.446V242.904H142.304V231.04Z" fill="white"/>
<path d="M166.022 231.04H154.163V242.904H166.022V231.04Z" fill="white"/>
<path d="M177.88 302.222H166.022V314.085H177.88V302.222Z" fill="white"/>
<path d="M177.88 290.358H166.022V302.222H177.88V290.358Z" fill="white"/>
<path d="M177.88 278.495H166.022V290.358H177.88V278.495Z" fill="white"/>
<path d="M177.88 266.631H166.022V278.495H177.88V266.631Z" fill="white"/>
<path d="M177.88 254.767H166.022V266.631H177.88V254.767Z" fill="white"/>
<path d="M177.88 242.904H166.022V254.767H177.88V242.904Z" fill="white"/>
<path d="M177.88 231.04H166.022V242.904H177.88V231.04Z" fill="white"/>
<path d="M154.163 219.176H142.304V231.04H154.163V219.176Z" fill="white"/>
<path d="M142.304 219.176H130.446V231.04H142.304V219.176Z" fill="white"/>
<path d="M166.022 219.176H154.163V231.04H166.022V219.176Z" fill="white"/>
<path d="M177.88 219.176H166.022V231.04H177.88V219.176Z" fill="white"/>
<path d="M154.163 207.312H142.304V219.176H154.163V207.312Z" fill="white"/>
<path d="M142.304 207.312H130.446V219.176H142.304V207.312Z" fill="white"/>
<path d="M166.022 207.312H154.163V219.176H166.022V207.312Z" fill="white"/>
<path d="M177.88 207.312H166.022V219.176H177.88V207.312Z" fill="white"/>
<path d="M154.163 195.449H142.304V207.312H154.163V195.449Z" fill="white"/>
<path d="M142.304 195.449H130.446V207.312H142.304V195.449Z" fill="white"/>
<path d="M166.022 195.449H154.163V207.312H166.022V195.449Z" fill="white"/>
<path d="M177.88 195.449H166.022V207.312H177.88V195.449Z" fill="white"/>
<path d="M189.739 290.358H177.88V302.222H189.739V290.358Z" fill="white"/>
<path d="M189.739 278.495H177.88V290.358H189.739V278.495Z" fill="white"/>
<path d="M189.739 266.631H177.88V278.495H189.739V266.631Z" fill="white"/>
<path d="M189.739 254.767H177.88V266.631H189.739V254.767Z" fill="white"/>
<path d="M189.739 242.904H177.88V254.767H189.739V242.904Z" fill="white"/>
<path d="M189.739 231.04H177.88V242.904H189.739V231.04Z" fill="white"/>
<path d="M189.739 219.176H177.88V231.04H189.739V219.176Z" fill="white"/>
<path d="M189.739 207.312H177.88V219.176H189.739V207.312Z" fill="white"/>
<path d="M201.598 266.631H189.739V278.495H201.598V266.631Z" fill="white"/>
<path d="M201.598 254.767H189.739V266.631H201.598V254.767Z" fill="white"/>
<path d="M201.598 242.904H189.739V254.767H201.598V242.904Z" fill="white"/>
<path d="M201.598 231.04H189.739V242.904H201.598V231.04Z" fill="white"/>
<path d="M201.598 219.176H189.739V231.04H201.598V219.176Z" fill="white"/>
<path d="M106.728 349.677H94.8695V361.541H106.728V349.677Z" fill="#030730"/>
<path d="M118.387 361.335H106.529V373.199H118.387V361.335Z" fill="#030730"/>
<path d="M130.246 373.199H118.387V385.063H130.246V373.199Z" fill="#030730"/>
<path d="M142.107 385.061H130.248V396.924H142.107V385.061Z" fill="#030730"/>
<path d="M142.107 373.199H130.248V385.063H142.107V373.199Z" fill="#030730"/>
<path d="M142.107 361.335H130.248V373.199H142.107V361.335Z" fill="#030730"/>
<path d="M142.107 349.677H130.248V361.541H142.107V349.677Z" fill="#030730"/>
<path d="M142.107 337.813H130.248V349.677H142.107V337.813Z" fill="#030730"/>
<path d="M145.724 97.105H134.211V108.619H145.724V97.105Z" fill="black"/>
<path d="M173.054 23.0269H161.54V34.5405H173.054V23.0269Z" fill="black"/>
<path d="M99.6735 63.6968H88.1598V75.2104H99.6735V63.6968Z" fill="black"/>
<path d="M157.24 85.5918H145.726V97.1055H157.24V85.5918Z" fill="black"/>
<path d="M184.567 11.5137H173.053V23.0273H184.567V11.5137Z" fill="black"/>
<path d="M111.185 52.1816H99.6708V63.6953H111.185V52.1816Z" fill="black"/>
<path d="M145.724 74.0786H134.211V85.5923H145.724V74.0786Z" fill="black"/>
<path d="M173.054 0H161.54V11.5137H173.054V0Z" fill="black"/>
<path d="M99.6735 40.6685H88.1598V52.1821H99.6735V40.6685Z" fill="black"/>
<path d="M134.211 85.5918H122.697V97.1055H134.211V85.5918Z" fill="black"/>
<path d="M161.541 11.5137H150.027V23.0273H161.541V11.5137Z" fill="black"/>
<path d="M88.1581 52.1816H76.6443V63.6953H88.1581V52.1816Z" fill="black"/>
<path d="M219.215 497.249H207.702V508.762H219.215V497.249Z" fill="black"/>
<path d="M230.727 485.733H219.213V497.247H230.727V485.733Z" fill="black"/>
<path d="M219.215 474.22H207.702V485.734H219.215V474.22Z" fill="black"/>
<path d="M207.7 485.733H196.186V497.247H207.7V485.733Z" fill="black"/>
<path d="M159.919 548.603H148.405V560.116H159.919V548.603Z" fill="black"/>
<path d="M148.406 537.089H136.892V548.603H148.406V537.089Z" fill="black"/>
<path d="M171.434 560.118H159.92V571.631H171.434V560.118Z" fill="black"/>
<path d="M171.434 537.089H159.92V548.603H171.434V537.089Z" fill="black"/>
<path d="M148.406 560.118H136.892V571.631H148.406V560.118Z" fill="black"/>
</svg>
