<svg width="104" height="86" viewBox="0 0 104 86" fill="none" xmlns="http://www.w3.org/2000/svg">
<path fill-rule="evenodd" clip-rule="evenodd" d="M82.1536 73.1588H5.11084C2.28821 73.1588 0 70.8706 0 68.048V22.9556C0 20.1329 2.28821 17.8447 5.11084 17.8447H82.1536C84.9762 17.8447 87.2644 20.1329 87.2644 22.9556V68.048C87.2644 70.8706 84.9762 73.1588 82.1536 73.1588Z" fill="#00FFAF"/>
<path fill-rule="evenodd" clip-rule="evenodd" d="M17.668 67.8047H21.2413V71.3744H17.668V67.8047Z" fill="black"/>
<path fill-rule="evenodd" clip-rule="evenodd" d="M21.2412 64.2383H24.8073V67.8052H21.2412V64.2383Z" fill="black"/>
<path fill-rule="evenodd" clip-rule="evenodd" d="M24.8076 60.6685H28.3737V64.2382H24.8076V60.6685Z" fill="black"/>
<path fill-rule="evenodd" clip-rule="evenodd" d="M28.3735 35.686H31.9468V39.2552H28.3735V35.686Z" fill="black"/>
<path fill-rule="evenodd" clip-rule="evenodd" d="M28.3735 39.2549H31.9468V42.8241H28.3735V39.2549Z" fill="black"/>
<path fill-rule="evenodd" clip-rule="evenodd" d="M28.3735 42.8242H31.9468V46.3934H28.3735V42.8242Z" fill="black"/>
<path fill-rule="evenodd" clip-rule="evenodd" d="M28.3735 57.0996H31.9468V60.6686H28.3735V57.0996Z" fill="black"/>
<path fill-rule="evenodd" clip-rule="evenodd" d="M31.9468 28.5493H35.5128V32.1185H31.9468V28.5493Z" fill="black"/>
<path fill-rule="evenodd" clip-rule="evenodd" d="M31.9468 32.1182H35.5128V35.6854H31.9468V32.1182Z" fill="black"/>
<path fill-rule="evenodd" clip-rule="evenodd" d="M31.9468 46.394H35.5128V49.9613H31.9468V46.394Z" fill="black"/>
<path fill-rule="evenodd" clip-rule="evenodd" d="M31.9468 49.9609H35.5128V53.5297H31.9468V49.9609Z" fill="black"/>
<path fill-rule="evenodd" clip-rule="evenodd" d="M31.9468 53.5308H35.5128V57.0997H31.9468V53.5308Z" fill="black"/>
<path fill-rule="evenodd" clip-rule="evenodd" d="M35.5127 24.98H39.0861V28.5492H35.5127V24.98Z" fill="black"/>
<path fill-rule="evenodd" clip-rule="evenodd" d="M35.5127 35.686H39.0861V39.2552H35.5127V35.686Z" fill="black"/>
<path fill-rule="evenodd" clip-rule="evenodd" d="M35.5127 49.9609H39.0861V53.5297H35.5127V49.9609Z" fill="black"/>
<path fill-rule="evenodd" clip-rule="evenodd" d="M39.0864 17.8447H42.6525V21.412H39.0864V17.8447Z" fill="black"/>
<path fill-rule="evenodd" clip-rule="evenodd" d="M39.0864 21.4111H42.6525V24.9803H39.0864V21.4111Z" fill="black"/>
<path fill-rule="evenodd" clip-rule="evenodd" d="M39.0864 24.98H42.6525V28.5492H39.0864V24.98Z" fill="black"/>
<path fill-rule="evenodd" clip-rule="evenodd" d="M39.0864 39.2549H42.6525V42.8241H39.0864V39.2549Z" fill="black"/>
<path fill-rule="evenodd" clip-rule="evenodd" d="M39.0864 49.9609H42.6525V53.5297H39.0864V49.9609Z" fill="black"/>
<path fill-rule="evenodd" clip-rule="evenodd" d="M42.6523 10.7061H46.2184V14.2753H42.6523V10.7061Z" fill="black"/>
<path fill-rule="evenodd" clip-rule="evenodd" d="M42.6523 14.2754H46.2184V17.8446H42.6523V14.2754Z" fill="black"/>
<path fill-rule="evenodd" clip-rule="evenodd" d="M42.6523 28.5493H46.2184V32.1185H42.6523V28.5493Z" fill="black"/>
<path fill-rule="evenodd" clip-rule="evenodd" d="M42.6523 42.8242H46.2184V46.3934H42.6523V42.8242Z" fill="black"/>
<path fill-rule="evenodd" clip-rule="evenodd" d="M42.6523 46.394H46.2184V49.9613H42.6523V46.394Z" fill="black"/>
<path fill-rule="evenodd" clip-rule="evenodd" d="M46.2183 7.13672H49.7915V10.7059H46.2183V7.13672Z" fill="black"/>
<path fill-rule="evenodd" clip-rule="evenodd" d="M46.2183 17.8447H49.7915V21.412H46.2183V17.8447Z" fill="black"/>
<path fill-rule="evenodd" clip-rule="evenodd" d="M46.2183 32.1182H49.7915V35.6854H46.2183V32.1182Z" fill="black"/>
<path fill-rule="evenodd" clip-rule="evenodd" d="M46.2183 42.8242H49.7915V46.3934H46.2183V42.8242Z" fill="black"/>
<path fill-rule="evenodd" clip-rule="evenodd" d="M46.2183 82.0811H49.7915V85.6486H46.2183V82.0811Z" fill="black"/>
<path fill-rule="evenodd" clip-rule="evenodd" d="M49.7915 7.13672H53.3577V10.7059H49.7915V7.13672Z" fill="black"/>
<path fill-rule="evenodd" clip-rule="evenodd" d="M49.7915 21.4111H53.3577V24.9803H49.7915V21.4111Z" fill="black"/>
<path fill-rule="evenodd" clip-rule="evenodd" d="M49.7915 35.686H53.3577V39.2552H49.7915V35.686Z" fill="black"/>
<path fill-rule="evenodd" clip-rule="evenodd" d="M49.7915 39.2549H53.3577V42.8241H49.7915V39.2549Z" fill="black"/>
<path fill-rule="evenodd" clip-rule="evenodd" d="M49.7915 78.5117H53.3577V82.0808H49.7915V78.5117Z" fill="black"/>
<path fill-rule="evenodd" clip-rule="evenodd" d="M53.3579 0H56.9312V3.56726H53.3579V0Z" fill="black"/>
<path fill-rule="evenodd" clip-rule="evenodd" d="M53.3579 3.56787H56.9312V7.13721H53.3579V3.56787Z" fill="black"/>
<path fill-rule="evenodd" clip-rule="evenodd" d="M53.3579 7.13672H56.9312V10.7059H53.3579V7.13672Z" fill="black"/>
<path fill-rule="evenodd" clip-rule="evenodd" d="M53.3579 10.7061H56.9312V14.2753H53.3579V10.7061Z" fill="black"/>
<path fill-rule="evenodd" clip-rule="evenodd" d="M53.3579 24.98H56.9312V28.5492H53.3579V24.98Z" fill="black"/>
<path fill-rule="evenodd" clip-rule="evenodd" d="M53.3579 35.686H56.9312V39.2552H53.3579V35.686Z" fill="black"/>
<path fill-rule="evenodd" clip-rule="evenodd" d="M53.3579 74.9434H56.9312V78.5122H53.3579V74.9434Z" fill="black"/>
<path fill-rule="evenodd" clip-rule="evenodd" d="M56.9238 0H60.4972V3.56726H56.9238V0Z" fill="black"/>
<path fill-rule="evenodd" clip-rule="evenodd" d="M56.9238 7.13672H60.4972V10.7059H56.9238V7.13672Z" fill="black"/>
<path fill-rule="evenodd" clip-rule="evenodd" d="M56.9238 14.2754H60.4972V17.8446H56.9238V14.2754Z" fill="black"/>
<path fill-rule="evenodd" clip-rule="evenodd" d="M56.9238 28.5493H60.4972V32.1185H56.9238V28.5493Z" fill="black"/>
<path fill-rule="evenodd" clip-rule="evenodd" d="M56.9238 32.1182H60.4972V35.6854H56.9238V32.1182Z" fill="black"/>
<path fill-rule="evenodd" clip-rule="evenodd" d="M56.9238 71.374H60.4972V74.943H56.9238V71.374Z" fill="black"/>
<path fill-rule="evenodd" clip-rule="evenodd" d="M60.4971 0H64.0704V3.56726H60.4971V0Z" fill="black"/>
<path fill-rule="evenodd" clip-rule="evenodd" d="M60.4971 10.7061H64.0704V14.2753H60.4971V10.7061Z" fill="black"/>
<path fill-rule="evenodd" clip-rule="evenodd" d="M60.4971 17.8447H64.0704V21.412H60.4971V17.8447Z" fill="black"/>
<path fill-rule="evenodd" clip-rule="evenodd" d="M60.4971 28.5493H64.0704V32.1185H60.4971V28.5493Z" fill="black"/>
<path fill-rule="evenodd" clip-rule="evenodd" d="M60.4971 67.8047H64.0704V71.3744H60.4971V67.8047Z" fill="black"/>
<path fill-rule="evenodd" clip-rule="evenodd" d="M64.0703 0H67.6364V3.56726H64.0703V0Z" fill="black"/>
<path fill-rule="evenodd" clip-rule="evenodd" d="M64.0703 10.7061H67.6364V14.2753H64.0703V10.7061Z" fill="black"/>
<path fill-rule="evenodd" clip-rule="evenodd" d="M64.0703 14.2754H67.6364V17.8446H64.0703V14.2754Z" fill="black"/>
<path fill-rule="evenodd" clip-rule="evenodd" d="M64.0703 21.4111H67.6364V24.9803H64.0703V21.4111Z" fill="black"/>
<path fill-rule="evenodd" clip-rule="evenodd" d="M64.0703 24.98H67.6364V28.5492H64.0703V24.98Z" fill="black"/>
<path fill-rule="evenodd" clip-rule="evenodd" d="M64.0703 64.2383H67.6364V67.8052H64.0703V64.2383Z" fill="black"/>
<path fill-rule="evenodd" clip-rule="evenodd" d="M64.0703 67.8047H67.6364V71.3744H64.0703V67.8047Z" fill="black"/>
<path fill-rule="evenodd" clip-rule="evenodd" d="M67.6367 0H71.2028V3.56726H67.6367V0Z" fill="black"/>
<path fill-rule="evenodd" clip-rule="evenodd" d="M67.6367 10.7061H71.2028V14.2753H67.6367V10.7061Z" fill="black"/>
<path fill-rule="evenodd" clip-rule="evenodd" d="M67.6367 64.2383H71.2028V67.8052H67.6367V64.2383Z" fill="black"/>
<path fill-rule="evenodd" clip-rule="evenodd" d="M67.6367 71.374H71.2028V74.943H67.6367V71.374Z" fill="black"/>
<path fill-rule="evenodd" clip-rule="evenodd" d="M71.21 0H74.7761V3.56726H71.21V0Z" fill="black"/>
<path fill-rule="evenodd" clip-rule="evenodd" d="M71.21 7.13672H74.7761V10.7059H71.21V7.13672Z" fill="black"/>
<path fill-rule="evenodd" clip-rule="evenodd" d="M71.21 64.2383H74.7761V67.8052H71.21V64.2383Z" fill="black"/>
<path fill-rule="evenodd" clip-rule="evenodd" d="M71.21 74.9434H74.7761V78.5122H71.21V74.9434Z" fill="black"/>
<path fill-rule="evenodd" clip-rule="evenodd" d="M74.7759 3.56787H78.342V7.13721H74.7759V3.56787Z" fill="black"/>
<path fill-rule="evenodd" clip-rule="evenodd" d="M74.7759 17.8447H78.342V21.412H74.7759V17.8447Z" fill="black"/>
<path fill-rule="evenodd" clip-rule="evenodd" d="M74.7759 64.2383H78.342V67.8052H74.7759V64.2383Z" fill="black"/>
<path fill-rule="evenodd" clip-rule="evenodd" d="M74.7759 78.5117H78.342V82.0808H74.7759V78.5117Z" fill="black"/>
<path fill-rule="evenodd" clip-rule="evenodd" d="M78.3423 3.56787H81.9155V7.13721H78.3423V3.56787Z" fill="black"/>
<path fill-rule="evenodd" clip-rule="evenodd" d="M78.3423 14.2754H81.9155V17.8446H78.3423V14.2754Z" fill="black"/>
<path fill-rule="evenodd" clip-rule="evenodd" d="M78.3423 60.6685H81.9155V64.2382H78.3423V60.6685Z" fill="black"/>
<path fill-rule="evenodd" clip-rule="evenodd" d="M78.3423 82.0811H81.9155V85.6486H78.3423V82.0811Z" fill="black"/>
<path fill-rule="evenodd" clip-rule="evenodd" d="M81.9082 3.56787H85.4815V7.13721H81.9082V3.56787Z" fill="black"/>
<path fill-rule="evenodd" clip-rule="evenodd" d="M81.9082 10.7061H85.4815V14.2753H81.9082V10.7061Z" fill="black"/>
<path fill-rule="evenodd" clip-rule="evenodd" d="M81.9082 28.5493H85.4815V32.1185H81.9082V28.5493Z" fill="black"/>
<path fill-rule="evenodd" clip-rule="evenodd" d="M81.9082 57.0996H85.4815V60.6686H81.9082V57.0996Z" fill="black"/>
<path fill-rule="evenodd" clip-rule="evenodd" d="M85.4814 7.13672H89.0475V10.7059H85.4814V7.13672Z" fill="black"/>
<path fill-rule="evenodd" clip-rule="evenodd" d="M85.4814 10.7061H89.0475V14.2753H85.4814V10.7061Z" fill="black"/>
<path fill-rule="evenodd" clip-rule="evenodd" d="M85.4814 24.98H89.0475V28.5492H85.4814V24.98Z" fill="black"/>
<path fill-rule="evenodd" clip-rule="evenodd" d="M85.4814 53.5308H89.0475V57.0997H85.4814V53.5308Z" fill="black"/>
<path fill-rule="evenodd" clip-rule="evenodd" d="M89.0474 14.2754H92.6207V17.8446H89.0474V14.2754Z" fill="black"/>
<path fill-rule="evenodd" clip-rule="evenodd" d="M89.0474 17.8447H92.6207V21.412H89.0474V17.8447Z" fill="black"/>
<path fill-rule="evenodd" clip-rule="evenodd" d="M89.0474 21.4111H92.6207V24.9803H89.0474V21.4111Z" fill="black"/>
<path fill-rule="evenodd" clip-rule="evenodd" d="M89.0474 35.686H92.6207V39.2552H89.0474V35.686Z" fill="black"/>
<path fill-rule="evenodd" clip-rule="evenodd" d="M89.0474 49.9609H92.6207V53.5297H89.0474V49.9609Z" fill="black"/>
<path fill-rule="evenodd" clip-rule="evenodd" d="M89.0474 53.5308H92.6207V57.0997H89.0474V53.5308Z" fill="black"/>
<path fill-rule="evenodd" clip-rule="evenodd" d="M92.6206 21.4111H96.1866V24.9803H92.6206V21.4111Z" fill="black"/>
<path fill-rule="evenodd" clip-rule="evenodd" d="M92.6206 32.1182H96.1866V35.6854H92.6206V32.1182Z" fill="black"/>
<path fill-rule="evenodd" clip-rule="evenodd" d="M92.6206 46.394H96.1866V49.9613H92.6206V46.394Z" fill="black"/>
<path fill-rule="evenodd" clip-rule="evenodd" d="M92.6206 57.0996H96.1866V60.6686H92.6206V57.0996Z" fill="black"/>
<path fill-rule="evenodd" clip-rule="evenodd" d="M96.187 24.98H99.7604V28.5492H96.187V24.98Z" fill="black"/>
<path fill-rule="evenodd" clip-rule="evenodd" d="M96.187 28.5493H99.7604V32.1185H96.187V28.5493Z" fill="black"/>
<path fill-rule="evenodd" clip-rule="evenodd" d="M96.187 42.8242H99.7604V46.3934H96.187V42.8242Z" fill="black"/>
<path fill-rule="evenodd" clip-rule="evenodd" d="M96.187 60.6685H99.7604V64.2382H96.187V60.6685Z" fill="black"/>
<path fill-rule="evenodd" clip-rule="evenodd" d="M99.7529 32.1182H103.326V35.6854H99.7529V32.1182Z" fill="black"/>
<path fill-rule="evenodd" clip-rule="evenodd" d="M99.7529 35.686H103.326V39.2552H99.7529V35.686Z" fill="black"/>
<path fill-rule="evenodd" clip-rule="evenodd" d="M99.7529 39.2549H103.326V42.8241H99.7529V39.2549Z" fill="black"/>
<path fill-rule="evenodd" clip-rule="evenodd" d="M99.7529 64.2383H103.326V67.8052H99.7529V64.2383Z" fill="black"/>
</svg>
