<svg width="98" height="90" viewBox="0 0 98 90" fill="none" xmlns="http://www.w3.org/2000/svg">
<path d="M5.39478 82.3596H85.3131C88.2925 82.3596 90.7079 79.9443 90.7079 76.9648V43.0457C90.7079 40.0662 88.2925 37.6509 85.3131 37.6509H5.39478C2.41535 37.6509 0 40.0662 0 43.0457V76.9648C1e-05 79.9443 2.41535 82.3596 5.39478 82.3596Z" fill="#00FFAF"/>
<path d="M13.0479 23.5317H8.34229V28.2366H13.0479V23.5317Z" fill="black"/>
<path d="M13.0479 28.2373H8.34229V32.9429H13.0479V28.2373Z" fill="black"/>
<path d="M13.0479 32.9453H8.34229V37.6509H13.0479V32.9453Z" fill="black"/>
<path d="M13.0479 37.6509H8.34229V42.3565H13.0479V37.6509Z" fill="black"/>
<path d="M13.0479 42.356H8.34229V47.0616H13.0479V42.356Z" fill="black"/>
<path d="M13.0479 47.0645H8.34229V51.77H13.0479V47.0645Z" fill="black"/>
<path d="M17.7554 14.1182H13.0498V18.8238H17.7554V14.1182Z" fill="black"/>
<path d="M17.7554 18.8271H13.0498V23.5328H17.7554V18.8271Z" fill="black"/>
<path d="M17.7554 51.7695H13.0498V56.4752H17.7554V51.7695Z" fill="black"/>
<path d="M17.7554 56.4751H13.0498V61.1807H17.7554V56.4751Z" fill="black"/>
<path d="M22.4605 9.41357H17.7549V14.1192H22.4605V9.41357Z" fill="black"/>
<path d="M22.4605 23.5317H17.7549V28.2366H22.4605V23.5317Z" fill="black"/>
<path d="M22.4605 28.2373H17.7549V32.9429H22.4605V28.2373Z" fill="black"/>
<path d="M22.4605 32.9453H17.7549V37.6509H22.4605V32.9453Z" fill="black"/>
<path d="M22.4605 37.6509H17.7549V42.3565H22.4605V37.6509Z" fill="black"/>
<path d="M22.4605 42.356H17.7549V47.0616H22.4605V42.356Z" fill="black"/>
<path d="M22.4605 47.0645H17.7549V51.77H22.4605V47.0645Z" fill="black"/>
<path d="M22.4605 61.1831H17.7549V65.8887H22.4605V61.1831Z" fill="black"/>
<path d="M27.1675 4.70801H22.4619V9.41364H27.1675V4.70801Z" fill="black"/>
<path d="M27.1675 18.8271H22.4619V23.5328H27.1675V18.8271Z" fill="black"/>
<path d="M27.1675 51.7695H22.4619V56.4752H27.1675V51.7695Z" fill="black"/>
<path d="M27.1675 65.8887H22.4619V70.5943H27.1675V65.8887Z" fill="black"/>
<path d="M31.876 4.70801H27.1704V9.41364H31.876V4.70801Z" fill="black"/>
<path d="M31.876 14.1182H27.1704V18.8238H31.876V14.1182Z" fill="black"/>
<path d="M31.876 56.4751H27.1704V61.1807H31.876V56.4751Z" fill="black"/>
<path d="M31.876 65.8887H27.1704V70.5943H31.876V65.8887Z" fill="black"/>
<path d="M36.5809 0H31.8745V4.70563H36.5809V0Z" fill="black"/>
<path d="M36.5809 9.41357H31.8745V14.1192H36.5809V9.41357Z" fill="black"/>
<path d="M36.5809 32.9453H31.8745V37.6509H36.5809V32.9453Z" fill="black"/>
<path d="M36.5809 37.6509H31.8745V42.3565H36.5809V37.6509Z" fill="black"/>
<path d="M36.5809 61.1831H31.8745V65.8887H36.5809V61.1831Z" fill="black"/>
<path d="M36.5809 70.5933H31.8745V75.2988H36.5809V70.5933Z" fill="black"/>
<path d="M41.286 0H36.5796V4.70563H41.286V0Z" fill="black"/>
<path d="M41.286 9.41357H36.5796V14.1192H41.286V9.41357Z" fill="black"/>
<path d="M41.286 37.6509H36.5796V42.3565H41.286V37.6509Z" fill="black"/>
<path d="M41.286 42.356H36.5796V47.0616H41.286V42.356Z" fill="black"/>
<path d="M41.286 61.1831H36.5796V65.8887H41.286V61.1831Z" fill="black"/>
<path d="M41.286 70.5933H36.5796V75.2988H41.286V70.5933Z" fill="black"/>
<path d="M45.9969 0H41.2905V4.70563H45.9969V0Z" fill="black"/>
<path d="M45.9969 9.41357H41.2905V14.1192H45.9969V9.41357Z" fill="black"/>
<path d="M45.9969 42.356H41.2905V47.0616H45.9969V42.356Z" fill="black"/>
<path d="M45.9969 47.0645H41.2905V51.77H45.9969V47.0645Z" fill="black"/>
<path d="M45.9969 61.1831H41.2905V65.8887H45.9969V61.1831Z" fill="black"/>
<path d="M45.9969 70.5933H41.2905V75.2988H45.9969V70.5933Z" fill="black"/>
<path d="M50.7013 0H45.9956V4.70563H50.7013V0Z" fill="black"/>
<path d="M50.7013 9.41357H45.9956V14.1192H50.7013V9.41357Z" fill="black"/>
<path d="M50.7013 37.6509H45.9956V42.3565H50.7013V37.6509Z" fill="black"/>
<path d="M50.7013 42.356H45.9956V47.0616H50.7013V42.356Z" fill="black"/>
<path d="M50.7013 61.1831H45.9956V65.8887H50.7013V61.1831Z" fill="black"/>
<path d="M50.7013 70.5933H45.9956V75.2988H50.7013V70.5933Z" fill="black"/>
<path d="M55.4059 0H50.7002V4.70563H55.4059V0Z" fill="black"/>
<path d="M55.4059 9.41357H50.7002V14.1192H55.4059V9.41357Z" fill="black"/>
<path d="M55.4059 32.9453H50.7002V37.6509H55.4059V32.9453Z" fill="black"/>
<path d="M55.4059 37.6509H50.7002V42.3565H55.4059V37.6509Z" fill="black"/>
<path d="M55.4059 61.1831H50.7002V65.8887H55.4059V61.1831Z" fill="black"/>
<path d="M55.4059 70.5933H50.7002V75.2988H55.4059V70.5933Z" fill="black"/>
<path d="M60.1143 0H55.4087V4.70563H60.1143V0Z" fill="black"/>
<path d="M60.1143 9.41357H55.4087V14.1192H60.1143V9.41357Z" fill="black"/>
<path d="M60.1143 28.2373H55.4087V32.9429H60.1143V28.2373Z" fill="black"/>
<path d="M60.1143 32.9453H55.4087V37.6509H60.1143V32.9453Z" fill="black"/>
<path d="M60.1143 61.1831H55.4087V65.8887H60.1143V61.1831Z" fill="black"/>
<path d="M60.1143 70.5933H55.4087V75.2988H60.1143V70.5933Z" fill="black"/>
<path d="M64.8218 4.70801H60.1162V9.41364H64.8218V4.70801Z" fill="black"/>
<path d="M64.8218 14.1182H60.1162V18.8238H64.8218V14.1182Z" fill="black"/>
<path d="M64.8218 23.5317H60.1162V28.2366H64.8218V23.5317Z" fill="black"/>
<path d="M64.8218 28.2373H60.1162V32.9429H64.8218V28.2373Z" fill="black"/>
<path d="M64.8218 56.4751H60.1162V61.1807H64.8218V56.4751Z" fill="black"/>
<path d="M64.8218 65.8887H60.1162V70.5943H64.8218V65.8887Z" fill="black"/>
<path d="M69.5282 4.70801H64.8218V9.41364H69.5282V4.70801Z" fill="black"/>
<path d="M69.5282 18.8271H64.8218V23.5328H69.5282V18.8271Z" fill="black"/>
<path d="M69.5282 51.7695H64.8218V56.4752H69.5282V51.7695Z" fill="black"/>
<path d="M69.5282 65.8887H64.8218V70.5943H69.5282V65.8887Z" fill="black"/>
<path d="M74.2328 9.41357H69.5264V14.1192H74.2328V9.41357Z" fill="black"/>
<path d="M74.2328 23.5317H69.5264V28.2366H74.2328V23.5317Z" fill="black"/>
<path d="M74.2328 28.2373H69.5264V32.9429H74.2328V28.2373Z" fill="black"/>
<path d="M74.2328 32.9453H69.5264V37.6509H74.2328V32.9453Z" fill="black"/>
<path d="M74.2328 37.6509H69.5264V42.3565H74.2328V37.6509Z" fill="black"/>
<path d="M74.2328 42.356H69.5264V47.0616H74.2328V42.356Z" fill="black"/>
<path d="M74.2328 47.0645H69.5264V51.77H74.2328V47.0645Z" fill="black"/>
<path d="M74.2328 61.1831H69.5264V65.8887H74.2328V61.1831Z" fill="black"/>
<path d="M74.2328 70.5933H69.5264V75.2988H74.2328V70.5933Z" fill="black"/>
<path d="M78.9408 14.1182H74.2344V18.8238H78.9408V14.1182Z" fill="black"/>
<path d="M78.9408 18.8271H74.2344V23.5328H78.9408V18.8271Z" fill="black"/>
<path d="M78.9408 51.7695H74.2344V56.4752H78.9408V51.7695Z" fill="black"/>
<path d="M78.9408 56.4751H74.2344V61.1807H78.9408V56.4751Z" fill="black"/>
<path d="M78.9408 65.8887H74.2344V70.5943H78.9408V65.8887Z" fill="black"/>
<path d="M78.9408 75.3008H74.2344V80.0064H78.9408V75.3008Z" fill="black"/>
<path d="M83.648 23.5317H78.9424V28.2366H83.648V23.5317Z" fill="black"/>
<path d="M83.648 28.2373H78.9424V32.9429H83.648V28.2373Z" fill="black"/>
<path d="M83.648 32.9453H78.9424V37.6509H83.648V32.9453Z" fill="black"/>
<path d="M83.648 37.6509H78.9424V42.3565H83.648V37.6509Z" fill="black"/>
<path d="M83.648 42.356H78.9424V47.0616H83.648V42.356Z" fill="black"/>
<path d="M83.648 47.0645H78.9424V51.77H83.648V47.0645Z" fill="black"/>
<path d="M83.648 61.1831H78.9424V65.8887H83.648V61.1831Z" fill="black"/>
<path d="M83.648 80.0068H78.9424V84.7125H83.648V80.0068Z" fill="black"/>
<path d="M88.3521 65.8887H83.6465V70.5943H88.3521V65.8887Z" fill="black"/>
<path d="M88.3521 84.7134H83.6465V89.4182H88.3521V84.7134Z" fill="black"/>
<path d="M93.0606 70.5933H88.355V75.2988H93.0606V70.5933Z" fill="black"/>
<path d="M93.0606 84.7134H88.355V89.4182H93.0606V84.7134Z" fill="black"/>
<path d="M97.7657 75.3008H93.0601V80.0064H97.7657V75.3008Z" fill="black"/>
<path d="M97.7657 80.0068H93.0601V84.7125H97.7657V80.0068Z" fill="black"/>
</svg>
