<svg width="60" height="28" viewBox="0 0 60 28" fill="none" xmlns="http://www.w3.org/2000/svg">
<path d="M23.4429 17.8529V12.1294H24.1297V17.217H27.4534V12.1294H28.1402V17.217H29.0899V19.2436H28.4031V17.8529H23.4429Z" fill="white"/>
<path d="M33.4312 16.1569H30.1583C30.1978 16.4959 30.3477 16.7815 30.6078 17.0132C30.8677 17.2395 31.1815 17.3524 31.549 17.3524C32.035 17.3524 32.4108 17.1688 32.6766 16.8013L33.2788 16.9962C33.1034 17.2902 32.863 17.5206 32.5582 17.6873C32.2529 17.8539 31.9161 17.9374 31.549 17.9374C30.9611 17.9374 30.4749 17.7482 30.0906 17.3694C29.7061 16.9849 29.5139 16.5102 29.5139 15.9448C29.5139 15.3796 29.7033 14.9076 30.0821 14.5288C30.4664 14.1445 30.9356 13.9521 31.4895 13.9521C32.0435 13.9521 32.5072 14.1445 32.88 14.5288C33.2588 14.9076 33.4482 15.3796 33.4482 15.9448C33.4482 16.0297 33.4427 16.1004 33.4312 16.1569ZM30.1668 15.6566H32.804C32.7416 15.3288 32.5875 15.0602 32.3416 14.8511C32.0957 14.642 31.8061 14.5373 31.4726 14.5373C31.1505 14.5373 30.8677 14.642 30.6248 14.8511C30.3817 15.0602 30.229 15.3288 30.1668 15.6566Z" fill="white"/>
<path d="M34.8896 16.2076V17.8527H34.2622V14.0371H34.8896V15.6142H37.1366V14.0371H37.7642V17.8527H37.1366V16.2076H34.8896Z" fill="white"/>
<path d="M39.8583 17.8527V14.639H38.4338V14.0371H41.9019V14.639H40.4774V17.8527H39.8583Z" fill="white"/>
<path d="M43.1907 19.7606H42.5718V14.0371H43.1907V14.5628C43.5525 14.1558 44.0132 13.9521 44.5729 13.9521C45.1098 13.9521 45.5563 14.1445 45.9126 14.5288C46.2742 14.9076 46.4553 15.3796 46.4553 15.9448C46.4553 16.5159 46.2742 16.9906 45.9126 17.3694C45.5563 17.7482 45.1098 17.9374 44.5729 17.9374C44.0132 17.9374 43.5525 17.734 43.1907 17.327V19.7606ZM45.4292 14.9698C45.186 14.7097 44.8782 14.5798 44.5049 14.5798C44.1319 14.5798 43.8238 14.7097 43.5807 14.9698C43.3319 15.2356 43.2077 15.5605 43.2077 15.9448C43.2077 16.3293 43.3319 16.6543 43.5807 16.9199C43.8238 17.18 44.1319 17.31 44.5049 17.31C44.8782 17.31 45.1861 17.18 45.4292 16.9199C45.6835 16.6601 45.8109 16.3348 45.8109 15.9448C45.8109 15.5547 45.6835 15.2299 45.4292 14.9698Z" fill="white"/>
<path d="M23.6547 25.245H22.9341L25.4524 19.5215H25.9949L28.5132 25.245H27.8011L27.2244 23.9307H24.2314L23.6547 25.245ZM26.9446 23.2948L25.732 20.5051L24.5112 23.2948H26.9446Z" fill="white"/>
<path d="M29.0898 25.2448H28.8352V24.6429H29.0473C29.4089 24.6429 29.59 24.2414 29.59 23.4388V21.4292H32.5491V25.2448H31.9215V22.0311H30.2089V23.566C30.2089 24.1254 30.11 24.5452 29.9121 24.825C29.7142 25.1049 29.4401 25.2448 29.0898 25.2448Z" fill="white"/>
<path d="M34.2448 22.6163V25.2448H33.6174V21.4292H34.2448L35.6948 23.956L37.1362 21.4292H37.7638V25.2448H37.1362V22.6333L35.8814 24.8038H35.4999L34.2448 22.6163Z" fill="white"/>
<path d="M40.5109 21.3447C41.0705 21.3447 41.5313 21.5483 41.8931 21.9554V21.4297H42.512V25.2452H41.8931V24.7196C41.5313 25.1266 41.0705 25.33 40.5109 25.33C39.9739 25.33 39.5244 25.1408 39.1626 24.762C38.8066 24.3832 38.6287 23.9085 38.6287 23.3373C38.6287 22.7779 38.8066 22.3059 39.1626 21.9214C39.5302 21.5371 39.9794 21.3447 40.5109 21.3447ZM41.503 22.3624C41.2599 22.1023 40.9519 21.9723 40.5788 21.9723C40.2058 21.9723 39.8975 22.1023 39.6546 22.3624C39.4057 22.6282 39.2815 22.953 39.2815 23.3373C39.2815 23.7219 39.4057 24.0469 39.6546 24.3125C39.8975 24.5726 40.2058 24.7026 40.5788 24.7026C40.9519 24.7026 41.2599 24.5726 41.503 24.3125C41.7517 24.0469 41.8761 23.7218 41.8761 23.3373C41.8761 22.953 41.7517 22.6282 41.503 22.3624Z" fill="white"/>
<path d="M43.3516 24.2701L43.979 24.1091C44.1371 24.5217 44.4792 24.728 45.0049 24.728C45.3045 24.728 45.5518 24.6643 45.7469 24.5372C45.9418 24.41 46.0393 24.2531 46.0393 24.0667C46.0393 23.914 45.9828 23.7883 45.8699 23.6894C45.7567 23.5904 45.6155 23.541 45.4459 23.541H44.5132V23.0153H45.4034C45.5616 23.0153 45.6945 22.97 45.8019 22.8796C45.9094 22.7891 45.9631 22.6789 45.9631 22.5488C45.9631 22.3736 45.8741 22.2297 45.696 22.1165C45.5179 22.0033 45.2932 21.9469 45.0219 21.9469C44.4962 21.9469 44.1571 22.1533 44.0045 22.5658L43.377 22.4046C43.4957 22.0713 43.7034 21.8112 44.0002 21.6246C44.297 21.4382 44.6488 21.3447 45.0558 21.3447C45.4968 21.3447 45.8669 21.4524 46.1665 21.667C46.4603 21.8762 46.6075 22.1418 46.6075 22.4641C46.6075 22.7976 46.4491 23.0632 46.1327 23.2611C46.5 23.4645 46.6839 23.7586 46.6839 24.1429C46.6839 24.4767 46.5255 24.7592 46.209 24.9909C45.8981 25.217 45.5024 25.33 45.0219 25.33C44.6091 25.33 44.2558 25.2367 43.962 25.0501C43.6679 24.8637 43.4645 24.6038 43.3516 24.2701Z" fill="white"/>
<path d="M47.9132 24.762C47.5344 24.3832 47.3452 23.9085 47.3452 23.3373C47.3452 22.7666 47.5344 22.2917 47.9132 21.9129C48.2919 21.5343 48.7667 21.3447 49.3376 21.3447C49.9028 21.3447 50.375 21.5343 50.7538 21.9129C51.1381 22.2974 51.3302 22.7722 51.3302 23.3373C51.3302 23.9028 51.1381 24.3775 50.7538 24.762C50.375 25.1408 49.9028 25.33 49.3376 25.33C48.7667 25.33 48.2919 25.1408 47.9132 24.762ZM49.3376 21.9723C48.9533 21.9723 48.634 22.1023 48.3796 22.3624C48.1253 22.6225 47.9981 22.9473 47.9981 23.3373C47.9981 23.7274 48.1253 24.0526 48.3796 24.3125C48.634 24.5726 48.9533 24.7026 49.3376 24.7026C49.7221 24.7026 50.0415 24.5726 50.2958 24.3125C50.5502 24.0526 50.6774 23.7274 50.6774 23.3373C50.6774 22.9473 50.5502 22.6225 50.2958 22.3624C50.0415 22.1023 49.7221 21.9723 49.3376 21.9723Z" fill="white"/>
<path d="M52.1951 21.4292H54.1622C54.4336 21.4292 54.6737 21.5027 54.883 21.6496C55.0919 21.7967 55.2276 21.9831 55.29 22.2093C55.29 22.2488 55.2985 22.3025 55.3153 22.3704C55.3153 22.7379 55.1826 23.0205 54.9168 23.2182C55.3013 23.4218 55.4934 23.7269 55.4934 24.1339C55.4934 24.4562 55.3818 24.7221 55.1586 24.931C54.9353 25.1403 54.6539 25.2448 54.3148 25.2448H52.1951V21.4292ZM54.1622 22.0311H52.8225V23.0063H54.1622C54.3091 23.0063 54.4306 22.9596 54.5267 22.8664C54.6229 22.7732 54.6709 22.6558 54.6709 22.5146C54.6709 22.3732 54.6229 22.2573 54.5267 22.1668C54.4306 22.0766 54.3091 22.0311 54.1622 22.0311ZM52.8225 23.532V24.6429H54.3148C54.4675 24.6429 54.5947 24.5906 54.6964 24.486C54.7981 24.3813 54.8491 24.2499 54.8491 24.0917C54.8491 23.9335 54.7981 23.8006 54.6964 23.6932C54.5947 23.5857 54.4675 23.532 54.3148 23.532H52.8225Z" fill="white"/>
<path d="M57.9948 21.3447C58.5544 21.3447 59.0152 21.5483 59.377 21.9554V21.4297H59.9959V25.2452H59.377V24.7196C59.0152 25.1266 58.5544 25.33 57.9948 25.33C57.4578 25.33 57.0083 25.1408 56.6465 24.762C56.2905 24.3832 56.1125 23.9085 56.1125 23.3373C56.1125 22.7779 56.2905 22.3059 56.6465 21.9214C57.0141 21.5371 57.4633 21.3447 57.9948 21.3447ZM58.9869 22.3624C58.7438 22.1023 58.4358 21.9723 58.0627 21.9723C57.6897 21.9723 57.3814 22.1023 57.1385 22.3624C56.8896 22.6282 56.7654 22.953 56.7654 23.3373C56.7654 23.7219 56.8896 24.0469 57.1385 24.3125C57.3814 24.5726 57.6897 24.7026 58.0627 24.7026C58.4358 24.7026 58.7438 24.5726 58.9869 24.3125C59.2356 24.0469 59.36 23.7218 59.36 23.3373C59.36 22.953 59.2355 22.6282 58.9869 22.3624Z" fill="white"/>
<path fill-rule="evenodd" clip-rule="evenodd" d="M10.0761 7.54552L10.4575 7.5459L14.0566 7.54552L14.2473 7.0816C14.3446 7.02105 14.3881 6.96727 14.3774 6.92138C14.3636 6.87354 14.3355 6.82884 14.2869 6.78809C14.2386 6.74857 14.1884 6.70899 14.1366 6.67303C14.0844 6.63701 14.0566 6.59115 14.0566 6.54133C14.0998 6.36688 14.1816 6.30164 14.2943 6.34912C14.4103 6.39221 14.5178 6.39537 14.6151 6.35544L15.5521 4.4388C15.617 4.4388 15.6687 4.41742 15.7067 4.38579C15.7431 4.34861 15.7601 4.26595 15.7601 4.14413C15.7601 4.10338 15.7297 4.069 15.6648 4.04369C15.6007 4.01639 15.5362 4.00809 15.4754 4.02112C15.4101 4.02943 15.3594 4.0666 15.3211 4.12791C15.2867 4.18959 15.3001 4.29324 15.3606 4.4388C15.2467 4.57209 15.1206 4.70893 14.9881 4.84736C14.856 4.98814 14.7128 5.10442 14.5601 5.20331C14.4055 5.3006 14.2386 5.36941 14.0638 5.405C13.8905 5.44178 13.6955 5.42319 13.4859 5.34924V4.53134H14.7104C14.7832 4.53134 14.7907 4.47399 14.7243 4.36127C14.6598 4.24577 14.5819 4.14412 14.4869 4.05198C14.4221 3.9875 14.3825 3.87794 14.36 3.72092C14.339 3.55799 14.339 3.38555 14.36 3.19369C14.3825 3.00306 14.424 2.81282 14.4937 2.62218C14.5629 2.43155 14.6653 2.27219 14.8061 2.15037H13.4859V0.708317C13.4859 0.688957 13.5029 0.650967 13.5373 0.594837C13.5761 0.536277 13.6054 0.480139 13.6263 0.425549C13.6489 0.368609 13.6429 0.315189 13.6105 0.269299C13.5777 0.223809 13.4962 0.20171 13.3554 0.20171C13.2304 0.20171 13.1652 0.232119 13.1652 0.291859C13.1652 0.355529 13.1798 0.42989 13.2134 0.51693C13.2443 0.60591 13.2775 0.695289 13.3064 0.796539C13.34 0.894229 13.3344 0.978866 13.2913 1.05164H12.1602L12.4477 1.40679L12.0498 1.68645H13.2913V2.15038H12.0498C12.0498 2.1923 12.068 2.22117 12.106 2.23503C12.1443 2.24807 12.1602 2.27695 12.1602 2.31886C12.0866 2.45133 12.0142 2.60641 11.9466 2.77566C11.8777 2.94454 11.8248 3.11383 11.7852 3.28706C11.7488 3.45517 11.7405 3.62207 11.7627 3.78699C11.7852 3.95507 11.854 4.10694 11.9687 4.25173C12.0126 4.34585 11.9881 4.40596 11.8999 4.42892C11.8093 4.45541 11.7627 4.48822 11.7627 4.53134H12.5272L11.7627 5.44377H11.6868C11.5974 5.30733 11.5056 5.15703 11.4055 4.98814C11.3047 4.8165 11.1801 4.66462 11.0282 4.53134C11.0496 4.47954 11.082 4.45383 11.1279 4.45383C11.1678 4.45383 11.2137 4.45541 11.2604 4.46054C11.3098 4.46488 11.3585 4.4633 11.4055 4.45383C11.4534 4.44197 11.485 4.40438 11.5076 4.33002C11.3047 3.92778 11.2367 3.49511 11.2924 3.03078C11.3514 2.56645 11.5452 2.15039 11.8754 1.77941L11.7627 1.68645H10.3606V0.570316C10.3606 0.478546 10.3865 0.421199 10.4407 0.392719C10.4943 0.368629 10.5216 0.301359 10.5216 0.201729C10.5216 0.0648788 10.4458 0 10.2967 0C10.1476 0 10.076 0.0648788 10.076 0.201729C10.076 0.261829 10.1025 0.330639 10.1544 0.409729C10.2082 0.484909 10.18 0.570319 10.076 0.666019H8.94843L9.23125 0.973328L8.94843 1.31425H10.1698V1.68645H8.85176C8.82823 1.72557 8.84306 1.76117 8.89109 1.78373C8.93917 1.81102 8.99671 1.8316 9.05799 1.8474C9.12247 1.86323 9.17548 1.87984 9.21659 1.89288C9.25855 1.91111 9.26643 1.93322 9.23124 1.96566C8.94841 2.22118 8.75229 2.47192 8.6453 2.71989C8.5391 2.96788 8.48353 3.1969 8.47641 3.40216C8.47264 3.60782 8.49539 3.79254 8.54918 3.96021C8.59961 4.12516 8.64963 4.24578 8.69138 4.33001C8.70401 4.3933 8.65992 4.45738 8.56441 4.53133H9.23125L8.56441 5.44376C8.46968 5.30732 8.35677 5.17006 8.23041 5.02649C8.10501 4.88057 7.99765 4.74133 7.91103 4.60926C7.91103 4.5677 7.97826 4.54041 8.10996 4.5234C8.24405 4.5068 8.28873 4.47954 8.24762 4.4388C8.07773 4.32486 7.97174 4.16153 7.93476 3.94519C7.89718 3.72726 7.90156 3.50499 7.9506 3.27834C7.99964 3.05333 8.0823 2.84686 8.19915 2.65821C8.31643 2.47192 8.45385 2.35523 8.61228 2.30303L8.5644 2.18043H7.3223V0.772041C7.3223 0.720611 7.35195 0.675116 7.40873 0.626476C7.46807 0.580596 7.47556 0.528787 7.43363 0.478527C7.43363 0.376907 7.33951 0.325069 7.1471 0.325069C7.05216 0.365049 6.99956 0.41288 6.99462 0.46666C6.98987 0.51413 6.99955 0.57464 7.02745 0.64349C7.05492 0.70756 7.07474 0.776365 7.09191 0.842415C7.10735 0.908475 7.0941 0.978856 7.05217 1.05164H5.80968L6.09545 1.40679L5.80968 1.77939H7.05217V2.18042H5.60324C5.60324 2.22987 5.63468 2.27693 5.69657 2.31885C5.76302 2.36158 5.86645 2.42326 6.01793 2.50475C5.81619 2.64039 5.65544 2.8085 5.53897 3.01493C5.42091 3.22099 5.38074 3.42273 5.41063 3.61692L4.53299 4.28336C4.49423 4.24022 4.47859 4.18409 4.48731 4.10495C4.49978 4.02667 4.4786 3.97208 4.42481 3.94519C4.34908 3.90169 4.27076 3.90799 4.17841 3.96021C4.08608 4.00808 4.038 4.07255 4.02735 4.14412C4.00698 4.25723 4.03937 4.33475 4.12957 4.37788C4.21973 4.41583 4.2757 4.46767 4.29647 4.53133L6.29026 7.54551L10.0761 7.54552ZM11.1097 5.83018C10.9958 5.80802 10.9365 5.77365 10.9365 5.72023C10.978 5.72023 11.0247 5.70876 11.0698 5.68463C11.1176 5.65616 11.1679 5.67119 11.2212 5.72023C11.2632 5.81435 11.2284 5.85192 11.1097 5.83018ZM10.7617 5.44377C10.8447 5.34924 10.9365 5.34924 11.0282 5.44377L10.9365 5.62886L10.7617 5.44377ZM12.2413 6.81895H11.5076V6.44839H12.2413V6.81895ZM13.1976 5.34925C12.9963 5.34925 12.8504 5.39397 12.7669 5.48334C12.6807 5.56957 12.6368 5.64943 12.6368 5.72023H12.3062L13.1976 4.53135V5.34925ZM11.9688 5.44377L12.7036 4.53134H13.0069L12.1602 5.72021C12.11 5.77363 12.0459 5.75898 11.9687 5.68462C11.8964 5.60674 11.8964 5.52567 11.9688 5.44377ZM11.7939 5.72021C11.7939 5.78311 11.7346 5.8124 11.6203 5.80568C11.5025 5.80212 11.4447 5.77363 11.4447 5.72021C11.4851 5.67118 11.5558 5.6423 11.6535 5.63716C11.7473 5.63125 11.7939 5.65895 11.7939 5.72021ZM11.5076 5.51772H11.2212V5.34924C11.2632 5.34924 11.3221 5.35872 11.3965 5.37179C11.4716 5.38918 11.5076 5.43943 11.5076 5.51772ZM11.1587 5.00397C11.2212 5.07081 11.2731 5.12815 11.3162 5.18117C11.2731 5.22151 11.2284 5.2318 11.1746 5.21321C11.1212 5.19147 11.0722 5.18117 11.0282 5.18117C10.9242 5.09653 10.8914 5.03088 10.9365 4.97827C11.0223 4.92805 11.0947 4.93355 11.1587 5.00397ZM10.8218 4.53134C10.8985 4.57209 10.9365 4.6579 10.9365 4.79475C10.8914 4.88729 10.8159 4.88807 10.713 4.80265C10.6051 4.71326 10.5532 4.62505 10.5532 4.53133C10.6576 4.48821 10.7498 4.48821 10.8218 4.53134ZM10.5532 4.97827C10.5948 4.92805 10.6434 4.93355 10.6948 5.00399C10.7498 5.07082 10.7977 5.12816 10.84 5.18118C10.5445 5.26343 10.4459 5.1958 10.5532 4.97827ZM10.7617 5.81435H10.5532V5.51773L10.7617 5.81435ZM10.3606 6.44838H11.0282V6.81895H10.3606V6.44838ZM7.90157 5.78312C7.77994 5.77364 7.71981 5.72022 7.71981 5.62886C7.76192 5.62886 7.82206 5.61861 7.89504 5.59881C7.96998 5.57706 8.03364 5.61861 8.08747 5.72021C8.08747 5.77364 8.02712 5.79183 7.90157 5.78312ZM9.80551 6.81895H9.23127V6.44839H9.80551V6.81895ZM10.0761 5.72021H9.26645L10.0761 4.59383V5.72021ZM9.45333 4.53134H9.90065L8.94844 5.81434L8.72483 5.54975L9.45333 4.53134ZM8.75762 6.44838V6.81895H8.08747V6.44838H8.75762ZM8.56443 5.72021C8.4697 5.81433 8.37243 5.81433 8.27866 5.72021C8.33086 5.67118 8.39101 5.64469 8.46079 5.64469C8.53218 5.64469 8.56443 5.67118 8.56443 5.72021ZM8.27866 5.44377C8.27866 5.53554 8.21402 5.53554 8.08747 5.44377V5.34924C8.21402 5.34925 8.27866 5.38169 8.27866 5.44377ZM7.80088 4.97827C7.89504 4.97827 7.95418 5.00042 7.97631 5.04234C7.99769 5.08268 8.03364 5.12816 8.08748 5.18117C8.00319 5.22151 7.90729 5.21321 7.80863 5.14833C7.70757 5.08583 7.70458 5.03088 7.80088 4.97827ZM7.80088 5.44377H7.52916V5.34924C7.5723 5.34924 7.62828 5.34094 7.6949 5.32708C7.76686 5.31207 7.80088 5.34925 7.80088 5.44377ZM7.32233 4.60927H7.71981V4.84182H7.32233V4.60927ZM7.32233 4.97827C7.42653 4.97827 7.49259 5.00042 7.51337 5.04234C7.53431 5.08268 7.56716 5.12816 7.60927 5.18117C7.56716 5.22151 7.52223 5.2318 7.474 5.21321C7.42653 5.19147 7.37673 5.18117 7.32233 5.18117V4.97827ZM7.46473 5.6202C7.50686 5.63717 7.52916 5.67119 7.52916 5.72023C7.52916 5.77365 7.4948 5.78787 7.42655 5.7673C7.35734 5.74636 7.32235 5.66447 7.32235 5.51773C7.37674 5.57151 7.42476 5.60674 7.46473 5.6202ZM7.52916 6.44838V6.81895H6.82993V6.44838H7.52916ZM6.97545 5.72021H6.29027L6.97545 4.8873V5.72021ZM4.95064 5.05063C4.82173 4.86871 4.73056 4.66462 4.68035 4.4388L5.44089 3.8665C5.42093 3.91871 5.41757 3.98197 5.43494 4.05831C5.45098 4.13862 5.46997 4.20978 5.49071 4.28337C5.51306 4.35615 5.51446 4.42099 5.49923 4.48506C5.48165 4.54678 5.43122 4.58712 5.34954 4.60927H6.09546L5.34954 5.51772C5.20933 5.38602 5.07741 5.23059 4.95064 5.05063ZM5.53899 5.62886L6.33295 4.60927H6.84378L6.01793 5.72021L5.53899 5.62886Z" fill="#F0AE27"/>
<path fill-rule="evenodd" clip-rule="evenodd" d="M18.1992 11.2022C15.6893 9.29385 13.2751 9.26816 10.0798 11.572C8.68287 10.2478 4.27924 8.04959 1.43869 11.572C-1.40305 15.094 0.68072 18.9625 1.62794 20.5243C2.57539 22.0878 5.96015 25.7419 9.88813 27.5701C13.654 25.821 16.5182 22.9876 18.3874 20.444C20.2598 17.9021 20.7091 13.109 18.1992 11.2022ZM15.8609 21.8145C14.5439 23.6057 12.5272 25.5999 9.87709 26.8305C7.11089 25.5441 4.72794 22.9717 4.06074 21.8703C3.3939 20.7715 1.92776 18.0488 3.92704 15.5694C5.92715 13.0891 9.0277 14.6372 10.0121 15.5694C12.2606 13.9466 13.9613 13.9652 15.7272 15.3088C17.4936 16.6503 17.1783 20.026 15.8609 21.8145Z" fill="#F0AE27"/>
<path fill-rule="evenodd" clip-rule="evenodd" d="M11.0184 9.29898C11.0184 9.77915 10.63 10.1687 10.1485 10.1687C9.66856 10.1687 9.27954 9.77915 9.27954 9.29898C9.27954 8.81805 9.66856 8.42969 10.1485 8.42969C10.63 8.42969 11.0184 8.81805 11.0184 9.29898Z" fill="#F0AE27"/>
</svg>
