<svg width="269" height="106" viewBox="0 0 269 106" fill="none" xmlns="http://www.w3.org/2000/svg">
<path d="M115.419 30.0055L115.061 39.2101H111.788V33.0226H109.947V30.0055H115.419ZM93.1742 33.0226V6.84073H96.1913V30.1078H109.691V6.84073H112.708V33.0226H93.1742ZM128.033 33.4316C126.141 33.4316 124.509 33.014 123.137 32.1788C121.773 31.3351 120.721 30.1589 119.979 28.6504C119.246 27.1333 118.88 25.3691 118.88 23.3578C118.88 21.3464 119.246 19.5737 119.979 18.0396C120.721 16.497 121.752 15.2953 123.073 14.4345C124.403 13.5652 125.954 13.1305 127.726 13.1305C128.749 13.1305 129.759 13.301 130.756 13.6419C131.753 13.9828 132.661 14.5368 133.479 15.3038C134.297 16.0623 134.949 17.068 135.435 18.3208C135.921 19.5737 136.164 21.1163 136.164 22.9487V24.2271H121.028V21.6191H133.096C133.096 20.5112 132.874 19.5226 132.431 18.6532C131.996 17.7839 131.374 17.0978 130.565 16.595C129.763 16.0922 128.817 15.8407 127.726 15.8407C126.525 15.8407 125.485 16.139 124.607 16.7356C123.738 17.3237 123.069 18.0907 122.6 19.0368C122.131 19.9828 121.897 20.997 121.897 22.0794V23.818C121.897 25.301 122.153 26.5581 122.664 27.5893C123.184 28.612 123.904 29.3919 124.824 29.9288C125.745 30.4572 126.815 30.7214 128.033 30.7214C128.826 30.7214 129.542 30.6106 130.181 30.389C130.829 30.1589 131.387 29.818 131.856 29.3663C132.324 28.9061 132.687 28.3351 132.942 27.6532L135.857 28.4714C135.55 29.4601 135.035 30.3294 134.31 31.0794C133.586 31.8208 132.691 32.4004 131.626 32.818C130.56 33.2271 129.363 33.4316 128.033 33.4316ZM153.895 21.8237V24.6362H143.055V21.8237H153.895ZM143.77 13.3862V33.0226H140.753V13.3862H143.77ZM156.197 13.3862V33.0226H153.18V13.3862H156.197ZM159.035 16.1987V13.3862H174.989V16.1987H168.546V33.0226H165.529V16.1987H159.035ZM179.39 40.3862V13.3862H182.305V16.5055H182.663C182.884 16.1646 183.191 15.7299 183.583 15.2015C183.984 14.6646 184.555 14.1873 185.296 13.7697C186.046 13.3436 187.061 13.1305 188.339 13.1305C189.992 13.1305 191.45 13.5439 192.711 14.3706C193.973 15.1973 194.957 16.3691 195.664 17.8862C196.372 19.4032 196.725 21.193 196.725 23.2555C196.725 25.3351 196.372 27.1376 195.664 28.6632C194.957 30.1802 193.977 31.3564 192.724 32.1916C191.471 33.0183 190.027 33.4316 188.39 33.4316C187.129 33.4316 186.119 33.2228 185.36 32.8052C184.602 32.3791 184.018 31.8976 183.609 31.3606C183.2 30.8152 182.884 30.3635 182.663 30.0055H182.407V40.3862H179.39ZM182.356 23.2044C182.356 24.6873 182.573 25.9956 183.008 27.1291C183.443 28.2541 184.078 29.1362 184.913 29.7754C185.748 30.4061 186.771 30.7214 187.981 30.7214C189.242 30.7214 190.295 30.389 191.139 29.7243C191.991 29.051 192.63 28.1476 193.056 27.014C193.491 25.872 193.708 24.6021 193.708 23.2044C193.708 21.8237 193.495 20.5794 193.069 19.4714C192.652 18.3549 192.017 17.4728 191.164 16.8251C190.321 16.1689 189.259 15.8407 187.981 15.8407C186.754 15.8407 185.723 16.1518 184.887 16.774C184.052 17.3876 183.421 18.2484 182.995 19.3564C182.569 20.4558 182.356 21.7385 182.356 23.2044ZM94.2481 69.0226H90.9242L100.538 42.8407H103.811L113.424 69.0226H110.1L102.277 46.9828H102.072L94.2481 69.0226ZM95.4754 58.7953H108.873V61.6078H95.4754V58.7953ZM115.355 69.0226V66.2101H116.071C116.659 66.2101 117.149 66.095 117.541 65.8649C117.933 65.6262 118.248 65.2129 118.487 64.6248C118.734 64.0282 118.921 63.2015 119.049 62.1447C119.186 61.0794 119.284 59.7243 119.343 58.0794L119.701 49.3862H132.792V69.0226H129.775V52.1987H122.565L122.258 59.2044C122.19 60.8152 122.045 62.2342 121.823 63.4615C121.61 64.6802 121.282 65.703 120.839 66.5297C120.404 67.3564 119.825 67.9785 119.1 68.3961C118.376 68.8137 117.468 69.0226 116.377 69.0226H115.355ZM149.066 64.9316L155.919 49.3862H158.782L150.294 69.0226H147.839L139.504 49.3862H142.316L149.066 64.9316ZM141.345 49.3862V69.0226H138.328V49.3862H141.345ZM156.788 69.0226V49.3862H159.805V69.0226H156.788ZM171.106 69.4828C169.862 69.4828 168.732 69.2484 167.718 68.7797C166.704 68.3024 165.899 67.6163 165.302 66.7214C164.705 65.818 164.407 64.7271 164.407 63.4487C164.407 62.3237 164.629 61.4118 165.072 60.7129C165.515 60.0055 166.107 59.4515 166.849 59.051C167.59 58.6504 168.409 58.3521 169.304 58.1561C170.207 57.9515 171.115 57.7896 172.027 57.6703C173.22 57.5169 174.187 57.4018 174.929 57.3251C175.679 57.2399 176.224 57.0993 176.565 56.9032C176.914 56.7072 177.089 56.3663 177.089 55.8805V55.7782C177.089 54.5169 176.744 53.5368 176.054 52.8379C175.372 52.139 174.336 51.7896 172.947 51.7896C171.507 51.7896 170.377 52.1049 169.559 52.7356C168.741 53.3663 168.166 54.0396 167.833 54.7555L164.97 53.7328C165.481 52.5396 166.163 51.6106 167.015 50.9458C167.876 50.2726 168.813 49.8038 169.828 49.5396C170.85 49.2669 171.856 49.1305 172.845 49.1305C173.475 49.1305 174.2 49.2072 175.018 49.3606C175.845 49.5055 176.642 49.8081 177.409 50.2683C178.184 50.7285 178.828 51.4231 179.339 52.3521C179.85 53.2811 180.106 54.5254 180.106 56.0851V69.0226H177.089V66.3635H176.936C176.731 66.7896 176.39 67.2456 175.913 67.7314C175.436 68.2172 174.801 68.6305 174.008 68.9714C173.215 69.3123 172.248 69.4828 171.106 69.4828ZM171.566 66.7726C172.759 66.7726 173.765 66.5382 174.583 66.0694C175.41 65.6007 176.032 64.9956 176.45 64.2541C176.876 63.5126 177.089 62.7328 177.089 61.9146V59.1532C176.961 59.3066 176.68 59.4473 176.245 59.5751C175.819 59.6944 175.325 59.801 174.762 59.8947C174.208 59.9799 173.667 60.0566 173.139 60.1248C172.619 60.1845 172.197 60.2356 171.873 60.2782C171.089 60.3805 170.356 60.5467 169.674 60.7768C169.001 60.9984 168.455 61.3351 168.038 61.7868C167.629 62.2299 167.424 62.8351 167.424 63.6021C167.424 64.6504 167.812 65.443 168.588 65.9799C169.372 66.5083 170.365 66.7726 171.566 66.7726ZM184.386 64.0112H187.607C187.675 64.8976 188.076 65.5708 188.809 66.0311C189.55 66.4913 190.513 66.7214 191.698 66.7214C192.908 66.7214 193.944 66.4743 194.805 65.9799C195.665 65.4771 196.096 64.6674 196.096 63.551C196.096 62.8947 195.934 62.3237 195.61 61.8379C195.286 61.3436 194.83 60.9601 194.242 60.6873C193.654 60.4146 192.959 60.2782 192.158 60.2782H188.783V57.568H192.158C193.36 57.568 194.246 57.2953 194.817 56.7498C195.397 56.2044 195.687 55.5226 195.687 54.7044C195.687 53.8265 195.376 53.1234 194.753 52.595C194.131 52.0581 193.249 51.7896 192.107 51.7896C190.957 51.7896 189.998 52.0495 189.231 52.5694C188.464 53.0808 188.059 53.7413 188.016 54.551H184.846C184.88 53.4941 185.204 52.5609 185.817 51.7512C186.431 50.9331 187.266 50.2939 188.323 49.8336C189.38 49.3649 190.59 49.1305 191.954 49.1305C193.334 49.1305 194.532 49.3734 195.546 49.8592C196.569 50.3365 197.357 50.9885 197.911 51.8152C198.474 52.6333 198.755 53.5623 198.755 54.6021C198.755 55.7101 198.444 56.6049 197.822 57.2868C197.199 57.9686 196.42 58.4544 195.482 58.7441V58.9487C196.224 58.9998 196.867 59.2385 197.413 59.6646C197.966 60.0822 198.397 60.6319 198.704 61.3137C199.011 61.987 199.164 62.7328 199.164 63.551C199.164 64.7441 198.844 65.7839 198.205 66.6703C197.566 67.5481 196.688 68.2299 195.572 68.7157C194.455 69.193 193.181 69.4316 191.749 69.4316C190.36 69.4316 189.116 69.2058 188.016 68.7541C186.917 68.2939 186.043 67.6589 185.395 66.8493C184.756 66.0311 184.42 65.0851 184.386 64.0112ZM211.379 69.4316C209.606 69.4316 208.051 69.0098 206.713 68.166C205.383 67.3223 204.344 66.1419 203.594 64.6248C202.852 63.1078 202.481 61.3351 202.481 59.3066C202.481 57.2612 202.852 55.4757 203.594 53.9501C204.344 52.4245 205.383 51.2399 206.713 50.3961C208.051 49.5524 209.606 49.1305 211.379 49.1305C213.152 49.1305 214.703 49.5524 216.033 50.3961C217.371 51.2399 218.41 52.4245 219.152 53.9501C219.902 55.4757 220.277 57.2612 220.277 59.3066C220.277 61.3351 219.902 63.1078 219.152 64.6248C218.41 66.1419 217.371 67.3223 216.033 68.166C214.703 69.0098 213.152 69.4316 211.379 69.4316ZM211.379 66.7214C212.726 66.7214 213.834 66.3762 214.703 65.6859C215.572 64.9956 216.216 64.0879 216.633 62.9629C217.051 61.8379 217.26 60.6191 217.26 59.3066C217.26 57.9941 217.051 56.7711 216.633 55.6376C216.216 54.5041 215.572 53.5879 214.703 52.889C213.834 52.1902 212.726 51.8407 211.379 51.8407C210.033 51.8407 208.925 52.1902 208.055 52.889C207.186 53.5879 206.542 54.5041 206.125 55.6376C205.707 56.7711 205.498 57.9941 205.498 59.3066C205.498 60.6191 205.707 61.8379 206.125 62.9629C206.542 64.0879 207.186 64.9956 208.055 65.6859C208.925 66.3762 210.033 66.7214 211.379 66.7214ZM224.882 69.0226V49.3862H232.911C235.024 49.3862 236.703 49.8635 237.948 50.818C239.192 51.7726 239.814 53.0339 239.814 54.6021C239.814 55.7953 239.46 56.72 238.753 57.3762C238.046 58.024 237.138 58.4629 236.03 58.693C236.754 58.7953 237.458 59.051 238.139 59.4601C238.83 59.8691 239.401 60.4316 239.853 61.1476C240.304 61.8549 240.53 62.7243 240.53 63.7555C240.53 64.7612 240.274 65.6603 239.763 66.453C239.252 67.2456 238.519 67.872 237.564 68.3322C236.61 68.7924 235.468 69.0226 234.138 69.0226H224.882ZM227.746 66.2612H234.138C235.178 66.2612 235.992 66.014 236.58 65.5197C237.168 65.0254 237.462 64.3521 237.462 63.4998C237.462 62.4856 237.168 61.6887 236.58 61.1092C235.992 60.5211 235.178 60.2271 234.138 60.2271H227.746V66.2612ZM227.746 57.6191H232.911C233.72 57.6191 234.415 57.5083 234.995 57.2868C235.574 57.0566 236.017 56.7328 236.324 56.3152C236.639 55.889 236.797 55.3862 236.797 54.8066C236.797 53.9799 236.452 53.3322 235.762 52.8635C235.071 52.3862 234.121 52.1476 232.911 52.1476H227.746V57.6191ZM250.876 69.4828C249.631 69.4828 248.502 69.2484 247.488 68.7797C246.474 68.3024 245.668 67.6163 245.072 66.7214C244.475 65.818 244.177 64.7271 244.177 63.4487C244.177 62.3237 244.398 61.4118 244.841 60.7129C245.285 60.0055 245.877 59.4515 246.618 59.051C247.36 58.6504 248.178 58.3521 249.073 58.1561C249.976 57.9515 250.884 57.7896 251.796 57.6703C252.989 57.5169 253.957 57.4018 254.698 57.3251C255.448 57.2399 255.993 57.0993 256.334 56.9032C256.684 56.7072 256.859 56.3663 256.859 55.8805V55.7782C256.859 54.5169 256.513 53.5368 255.823 52.8379C255.141 52.139 254.106 51.7896 252.716 51.7896C251.276 51.7896 250.147 52.1049 249.329 52.7356C248.511 53.3663 247.935 54.0396 247.603 54.7555L244.739 53.7328C245.251 52.5396 245.932 51.6106 246.785 50.9458C247.645 50.2726 248.583 49.8038 249.597 49.5396C250.62 49.2669 251.626 49.1305 252.614 49.1305C253.245 49.1305 253.969 49.2072 254.788 49.3606C255.614 49.5055 256.411 49.8081 257.178 50.2683C257.954 50.7285 258.597 51.4231 259.109 52.3521C259.62 53.2811 259.876 54.5254 259.876 56.0851V69.0226H256.859V66.3635H256.705C256.501 66.7896 256.16 67.2456 255.682 67.7314C255.205 68.2172 254.57 68.6305 253.778 68.9714C252.985 69.3123 252.018 69.4828 250.876 69.4828ZM251.336 66.7726C252.529 66.7726 253.535 66.5382 254.353 66.0694C255.18 65.6007 255.802 64.9956 256.219 64.2541C256.645 63.5126 256.859 62.7328 256.859 61.9146V59.1532C256.731 59.3066 256.449 59.4473 256.015 59.5751C255.589 59.6944 255.094 59.801 254.532 59.8947C253.978 59.9799 253.437 60.0566 252.908 60.1248C252.388 60.1845 251.966 60.2356 251.643 60.2782C250.859 60.3805 250.126 60.5467 249.444 60.7768C248.77 60.9984 248.225 61.3351 247.807 61.7868C247.398 62.2299 247.194 62.8351 247.194 63.6021C247.194 64.6504 247.582 65.443 248.357 65.9799C249.141 66.5083 250.134 66.7726 251.336 66.7726Z" fill="black"/>
<path d="M94.7765 90.9149C93.9886 90.9149 93.2973 90.7274 92.7026 90.3524C92.1117 89.9774 91.6496 89.4528 91.3163 88.7785C90.9867 88.1043 90.822 87.3164 90.822 86.4149C90.822 85.5058 90.9867 84.7123 91.3163 84.0342C91.6496 83.3562 92.1117 82.8297 92.7026 82.4547C93.2973 82.0797 93.9886 81.8922 94.7765 81.8922C95.5644 81.8922 96.2538 82.0797 96.8447 82.4547C97.4394 82.8297 97.9015 83.3562 98.2311 84.0342C98.5644 84.7123 98.7311 85.5058 98.7311 86.4149C98.7311 87.3164 98.5644 88.1043 98.2311 88.7785C97.9015 89.4528 97.4394 89.9774 96.8447 90.3524C96.2538 90.7274 95.5644 90.9149 94.7765 90.9149ZM94.7765 89.7104C95.375 89.7104 95.8674 89.557 96.2538 89.2501C96.6401 88.9433 96.9261 88.5399 97.1117 88.0399C97.2973 87.5399 97.3901 86.9982 97.3901 86.4149C97.3901 85.8316 97.2973 85.288 97.1117 84.7842C96.9261 84.2804 96.6401 83.8732 96.2538 83.5626C95.8674 83.252 95.375 83.0967 94.7765 83.0967C94.178 83.0967 93.6856 83.252 93.2992 83.5626C92.9129 83.8732 92.6269 84.2804 92.4413 84.7842C92.2557 85.288 92.1629 85.8316 92.1629 86.4149C92.1629 86.9982 92.2557 87.5399 92.4413 88.0399C92.6269 88.5399 92.9129 88.9433 93.2992 89.2501C93.6856 89.557 94.178 89.7104 94.7765 89.7104ZM107.255 78.7331L107.937 79.5513C107.672 79.8089 107.365 79.9888 107.017 80.091C106.668 80.1933 106.274 80.2558 105.835 80.2785C105.395 80.3013 104.907 80.324 104.369 80.3467C103.763 80.3695 103.261 80.5172 102.863 80.7899C102.465 81.0626 102.159 81.4566 101.943 81.9717C101.727 82.4869 101.589 83.1195 101.528 83.8695H101.642C101.937 83.324 102.346 82.9225 102.869 82.6649C103.392 82.4073 103.952 82.2785 104.551 82.2785C105.232 82.2785 105.846 82.4376 106.392 82.7558C106.937 83.074 107.369 83.5456 107.687 84.1706C108.005 84.7956 108.164 85.5664 108.164 86.4831C108.164 87.396 108.001 88.1839 107.676 88.8467C107.354 89.5096 106.901 90.021 106.318 90.3808C105.738 90.7369 105.058 90.9149 104.278 90.9149C103.498 90.9149 102.814 90.7312 102.227 90.3638C101.64 89.9926 101.183 89.4433 100.857 88.716C100.532 87.985 100.369 87.0816 100.369 86.0058V85.074C100.369 83.1308 100.698 81.6573 101.357 80.6535C102.02 79.6498 103.017 79.1308 104.346 79.0967C104.816 79.0816 105.234 79.0778 105.602 79.0854C105.969 79.0929 106.289 79.0759 106.562 79.0342C106.835 78.9926 107.066 78.8922 107.255 78.7331ZM104.278 89.7104C104.804 89.7104 105.257 89.5778 105.636 89.3126C106.018 89.0475 106.312 88.6744 106.517 88.1933C106.721 87.7085 106.823 87.1384 106.823 86.4831C106.823 85.8467 106.719 85.3051 106.511 84.8581C106.306 84.4111 106.013 84.0702 105.63 83.8354C105.248 83.6005 104.789 83.4831 104.255 83.4831C103.865 83.4831 103.515 83.5494 103.204 83.682C102.893 83.8145 102.628 84.0096 102.409 84.2672C102.189 84.5248 102.018 84.8392 101.897 85.2104C101.78 85.5816 101.717 86.0058 101.71 86.4831C101.71 87.4604 101.939 88.2426 102.397 88.8297C102.856 89.4168 103.482 89.7104 104.278 89.7104ZM110.215 94.0058V82.0058H111.511V83.3922H111.67C111.768 83.2407 111.905 83.0475 112.079 82.8126C112.257 82.574 112.511 82.3619 112.84 82.1763C113.174 81.9869 113.625 81.8922 114.193 81.8922C114.928 81.8922 115.575 82.0759 116.136 82.4433C116.696 82.8107 117.134 83.3316 117.448 84.0058C117.763 84.6801 117.92 85.4755 117.92 86.3922C117.92 87.3164 117.763 88.1176 117.448 88.7956C117.134 89.4698 116.698 89.9926 116.142 90.3638C115.585 90.7312 114.943 90.9149 114.215 90.9149C113.655 90.9149 113.206 90.8221 112.869 90.6365C112.532 90.4471 112.272 90.2331 112.09 89.9945C111.909 89.752 111.768 89.5513 111.67 89.3922H111.556V94.0058H110.215ZM111.534 86.3695C111.534 87.0285 111.63 87.61 111.823 88.1138C112.017 88.6138 112.299 89.0058 112.67 89.2899C113.041 89.5702 113.496 89.7104 114.034 89.7104C114.594 89.7104 115.062 89.5626 115.437 89.2672C115.816 88.9679 116.1 88.5664 116.289 88.0626C116.482 87.5551 116.579 86.9907 116.579 86.3695C116.579 85.7558 116.484 85.2028 116.295 84.7104C116.109 84.2142 115.827 83.8221 115.448 83.5342C115.073 83.2426 114.602 83.0967 114.034 83.0967C113.488 83.0967 113.03 83.235 112.659 83.5115C112.287 83.7842 112.007 84.1668 111.818 84.6592C111.628 85.1479 111.534 85.7179 111.534 86.3695ZM122.534 90.9376C121.981 90.9376 121.479 90.8335 121.028 90.6251C120.577 90.413 120.219 90.1081 119.954 89.7104C119.689 89.3089 119.556 88.824 119.556 88.2558C119.556 87.7558 119.655 87.3505 119.852 87.0399C120.049 86.7255 120.312 86.4793 120.642 86.3013C120.971 86.1232 121.335 85.9907 121.732 85.9035C122.134 85.8126 122.537 85.7407 122.943 85.6876C123.473 85.6195 123.903 85.5683 124.232 85.5342C124.566 85.4964 124.808 85.4339 124.96 85.3467C125.115 85.2596 125.193 85.1081 125.193 84.8922V84.8467C125.193 84.2861 125.039 83.8505 124.732 83.5399C124.429 83.2293 123.969 83.074 123.352 83.074C122.712 83.074 122.21 83.2142 121.846 83.4945C121.482 83.7748 121.227 84.074 121.079 84.3922L119.806 83.9376C120.034 83.4073 120.337 82.9945 120.715 82.699C121.098 82.3998 121.515 82.1914 121.965 82.074C122.42 81.9528 122.867 81.8922 123.306 81.8922C123.587 81.8922 123.909 81.9263 124.272 81.9945C124.64 82.0589 124.994 82.1933 125.335 82.3979C125.679 82.6024 125.965 82.9111 126.193 83.324C126.42 83.7369 126.534 84.2899 126.534 84.9831V90.7331H125.193V89.5513H125.125C125.034 89.7407 124.882 89.9433 124.67 90.1592C124.458 90.3751 124.176 90.5589 123.823 90.7104C123.471 90.8619 123.041 90.9376 122.534 90.9376ZM122.738 89.7331C123.268 89.7331 123.715 89.6289 124.079 89.4206C124.446 89.2123 124.723 88.9433 124.909 88.6138C125.098 88.2842 125.193 87.9376 125.193 87.574V86.3467C125.136 86.4149 125.011 86.4774 124.818 86.5342C124.628 86.5873 124.409 86.6346 124.159 86.6763C123.912 86.7142 123.672 86.7482 123.437 86.7785C123.206 86.8051 123.018 86.8278 122.875 86.8467C122.526 86.8922 122.2 86.966 121.897 87.0683C121.598 87.1668 121.356 87.3164 121.17 87.5172C120.988 87.7142 120.897 87.9831 120.897 88.324C120.897 88.7899 121.07 89.1422 121.414 89.3808C121.763 89.6157 122.204 89.7331 122.738 89.7331ZM128.436 88.5058H129.867C129.898 88.8998 130.076 89.199 130.402 89.4035C130.731 89.6081 131.159 89.7104 131.686 89.7104C132.223 89.7104 132.684 89.6005 133.066 89.3808C133.449 89.1573 133.64 88.7975 133.64 88.3013C133.64 88.0096 133.568 87.7558 133.424 87.5399C133.28 87.3202 133.078 87.1498 132.816 87.0285C132.555 86.9073 132.246 86.8467 131.89 86.8467H130.39V85.6422H131.89C132.424 85.6422 132.818 85.521 133.072 85.2785C133.33 85.0361 133.458 84.7331 133.458 84.3695C133.458 83.9793 133.32 83.6668 133.044 83.432C132.767 83.1933 132.375 83.074 131.867 83.074C131.356 83.074 130.93 83.1895 130.589 83.4206C130.248 83.6479 130.068 83.9414 130.049 84.3013H128.64C128.655 83.8316 128.799 83.4168 129.072 83.057C129.345 82.6933 129.716 82.4092 130.186 82.2047C130.655 81.9964 131.193 81.8922 131.799 81.8922C132.413 81.8922 132.945 82.0001 133.396 82.216C133.85 82.4282 134.201 82.7179 134.447 83.0854C134.697 83.449 134.822 83.8619 134.822 84.324C134.822 84.8164 134.684 85.2142 134.407 85.5172C134.131 85.8202 133.784 86.0361 133.367 86.1649V86.2558C133.697 86.2785 133.983 86.3846 134.225 86.574C134.472 86.7596 134.663 87.0039 134.799 87.307C134.936 87.6062 135.004 87.9376 135.004 88.3013C135.004 88.8316 134.862 89.2937 134.578 89.6876C134.294 90.0778 133.903 90.3808 133.407 90.5967C132.911 90.8089 132.345 90.9149 131.708 90.9149C131.091 90.9149 130.538 90.8145 130.049 90.6138C129.561 90.4092 129.172 90.127 128.884 89.7672C128.6 89.4035 128.451 88.9831 128.436 88.5058ZM140.433 90.9149C139.645 90.9149 138.954 90.7274 138.359 90.3524C137.768 89.9774 137.306 89.4528 136.973 88.7785C136.643 88.1043 136.478 87.3164 136.478 86.4149C136.478 85.5058 136.643 84.7123 136.973 84.0342C137.306 83.3562 137.768 82.8297 138.359 82.4547C138.954 82.0797 139.645 81.8922 140.433 81.8922C141.221 81.8922 141.91 82.0797 142.501 82.4547C143.096 82.8297 143.558 83.3562 143.887 84.0342C144.221 84.7123 144.387 85.5058 144.387 86.4149C144.387 87.3164 144.221 88.1043 143.887 88.7785C143.558 89.4528 143.096 89.9774 142.501 90.3524C141.91 90.7274 141.221 90.9149 140.433 90.9149ZM140.433 89.7104C141.031 89.7104 141.524 89.557 141.91 89.2501C142.296 88.9433 142.582 88.5399 142.768 88.0399C142.954 87.5399 143.046 86.9982 143.046 86.4149C143.046 85.8316 142.954 85.288 142.768 84.7842C142.582 84.2804 142.296 83.8732 141.91 83.5626C141.524 83.252 141.031 83.0967 140.433 83.0967C139.834 83.0967 139.342 83.252 138.955 83.5626C138.569 83.8732 138.283 84.2804 138.098 84.7842C137.912 85.288 137.819 85.8316 137.819 86.4149C137.819 86.9982 137.912 87.5399 138.098 88.0399C138.283 88.5399 138.569 88.9433 138.955 89.2501C139.342 89.557 139.834 89.7104 140.433 89.7104ZM146.434 90.7331V82.0058H150.002C150.942 82.0058 151.688 82.2179 152.241 82.6422C152.794 83.0664 153.071 83.627 153.071 84.324C153.071 84.8543 152.913 85.2653 152.599 85.557C152.285 85.8448 151.881 86.0399 151.389 86.1422C151.711 86.1876 152.023 86.3013 152.326 86.4831C152.633 86.6649 152.887 86.9149 153.088 87.2331C153.288 87.5475 153.389 87.9339 153.389 88.3922C153.389 88.8392 153.275 89.2388 153.048 89.591C152.821 89.9433 152.495 90.2217 152.071 90.4263C151.646 90.6308 151.139 90.7331 150.548 90.7331H146.434ZM147.707 89.5058H150.548C151.01 89.5058 151.372 89.396 151.633 89.1763C151.894 88.9566 152.025 88.6573 152.025 88.2785C152.025 87.8278 151.894 87.4736 151.633 87.216C151.372 86.9547 151.01 86.824 150.548 86.824H147.707V89.5058ZM147.707 85.6649H150.002C150.362 85.6649 150.671 85.6157 150.929 85.5172C151.186 85.4149 151.383 85.271 151.519 85.0854C151.66 84.896 151.73 84.6725 151.73 84.4149C151.73 84.0475 151.576 83.7596 151.269 83.5513C150.963 83.3392 150.54 83.2331 150.002 83.2331H147.707V85.6649ZM157.987 90.9376C157.434 90.9376 156.932 90.8335 156.481 90.6251C156.03 90.413 155.672 90.1081 155.407 89.7104C155.142 89.3089 155.009 88.824 155.009 88.2558C155.009 87.7558 155.108 87.3505 155.305 87.0399C155.502 86.7255 155.765 86.4793 156.095 86.3013C156.424 86.1232 156.788 85.9907 157.186 85.9035C157.587 85.8126 157.991 85.7407 158.396 85.6876C158.926 85.6195 159.356 85.5683 159.686 85.5342C160.019 85.4964 160.261 85.4339 160.413 85.3467C160.568 85.2596 160.646 85.1081 160.646 84.8922V84.8467C160.646 84.2861 160.492 83.8505 160.186 83.5399C159.883 83.2293 159.422 83.074 158.805 83.074C158.165 83.074 157.663 83.2142 157.299 83.4945C156.936 83.7748 156.68 84.074 156.532 84.3922L155.259 83.9376C155.487 83.4073 155.79 82.9945 156.169 82.699C156.551 82.3998 156.968 82.1914 157.419 82.074C157.873 81.9528 158.32 81.8922 158.759 81.8922C159.04 81.8922 159.362 81.9263 159.725 81.9945C160.093 82.0589 160.447 82.1933 160.788 82.3979C161.133 82.6024 161.419 82.9111 161.646 83.324C161.873 83.7369 161.987 84.2899 161.987 84.9831V90.7331H160.646V89.5513H160.578C160.487 89.7407 160.335 89.9433 160.123 90.1592C159.911 90.3751 159.629 90.5589 159.277 90.7104C158.924 90.8619 158.494 90.9376 157.987 90.9376ZM158.191 89.7331C158.722 89.7331 159.169 89.6289 159.532 89.4206C159.9 89.2123 160.176 88.9433 160.362 88.6138C160.551 88.2842 160.646 87.9376 160.646 87.574V86.3467C160.589 86.4149 160.464 86.4774 160.271 86.5342C160.081 86.5873 159.862 86.6346 159.612 86.6763C159.366 86.7142 159.125 86.7482 158.89 86.7785C158.659 86.8051 158.472 86.8278 158.328 86.8467C157.979 86.8922 157.653 86.966 157.35 87.0683C157.051 87.1668 156.809 87.3164 156.623 87.5172C156.441 87.7142 156.35 87.9831 156.35 88.324C156.35 88.7899 156.523 89.1422 156.867 89.3808C157.216 89.6157 157.657 89.7331 158.191 89.7331ZM170.275 85.7558V87.0058H165.457V85.7558H170.275ZM165.775 82.0058V90.7331H164.434V82.0058H165.775ZM171.298 82.0058V90.7331H169.957V82.0058H171.298ZM175.088 88.7558L179.292 82.0058H180.838V90.7331H179.497V83.9831L175.315 90.7331H173.747V82.0058H175.088V88.7558ZM186.953 90.9149C186.112 90.9149 185.386 90.7293 184.777 90.3581C184.17 89.9831 183.703 89.4604 183.373 88.7899C183.047 88.1157 182.884 87.3316 182.884 86.4376C182.884 85.5437 183.047 84.7558 183.373 84.074C183.703 83.3884 184.161 82.8543 184.748 82.4717C185.339 82.0854 186.028 81.8922 186.816 81.8922C187.271 81.8922 187.72 81.9679 188.163 82.1195C188.606 82.271 189.009 82.5172 189.373 82.8581C189.737 83.1952 190.027 83.6422 190.242 84.199C190.458 84.7558 190.566 85.4414 190.566 86.2558V86.824H183.839V85.6649H189.203C189.203 85.1725 189.104 84.7331 188.907 84.3467C188.714 83.9604 188.437 83.6554 188.078 83.432C187.722 83.2085 187.301 83.0967 186.816 83.0967C186.282 83.0967 185.82 83.2293 185.43 83.4945C185.044 83.7558 184.746 84.0967 184.538 84.5172C184.33 84.9376 184.225 85.3884 184.225 85.8695V86.6422C184.225 87.3013 184.339 87.86 184.566 88.3183C184.797 88.7729 185.117 89.1195 185.527 89.3581C185.936 89.5929 186.411 89.7104 186.953 89.7104C187.305 89.7104 187.623 89.6611 187.907 89.5626C188.195 89.4604 188.443 89.3089 188.652 89.1081C188.86 88.9035 189.021 88.6498 189.134 88.3467L190.43 88.7104C190.294 89.1498 190.064 89.5361 189.742 89.8695C189.42 90.199 189.023 90.4566 188.549 90.6422C188.076 90.824 187.544 90.9149 186.953 90.9149Z" fill="black"/>
<path d="M34.3045 33.8545C35.9199 33.8545 37.2294 32.545 37.2294 30.9296C37.2294 29.3142 35.9199 28.0046 34.3045 28.0046C32.6891 28.0046 31.3795 29.3142 31.3795 30.9296C31.3795 32.545 32.6891 33.8545 34.3045 33.8545Z" fill="black"/>
<path d="M0 50.8322C0 40.6658 8.24148 32.2846 18.41 32.4222C23.5416 32.491 28.572 34.0825 34.3037 38.7711C40.403 34.1836 44.4227 32.8803 49.294 32.8803C59.4604 32.8803 67.7556 40.6658 67.7556 50.8322C67.7556 74.4684 33.667 91.3879 33.667 91.3879C33.667 91.3879 0 74.4684 0 50.8322ZM9.67599 59.7705C9.67599 77.1675 33.667 88.8609 33.667 88.8609C33.8111 88.7899 56.6236 77.7439 57.6387 61.1362L57.6474 60.9921C57.8409 53.4926 51.8147 47.1588 44.1904 47.1588C41.4526 47.1588 38.9019 47.9546 36.7555 49.331C35.6564 50.0343 34.665 50.8903 33.8068 51.8667C32.9853 50.929 32.0368 50.1031 30.9894 49.417C28.8172 47.989 26.217 47.1588 23.4233 47.1588C15.8012 47.1588 9.62223 53.3378 9.62223 60.9598" fill="black"/>
<path d="M52.0329 15.0382L48.8521 18.032L45.9121 18.0707L45.8454 15.1608H50.2006C50.2006 15.1608 48.9747 14.3844 48.923 13.2854C48.8736 12.1842 48.5488 10.4572 49.0499 9.38184C49.5489 8.30434 50.3253 7.30426 50.3253 7.30426L45.8518 7.29996L45.9185 2.1985L45.2819 2.19205L45.2625 3.1104L41.0902 3.13836L42.0301 4.29759L41.0816 5.61811L45.2195 5.59661V7.29781L41.0751 7.32792C40.4493 9.05063 39.5266 12.0186 40.8192 14.1908L40.8407 14.765L40.0815 14.7865V15.135L44.9614 15.1543L44.9421 17.7395C44.0625 17.5825 43.1979 18.1459 42.9936 19.0514H35.6941L35.836 14.8876L39.0148 14.9306L38.9954 14.0682C37.6168 12.2681 38.2857 7.36018 40.5117 6.21386L40.4923 5.74286H35.3242L35.3435 1.46726H34.7091L34.6682 2.28023H30.4636L31.4486 3.43731L30.5668 4.73848L34.6467 4.80085V5.74286H29.9732V6.09987L31.511 6.56872V6.91499C27.8075 8.71727 29.2119 12.1412 29.4958 14.6338H29.1538V15.2382H34.2273V19.0729H24.8589V15.3866H28.029V14.7005C28.029 14.7005 26.844 14.3693 26.844 13.5155C26.844 12.6617 26.7515 10.4486 27.3902 9.61411C28.029 8.77964 29.2807 7.50428 29.2807 7.50428H24.9578L24.9771 2.69962C25.2739 2.60498 25.4073 2.38776 25.4008 1.98343C25.4159 0.927439 23.7556 0.927439 23.7728 1.98343C23.7663 2.39422 23.9448 2.62219 24.2481 2.71252L24.2201 3.69324H19.8714L20.9661 4.78794L19.7251 6.02675H24.1965V7.50428H18.9638L20.5231 8.3366C17.9422 11.2357 18.4326 11.8078 18.8283 15.2898H23.7663L23.8158 19.0471L18.8283 19.0729L15.413 14.6833C15.3184 14.8704 15.1463 15.021 14.8775 15.0747C14.828 15.0855 14.7828 15.0898 14.7377 15.0919L21.3102 25.1078H47.8111L48.7832 22.9312C48.7832 22.9312 47.4391 22.0043 47.8111 21.4021C48.181 20.7999 49.8027 21.2623 49.8027 21.2623L52.6932 15.1178C52.4717 15.1715 52.2287 15.1479 52.0329 15.0382ZM25.5256 22.8173H23.048V21.5161H25.5256V22.8173ZM29.5624 22.8173H27.0848V21.5161H29.5624V22.8173ZM33.5972 22.8173H31.1195V21.5161H33.5972V22.8173ZM37.6319 22.8173H35.1543V21.5161H37.6319V22.8173ZM41.6666 22.8173H39.189V21.5161H41.6666V22.8173Z" fill="black"/>
<path d="M35.8315 0.791995C35.8465 -0.263998 34.1882 -0.263998 34.2033 0.791995C34.1882 1.84799 35.8465 1.84799 35.8315 0.791995Z" fill="black"/>
<path d="M46.4325 1.44583C46.4476 0.389842 44.7894 0.389842 44.8044 1.44583C44.7894 2.50183 46.4476 2.50183 46.4325 1.44583Z" fill="black"/>
<path d="M53.2805 14.4339C53.2955 13.3779 51.6373 13.3779 51.6524 14.4339C51.6373 15.4899 53.2955 15.4899 53.2805 14.4339Z" fill="black"/>
<path d="M15.5554 14.3629C15.5705 13.307 13.9123 13.307 13.9273 14.3629C13.9123 15.4189 15.5705 15.4189 15.5554 14.3629Z" fill="black"/>
<path d="M21.7884 14.7484L21.3027 14.364L17.7283 18.8802L18.214 19.2646L21.7884 14.7484Z" fill="black"/>
<path d="M24.2835 15.3452L23.7978 14.9608L20.2234 19.477L20.7091 19.8614L24.2835 15.3452Z" fill="black"/>
<path d="M43.2467 14.9189L42.761 14.5345L39.1866 19.0508L39.6723 19.4352L43.2467 14.9189Z" fill="black"/>
<path d="M44.9339 15.2524L44.4482 14.868L40.8738 19.3842L41.3595 19.7686L44.9339 15.2524Z" fill="black"/>
<path d="M32.2995 15.199L31.8138 14.8146L28.2394 19.3308L28.7251 19.7152L32.2995 15.199Z" fill="black"/>
<path d="M34.2474 15.1988L33.7617 14.8144L30.1873 19.3306L30.673 19.715L34.2474 15.1988Z" fill="black"/>
<path d="M24.582 16.3649L24.0869 16.7371L27.5483 21.3405L28.0434 20.9683L24.582 16.3649Z" fill="black"/>
<path d="M26.378 14.49L25.8829 14.8622L29.3443 19.4656L29.8394 19.0934L26.378 14.49Z" fill="black"/>
<path d="M25.025 14.7711L24.53 15.1434L27.9913 19.7468L28.4864 19.3746L25.025 14.7711Z" fill="black"/>
<path d="M35.1808 16.3726L34.6857 16.7448L38.1471 21.3483L38.6422 20.976L35.1808 16.3726Z" fill="black"/>
<path d="M36.837 14.3107L36.342 14.6829L40.2532 19.8846L40.7482 19.5123L36.837 14.3107Z" fill="black"/>
<path d="M35.624 14.777L35.1289 15.1493L38.5903 19.7527L39.0854 19.3805L35.624 14.777Z" fill="black"/>
<path d="M20.1443 11.5629L19.7341 11.0989L15.4191 14.9138L15.8293 15.3778L20.1443 11.5629Z" fill="black"/>
</svg>
