<svg width="93" height="93" viewBox="0 0 93 93" fill="none" xmlns="http://www.w3.org/2000/svg">
<path d="M44.4146 51.3373H10.8114C9.65184 51.3373 8.71179 52.2657 8.71179 53.411V86.5989C8.71179 87.7442 9.65184 88.6726 10.8114 88.6726H44.4146C45.5742 88.6726 46.5143 87.7442 46.5143 86.5989V53.411C46.5143 52.2657 45.5742 51.3373 44.4146 51.3373Z" fill="#00FFAF"/>
<path d="M87.7312 32.6738H66.7346C66.0087 32.6738 65.4202 33.2551 65.4202 33.9721V54.7091C65.4202 55.4261 66.0087 56.0073 66.7346 56.0073H87.7312C88.4572 56.0073 89.0457 55.4261 89.0457 54.7091V33.9721C89.0457 33.2551 88.4572 32.6738 87.7312 32.6738Z" fill="#861BE3"/>
<path d="M55.9711 44.3407V38.503C55.9711 36.5687 54.3832 35.0004 52.4247 35.0004H40.6119C38.6534 35.0004 37.0654 36.5687 37.0654 38.503V44.3407" stroke="#1D2633" stroke-width="5.41" stroke-miterlimit="10"/>
<path d="M27.6079 46.6755H25.2437V63.0125C25.2437 64.302 26.3022 65.3476 27.6079 65.3476H29.9723V49.0106C29.9723 47.7211 28.9136 46.6755 27.6079 46.6755Z" fill="#1D2633"/>
<path d="M34.7015 53.6724H18.1602V56.0075C18.1602 57.297 19.2187 58.3426 20.5244 58.3426H37.0658V56.0075C37.0658 54.7179 36.0072 53.6724 34.7015 53.6724Z" fill="#1D2633"/>
<path d="M59.5089 53.6722H57.1445C56.4917 53.6722 55.9624 54.195 55.9624 54.8398V57.1749C55.9624 57.8197 56.4917 58.3424 57.1445 58.3424H59.5089C60.1617 58.3424 60.691 57.8197 60.691 57.1749V54.8398C60.691 54.195 60.1617 53.6722 59.5089 53.6722Z" fill="#1D2633"/>
<path d="M73.6861 53.6724H71.3219C70.6691 53.6724 70.1398 54.1951 70.1398 54.8399V57.175C70.1398 57.8198 70.6691 58.3426 71.3219 58.3426H73.6861C74.339 58.3426 74.8684 57.8198 74.8684 57.175V54.8399C74.8684 54.1951 74.339 53.6724 73.6861 53.6724Z" fill="#1D2633"/>
<path d="M66.6019 46.6757H64.2375C63.5847 46.6757 63.0554 47.1984 63.0554 47.8432V50.1783C63.0554 50.8231 63.5847 51.3458 64.2375 51.3458H66.6019C67.2547 51.3458 67.784 50.8231 67.784 50.1783V47.8432C67.784 47.1984 67.2547 46.6757 66.6019 46.6757Z" fill="#1D2633"/>
<path d="M66.6019 60.6776H64.2375C63.5847 60.6776 63.0554 61.2004 63.0554 61.8452V64.1803C63.0554 64.825 63.5847 65.3478 64.2375 65.3478H66.6019C67.2547 65.3478 67.784 64.825 67.784 64.1803V61.8452C67.784 61.2004 67.2547 60.6776 66.6019 60.6776Z" fill="#1D2633"/>
<path d="M32.3366 72.3443C34.9391 72.3443 37.0652 74.4354 37.0652 77.0144C37.0652 79.5935 34.9479 81.6846 32.3366 81.6846C29.7252 81.6846 27.608 79.5935 27.608 77.0144C27.608 74.4354 29.7252 72.3443 32.3366 72.3443ZM32.3366 67.6741C27.1139 67.6741 22.8882 71.8563 22.8882 77.0057C22.8882 82.1551 27.1227 86.3374 32.3366 86.3374C37.5504 86.3374 41.7851 82.1551 41.7851 77.0057C41.7851 71.8563 37.5504 67.6741 32.3366 67.6741V67.6741Z" fill="#1D2633"/>
<path d="M60.6903 72.3443C63.2928 72.3443 65.4189 74.4354 65.4189 77.0144C65.4189 79.5935 63.3017 81.6846 60.6903 81.6846C58.079 81.6846 55.9617 79.5935 55.9617 77.0144C55.9617 74.4354 58.079 72.3443 60.6903 72.3443ZM60.6903 67.6741C55.4677 67.6741 51.2419 71.8563 51.2419 77.0057C51.2419 82.1551 55.4765 86.3374 60.6903 86.3374C65.9042 86.3374 70.1388 82.1551 70.1388 77.0057C70.1388 71.8563 65.9042 67.6741 60.6903 67.6741V67.6741Z" fill="#1D2633"/>
<path d="M46.5139 32.6739V29.1887C46.5139 27.2457 48.1107 25.6773 50.0692 25.686L73.6682 25.7819C75.6356 25.7819 77.2235 24.2222 77.2235 22.2792V19.8222C77.2235 17.8879 75.6443 16.3282 73.6858 16.3195L19.3243 16.2062C17.3658 16.2062 15.7866 14.6379 15.7866 12.7036V10.4992C15.7866 8.56491 17.3834 6.99657 19.3419 6.99657L59.4911 7.10984C61.4496 7.10984 63.0465 5.5502 63.0465 3.6072V0" stroke="#1D2633" stroke-width="5.36" stroke-miterlimit="10"/>
<path d="M51.2429 70.0094H41.7946V72.3445C41.7946 73.634 42.8531 74.6796 44.1588 74.6796H48.8874C50.1931 74.6796 51.2518 73.634 51.2518 72.3445V70.0094H51.2429Z" fill="#1D2633"/>
<path d="M77.5321 37.3353H65.4193V38.5029C65.4193 40.4372 67.0073 42.0055 68.9658 42.0055H74.8942C75.4147 42.0055 75.8735 42.3453 76.0234 42.8333L87.5274 80.7001C87.6951 81.2403 87.4392 81.8154 86.9363 82.0768L76.6763 87.2872C76.1822 87.5398 75.5735 87.4091 75.2206 86.9822L72.4506 83.6015C71.736 82.7302 70.5008 82.4863 69.5039 83.0091L66.972 84.3334L73.3503 92.1316C74.0561 92.9942 75.2736 93.2469 76.2705 92.7415L91.7179 84.8998C92.7325 84.3857 93.2265 83.2269 92.9 82.1552L79.7905 38.9995C79.4905 38.0149 78.5731 37.3353 77.5233 37.3353H77.5321Z" fill="#1D2633"/>
<path d="M12.6373 39.0259L0.0923272 82.1902C-0.216445 83.2532 0.268721 84.3772 1.25679 84.8913L16.1573 92.7069C17.1453 93.2296 18.3717 92.9857 19.0862 92.1318L25.7557 84.1681L23.1972 82.8263C22.2092 82.3035 20.983 82.5475 20.2684 83.4013L17.2865 86.965C16.9248 87.3919 16.3161 87.5139 15.822 87.2525L6.01189 82.1118C5.51786 81.8504 5.27963 81.2928 5.42961 80.7613L16.4484 42.8596C16.5895 42.3629 17.0571 42.0144 17.5864 42.0144H24.0795C26.038 42.0144 27.6259 40.4461 27.6259 38.5118V37.3442H14.9222C13.8723 37.3442 12.9461 38.0326 12.6549 39.0346L12.6373 39.0259Z" fill="#1D2633"/>
<path d="M46.5144 43.8179C39.5361 43.8179 34.5869 41.3173 32.9372 38.9648C32.2491 37.9802 31.164 37.3354 29.9465 37.3354H27.6086C27.6086 43.4956 36.069 48.4881 46.5144 48.4881C56.9597 48.4881 65.42 43.4956 65.42 37.3354H63.0822C61.8648 37.3354 60.7796 37.9802 60.0915 38.9648C58.4418 41.3173 53.5014 43.8179 46.5144 43.8179V43.8179Z" fill="#1D2633"/>
</svg>
