<svg width="94" height="93" viewBox="0 0 94 93" fill="none" xmlns="http://www.w3.org/2000/svg">
<path d="M44.8142 51.3373H11.211C10.0514 51.3373 9.11133 52.2657 9.11133 53.411V86.5989C9.11133 87.7442 10.0514 88.6726 11.211 88.6726H44.8142C45.9738 88.6726 46.9138 87.7442 46.9138 86.5989V53.411C46.9138 52.2657 45.9738 51.3373 44.8142 51.3373Z" fill="#00FFAF"/>
<path d="M88.1307 32.6738H67.1342C66.4082 32.6738 65.8197 33.2551 65.8197 33.9721V54.7091C65.8197 55.4261 66.4082 56.0073 67.1342 56.0073H88.1307C88.8567 56.0073 89.4452 55.4261 89.4452 54.7091V33.9721C89.4452 33.2551 88.8567 32.6738 88.1307 32.6738Z" fill="#861BE3"/>
<path d="M56.3707 44.3407V38.503C56.3707 36.5687 54.7827 35.0004 52.8242 35.0004H41.0115C39.053 35.0004 37.465 36.5687 37.465 38.503V44.3407" stroke="white" stroke-width="5.41" stroke-miterlimit="10"/>
<path d="M28.0074 46.6755H25.6432V63.0125C25.6432 64.302 26.7018 65.3476 28.0074 65.3476H30.3718V49.0106C30.3718 47.7211 29.3131 46.6755 28.0074 46.6755Z" fill="white"/>
<path d="M35.1011 53.6724H18.5597V56.0075C18.5597 57.297 19.6183 58.3426 20.9239 58.3426H37.4653V56.0075C37.4653 54.7179 36.4067 53.6724 35.1011 53.6724Z" fill="white"/>
<path d="M59.9084 53.6722H57.5441C56.8912 53.6722 56.3619 54.195 56.3619 54.8398V57.1749C56.3619 57.8197 56.8912 58.3424 57.5441 58.3424H59.9084C60.5613 58.3424 61.0905 57.8197 61.0905 57.1749V54.8398C61.0905 54.195 60.5613 53.6722 59.9084 53.6722Z" fill="white"/>
<path d="M74.0857 53.6724H71.7214C71.0686 53.6724 70.5393 54.1951 70.5393 54.8399V57.175C70.5393 57.8198 71.0686 58.3426 71.7214 58.3426H74.0857C74.7385 58.3426 75.2679 57.8198 75.2679 57.175V54.8399C75.2679 54.1951 74.7385 53.6724 74.0857 53.6724Z" fill="white"/>
<path d="M67.0014 46.6757H64.6371C63.9842 46.6757 63.455 47.1984 63.455 47.8432V50.1783C63.455 50.8231 63.9842 51.3458 64.6371 51.3458H67.0014C67.6543 51.3458 68.1836 50.8231 68.1836 50.1783V47.8432C68.1836 47.1984 67.6543 46.6757 67.0014 46.6757Z" fill="white"/>
<path d="M67.0014 60.6776H64.6371C63.9842 60.6776 63.455 61.2004 63.455 61.8452V64.1803C63.455 64.825 63.9842 65.3478 64.6371 65.3478H67.0014C67.6543 65.3478 68.1836 64.825 68.1836 64.1803V61.8452C68.1836 61.2004 67.6543 60.6776 67.0014 60.6776Z" fill="white"/>
<path d="M32.7361 72.3443C35.3386 72.3443 37.4647 74.4354 37.4647 77.0144C37.4647 79.5935 35.3474 81.6846 32.7361 81.6846C30.1248 81.6846 28.0075 79.5935 28.0075 77.0144C28.0075 74.4354 30.1248 72.3443 32.7361 72.3443ZM32.7361 67.6741C27.5135 67.6741 23.2877 71.8563 23.2877 77.0057C23.2877 82.1551 27.5223 86.3374 32.7361 86.3374C37.9499 86.3374 42.1846 82.1551 42.1846 77.0057C42.1846 71.8563 37.9499 67.6741 32.7361 67.6741V67.6741Z" fill="white"/>
<path d="M61.0899 72.3443C63.6924 72.3443 65.8185 74.4354 65.8185 77.0144C65.8185 79.5935 63.7012 81.6846 61.0899 81.6846C58.4785 81.6846 56.3613 79.5935 56.3613 77.0144C56.3613 74.4354 58.4785 72.3443 61.0899 72.3443ZM61.0899 67.6741C55.8672 67.6741 51.6415 71.8563 51.6415 77.0057C51.6415 82.1551 55.876 86.3374 61.0899 86.3374C66.3037 86.3374 70.5384 82.1551 70.5384 77.0057C70.5384 71.8563 66.3037 67.6741 61.0899 67.6741V67.6741Z" fill="white"/>
<path d="M46.9135 32.6739V29.1887C46.9135 27.2457 48.5103 25.6773 50.4688 25.686L74.0678 25.7819C76.0351 25.7819 77.623 24.2222 77.623 22.2792V19.8222C77.623 17.8879 76.0438 16.3282 74.0853 16.3195L19.7238 16.2062C17.7653 16.2062 16.1862 14.6379 16.1862 12.7036V10.4992C16.1862 8.56491 17.783 6.99657 19.7415 6.99657L59.8907 7.10984C61.8492 7.10984 63.446 5.5502 63.446 3.6072V0" stroke="white" stroke-width="5.36" stroke-miterlimit="10"/>
<path d="M51.6425 70.0094H42.1941V72.3445C42.1941 73.634 43.2527 74.6796 44.5583 74.6796H49.287C50.5926 74.6796 51.6513 73.634 51.6513 72.3445V70.0094H51.6425Z" fill="white"/>
<path d="M77.9316 37.3353H65.8188V38.5029C65.8188 40.4372 67.4068 42.0055 69.3653 42.0055H75.2937C75.8142 42.0055 76.273 42.3453 76.423 42.8333L87.927 80.7001C88.0946 81.2403 87.8387 81.8154 87.3359 82.0768L77.0758 87.2872C76.5818 87.5398 75.973 87.4091 75.6201 86.9822L72.8501 83.6015C72.1355 82.7302 70.9004 82.4863 69.9035 83.0091L67.3715 84.3334L73.7499 92.1316C74.4556 92.9942 75.6731 93.2469 76.67 92.7415L92.1175 84.8998C93.132 84.3857 93.626 83.2269 93.2996 82.1552L80.19 38.9995C79.8901 38.0149 78.9726 37.3353 77.9228 37.3353H77.9316Z" fill="white"/>
<path d="M13.0368 39.0259L0.491863 82.1902C0.183091 83.2532 0.668257 84.3772 1.65633 84.8913L16.5568 92.7069C17.5449 93.2296 18.7712 92.9857 19.4858 92.1318L26.1552 84.1681L23.5968 82.8263C22.6087 82.3035 21.3825 82.5475 20.6679 83.4013L17.686 86.965C17.3243 87.3919 16.7156 87.5139 16.2216 87.2525L6.41143 82.1118C5.9174 81.8504 5.67917 81.2928 5.82914 80.7613L16.8479 42.8596C16.989 42.3629 17.4566 42.0144 17.986 42.0144H24.479C26.4375 42.0144 28.0255 40.4461 28.0255 38.5118V37.3442H15.3217C14.2719 37.3442 13.3456 38.0326 13.0545 39.0346L13.0368 39.0259Z" fill="white"/>
<path d="M46.9139 43.8179C39.9357 43.8179 34.9865 41.3173 33.3367 38.9648C32.6486 37.9802 31.5635 37.3354 30.346 37.3354H28.0082C28.0082 43.4956 36.4686 48.4881 46.9139 48.4881C57.3592 48.4881 65.8195 43.4956 65.8195 37.3354H63.4818C62.2643 37.3354 61.1792 37.9802 60.4911 38.9648C58.8413 41.3173 53.901 43.8179 46.9139 43.8179V43.8179Z" fill="white"/>
</svg>
