<svg width="38" height="33" viewBox="0 0 38 33" fill="none" xmlns="http://www.w3.org/2000/svg">
<mask id="mask0_2_15776" style="mask-type:luminance" maskUnits="userSpaceOnUse" x="0" y="0" width="38" height="33">
<path d="M37.6988 0H0V32.9868H37.6988V0Z" fill="white"/>
</mask>
<g mask="url(#mask0_2_15776)">
<mask id="mask1_2_15776" style="mask-type:luminance" maskUnits="userSpaceOnUse" x="0" y="0" width="38" height="33">
<path d="M37.6988 0H0V32.9868H37.6988V0Z" fill="white"/>
</mask>
<g mask="url(#mask1_2_15776)">
<path d="M24.909 0C22.8019 0 20.7054 0.53564 18.8494 1.53125C16.9933 0.53564 14.8969 0 12.7899 0C5.73688 0 0 5.73926 0 12.792C0 18.4468 3.75851 23.1709 6.91165 26.1387C10.0712 29.1123 14.0891 31.6919 17.1452 32.7109C17.6957 32.894 18.2694 32.9868 18.8494 32.9868C19.4294 32.9868 20.0031 32.894 20.5536 32.7109C23.6118 31.6919 27.6277 29.1104 30.7892 26.1387C33.9424 23.1709 37.7009 18.4468 37.7009 12.792C37.7009 5.73926 31.962 0 24.9111 0" fill="#1D2633"/>
</g>
</g>
<path d="M24.9091 2.69141C22.6987 2.69141 20.579 3.41895 18.8495 4.71387C17.1221 3.41895 15.0003 2.69141 12.79 2.69141C7.22183 2.69141 2.69141 7.22168 2.69141 12.79C2.69141 17.4829 5.99008 21.5723 8.75729 24.1748C11.611 26.8599 15.323 29.2622 17.9974 30.1543C18.2737 30.2471 18.5606 30.2935 18.8495 30.2935C19.1385 30.2935 19.4253 30.2471 19.7016 30.1543C22.376 29.2622 26.0902 26.8599 28.9418 24.1748C31.709 21.5703 35.0077 17.4829 35.0077 12.79C35.0077 7.22168 30.4772 2.69141 24.9091 2.69141Z" fill="#1D2633"/>
<mask id="mask2_2_15776" style="mask-type:luminance" maskUnits="userSpaceOnUse" x="5" y="5" width="28" height="23">
<path d="M18.8495 8.53564C17.5102 6.63134 15.2956 5.38477 12.79 5.38477C8.70035 5.38477 5.38477 8.7002 5.38477 12.79C5.38477 19.5225 14.8105 26.2544 18.8495 27.6001C22.8885 26.2544 32.3143 19.5225 32.3143 12.79C32.3143 8.7002 28.9987 5.38477 24.9091 5.38477C22.4034 5.38477 20.1909 6.63135 18.8495 8.53564Z" fill="white"/>
</mask>
<g mask="url(#mask2_2_15776)">
<path d="M27.8531 -4.62744L-2.87305 9.05908L9.8421 37.6045L40.5683 23.918L27.8531 -4.62744Z" fill="white"/>
</g>
</svg>
