<svg width="93" height="93" viewBox="0 0 93 93" fill="none" xmlns="http://www.w3.org/2000/svg">
<g clip-path="url(#clip0_100_340)">
<path d="M83.4944 -0.979004H60.1954C59.3899 -0.979004 58.7368 -0.325953 58.7368 0.479627V23.7786C58.7368 24.5842 59.3899 25.2372 60.1954 25.2372H83.4944C84.3 25.2372 84.9531 24.5842 84.9531 23.7786V0.479627C84.9531 -0.325953 84.3 -0.979004 83.4944 -0.979004Z" fill="#861BE3"/>
<path d="M44.5127 46.9895H7.22467C5.93791 46.9895 4.89478 48.0326 4.89478 49.3194V86.6075C4.89478 87.8943 5.93791 88.9374 7.22467 88.9374H44.5127C45.7995 88.9374 46.8426 87.8943 46.8426 86.6075V49.3194C46.8426 48.0326 45.7995 46.9895 44.5127 46.9895Z" fill="#00FFAF"/>
<path d="M77.5 58.125V11.625C58.838 29.4267 58.0359 43.8611 58.125 58.125H77.5ZM77.5 58.125V81.375H73.625V69.75M31 46.5V69.75M15.5 11.625H46.5L42.625 46.5H19.375L15.5 11.625ZM27.125 69.75H34.875V81.375H27.125V69.75Z" stroke="white" stroke-width="4" stroke-linecap="round" stroke-linejoin="round"/>
</g>
<defs>
<clipPath id="clip0_100_340">
<rect width="93" height="93" fill="white"/>
</clipPath>
</defs>
</svg>
