<svg width="93" height="93" viewBox="0 0 93 93" fill="none" xmlns="http://www.w3.org/2000/svg">
<g clip-path="url(#clip0_88_316)">
<path d="M83.29 0H59.49C58.6671 0 58 0.667095 58 1.49V25.29C58 26.1129 58.6671 26.78 59.49 26.78H83.29C84.1129 26.78 84.78 26.1129 84.78 25.29V1.49C84.78 0.667095 84.1129 0 83.29 0Z" fill="#861BE3"/>
<path d="M41.47 53H3.38C2.06557 53 1 54.0656 1 55.38V93.47C1 94.7844 2.06557 95.85 3.38 95.85H41.47C42.7844 95.85 43.85 94.7844 43.85 93.47V55.38C43.85 54.0656 42.7844 53 41.47 53Z" fill="#00FFAF"/>
<path fill-rule="evenodd" clip-rule="evenodd" d="M48.825 44.5741L63.9026 59.6517L60.6166 62.9416L44.175 46.5V23.25H48.825V44.5741ZM46.5 85.25C25.0984 85.25 7.75 67.9016 7.75 46.5C7.75 25.0984 25.0984 7.75 46.5 7.75C67.9016 7.75 85.25 25.0984 85.25 46.5C85.25 67.9016 67.9016 85.25 46.5 85.25ZM46.5 80.6C55.5439 80.6 64.2174 77.0073 70.6123 70.6123C77.0073 64.2174 80.6 55.5439 80.6 46.5C80.6 37.4561 77.0073 28.7826 70.6123 22.3877C64.2174 15.9927 55.5439 12.4 46.5 12.4C37.4561 12.4 28.7826 15.9927 22.3877 22.3877C15.9927 28.7826 12.4 37.4561 12.4 46.5C12.4 55.5439 15.9927 64.2174 22.3877 70.6123C28.7826 77.0073 37.4561 80.6 46.5 80.6Z" fill="black"/>
</g>
<defs>
<clipPath id="clip0_88_316">
<rect width="93" height="93" fill="white"/>
</clipPath>
</defs>
</svg>
