<svg width="93" height="93" viewBox="0 0 93 93" fill="none" xmlns="http://www.w3.org/2000/svg">
<path d="M43.5337 7.8316H6.24567C4.95891 7.8316 3.91577 8.87473 3.91577 10.1615V47.4496C3.91577 48.7364 4.95891 49.7795 6.24567 49.7795H43.5337C44.8205 49.7795 45.8636 48.7364 45.8636 47.4496V10.1615C45.8636 8.87473 44.8205 7.8316 43.5337 7.8316Z" fill="#00FFAF"/>
<path d="M86.4313 59.7158H63.1323C62.3267 59.7158 61.6737 60.3689 61.6737 61.1745V84.4734C61.6737 85.279 62.3267 85.932 63.1323 85.932H86.4313C87.2369 85.932 87.8899 85.279 87.8899 84.4734V61.1745C87.8899 60.3689 87.2369 59.7158 86.4313 59.7158Z" fill="#861BE3"/>
<path d="M46.5 79.1391C44.8312 79.1391 43.4207 78.563 42.2685 77.4109C41.1163 76.2587 40.5403 74.8482 40.5403 73.1794C40.5403 71.5105 41.1163 70.0987 42.2685 68.944C43.4207 67.7892 44.8312 67.2132 46.5 67.2158C48.1688 67.2183 49.5793 67.7944 50.7315 68.944C51.8837 70.0936 52.4598 71.5041 52.4598 73.1755C52.4598 74.8469 51.8837 76.2587 50.7315 77.4109C49.5793 78.563 48.1688 79.1391 46.5 79.1391ZM46.5 44.7136C51.0467 44.7136 55.326 45.4886 59.3379 47.0386C63.3498 48.5886 66.9574 50.7444 70.1608 53.506C70.8066 54.0278 71.145 54.6827 71.176 55.4706C71.2096 56.256 70.9435 56.9328 70.3778 57.5011C69.8249 58.0514 69.152 58.3175 68.3589 58.2994C67.5658 58.2813 66.845 58.0191 66.1966 57.5127C63.5435 55.2885 60.5327 53.5422 57.164 52.2737C53.7953 51.0079 50.2407 50.375 46.5 50.375C42.7593 50.375 39.2047 51.0079 35.836 52.2737C32.4673 53.5396 29.4577 55.2859 26.8072 57.5127C26.1614 58.0191 25.4394 58.2774 24.6411 58.2877C23.848 58.2981 23.1764 58.0268 22.6261 57.474C22.0733 56.9082 21.8085 56.2327 21.8317 55.4474C21.855 54.662 22.1908 54.0072 22.8392 53.4827C26.0426 50.7186 29.6515 48.5667 33.666 47.027C37.6753 45.4847 41.9533 44.7136 46.5 44.7136ZM46.5 21.4636C54.374 21.4636 61.7055 22.8237 68.4945 25.544C75.2835 28.2668 81.3208 32.0514 86.6063 36.8977C87.2521 37.4454 87.5957 38.13 87.637 38.9515C87.6757 39.7704 87.4123 40.464 86.8465 41.0324C86.2446 41.6317 85.5342 41.8849 84.7152 41.7919C83.8937 41.7015 83.1355 41.363 82.4406 40.7766C77.6408 36.4702 72.177 33.1183 66.0494 30.721C59.9217 28.3237 53.4053 27.125 46.5 27.125C39.5948 27.125 33.0783 28.3237 26.9506 30.721C20.823 33.1183 15.3592 36.4702 10.5594 40.7766C9.86187 41.363 9.10496 41.7027 8.28862 41.7957C7.46712 41.8862 6.75671 41.6317 6.15737 41.0324C5.58904 40.464 5.32554 39.7704 5.36687 38.9515C5.40562 38.1326 5.74792 37.448 6.39375 36.8977C11.6792 32.0514 17.7165 28.2668 24.5055 25.544C31.2945 22.8263 38.626 21.4636 46.5 21.4636Z" fill="black"/>
</svg>
