<svg width="93" height="93" viewBox="0 0 93 93" fill="none" xmlns="http://www.w3.org/2000/svg">
<path d="M44.1036 53.8426H10.9105C9.765 53.8426 8.83643 54.8163 8.83643 56.0175V90.8251C8.83643 92.0263 9.765 93 10.9105 93H44.1036C45.2491 93 46.1776 92.0263 46.1776 90.8251V56.0175C46.1776 54.8163 45.2491 53.8426 44.1036 53.8426Z" fill="#00FFAF"/>
<path d="M82.2203 0H61.4801C60.763 0 60.1816 0.609609 60.1816 1.3616V23.1106C60.1816 23.8626 60.763 24.4722 61.4801 24.4722H82.2203C82.9374 24.4722 83.5188 23.8626 83.5188 23.1106V1.3616C83.5188 0.609609 82.9374 0 82.2203 0Z" fill="#861BE3"/>
<path d="M55.406 71.0499H37.6025C37.6025 73.6817 39.633 75.8109 42.1428 75.8109H50.8659C53.3756 75.8109 55.406 73.6817 55.406 71.0499V71.0499Z" fill="#1D2633"/>
<path d="M77.4973 27.7804H76.3296C75.6847 27.7804 75.1619 27.2321 75.1619 26.5559V25.3314C75.1619 23.9789 74.1161 22.8823 72.8264 22.8823H20.5051C19.2154 22.8823 18.1697 23.9789 18.1697 25.3314V26.5559C18.1697 27.2321 17.6468 27.7804 17.002 27.7804H15.8342C14.5445 27.7804 13.4988 28.877 13.4988 30.2295V56.3009C13.4988 57.6534 14.5445 58.75 15.8342 58.75H17.002C17.6468 58.75 18.1697 59.2982 18.1697 59.9745V61.199C18.1697 62.5515 19.2154 63.6481 20.5051 63.6481H52.0164V61.199C52.0164 59.8465 50.9707 58.75 49.681 58.75H19.3374C18.6926 58.75 18.1697 58.2017 18.1697 57.5254V29.005C18.1697 28.3287 18.6926 27.7804 19.3374 27.7804H73.9941C74.639 27.7804 75.1619 28.3287 75.1619 29.005V57.5163C75.1619 58.1925 74.639 58.7408 73.9941 58.7408H44.8183C43.5286 58.7408 42.4829 59.8374 42.4829 61.1899V63.6389H72.8264C74.1161 63.6389 75.1619 62.5423 75.1619 61.1899V59.9653C75.1619 59.2891 75.6847 58.7408 76.3296 58.7408H77.4973C78.787 58.7408 79.8328 57.6442 79.8328 56.2918V30.2203C79.8328 28.8679 78.787 27.7713 77.4973 27.7713V27.7804Z" fill="#1D2633"/>
<path d="M85.863 19.5832H84.6953C84.0504 19.5832 83.5275 19.0349 83.5275 18.3587V17.1342C83.5275 15.7817 82.4818 14.6851 81.1921 14.6851H11.1719C9.8822 14.6851 8.83643 15.7817 8.83643 17.1342V18.3587C8.83643 19.0349 8.3136 19.5832 7.66873 19.5832H6.50098C5.21125 19.5832 4.16553 20.6798 4.16553 22.0323V66.0878C4.16553 67.4402 5.21125 68.5368 6.50098 68.5368H7.66873C8.3136 68.5368 8.83643 69.0851 8.83643 69.7613V70.9859C8.83643 72.3383 9.8822 73.4349 11.1719 73.4349H42.6832V70.9859C42.6832 69.6334 41.6374 68.5368 40.3477 68.5368H10.0042C9.35932 68.5368 8.83643 67.9885 8.83643 67.3123V20.8077C8.83643 20.1315 9.35932 19.5832 10.0042 19.5832H82.3598C83.0047 19.5832 83.5275 20.1315 83.5275 20.8077V67.3123C83.5275 67.9885 83.0047 68.5368 82.3598 68.5368H35.4851C34.1953 68.5368 33.1496 69.6334 33.1496 70.9859V73.4349H81.1921C82.4818 73.4349 83.5275 72.3383 83.5275 70.9859V69.7613C83.5275 69.0851 84.0504 68.5368 84.6953 68.5368H85.863C87.1527 68.5368 88.1984 67.4402 88.1984 66.0878V22.0323C88.1984 20.6798 87.1527 19.5832 85.863 19.5832Z" fill="#1D2633"/>
<path d="M90.1853 75.8018C89.1918 75.8018 88.3465 76.478 87.9805 77.4466C87.2311 79.4296 85.3837 80.8461 83.2312 80.8461H9.7688C7.60763 80.8461 5.76894 79.4388 5.0195 77.4466C4.6535 76.478 3.80817 75.8018 2.81473 75.8018H0C0.165574 81.3121 4.47045 85.735 9.7688 85.735H83.2312C88.5295 85.735 92.8344 81.3121 93 75.8018H90.1853Z" fill="#1D2633"/>
<path d="M22.8403 39.1573H43.8508C45.1405 39.1573 46.1862 40.2539 46.1862 41.6064V44.0555H25.1758C23.8861 44.0555 22.8403 42.9589 22.8403 41.6064V39.1573Z" fill="#1D2633"/>
<path d="M0.00872291 68.6008H92.8606V71.0498C92.8606 72.4023 91.8149 73.4989 90.5251 73.4989H2.33545C1.04572 73.4989 0 72.4023 0 71.0498V68.6008H0.00872291Z" fill="#1D2633"/>
<path d="M22.8403 48.9536H53.0706C54.3603 48.9536 55.406 50.0501 55.406 51.4026V53.8517H25.1758C23.8861 53.8517 22.8403 52.7551 22.8403 51.4026V48.9536V48.9536Z" fill="#1D2633"/>
</svg>
