<svg width="94" height="93" viewBox="0 0 94 93" fill="none" xmlns="http://www.w3.org/2000/svg">
<path d="M45.0046 53.8426H11.8115C10.666 53.8426 9.73743 54.8163 9.73743 56.0175V90.8251C9.73743 92.0263 10.666 93 11.8115 93H45.0046C46.1501 93 47.0786 92.0263 47.0786 90.8251V56.0175C47.0786 54.8163 46.1501 53.8426 45.0046 53.8426Z" fill="#00FFAF"/>
<path d="M83.1213 0H62.3811C61.664 0 61.0826 0.609609 61.0826 1.3616V23.1106C61.0826 23.8626 61.664 24.4722 62.3811 24.4722H83.1213C83.8384 24.4722 84.4198 23.8626 84.4198 23.1106V1.3616C84.4198 0.609609 83.8384 0 83.1213 0Z" fill="#861BE3"/>
<path d="M56.307 71.0499H38.5035C38.5035 73.6817 40.534 75.8109 43.0438 75.8109H51.7669C54.2766 75.8109 56.307 73.6817 56.307 71.0499V71.0499Z" fill="white"/>
<path d="M78.3983 27.7804H77.2306C76.5857 27.7804 76.0629 27.2321 76.0629 26.5559V25.3314C76.0629 23.9789 75.0171 22.8823 73.7274 22.8823H21.4061C20.1164 22.8823 19.0707 23.9789 19.0707 25.3314V26.5559C19.0707 27.2321 18.5478 27.7804 17.903 27.7804H16.7352C15.4455 27.7804 14.3998 28.877 14.3998 30.2295V56.3009C14.3998 57.6534 15.4455 58.75 16.7352 58.75H17.903C18.5478 58.75 19.0707 59.2982 19.0707 59.9745V61.199C19.0707 62.5515 20.1164 63.6481 21.4061 63.6481H52.9174V61.199C52.9174 59.8465 51.8717 58.75 50.582 58.75H20.2384C19.5936 58.75 19.0707 58.2017 19.0707 57.5254V29.005C19.0707 28.3287 19.5936 27.7804 20.2384 27.7804H74.8951C75.54 27.7804 76.0629 28.3287 76.0629 29.005V57.5163C76.0629 58.1925 75.54 58.7408 74.8951 58.7408H45.7193C44.4296 58.7408 43.3839 59.8374 43.3839 61.1899V63.6389H73.7274C75.0171 63.6389 76.0629 62.5423 76.0629 61.1899V59.9653C76.0629 59.2891 76.5857 58.7408 77.2306 58.7408H78.3983C79.688 58.7408 80.7338 57.6442 80.7338 56.2918V30.2203C80.7338 28.8679 79.688 27.7713 78.3983 27.7713V27.7804Z" fill="white"/>
<path d="M86.764 19.5832H85.5963C84.9514 19.5832 84.4285 19.0349 84.4285 18.3587V17.1342C84.4285 15.7817 83.3828 14.6851 82.0931 14.6851H12.0729C10.7832 14.6851 9.73743 15.7817 9.73743 17.1342V18.3587C9.73743 19.0349 9.2146 19.5832 8.56973 19.5832H7.40198C6.11225 19.5832 5.06653 20.6798 5.06653 22.0323V66.0878C5.06653 67.4402 6.11225 68.5368 7.40198 68.5368H8.56973C9.2146 68.5368 9.73743 69.0851 9.73743 69.7613V70.9859C9.73743 72.3383 10.7832 73.4349 12.0729 73.4349H43.5842V70.9859C43.5842 69.6334 42.5384 68.5368 41.2487 68.5368H10.9052C10.2603 68.5368 9.73743 67.9885 9.73743 67.3123V20.8077C9.73743 20.1315 10.2603 19.5832 10.9052 19.5832H83.2608C83.9057 19.5832 84.4285 20.1315 84.4285 20.8077V67.3123C84.4285 67.9885 83.9057 68.5368 83.2608 68.5368H36.3861C35.0963 68.5368 34.0506 69.6334 34.0506 70.9859V73.4349H82.0931C83.3828 73.4349 84.4285 72.3383 84.4285 70.9859V69.7613C84.4285 69.0851 84.9514 68.5368 85.5963 68.5368H86.764C88.0537 68.5368 89.0994 67.4402 89.0994 66.0878V22.0323C89.0994 20.6798 88.0537 19.5832 86.764 19.5832Z" fill="white"/>
<path d="M91.0863 75.8018C90.0928 75.8018 89.2475 76.478 88.8815 77.4466C88.1321 79.4296 86.2847 80.8461 84.1322 80.8461H10.6698C8.50863 80.8461 6.66994 79.4388 5.9205 77.4466C5.5545 76.478 4.70917 75.8018 3.71573 75.8018H0.901001C1.06657 81.3121 5.37145 85.735 10.6698 85.735H84.1322C89.4305 85.735 93.7354 81.3121 93.901 75.8018H91.0863Z" fill="white"/>
<path d="M23.7413 39.1573H44.7518C46.0415 39.1573 47.0872 40.2539 47.0872 41.6064V44.0555H26.0768C24.7871 44.0555 23.7413 42.9589 23.7413 41.6064V39.1573Z" fill="white"/>
<path d="M0.909724 68.6008H93.7616V71.0498C93.7616 72.4023 92.7159 73.4989 91.4261 73.4989H3.23645C1.94672 73.4989 0.901001 72.4023 0.901001 71.0498V68.6008H0.909724Z" fill="white"/>
<path d="M23.7413 48.9536H53.9716C55.2613 48.9536 56.307 50.0501 56.307 51.4026V53.8517H26.0768C24.7871 53.8517 23.7413 52.7551 23.7413 51.4026V48.9536V48.9536Z" fill="white"/>
</svg>
